<svg width="435" height="512" viewBox="0 0 435 512" fill="none" xmlns="http://www.w3.org/2000/svg">
<g clip-path="url(#clip0_1_2198)">
<path d="M217.51 2.00098C285.267 2.00098 350.473 16.0014 412.07 43.5021C424.816 95.4996 432.882 149.503 433.097 185.001C433.097 186.001 433.097 186.501 433.097 187C433.097 222 427.996 256.5 418.013 289.003C408.243 320.999 393.803 350.999 374.899 379.001C356.207 406.002 333.268 431 306.718 453.002C278.469 476.499 245.122 498 217.509 510.004C190.112 498 156.763 476.499 128.516 453.002C101.967 431 79.0274 406.002 60.3336 379.001C41.4297 350.999 26.99 320.999 17.2194 289.003C7.23697 256.5 2.1355 222 2.1355 187C2.1355 186.501 2.1355 186.001 2.1355 185.001C2.35428 149.503 10.4215 95.5014 23.1682 43.5021C84.7644 16.0014 149.967 2.00098 217.51 2.00098Z" fill="white"/>
<path d="M217.51 202.004C232.594 202.004 246.612 206.001 258.93 213.002H384.454C384.67 204.001 384.454 194.002 384.244 185.001C383.605 146.5 372.35 81.5027 361.305 36.501C316.913 22.0005 269.124 13.501 217.726 13.501" fill="#DA140A"/>
<path d="M217.726 14.001C167.175 14.001 120.872 21.4986 73.9312 36.5009C62.4624 82.9994 52.9037 145 51.4156 174.503C49.2937 218.003 52.4765 249.502 61.1862 283.506C66.0723 303.002 72.4448 321.001 80.7291 339.502C89.6506 335.003 98.994 329.002 108.336 322.005C118.108 314.503 126.606 305.5 133.614 296.502C133.402 293.004 133.192 289.998 133.192 286.499C133.192 281.504 133.614 276.496 134.463 272.004C117.049 272.5 107.277 272.5 99.4194 272.5C90.0708 272.5 81.5782 266.003 77.5411 256C75.414 256 73.0821 256 73.0821 256C69.8976 256 64.1606 253.499 64.1606 242.499C64.1606 232.001 69.8958 229.501 73.0821 229.501C73.0821 229.501 75.4158 229.501 77.5411 229.501C81.5764 219.501 90.0708 213.002 99.4194 213.002H176.516C188.624 206.001 202.642 202.004 217.724 202.004" fill="#EE120B"/>
<path d="M141.259 436.501C117.474 412.999 97.9331 387.004 82.4255 359.001C66.7096 331.002 55.4509 299.502 48.8666 268.003C42.0704 235.501 39.9451 202.501 42.2823 168C44.4093 135.5 52.9037 85.9993 63.5234 40.001C53.5409 43.5015 43.3432 47.5004 33.3608 52.0011C22.1073 97.001 14.2467 154.003 14.0349 185.002C14.0349 220.002 18.9193 253.501 28.4746 285.004C38.6723 318.504 52.263 345.504 70.3161 372.005C88.1608 398.505 110.461 422.5 136.159 444.002C160.165 464.001 187.773 481.502 217.509 496.505C189.051 479.004 163.348 459.004 141.259 436.501Z" fill="#163A76"/>
<path d="M293.973 436.501C317.762 412.999 337.305 387.004 352.811 359.001C368.528 331.002 379.785 299.502 386.369 268.003C393.166 235.501 395.291 202.501 392.954 168C390.827 135.5 382.122 85.4992 371.503 40.001C381.697 43.5015 391.895 47.5004 401.877 52.0011C413.131 97.001 420.991 154.003 420.991 185.002C421.203 220.002 416.317 253.501 406.546 285.004C397.203 316.005 383.185 345.008 364.92 372.005C346.865 398.505 324.775 422.5 299.07 444.002C275.071 464.001 247.461 481.502 217.51 496.505C245.973 479.004 271.888 459.004 293.973 436.501Z" fill="#163A76"/>
<path d="M217.51 206.5C173.12 206.5 137.227 242.499 137.227 286.498C137.227 331.002 173.12 366.998 217.51 366.998C261.901 366.998 297.799 331.002 297.799 286.498C297.799 242.5 261.901 206.5 217.51 206.5Z" fill="#8D6E26"/>
<path d="M217.51 371.001C190.324 371.001 166.112 358.002 150.608 337.999C131.704 349.001 111.951 357.499 92.8369 363.501C107.917 389.503 126.392 414.005 148.91 436.502C169.085 457.005 192.024 475.501 217.512 492.002" fill="#EE120B"/>
<path d="M99.4194 268.502C90.7098 268.502 83.2746 261.501 80.3002 252.001C76.692 252.001 73.0821 252.001 73.0821 252.001C71.1669 252.001 68.4095 249.502 68.4095 243.001C68.4095 236.002 71.1669 233.5 73.0821 233.5C73.0821 233.5 76.692 233.5 80.3002 233.5C83.2746 224 90.7098 216.999 99.4194 216.999H169.51C152.516 228.999 139.986 246.5 135.312 267.5C119.594 268.003 107.704 268.502 99.4194 268.502Z" fill="#8D6E26"/>
<path d="M413.769 41.5011C354.086 15.0006 288.456 0 217.511 0C146.782 0 81.1504 15.0006 21.4694 41.5011C7.6635 97.501 0.230072 151.501 0.0182343 185C0.0182343 220.999 4.90266 256.001 15.0969 289.501C25.0793 321.502 39.7361 352 58.64 379.504C77.3321 407.003 100.483 432.5 127.246 454.498C152.309 475.5 186.507 498.503 217.511 511.998C248.733 498.503 282.721 475.498 307.992 454.498C334.757 432.5 357.908 407.001 376.6 379.504C395.504 352 410.159 321.502 420.141 289.501C430.124 256.001 435.222 221.001 435.01 185C435.01 151.501 427.575 97.501 413.769 41.5011ZM364.919 372.005C347.076 398.002 324.774 422.5 299.069 444.002C275.071 464.001 247.46 481.502 217.51 496.003C187.774 481.501 160.168 464 136.161 444.002C110.46 422.5 88.1602 398.002 70.3172 372.005C68.8308 370.008 67.348 367.502 66.0717 365.502C92.1972 361 121.294 350.001 148.058 334.501C141.474 325.003 136.589 314.005 134.462 302.003C127.668 310.506 119.806 318.503 110.674 325.505C95.8054 336.501 77.9676 347.504 58.6383 353.5C45.8915 332.004 35.9109 309.004 28.4757 285.004C18.9204 253.5 14.036 220.002 14.036 185.002C14.2478 154.003 22.1084 97.0009 33.3619 52.001C91.5617 26.5006 153.582 14.0004 217.511 14.0004C281.655 14.0004 343.678 26.5006 401.878 51.9993C413.132 96.9992 420.992 154.001 421.204 185C421.204 196 420.78 206.5 419.716 217H265.305C284.421 230.5 298.013 251.002 301.198 275L330.723 268.003C337.308 266.501 339.855 262.002 340.704 258.001L414.62 252.999C412.493 264.002 409.735 274.502 406.763 285.002C397.202 316.003 383.184 345.006 364.919 372.005Z" fill="#8D6E26"/>
<path d="M222.822 309.002V352C242.997 350.505 260.628 339.502 271.673 324.001L234.082 302.505C231.106 305.5 227.281 308.002 222.822 309.002Z" fill="white"/>
<path d="M212.202 221.001C192.022 223.001 174.396 233.501 163.563 249.502L200.942 271C203.918 267.501 207.738 265.501 212.201 264.502" fill="white"/>
<path d="M217.51 275.001C211.143 275.001 205.83 280.002 205.83 286.499C205.83 293.004 211.143 298.503 217.51 298.503C224.095 298.503 229.194 293.004 229.194 286.499C229.194 280.002 224.095 275.001 217.51 275.001Z" fill="white"/>
<path d="M222.822 221.001V264.502C227.279 265.501 231.318 267.503 234.291 271L271.671 249.502C260.63 233.501 242.999 223.001 222.822 221.001Z" fill="white"/>
<path d="M212.202 309.002C208.589 308.002 205.406 306.504 202.642 304C202.22 303.498 201.583 303 200.942 302.505L163.563 324.001C164.412 325.503 165.263 326.498 166.324 327.503C177.154 341.504 193.72 350.505 212.202 352" fill="white"/>
<path d="M239.389 293.005L276.983 314.999C284.201 299.504 286.328 278.001 276.983 258.503L239.599 280.003C240.665 284.003 240.877 288.501 239.389 293.005Z" fill="white"/>
<path d="M169.722 248.003L200.305 265.5C202.642 264.004 205.189 262.503 207.953 261.001V226.003C192.871 228.5 179.281 236.003 169.722 248.003Z" fill="#8D6E26"/>
<path d="M227.071 226.003V261.5C229.83 262.503 232.379 264.002 234.716 265.5L265.302 248.003C255.744 236.003 242.148 228.5 227.071 226.003Z" fill="#8D6E26"/>
<path d="M278.683 280.498C278.256 275.001 276.983 269.502 274.858 264.501L244.275 282.002C244.487 283.504 244.697 285.002 244.697 286.499C244.697 287.003 244.697 288.003 244.697 288.499C253.196 286.003 262.328 284.002 271.673 282.002C273.798 281.505 276.347 281.004 278.683 280.498Z" fill="#8D6E26"/>
<path d="M217.51 492C242.999 475.499 266.15 457.004 286.33 436.5C310.118 412.999 329.659 386.501 344.95 358.506C360.458 330.002 371.503 298.502 378.089 266.997C378.509 264.5 378.936 262.002 379.358 259.503L343.889 262.002C341.977 266.997 337.732 270.999 331.78 272.005C331.569 272.005 318.611 275.504 301.622 279.502C301.834 281.503 302.044 284.003 302.044 286.498C302.044 333.504 264.238 370.999 217.509 370.999" fill="#DA140A"/>
<path d="M224.944 286.501C224.944 282.5 221.756 279.003 217.51 279.003C213.475 279.003 210.077 282.502 210.077 286.501C210.077 291.006 213.475 294 217.51 294C221.756 294 224.944 291.005 224.944 286.501Z" fill="#8D6E26"/>
<path d="M227.071 347.503C242.149 345.006 255.745 337.003 265.304 325.503L234.718 307.5C232.379 309.499 229.832 311.002 227.073 312.002V347.503" fill="#D40026"/>
<path d="M169.722 325.503L200.305 307.5C202.642 309.499 205.189 311.002 207.953 312.002V347.503C192.871 345.006 179.281 337.003 169.722 325.503Z" fill="#FE000C"/>
<path d="M279.105 286.5C279.105 286.004 279.105 285.004 278.895 284.5C276.768 284.5 274.43 285.004 272.31 285.507C262.967 287.506 254.044 289.999 245.973 291.999L274.858 309.004C277.618 302.001 279.105 294.502 279.105 286.5Z" fill="#D40026"/>
<path d="M158.041 258.503C149.545 277.002 149.969 297.504 158.251 314.999L195.635 293.005C194.361 289.004 194.361 284.5 195.635 280.003" fill="white"/>
<path d="M160.378 309.002L190.751 291.004C190.324 288.002 190.324 285.002 190.751 282.001L160.167 264.502C154.643 279.001 154.643 294.501 160.378 309.002Z" fill="#8D6E26"/>
<path d="M248.093 149.002C248.093 151.002 247.673 156.499 247.461 158.001H271.888C270.4 151.502 269.761 142.501 269.55 135.501C269.55 136.002 269.124 121.501 269.124 121.501C269.124 120.501 269.55 119.002 270.183 118.501C271.032 117.502 271.887 117.502 272.948 117.502C274.009 117.004 275.919 117.004 276.136 121.003L276.768 136.003C276.983 143.001 276.983 152.504 276.136 158.003H299.707C299.497 156.005 298.858 151.006 298.648 149.504C301.622 156.003 307.991 159.502 316.489 159.502C321.587 159.502 325.412 157.503 328.381 155.501C328.381 156.003 329.658 158.001 329.658 158.001H373.411C371.499 151.502 370.225 142.501 369.586 135.501L363.428 86.5009L340.911 82.5003C342.826 89.0013 344.097 98.501 344.946 105.002L348.345 136.502C348.984 142.002 349.409 148.002 349.409 154.503V155.001L348.56 153.004C346.86 149.002 346.011 143.999 345.374 136.502L344.525 126.5C343.248 110.499 334.542 103.502 315.423 103.502C312.235 103.502 304.169 104.002 299.283 105.502L300.554 123.5L305.652 120.497C309.903 118.001 313.091 117 316.909 117C319.885 117 321.795 118 322.646 119.999C319.036 120.497 315.001 121.498 310.537 123.5C303.741 126.5 299.495 130.999 297.583 136C297.583 136 297.583 136 297.583 135.5L296.946 118.999C296.519 108.499 289.723 101.5 279.315 101.5C274.646 101.5 270.397 103 266.573 105.502C266.362 105.002 266.146 104.502 265.934 104.002L265.085 102.002L245.544 101.001C246.393 104.504 247.671 114.502 247.881 118.004C246.822 113.003 244.061 107.501 238.96 103.502C234.923 101.001 229.826 99.5012 224.52 99.5012C217.299 99.5012 209.865 102.502 204.979 107.499C199.881 112.5 197.334 119.497 197.117 127.5C195.208 125.502 192.661 123.5 189.688 122.499L180.767 118.002H180.341C178.218 117.002 178.003 116.502 178.003 116.002C178.218 115.002 180.341 114.002 183.104 114.002C186.922 114.002 192.232 116.002 196.483 118.501L196.905 102.502C193.719 101.001 189.261 100.001 182.889 100.001C179.491 100.001 173.116 100.503 167.596 103.503C166.11 104.504 164.832 105.504 163.561 106.506L163.773 102.003C158.675 101.003 153.153 101.003 146.357 107.502C146.14 107.002 145.72 104.504 145.298 103.503L124.269 104.504C125.755 110.501 125.969 119.002 125.54 126.502L125.118 134.503V135.501C124.906 139.504 124.691 144.001 124.269 148.002C122.569 142.501 120.66 135.001 119.171 129.004L108.761 82.002L79.0274 86.5009C79.2392 87.0027 79.6647 88.5029 79.8765 90.0014C80.0883 92.0017 80.0883 96.0006 77.3275 104.504C72.4413 118.004 65.6469 138.504 59.0626 153.006C58.2135 155.003 56.5101 158.003 56.5101 158.003H79.6647C80.0883 154.504 81.5764 148.503 83.0627 144.003C86.249 144.003 94.5315 144.003 98.3533 143.504C99.2024 147.005 100.053 151.504 100.268 154.506L100.69 158.005H146.998C145.932 150.507 146.359 140.507 146.781 135.005C147.208 128.506 148.481 124.005 151.243 121.505C153.365 119.006 155.702 118.504 157.402 118.504C157.19 127.505 162.926 131.504 168.022 134.005L177.153 138.507C180.341 140.507 180.341 141.006 180.341 142.008C180.13 143.506 177.581 144.004 175.243 144.004C170.359 144.004 163.775 141.006 156.551 133.005L156.128 154.008C161.863 157.006 169.081 158.507 175.454 158.507C186.073 158.507 197.334 153.508 200.305 144.004C205.618 154.008 216.026 158.507 226.22 158.507C235.353 158.501 242.148 155.499 248.093 149.002ZM88.5844 128.5C89.8607 125 90.9216 122.001 92.8351 116.502C94.1078 122.001 94.7468 125.502 95.3841 128.002C92.8351 128.5 91.5606 128.5 88.5844 128.5ZM218.575 123C218.575 116.002 221.124 113.001 223.673 113.001C224.522 113.001 226.432 112.5 227.281 116.002C227.708 117.5 227.92 118.499 227.92 119.001C227.92 121.001 226.859 121.499 225.581 121.499V122.001C225.581 122.001 221.973 123 218.575 124.5C218.575 124.001 218.575 123.5 218.575 123ZM242.787 137.502C238.328 141.504 235.141 143.999 229.828 143.999C225.581 143.501 223.032 141.001 221.546 137.502C226.006 136.002 243.212 129.502 248.091 127.5C248.091 131.501 248.308 136.002 248.308 136.002C248.308 139.002 248.308 142.002 248.308 144.501L242.787 137.502ZM322.009 144.499C317.977 144.499 317.124 141.502 316.911 139.502C317.123 137.502 317.76 134.501 324.134 132.501C324.346 135 324.561 137.002 324.561 137.002V139C324.771 140.502 324.771 142.002 324.983 143.501C324.136 143.999 323.075 143.999 322.009 144.499Z" fill="#8D6E26"/>
<path d="M193.298 105.002C191.171 104.502 187.985 103.502 182.89 103.502C178.853 103.502 173.545 104.502 169.51 106.504C164.836 109.503 161.438 113.502 161.226 118.004C160.799 125.002 164.412 128.004 169.722 130.503C173.335 132.501 176.732 134.503 178.853 135.502C181.618 137.002 184.167 138.504 183.95 142.003C183.741 145.501 180.553 148.002 175.245 148.002C170.781 148.002 164.414 145 159.949 141.002L159.738 151.502C163.563 153.503 169.722 154.505 175.455 154.505C185.226 154.505 197.335 150.004 197.547 139.002C197.757 130.503 191.812 127.502 188.202 125.504C184.589 124.003 180.98 122.003 179.281 121.501C177.581 120.501 174.183 119.501 174.396 115.504C174.818 112.003 178.853 110.501 183.108 110.501C186.716 110.501 190.324 111.501 193.088 113.003" fill="white"/>
<path d="M106.004 86.499L83.4865 89.5012C83.9136 92.5017 83.0645 98.5008 80.7274 105.502C76.053 118.999 68.4078 141.502 62.4607 154.502H76.4785C77.3275 150.002 78.3902 146.001 80.5138 140.502L101.328 140C102.177 143.999 103.665 150.502 103.877 154.502H122.779C120.442 149.002 117.471 137.502 115.557 129.502L106.004 86.499ZM83.4865 131.999L93.6842 102.501L99.8414 131.501" fill="white"/>
<path d="M159.949 105.002L159.528 115.002C156.129 114.502 151.882 115.502 148.481 119.001C145.51 122.003 143.596 126.5 143.173 134.503C142.745 141.002 142.535 148.503 142.961 154.504H127.028C128.089 148.503 128.516 141.506 128.728 135.003L129.155 127.005C129.577 120.503 129.577 114.005 128.518 108.004L142.535 107.504C143.173 109.504 143.595 113.007 143.384 116.507C149.545 107.001 155.492 105.002 159.949 105.002Z" fill="white"/>
<path d="M360.244 89.5014L345.799 87.001C347.287 93.502 347.714 97.9992 348.563 104.502L351.961 136.002C352.6 142.501 353.232 148.502 353.021 154.503H368.738C367.255 148.502 366.616 142.501 365.979 136.002" fill="white"/>
<path d="M295.461 154.503C294.612 148.502 294.189 142.501 293.973 136.001L293.34 119.499C292.914 110.499 287.816 105.502 279.318 105.502C274.649 105.502 269.126 106.999 264.45 113.001C264.238 111.499 263.601 107.499 262.75 105.502L250.008 105.002C251.068 111.001 251.495 117.002 251.708 123.5L251.918 136C252.13 142.499 251.918 148.5 251.496 154.501H267.426C266.577 148.5 266.15 142.499 265.938 136L265.516 121.999C265.304 117 269.126 113.498 272.949 113.498C277.407 113.498 279.534 116.5 279.746 120.997L280.383 135.998C280.595 142.497 280.595 148.498 280.171 154.499" fill="white"/>
<path d="M345.164 154.503C343.248 149.502 342.189 143.501 341.762 137.002L340.913 127.002C340.064 115.002 334.968 106.999 315.425 106.999C312.028 106.999 307.14 107.499 303.105 108.499L303.742 117.501C307.779 115.002 311.815 113.002 316.911 113.002C322.224 113.002 326.682 115.5 327.11 123C322.009 123.5 317.338 124.5 312.027 127.002C306.08 129.501 299.922 134.501 300.556 142.501C301.193 151.502 307.99 155.499 316.489 155.499C323.073 155.499 327.531 152.501 330.08 149.502C330.507 151.501 331.144 153.004 331.78 154.503H345.164ZM322.009 148.002C317.34 148.002 313.513 145.501 313.303 140.002C313.303 134.503 316.701 130.003 327.531 128.502L328.17 137.004C328.38 140.004 328.38 142.004 328.807 144.501C327.322 146.502 324.773 147.502 322.009 148.002Z" fill="white"/>
<path d="M236.841 106.502C233.228 104.002 228.981 103 224.522 103C214.112 103 200.306 110.498 200.733 129.501C200.944 149 215.812 155.001 226.222 155.001C235.355 155.001 240.877 151.5 245.338 147.002L242.15 142.501C239.812 144.499 235.992 147.502 229.83 147.502C223.246 147.002 219 142.501 216.661 135.501L245.548 125.002C244.697 115.502 241.299 110.001 236.841 106.502ZM226.859 125.002L215.39 129.502C215.175 127.502 214.963 125.502 214.963 123.001C214.963 111.501 221.337 109.503 223.457 109.503C226.861 109.003 229.832 111.003 230.896 115.004C232.167 119.499 231.743 123.5 226.859 125.002Z" fill="white"/>
</g>
<defs>
<clipPath id="clip0_1_2198">
<rect width="434.992" height="512" fill="white" transform="translate(0.0182343)"/>
</clipPath>
</defs>
</svg>
