<svg width="512" height="512" viewBox="0 0 512 512" fill="none" xmlns="http://www.w3.org/2000/svg">
<g clip-path="url(#clip0_1_2371)">
<path d="M94.2962 47.0236V377.117C94.2962 423.057 153.849 439.608 201.723 452.911L201.955 452.989C212.164 455.85 221.832 458.557 230.494 461.341C230.572 461.341 240.239 464.59 248.747 470.236C251.454 472.014 254.161 474.18 256.326 476.114C258.956 473.793 261.508 471.86 263.906 470.236C272.104 464.899 281.153 461.728 282.158 461.419C290.821 458.557 300.488 455.85 310.697 453.066L310.929 452.989C358.804 439.686 418.357 423.135 418.357 377.194V47.0236C405.441 43.1565 344.418 26.2961 256.326 26.2961C168.157 26.2961 107.212 43.1565 94.2962 47.0236Z" fill="#94BEE5"/>
<path d="M256.326 496.609L248.669 489.416C245.73 486.709 242.946 484.389 240.548 482.842C233.82 478.434 225.854 475.727 225.776 475.727C217.501 473.02 207.988 470.313 197.856 467.529H197.701C172.643 460.568 144.258 452.679 121.675 439.995C108.604 432.648 98.859 424.527 91.8209 415.091C83.4681 403.954 79.2916 391.27 79.2916 377.271V36.1958L86.9484 33.6436C89.6554 32.7155 154.699 11.2919 256.326 11.2919C357.953 11.2919 422.997 32.7155 425.704 33.6436L433.361 36.1958V377.117C433.361 391.115 429.107 403.799 420.831 414.937C413.793 424.295 404.048 432.493 390.977 439.841C368.316 452.525 339.932 460.413 314.873 467.374H314.719C304.664 470.158 295.074 472.788 286.799 475.572C286.721 475.572 278.755 478.357 272.104 482.688C269.706 484.312 266.922 486.555 263.983 489.262L256.326 496.609ZM86.7937 41.5324V377.117C86.7937 389.414 90.5061 400.628 97.8536 410.451C104.273 418.958 113.244 426.461 125.387 433.267C147.197 445.564 175.118 453.298 199.712 460.104H199.867C210.076 462.966 219.666 465.595 228.096 468.38C228.483 468.534 236.991 471.396 244.57 476.346C247.354 478.202 250.525 480.754 253.696 483.77L256.249 486.168L258.801 483.77C262.049 480.754 265.143 478.202 267.927 476.346C275.584 471.318 284.324 468.38 284.401 468.38C292.909 465.595 302.499 462.888 312.708 460.104H312.863C337.535 453.298 365.377 445.486 387.188 433.267C399.33 426.461 408.302 418.958 414.721 410.451C422.069 400.628 425.781 389.414 425.781 377.117V41.5324L423.229 40.6816C420.599 39.8309 356.715 18.794 256.326 18.794C155.937 18.794 92.053 39.8309 89.346 40.6816L86.7937 41.5324Z" fill="#F0F0F0"/>
<path d="M256.326 486.323L253.774 483.925C251.531 481.837 248.128 478.821 244.648 476.5C236.991 471.473 228.251 468.534 228.174 468.534C219.744 465.75 210.153 463.12 200.022 460.259L199.79 460.181C175.195 453.375 147.275 445.564 125.465 433.344C99.4005 418.649 86.7939 400.319 86.7939 377.117V41.5324L89.3462 40.6816C89.9649 40.4496 155.937 18.794 256.326 18.794C308.764 18.794 351.301 24.7493 377.752 29.6991C406.523 35.113 422.61 40.4496 423.306 40.6816L425.859 41.5324V377.117C425.859 400.319 413.252 418.649 387.265 433.267C365.455 445.564 337.535 453.298 312.94 460.104L312.708 460.181C302.576 462.966 292.986 465.673 284.478 468.457C284.169 468.534 275.507 471.55 268.005 476.423C265.22 478.202 262.127 480.831 258.878 483.848L256.326 486.323ZM94.296 47.0236V377.117C94.296 423.057 153.849 439.608 201.723 452.911L201.955 452.989C212.164 455.85 221.832 458.557 230.494 461.341C230.572 461.341 240.239 464.59 248.747 470.236C251.454 472.015 254.161 474.18 256.326 476.114C258.956 473.793 261.508 471.86 263.906 470.236C272.104 464.899 281.153 461.728 282.158 461.419C290.82 458.557 300.488 455.85 310.697 453.066L310.929 452.989C358.804 439.686 418.356 423.135 418.356 377.194V47.0236C405.44 43.1565 344.418 26.2961 256.326 26.2961C168.157 26.2961 107.212 43.1565 94.296 47.0236Z" fill="#480024"/>
<path d="M137.685 80.5124L147.662 75.1758L157.561 80.5124L155.628 69.2979L163.671 61.3317L152.611 59.7076L147.662 49.4985L142.634 59.7076L131.575 61.3317L139.618 69.2979L137.685 80.5124Z" fill="white"/>
<path d="M201.646 163.732C206.131 163.732 208.916 161.412 211.313 158.163C210.463 158.009 209.689 157.931 208.916 157.776C205.435 162.34 200.64 163.732 201.646 163.732Z" fill="#7DA3C9"/>
<path d="M220.44 208.822C205.59 209.441 187.493 216.015 180.068 223.362C173.648 229.781 178.521 237.747 172.334 243.857C171.328 245.868 171.406 248.653 171.406 250.509C174.422 249.426 175.737 246.874 175.737 246.874C175.737 246.874 176.046 251.205 180.377 251.669C181.305 255.536 183.78 258.784 184.554 258.784C185.095 258.784 184.012 253.525 185.636 250.199C186.719 249.117 187.415 248.034 187.957 246.796C187.261 244.863 187.415 243.007 187.647 242.311C187.725 242.156 187.879 242.079 187.957 242.233C188.189 242.465 188.575 242.697 189.039 243.007C189.735 238.521 189.271 233.803 193.371 229.704C199.558 223.517 213.402 217.871 226.473 215.86C224.384 213.385 222.296 210.91 220.44 208.822Z" fill="#7DA3C9"/>
<path d="M232.118 120.034C230.107 120.653 222.219 126.608 219.202 129.624C218.042 130.784 220.208 133.878 219.744 134.342C219.744 134.342 219.666 134.419 219.512 134.419C218.738 134.419 218.042 134.187 217.346 133.801C218.042 136.894 221.136 140.22 223.611 142.231C226.859 139.601 230.107 137.668 232.737 135.58C233.433 134.883 234.284 134.187 235.289 133.337C237.145 131.326 238.383 129.083 238.383 125.835C238.46 121.735 236.295 118.719 232.118 120.034Z" fill="#7DA3C9"/>
<path d="M166.146 257.392C166.92 257.392 165.992 253.37 167.693 250.818C168.08 250.895 168.467 250.973 168.853 250.973C169.085 250.973 169.395 250.973 169.627 250.895C168.699 249.581 167.616 247.57 167.152 245.404C164.367 245.095 163.285 243.239 162.821 241.924C162.589 243.316 162.821 245.095 163.517 246.642C161.274 251.128 165.141 257.392 166.146 257.392Z" fill="#7DA3C9"/>
<path d="M213.17 118.41C217.888 116.399 219.512 110.598 219.512 107.118C219.512 105.416 218.274 104.488 215.799 104.488C214.175 104.488 209.999 104.643 206.828 105.416C205.977 106.576 205.668 107.969 205.668 109.67C205.59 112.686 209.999 116.399 213.17 118.41Z" fill="#7DA3C9"/>
<path d="M252.46 276.109C252.46 263.038 260.426 258.243 260.426 249.967C260.426 248.111 259.188 244.708 258.492 243.857C258.415 243.857 258.492 243.935 258.492 243.935C260.89 251.746 254.702 254.299 250.217 266.828C244.648 268.375 238.693 273.17 238.693 281.677C238.693 290.649 245.653 297.146 251.995 297.146C253.001 297.146 253.774 296.836 254.238 296.682C254.316 296.682 254.316 296.682 254.393 296.682C252.846 294.207 251.918 291.268 251.918 287.942C251.918 285.622 252.382 283.534 253.156 281.755C252.692 280.208 252.46 278.352 252.46 276.109Z" fill="#7DA3C9"/>
<path d="M191.128 177.963C193.371 181.288 195.15 184.846 195.923 188.404C198.089 186.78 199.403 185.697 199.403 185.697C196.155 182.448 193.912 180.36 191.128 177.963Z" fill="#7DA3C9"/>
<path d="M274.656 299.621C276.126 301.399 277.209 303.488 277.209 306.504C277.209 310.448 275.739 312.691 275.121 313.465C275.043 313.619 275.121 313.774 275.275 313.774C276.667 314.006 282.081 314.161 287.263 305.576C294.147 309.134 292.29 315.089 291.749 316.481C291.672 316.636 291.826 316.79 291.981 316.79C300.953 316.481 303.814 304.338 303.814 304.338C304.046 304.338 304.356 304.261 304.588 304.261C304.665 303.952 304.665 303.565 304.665 303.256C304.665 299.93 298.4 297.223 290.511 298.074C290.511 298.074 287.65 310.216 278.678 310.526C278.524 310.526 278.446 310.371 278.446 310.216C278.988 308.824 280.766 303.178 274.656 299.621Z" fill="#7DA3C9"/>
<path d="M261.895 313.155C261.972 313.001 261.895 312.846 261.74 312.846C255.089 312.923 252.305 309.752 251.763 307.819C258.647 310.603 262.746 309.288 265.066 307.277C263.596 307.664 262.514 307.587 261.972 307.509C261.818 307.509 261.74 307.277 261.818 307.2C262.204 306.659 263.055 305.421 263.596 303.333C260.116 302.792 256.713 300.471 254.47 296.991C254.47 296.991 254.47 296.991 254.47 297.068C253.774 299.002 250.294 306.504 238.383 301.631C238.925 303.565 241.709 306.736 248.36 306.659C248.515 306.659 248.592 306.813 248.515 306.968C246.659 310.758 243.41 311.608 240.781 311.608C236.759 311.608 232.815 309.288 228.406 309.288C219.744 309.288 215.645 320.116 201.491 320.116C203.425 318.028 203.348 313.078 198.088 313.078C188.653 313.078 180.686 324.524 168.235 324.757C168.157 324.757 168.003 324.757 167.925 324.757C167.77 324.757 167.693 324.757 167.538 324.757C167.461 325.453 167.461 326.226 167.461 326.999C167.461 330.634 168.621 335.507 169.317 335.507C170.013 335.507 170.477 329.861 172.875 327.695C173.88 328.701 175.118 329.474 176.51 330.093C177.825 330.712 179.372 331.021 181.151 331.021C181.228 331.021 181.383 331.021 181.46 331.021C193.989 330.789 201.955 319.343 211.314 319.343C216.573 319.343 216.65 324.292 214.717 326.381C228.948 326.381 232.969 315.553 241.632 315.553C246.04 315.553 249.984 317.873 254.006 317.873C256.79 317.796 260.039 316.945 261.895 313.155Z" fill="#7DA3C9"/>
<path d="M361.124 287.478C357.257 290.572 349.987 289.876 349.987 289.876C353.39 287.169 355.865 279.434 352.385 272.164C352.307 272.01 352.075 272.01 351.998 272.164C348.982 279.28 343.258 282.141 337.612 282.76C337.303 283.069 336.994 283.379 336.684 283.611C336.684 283.611 343.877 284.307 347.821 281.213C347.976 281.136 348.131 281.213 348.131 281.368C347.744 292.118 333.281 299.311 333.281 299.311C335.06 301.09 339.082 300.781 340.629 299.775C340.783 299.698 340.938 299.775 340.938 300.007C340.629 302.173 338.076 304.106 335.911 306.272C318.045 324.138 322.067 335.584 312.631 335.584C312.709 335.198 313.482 331.872 309.77 331.872C303.969 331.872 299.251 342.854 292.368 349.738C287.65 354.456 281.849 357.472 275.275 357.472C273.032 357.472 270.712 356.466 268.933 355.306C268.624 355.538 268.392 355.77 268.083 356.002C269.861 359.019 273.342 359.792 275.585 359.792C275.275 362.654 275.353 367.526 276.049 368.222C276.59 368.764 278.833 364.123 282.236 361.648C284.015 362.731 286.258 363.814 288.578 363.814C295.075 363.814 300.953 360.72 305.67 356.08C312.554 349.196 317.272 338.214 323.072 338.214C326.707 338.214 326.011 341.54 325.934 341.926C335.292 341.926 331.348 330.48 349.214 312.614C351.379 310.448 353.931 308.515 354.241 306.349C354.241 306.195 354.086 306.04 353.931 306.117C352.385 307.123 348.363 307.432 346.584 305.653C346.584 305.653 361.047 298.46 361.434 287.71C361.434 287.478 361.279 287.401 361.124 287.478Z" fill="#7DA3C9"/>
<path d="M143.408 163.964C143.949 166.516 146.038 171.389 150.601 171.389C152.689 171.389 154.158 170.847 155.087 170.074C155.551 170.151 156.092 170.228 156.711 170.228C162.743 170.228 164.135 162.958 171.638 162.958H171.715C167.074 159.091 161.893 156.694 158.335 156.694C150.833 156.694 149.441 163.964 143.408 163.964Z" fill="#7DA3C9"/>
<path d="M152.148 113.46C152.148 127.845 159.418 134.187 159.959 134.729C160.191 134.961 160.346 135.27 160.423 135.657C164.445 136.198 167.925 137.204 171.019 138.441C168.699 135.347 165.45 129.315 165.45 119.725C165.45 116.863 163.517 114.62 160.5 114.62C159.572 112.609 157.097 108.51 151.915 108.51C150.833 108.51 149.982 108.587 149.286 108.819C151.065 109.593 152.148 111.372 152.148 113.46Z" fill="#7DA3C9"/>
<path d="M395.464 138.441C393.607 138.441 392.602 138.75 392.602 138.75C392.602 138.75 405.054 126.531 405.054 107.505C405.054 98.8423 402.966 95.5166 402.656 95.5166C402.038 95.5166 401.96 100.699 398.016 104.643C396.082 106.576 393.453 107.35 391.21 108.355C388.735 123.282 379.377 132.486 379.377 132.486C379.377 132.486 380.382 132.176 382.238 132.176C386.337 132.176 389.276 135.038 388.658 135.657C388.116 136.198 382.548 135.425 377.288 140.607C377.288 140.607 370.482 148.882 359.19 148.882C347.899 148.882 337.999 143.391 337.999 143.391C333.59 147.335 330.342 153.445 330.342 159.246C330.342 164.969 332.044 170.306 335.601 175.874C339.004 181.134 343.645 186.006 348.208 190.724C357.334 200.237 366.847 210.137 366.847 224.058C366.847 230.787 364.604 237.129 360.505 241.847C358.262 244.476 355.478 246.564 352.307 248.034C348.981 249.581 345.192 250.354 341.17 250.354C335.137 250.354 330.033 249.117 325.47 247.415C326.552 247.957 327.712 248.498 328.873 249.117C335.833 252.674 343.722 256.696 354.55 256.696C358.572 256.696 362.284 255.923 365.687 254.376C368.858 252.906 371.565 250.818 373.885 248.189C377.984 243.393 380.227 237.051 380.227 230.4C380.227 216.479 370.792 206.656 361.588 197.066C357.025 192.348 352.384 187.476 348.981 182.216C345.346 176.57 343.722 171.311 343.722 165.588C343.722 159.787 346.971 153.677 351.379 149.733C351.379 149.733 361.201 155.224 372.571 155.224C383.862 155.224 390.668 146.949 390.668 146.949C395.85 141.767 401.419 142.54 402.038 141.999C402.502 141.303 399.563 138.441 395.464 138.441Z" fill="#7DA3C9"/>
<path d="M284.711 52.9789C284.788 52.9015 284.788 52.7469 284.633 52.6695C283.164 52.1281 279.993 50.8907 272.723 50.8907C270.867 50.8907 269.088 51.1227 267.386 51.5867C274.347 50.504 279.993 51.2 284.711 52.9789Z" fill="#7DA3C9"/>
<path d="M322.685 276.573C320.442 273.711 319.05 269.999 319.05 265.9C319.05 257.547 321.757 253.834 322.84 246.41C320.21 245.327 317.813 244.089 315.493 242.929C313.404 241.847 311.471 240.841 309.537 240.068C308.455 247.57 305.748 251.282 305.748 259.712C305.748 269.535 313.327 276.65 322.221 276.65C322.453 276.573 322.608 276.573 322.685 276.573Z" fill="#7DA3C9"/>
<path d="M317.349 78.3469C317.503 78.3469 317.581 78.5015 317.503 78.6562C316.343 80.7444 313.172 82.9873 310.543 82.9873C309.305 82.9873 308.532 82.8327 308.532 82.8327C316.111 89.5614 315.028 107.891 323.072 108.51C323.227 108.51 323.304 108.742 323.227 108.897C322.067 109.902 320.21 110.676 317.039 110.676C314.178 110.676 311.78 109.206 311.78 109.206C311.78 109.206 313.482 111.836 313.482 115.471C313.482 119.106 312.012 120.034 312.012 125.216C312.012 129.702 316.343 132.641 317.426 133.337C317.581 133.414 317.581 133.569 317.426 133.646C316.807 134.11 315.725 134.419 313.791 134.419C311.548 134.419 307.062 132.873 304.51 130.32C305.129 130.939 308.222 134.265 308.222 139.911C308.222 145.557 306.134 149.888 306.134 155.534C306.134 160.483 309.46 163.19 310.311 163.809C310.388 163.886 310.388 164.041 310.311 164.118C309.847 164.505 308.919 165.047 307.372 165.047C305.67 165.047 300.488 163.964 297.472 161.025C299.019 167.599 294.842 172.781 294.842 182.139C294.842 199.309 308.068 210.369 309.924 228.776C313.482 230.168 316.807 231.947 320.133 233.648C321.138 234.19 322.144 234.654 323.149 235.118C321.061 217.097 308.145 205.341 308.145 188.404C308.145 179.045 312.322 173.863 310.775 167.289C313.791 170.306 318.973 171.311 320.674 171.311C321.138 171.311 321.525 171.234 321.912 171.157C321.448 169.764 321.061 168.372 320.752 166.98C319.978 165.665 319.36 163.964 319.36 161.798C319.36 159.014 319.901 156.539 320.365 154.141C320.52 153.445 320.674 152.672 320.829 151.976C321.216 150.12 321.448 148.263 321.448 146.175C321.448 140.529 318.354 137.204 317.735 136.585C320.056 138.905 324.077 140.375 326.398 140.607C327.094 139.756 327.867 138.905 328.641 138.054C327.016 136.662 325.16 134.342 325.16 131.403C325.16 126.221 326.63 125.293 326.63 121.658C326.63 118.023 324.928 115.393 324.928 115.393C324.928 115.393 327.326 116.863 330.187 116.863C333.358 116.863 335.215 116.089 336.375 115.084C336.529 114.929 336.452 114.775 336.22 114.697C328.177 114.079 329.259 95.7487 321.68 89.02C321.68 89.02 322.453 89.1747 323.691 89.1747C326.32 89.1747 329.491 86.9318 330.651 84.8435C330.729 84.6889 330.651 84.5342 330.497 84.5342C318.432 83.9154 313.172 61.7185 293.141 57.774C303.35 65.8176 308.532 77.9602 317.349 78.3469Z" fill="#7DA3C9"/>
<path d="M137.607 411.688C134.436 409.909 131.884 408.363 131.884 408.363C132.657 408.363 133.818 408.285 134.591 407.048C135.21 405.965 135.674 403.954 136.292 401.556C136.447 401.015 136.602 400.396 136.757 399.855C133.972 398.153 131.265 396.375 128.481 394.518C128.017 394.905 127.553 395.214 127.089 395.601C125.155 397.148 123.454 398.385 122.758 399.391C121.907 400.628 122.294 401.711 122.68 402.407C122.68 402.407 120.824 401.015 118.04 399.082C115.178 397.071 113.554 395.911 113.554 395.911C115.952 395.911 118.117 394.441 122.99 391.038C127.785 387.635 132.503 384.077 137.143 380.52C137.53 380.21 137.917 379.901 138.226 379.437C138.535 378.973 138.458 378.663 138.458 378.586C142.093 381.061 145.728 383.381 149.44 385.624C149.44 385.624 149.054 385.701 148.744 386.243C148.512 386.707 148.28 387.171 148.203 387.635C146.734 393.281 145.419 398.927 144.181 404.65C142.944 410.451 142.557 413.003 143.485 415.091C143.331 415.014 141.088 413.699 137.607 411.688ZM140.701 386.011C141.242 384.309 141.552 383.381 141.706 383.149C141.552 383.304 141.01 383.923 139.541 385.237C136.989 387.48 134.436 389.646 131.807 391.889C133.818 393.281 135.906 394.596 137.917 395.833C138.767 392.508 139.695 389.259 140.701 386.011Z" fill="#480024"/>
<path d="M153.153 420.273C147.43 417.489 145.264 414.859 145.264 414.937C145.264 414.937 145.805 414.163 146.811 412.23C147.971 410.064 148.59 408.749 148.59 408.749C149.131 411.301 150.291 414.163 154.545 416.251C157.484 417.643 160.114 418.185 161.196 415.865C162.047 414.008 160.964 412.771 159.34 410.837C158.412 409.755 157.561 408.595 156.711 407.512C154.236 404.341 152.689 401.092 154.622 397.457C157.175 392.662 161.892 392.198 168.389 395.292C173.03 397.457 175.118 399.546 175.118 399.546C175.118 399.546 174.654 400.396 173.803 402.485C172.875 404.65 172.488 405.888 172.488 405.888C171.715 403.026 170.323 400.706 167.229 399.236C164.599 397.999 162.666 397.844 161.738 399.7C160.887 401.402 161.97 402.639 163.749 404.805C164.522 405.733 165.295 406.661 166.069 407.589C168.93 410.915 170.555 413.854 168.93 417.953C166.146 424.063 159.959 423.599 153.153 420.273Z" fill="#480024"/>
<path d="M199.558 413.467C199.558 413.39 199.403 412.926 198.398 411.998C197.547 411.147 196.077 410.296 194.066 409.677C193.293 409.445 192.597 409.213 191.824 408.981C190.741 412.307 189.658 415.633 188.653 419.036C185.095 430.173 185.25 430.405 185.714 432.261C185.791 432.493 185.868 432.802 185.946 433.034C185.946 433.034 184.321 432.493 180.377 431.101C176.433 429.786 174.731 429.167 174.731 429.167C174.963 429.013 175.195 428.858 175.35 428.703C176.819 427.621 177.129 427.389 181.15 416.097C182.311 412.926 183.393 409.755 184.553 406.584C183.78 406.352 183.084 406.042 182.311 405.81C180.377 405.114 178.675 404.882 177.438 405.037C176.123 405.192 175.659 405.424 175.582 405.501C175.582 405.501 176.123 404.418 176.897 402.485C177.67 400.628 177.902 399.855 177.902 399.855C185.482 402.949 193.216 405.501 201.027 407.666C201.027 407.666 200.718 408.517 200.254 410.373C199.79 412.307 199.635 413.39 199.558 413.467Z" fill="#480024"/>
<path d="M210.695 439.686C200.022 437.52 196.077 430.869 198.475 422.129C200.563 414.627 206.209 408.672 216.263 410.683C225.544 412.462 229.644 418.108 228.561 427.156C227.71 434.891 222.451 441.929 210.695 439.686ZM215.567 414.782C211.314 413.931 208.607 416.638 206.982 423.908C205.358 431.101 206.75 434.659 211.391 435.587C216.109 436.515 218.816 433.576 220.053 426.306C221.213 419.036 219.821 415.633 215.567 414.782Z" fill="#480024"/>
<path d="M261.431 415.633C260.657 417.025 260.425 417.489 260.58 429.477C260.657 434.195 260.735 438.912 260.812 443.63C260.812 443.63 259.497 443.553 256.481 443.553C253.233 443.553 250.758 443.553 250.758 443.553C247.2 437.056 244.029 430.482 241.09 423.908C240.471 422.439 240.085 420.892 240.085 420.737C239.853 423.444 239.698 426.151 239.466 428.858C238.538 440.537 238.77 440.691 239.621 442.393C239.775 442.625 239.853 442.857 240.007 443.089C240.007 443.089 238.538 442.934 235.367 442.625C231.964 442.315 230.649 442.238 230.649 442.238C230.804 442.006 230.958 441.851 231.19 441.619C232.196 440.305 232.582 439.918 233.82 427.93C234.98 416.329 234.825 416.097 234.129 414.472C234.052 414.24 233.897 414.008 233.82 413.776C233.82 413.776 235.367 414.086 239.234 414.395C242.482 414.627 244.106 414.627 244.106 414.627C246.968 421.201 250.139 427.698 253.542 434.117C254.393 435.664 254.702 436.979 254.779 437.211C254.779 434.504 254.857 431.797 254.857 429.09C254.934 417.411 254.779 417.257 253.929 415.633C253.774 415.401 253.697 415.169 253.542 414.937C253.542 414.937 254.779 415.014 257.641 415.014C260.58 415.014 261.817 414.859 261.817 414.859C261.663 415.169 261.508 415.401 261.431 415.633Z" fill="#480024"/>
<path d="M299.947 420.196C299.173 426.847 298.245 433.576 297.085 440.227C297.085 440.227 294.997 440.537 291.285 441.078C287.727 441.619 285.329 441.929 285.329 441.929C282.39 435.819 279.606 429.709 276.976 423.521C274.734 418.108 273.728 415.71 272.027 414.395C272.027 414.395 273.573 414.395 277.673 414.008C281.926 413.544 283.55 413.235 283.55 413.235C283.086 413.699 282.313 414.473 282.545 415.942C282.7 417.334 283.705 419.577 284.943 422.361C286.876 426.692 288.887 431.101 290.898 435.432C291.362 436.437 291.749 437.598 291.826 437.752C291.826 437.598 291.903 436.437 292.058 435.277C292.754 430.56 293.373 425.764 293.992 421.047C294.301 417.953 294.61 415.555 294.301 414.163C294.069 412.694 293.141 412.152 292.522 411.92C292.522 411.92 294.146 411.766 297.627 411.069C300.875 410.451 302.19 409.987 302.19 409.987C300.952 411.766 300.643 414.318 299.947 420.196Z" fill="#480024"/>
<path d="M315.493 436.205C311.471 437.211 309.769 437.675 309.769 437.675C309.847 437.443 309.924 437.133 310.079 436.901C310.697 435.2 310.852 434.891 308.068 423.135C305.361 411.766 305.206 411.611 303.969 410.296C303.814 410.141 303.582 409.909 303.427 409.755C303.427 409.755 304.897 409.523 308.454 408.595C312.244 407.589 313.482 407.125 313.482 407.202C313.404 407.434 313.327 407.744 313.327 407.976C312.94 409.677 312.786 409.987 315.957 421.588C319.05 432.88 319.282 432.957 320.674 434.272C320.906 434.427 321.061 434.659 321.293 434.813C321.216 434.736 319.514 435.2 315.493 436.205Z" fill="#480024"/>
<path d="M345.501 424.836C345.656 425.3 345.81 425.842 345.965 426.306C340.474 428.549 334.828 430.56 329.259 432.338C326.784 433.112 325.702 433.498 325.702 433.498C325.779 433.266 325.856 432.957 325.934 432.725C326.398 431.024 326.552 430.637 322.995 419.113C319.514 407.976 319.282 407.821 317.967 406.584C317.813 406.429 317.581 406.197 317.426 406.042C317.426 406.042 318.818 405.733 322.608 404.495C326.32 403.258 327.48 402.717 327.48 402.717C327.403 403.026 327.403 403.258 327.326 403.567C326.939 405.346 327.016 406.12 330.033 414.782C331.425 418.649 332.74 422.593 334.132 426.46C335.137 426.074 336.143 425.764 337.148 425.378C342.717 423.289 343.026 421.897 343.877 419.19C343.799 419.19 344.186 420.737 345.501 424.836Z" fill="#480024"/>
<path d="M368.471 414.008C368.703 414.472 368.858 414.937 369.09 415.401C363.753 418.262 358.417 420.892 352.926 423.289C350.528 424.372 349.445 424.836 349.445 424.836C349.523 424.604 349.523 424.295 349.6 424.063C349.909 422.284 349.987 421.897 345.269 410.837C340.628 400.087 340.396 400.01 338.927 398.927C338.695 398.772 338.54 398.618 338.308 398.463C338.308 398.463 339.7 397.999 343.335 396.375C346.893 394.75 348.053 394.054 348.053 394.054C348.053 394.364 347.976 394.596 347.976 394.905C347.744 396.684 347.898 397.535 351.843 405.733C353.622 409.445 355.401 413.235 357.179 416.947C358.185 416.483 359.113 416.019 360.118 415.555C365.532 412.848 365.687 411.379 366.228 408.672C366.151 408.595 366.692 410.141 368.471 414.008Z" fill="#480024"/>
<path d="M394.226 399.778C391.21 401.943 388.735 403.645 388.735 403.645C389.044 402.949 389.508 401.866 388.657 400.628C387.961 399.623 386.337 398.308 384.404 396.761C383.94 396.375 383.476 395.988 383.011 395.679C380.305 397.457 377.52 399.236 374.736 400.938C374.891 401.479 375.045 402.098 375.123 402.639C375.741 405.037 376.128 407.125 376.747 408.131C377.52 409.445 378.68 409.523 379.376 409.523C379.376 409.523 377.366 410.683 374.504 412.307C371.488 414.008 369.863 415.014 369.863 415.014C370.792 412.848 370.405 410.219 369.322 404.418C368.239 398.618 367.002 392.894 365.61 387.171C365.455 386.707 365.378 386.243 365.068 385.779C364.836 385.315 364.45 385.237 364.372 385.237C368.085 382.995 371.72 380.674 375.355 378.199C375.355 378.199 375.277 378.586 375.587 379.05C375.896 379.514 376.205 379.824 376.592 380.133C381.078 383.845 385.718 387.403 390.359 390.883C395.077 394.364 397.242 395.833 399.64 395.833C399.717 395.911 397.552 397.457 394.226 399.778ZM372.106 386.32C370.792 385.16 370.095 384.464 369.941 384.232C370.018 384.464 370.327 385.237 370.869 387.094C371.797 390.342 372.725 393.59 373.653 396.916C375.741 395.679 377.752 394.364 379.763 393.049C377.211 390.806 374.659 388.563 372.106 386.32Z" fill="#480024"/>
<path d="M225.003 385.856V382.84C227.942 382.84 229.412 381.757 229.489 379.592H232.66V397.767H228.793V385.083C228.174 385.547 226.86 385.856 225.003 385.856Z" fill="white"/>
<path d="M242.173 397.457C241.09 397.071 240.162 396.375 239.544 395.601C238.925 394.751 238.615 393.745 238.615 392.585C238.615 390.574 239.776 389.027 242.019 388.022V387.944C240.317 387.016 239.466 385.779 239.466 384.077C239.466 383.072 239.776 382.221 240.317 381.448C240.858 380.674 241.632 380.133 242.637 379.746C243.643 379.36 244.725 379.205 245.963 379.205C247.2 379.205 248.283 379.36 249.289 379.746C250.294 380.133 251.067 380.674 251.609 381.448C252.15 382.221 252.46 383.072 252.46 384.077C252.46 385.702 251.609 387.016 249.907 387.944V388.022C252.15 389.027 253.31 390.574 253.31 392.585C253.31 393.745 253.001 394.828 252.382 395.601C251.764 396.452 250.835 397.071 249.753 397.457C248.67 397.844 247.432 398.076 246.04 398.076C244.571 398.076 243.333 397.921 242.173 397.457ZM243.488 394.364C244.107 394.905 244.88 395.215 245.963 395.215C246.968 395.215 247.819 394.905 248.438 394.364C249.057 393.822 249.366 393.126 249.366 392.276C249.366 391.425 249.057 390.729 248.438 390.187C247.819 389.646 247.046 389.414 245.963 389.414C244.88 389.414 244.107 389.646 243.488 390.187C242.869 390.729 242.56 391.425 242.56 392.276C242.56 393.049 242.869 393.822 243.488 394.364ZM243.797 386.166C244.261 386.63 245.035 386.784 245.963 386.784C246.891 386.784 247.587 386.552 248.128 386.166C248.593 385.702 248.902 385.16 248.902 384.387C248.902 383.613 248.67 383.072 248.128 382.608C247.664 382.144 246.891 381.989 245.963 381.989C245.035 381.989 244.339 382.221 243.797 382.608C243.333 383.072 243.024 383.613 243.024 384.387C243.101 385.083 243.333 385.702 243.797 386.166Z" fill="white"/>
<path d="M261.276 391.966C261.818 390.033 262.591 388.254 263.519 386.63C264.447 385.005 265.453 383.768 266.536 382.84V382.763H257.564V379.592H270.635V382.531C268.624 384.155 267.154 386.32 266.072 389.105C264.989 391.889 264.447 394.751 264.447 397.767H260.348C260.426 395.833 260.658 393.9 261.276 391.966Z" fill="white"/>
<path d="M281.772 393.745H273.419V390.033L281.772 379.592H285.639V390.651H288.269V393.822H285.639V397.767H281.772V393.745ZM281.772 390.574V383.923L276.435 390.574H281.772Z" fill="white"/>
<path d="M220.981 83.0647C219.125 84.9209 219.357 87.2412 217.733 88.8653C217.037 89.5614 216.109 90.0255 214.871 90.0255C212.474 90.0255 210.849 88.0146 210.849 86.0037C210.849 83.9155 213.247 82.0593 219.744 82.0593C220.517 82.0593 221.445 82.0593 222.296 82.1366C221.832 82.2913 221.368 82.6007 220.981 83.0647Z" fill="#7496BD"/>
<path d="M382.161 132.176C380.305 132.176 379.299 132.486 379.299 132.486C379.299 132.486 391.751 120.266 391.751 101.24C391.751 92.5777 389.663 89.252 389.354 89.252C388.735 89.252 388.658 94.4339 384.713 98.3783C381.851 101.24 377.288 101.549 374.736 104.102C377.211 98.8423 375.432 91.8042 375.045 91.8042C374.736 91.8042 374.891 95.5166 370.173 100.234C367.157 103.251 360.273 105.416 354.55 111.062C356.948 105.494 354.859 99.6931 354.318 99.6931C353.777 99.6931 354.318 103.019 351.07 106.267C348.053 109.283 342.253 110.753 337.922 115.161C331.889 121.194 332.972 130.32 332.972 133.646C332.972 133.955 332.972 134.265 332.972 134.574C332.121 135.193 331.27 135.889 330.419 136.585C323.613 142.54 319.978 150.429 319.978 159.323C319.978 176.338 330.961 187.785 340.706 197.994C345.037 202.48 349.059 206.734 351.998 211.142C355.014 215.705 356.406 219.882 356.406 224.213C356.406 228.389 355.014 232.488 352.539 235.35C349.755 238.598 345.965 240.222 341.093 240.222C332.74 240.222 326.63 237.129 320.133 233.803C316.807 232.102 313.482 230.323 309.924 228.931C308.068 210.601 294.842 199.463 294.842 182.294C294.842 172.935 299.019 167.753 297.472 161.179C300.488 164.196 305.67 165.201 307.372 165.201C308.841 165.201 309.769 164.66 310.311 164.273C310.388 164.196 310.388 164.041 310.311 163.964C309.46 163.345 306.134 160.638 306.134 155.688C306.134 150.042 308.222 145.711 308.222 140.065C308.222 134.419 305.129 131.094 304.51 130.475C307.062 133.027 311.548 134.574 313.791 134.574C315.725 134.574 316.807 134.265 317.426 133.801C317.503 133.723 317.503 133.569 317.426 133.491C316.343 132.795 312.012 129.856 312.012 125.37C312.012 120.189 313.482 119.26 313.482 115.625C313.482 111.99 311.78 109.361 311.78 109.361C311.78 109.361 314.178 110.83 317.039 110.83C320.21 110.83 322.067 110.057 323.227 109.051C323.381 108.897 323.304 108.742 323.072 108.665C315.029 108.046 316.111 89.716 308.532 82.9873C308.532 82.9873 309.305 83.142 310.543 83.142C313.172 83.142 316.343 80.8991 317.503 78.8109C317.581 78.6562 317.503 78.5015 317.349 78.5015C302.809 77.7281 298.168 45.5541 265.375 52.0508C267.077 49.6532 270.248 47.6423 271.331 46.9463C271.485 46.8689 271.485 46.6369 271.331 46.5595C269.861 46.0182 266.69 44.7807 259.42 44.7807C251.918 44.7807 245.035 48.8024 241.09 53.907C242.869 50.3493 240.703 45.8635 238.693 43.6206C238.615 43.4659 238.383 43.5432 238.306 43.6979C238.074 44.626 237.3 46.5595 236.063 47.797C230.185 53.675 219.589 57.4647 219.589 69.762C219.589 69.762 216.109 72.0049 211.468 75.1758C206.751 78.3468 204.276 83.374 204.276 84.9982C202.497 85.9263 195.072 91.4175 189.117 97.3728C188.962 97.5275 188.962 97.7595 189.039 97.9142C189.658 98.9197 190.122 100.157 190.354 100.853C190.432 101.163 190.818 101.24 191.05 101.008C191.824 100.234 193.448 98.8423 194.221 98.6103C192.906 99.9251 192.442 101.549 192.442 103.56C192.442 108.046 202.342 114.311 202.961 113.692C203.425 113.228 201.801 108.665 203.27 107.195C205.513 104.952 213.402 104.72 215.799 104.72C218.274 104.72 219.512 105.648 219.512 107.35C219.512 111.526 217.114 119.338 209.535 119.338C206.441 119.338 204.508 116.399 203.966 116.863C203.502 117.327 203.889 121.735 204.894 123.205C204.894 123.205 204.044 124.21 204.044 126.299C204.044 131.712 213.015 138.673 213.943 137.745C214.562 137.126 212.087 131.016 213.634 131.016C214.485 131.016 216.882 134.497 219.667 134.497C219.821 134.497 219.821 134.419 219.899 134.419C220.363 133.955 218.12 130.862 219.357 129.702C222.374 126.685 230.262 120.73 232.273 120.111C236.45 118.796 238.615 121.813 238.615 125.912C238.615 135.038 228.948 136.894 221.059 144.706C213.17 152.595 211.623 163.809 201.723 163.809C200.409 163.809 209.071 161.411 211.546 152.827C185.636 153.059 181.228 138.596 160.5 135.812C160.423 135.502 160.268 135.193 160.036 134.883C159.495 134.342 152.225 127.923 152.225 113.615C152.225 110.753 150.291 108.51 147.275 108.51C146.347 106.499 143.872 102.4 138.69 102.4C133.74 102.4 132.503 104.72 132.812 104.952C133.122 105.262 135.21 104.488 137.762 107.041C139.232 108.51 139.85 110.212 140.082 111.372C139.464 112.145 139.077 112.996 139.077 114.001C139.077 114.001 136.525 113.537 134.05 115.857C132.967 115.239 131.188 114.543 128.481 114.543C121.366 114.543 119.896 120.962 120.206 121.271C120.515 121.581 121.752 120.111 123.918 120.111C126.393 120.111 129.022 122.122 130.415 123.282C130.26 124.906 130.569 126.453 131.652 127.536C131.652 127.536 128.249 128.541 127.63 133.337C127.476 133.337 127.321 133.414 127.166 133.491C117.731 136.121 119.509 143.468 119.896 143.468C120.283 143.468 120.747 140.297 125.078 140.297C126.548 140.297 127.785 140.452 128.713 140.684C130.415 143.932 133.431 144.706 135.596 144.706C137.53 144.706 139.386 144.242 141.01 144.242C143.176 144.242 144.491 145.557 144.491 148.573C144.491 152.981 140.237 151.666 138.303 153.6C136.989 154.915 136.834 156.075 136.834 157.854C136.834 157.931 136.834 158.008 136.834 158.086C136.215 158.241 135.596 158.395 134.978 158.395C132.039 158.395 130.337 155.766 129.951 156.152C129.409 156.694 131.188 165.124 137.143 165.124C139.232 165.124 140.701 164.582 141.629 163.809C142.093 163.886 142.635 163.964 143.253 163.964C149.286 163.964 150.678 156.694 158.18 156.694C165.605 156.694 180.068 167.057 182.156 179.973C182.156 180.128 182.388 180.205 182.465 180.128C185.714 177.421 185.559 173.399 185.559 173.399C191.669 178.349 194.221 180.669 199.326 185.697C199.326 185.697 169.549 208.59 168.003 209.518C166.688 210.291 165.992 210.678 164.367 210.678C160.191 210.678 158.876 203.64 152.148 203.64C150.833 203.64 149.905 204.027 149.131 204.645C148.435 204.491 147.584 204.413 146.502 204.413C138.613 204.413 137.221 215.009 137.917 215.009C138.69 215.009 139.232 212.302 142.944 212.302C143.408 212.302 143.949 212.379 144.413 212.457C144.413 214.468 145.187 216.401 146.502 217.407C146.502 217.407 144.336 218.18 143.099 220.732C133.74 221.042 133.895 232.102 134.823 232.102C135.442 232.102 135.828 227.461 141.242 227.461C141.629 227.461 142.17 227.616 142.635 227.848C143.563 231.947 146.424 234.19 149.75 234.19C148.899 235.737 149.054 238.211 149.982 240.377C147.816 244.94 151.683 251.128 152.689 251.128C153.462 251.128 152.534 247.106 154.236 244.553C154.622 244.631 155.009 244.708 155.396 244.708C160.268 244.708 162.357 240.609 162.357 240.609C162.357 240.609 162.666 244.94 166.997 245.404C167.925 249.271 170.4 252.52 171.174 252.52C171.715 252.52 170.632 247.26 172.256 243.935C178.444 237.747 173.571 229.781 179.99 223.439C187.338 216.092 205.436 209.518 220.363 208.899C225.777 214.932 233.201 224.135 236.604 226.456C236.604 226.456 236.45 226.61 236.218 226.842C227.014 236.046 209.999 228.002 201.027 236.974C197.47 240.532 197.006 243.78 191.978 243.78C190.277 243.78 188.653 242.929 187.957 242.233C187.879 242.156 187.647 242.156 187.647 242.311C187.338 243.393 187.106 246.951 189.813 249.658C192.906 252.752 196.774 252.21 197.779 251.669C195.304 254.995 189.89 254.84 186.719 252.984C186.564 252.906 186.332 253.061 186.41 253.216C188.885 262.806 198.784 260.95 198.784 260.95C200.873 271.236 211.004 275.49 211.004 282.373C211.004 284.307 210.231 286.473 208.607 288.097C204.74 291.964 196.232 294.516 186.951 294.516C172.024 294.516 171.792 283.92 163.671 283.92C162.589 283.92 161.583 284.075 160.578 284.307C159.418 282.992 156.865 281.445 153.617 281.445C148.667 281.445 145.728 287.091 146.424 287.787C146.811 288.174 148.28 286.395 150.523 286.395C151.606 286.395 152.998 287.323 153.54 288.87C153.153 289.334 152.766 289.876 152.457 290.494C151.606 290.262 150.601 290.108 149.286 290.108C139.928 290.108 140.082 300.935 141.088 300.935C141.629 300.935 142.867 296.914 147.43 297.455C146.502 299.157 146.038 301.013 146.038 303.101C146.038 303.41 146.038 303.72 146.038 304.029C143.872 305.266 142.248 307.587 142.248 310.294C142.248 314.238 143.021 316.172 143.563 316.172C144.259 316.172 144.877 311.608 148.28 310.139C149.827 312.227 152.07 313.851 154.7 314.547C154.39 315.862 154.081 317.95 154.081 320.889C154.081 324.525 155.241 329.397 155.937 329.397C156.633 329.397 157.097 323.751 159.495 321.586C160.5 322.591 161.738 323.364 163.13 323.983C164.445 324.602 165.992 324.911 167.77 324.911C167.848 324.911 168.003 324.911 168.08 324.911C180.609 324.679 188.575 313.233 197.934 313.233C203.193 313.233 203.27 318.182 201.337 320.271C215.567 320.271 219.589 309.443 228.251 309.443C232.66 309.443 236.604 311.763 240.626 311.763C243.256 311.763 246.504 310.912 248.36 307.123C248.438 306.968 248.36 306.813 248.206 306.813C241.554 306.891 238.77 303.72 238.228 301.786C250.139 306.581 253.619 299.157 254.316 297.223C254.393 297.068 254.238 296.914 254.006 296.991C253.542 297.223 252.691 297.455 251.763 297.455C245.344 297.455 238.461 290.958 238.461 281.987C238.461 273.479 244.338 268.684 249.984 267.137C254.393 254.608 260.658 252.056 258.26 244.244V244.167C258.956 245.018 260.193 248.421 260.193 250.277C260.193 258.552 252.227 263.27 252.227 276.418C252.227 291.19 263.751 290.649 263.751 300.549C263.751 304.493 262.282 306.736 261.663 307.509C261.586 307.664 261.663 307.819 261.818 307.819C263.21 308.051 268.624 308.205 273.806 299.621C280.689 303.178 278.833 309.134 278.291 310.526C278.214 310.68 278.369 310.835 278.523 310.835C287.495 310.526 290.357 298.383 290.357 298.383C298.245 297.532 304.51 300.239 304.51 303.565C304.51 312.15 288.5 328.16 276.822 328.16C272.491 328.16 270.944 323.596 267.154 323.596C264.37 323.596 263.055 324.911 262.204 326.613C260.657 325.917 259.111 325.607 257.641 325.607C253.929 325.607 250.68 327.695 249.52 332.259C244.493 333.883 243.488 341.694 243.952 342.236C244.338 342.622 246.813 338.523 250.912 339.451C251.609 340.612 252.459 341.54 253.155 342.236C252.305 342.7 251.454 343.241 250.448 344.247C245.499 349.196 246.736 354.688 247.2 355.152C247.741 355.693 248.592 353.218 249.984 351.826C251.067 350.743 252.614 349.583 254.702 349.738C256.404 352.909 260.039 353.76 262.359 353.76C262.05 356.621 262.127 361.494 262.823 362.19C263.364 362.731 265.607 358.091 269.01 355.616C270.789 356.699 273.032 357.781 275.352 357.781C281.849 357.781 287.727 354.688 292.445 350.047C299.328 343.164 304.046 332.181 309.847 332.181C313.482 332.181 312.786 335.507 312.708 335.894C322.067 335.894 318.122 324.447 335.988 306.581C338.154 304.416 340.706 302.482 341.015 300.317C341.015 300.162 340.861 300.007 340.706 300.085C339.159 301.09 335.137 301.399 333.358 299.621C333.358 299.621 347.821 292.428 348.208 281.677C348.208 281.523 347.976 281.368 347.899 281.523C344.032 284.616 336.761 283.92 336.761 283.92C340.164 281.213 342.639 273.479 339.159 266.209C339.082 266.054 338.85 266.054 338.772 266.209C335.447 274.175 328.563 276.882 322.376 276.882C313.482 276.882 305.902 269.689 305.902 259.944C305.902 251.592 308.609 247.802 309.692 240.3C311.625 241.15 313.559 242.079 315.647 243.161C322.608 246.719 330.497 250.741 341.325 250.741C345.346 250.741 349.059 249.967 352.462 248.421C355.633 246.951 358.34 244.863 360.66 242.233C364.759 237.438 367.002 231.096 367.002 224.445C367.002 210.523 357.566 200.701 348.363 191.111C343.8 186.393 339.159 181.52 335.756 176.261C332.121 170.615 330.497 165.356 330.497 159.633C330.497 153.832 333.745 147.722 338.154 143.778C338.154 143.778 347.976 149.269 359.345 149.269C370.637 149.269 377.443 140.993 377.443 140.993C382.625 135.812 388.193 136.585 388.812 136.044C389.199 135.038 386.26 132.176 382.161 132.176ZM220.981 83.0647C219.125 84.9209 219.357 87.2411 217.733 88.8653C217.037 89.5614 216.109 90.0254 214.871 90.0254C212.474 90.0254 210.85 88.0145 210.85 86.0036C210.85 83.9154 213.247 82.0592 219.744 82.0592C220.517 82.0592 221.445 82.0592 222.296 82.1366C221.832 82.2913 221.368 82.6006 220.981 83.0647Z" fill="#FFE505"/>
<path d="M429.262 22.8931C426.477 21.965 359.732 0 256.326 0C152.921 0 86.1752 21.965 83.3909 22.8931L68 28.0749V377.117C68 393.59 72.9499 408.595 82.7722 421.665C90.7384 432.338 101.644 441.465 116.106 449.585C139.927 462.966 169.008 471.086 194.608 478.202L194.763 478.279C204.74 481.063 214.098 483.616 222.064 486.245C222.141 486.245 228.793 488.566 234.207 492.123C236.063 493.361 238.46 495.294 240.858 497.537L256.249 512L271.64 497.537C274.037 495.294 276.435 493.361 278.214 492.123C283.241 488.798 289.66 486.477 290.356 486.245C298.4 483.616 307.758 480.986 317.658 478.279L317.813 478.202C343.49 471.086 372.57 462.966 396.314 449.585C410.777 441.465 421.682 432.338 429.648 421.665C439.471 408.517 444.421 393.513 444.421 377.117V28.0749L429.262 22.8931ZM433.361 377.117C433.361 391.115 429.107 403.799 420.831 414.937C413.793 424.295 404.048 432.493 390.978 439.84C368.317 452.524 339.932 460.413 314.874 467.374H314.719C304.665 470.158 295.074 472.788 286.799 475.572C286.721 475.572 278.755 478.356 272.104 482.688C269.706 484.312 266.922 486.555 263.983 489.262L256.249 496.454L248.592 489.262C245.653 486.555 242.869 484.234 240.471 482.688C233.743 478.279 225.776 475.572 225.699 475.572C217.424 472.865 207.911 470.158 197.779 467.374H197.624C172.566 460.413 144.181 452.524 121.598 439.84C108.527 432.493 98.7819 424.372 91.7438 414.937C83.3909 403.799 79.2145 391.115 79.2145 377.117V36.1958L86.8713 33.6435C89.5782 32.7154 154.622 11.2918 256.249 11.2918C357.876 11.2918 422.92 32.7154 425.627 33.6435L433.283 36.1958V377.117H433.361Z" fill="#480024"/>
</g>
<defs>
<clipPath id="clip0_1_2371">
<rect width="376.421" height="512" fill="white" transform="translate(68)"/>
</clipPath>
</defs>
</svg>
