<svg width="506" height="512" viewBox="0 0 506 512" fill="none" xmlns="http://www.w3.org/2000/svg">
<path d="M253.322 500.565C388.298 500.565 497.717 391.146 497.717 256.171C497.717 121.195 388.298 11.776 253.322 11.776C118.347 11.776 8.92773 121.195 8.92773 256.171C8.92773 391.146 118.347 500.565 253.322 500.565Z" fill="white"/>
<path d="M295.819 211.115L383.883 175.445L368.693 199.851L295.989 216.747L295.819 211.115ZM295.819 220.672V224.597H401.973L367.669 205.824L295.819 220.672ZM412.213 183.979C411.701 183.296 410.677 182.784 407.093 181.76L388.832 176.981C388.832 176.811 372.96 202.923 372.96 202.923L402.827 218.795L411.189 189.44C412.555 185.685 412.896 184.832 412.213 183.979ZM94.6025 189.44L102.965 218.795L132.832 202.923C132.832 202.923 116.96 176.811 116.96 176.981L98.6985 181.76C95.1145 182.784 94.0905 183.296 93.5785 183.979C93.2372 184.832 93.5785 185.685 94.6025 189.44ZM138.464 205.653L104.16 224.256H210.315V220.501L138.464 205.653ZM295.819 228.523L295.648 232.277L339.851 239.445L367.499 228.352H295.819V228.523ZM295.819 235.861V239.787C295.819 239.957 329.099 257.877 329.099 257.877C329.099 257.877 334.048 260.608 335.755 261.12C338.315 261.632 342.24 261.461 342.24 261.461L355.381 260.779C355.381 260.779 337.291 244.224 337.632 244.395C337.973 244.395 295.819 235.861 295.819 235.861ZM380.299 233.643L374.496 230.741L344.459 243.371L360.501 258.731L380.299 239.104C381.664 237.568 382.688 236.715 382.517 235.861C382.347 235.179 381.835 234.496 380.299 233.643ZM123.957 235.691C123.957 236.544 124.811 237.397 126.176 238.933L145.973 258.56L162.016 243.2L131.979 230.571L126.176 233.472C124.64 234.496 123.957 235.179 123.957 235.691ZM210.656 211.115L122.592 175.445L137.781 199.851L210.485 216.747L210.656 211.115ZM138.976 228.523L166.624 239.616L210.827 232.448L210.656 228.693H138.976V228.523ZM169.013 244.224C169.525 244.053 151.264 260.608 151.264 260.608L164.405 261.291C164.405 261.291 168.331 261.632 170.891 260.949C172.427 260.608 177.547 257.707 177.547 257.707C177.547 257.707 210.827 239.787 210.827 239.616V235.691C210.656 235.861 168.501 244.395 169.013 244.224ZM294.795 204.971L322.955 174.592L341.045 152.576L342.069 146.603L340.192 144.896L337.973 151.723L290.699 194.56C290.869 194.901 294.795 204.971 294.795 204.971ZM330.976 306.176C330.464 305.493 315.104 264.875 315.104 264.875C312.544 258.389 310.325 257.195 305.717 254.635L295.136 247.979L294.624 248.661L306.741 265.045V288.939L345.995 338.773C351.285 345.429 351.627 347.648 359.307 347.648L364.085 345.429L355.04 343.893C355.211 344.064 331.659 306.859 330.976 306.176ZM175.669 306.176C175.157 306.859 151.605 344.064 151.605 344.064L142.56 345.6L147.339 347.819C155.189 347.819 155.36 345.6 160.651 338.944L199.904 289.109L200.075 265.216L212.192 248.832L211.68 248.149L201.099 254.805C196.491 257.365 194.272 258.56 191.712 265.045C191.541 264.875 176.352 305.493 175.669 306.176ZM183.691 174.421L211.851 204.8C211.851 204.8 215.776 194.731 215.947 194.389L168.843 151.723L166.624 144.896L164.747 146.603L165.771 152.576L183.691 174.421ZM300.768 267.264V316.928L284.384 344.747L262.027 361.813L253.493 372.736L244.789 361.813L222.261 344.747L205.877 316.928V267.264L220.555 246.613L215.605 243.371V210.773L222.603 190.293L228.405 186.88C228.405 186.88 228.747 177.323 230.795 174.763C232.331 172.715 239.84 170.325 239.84 170.325L243.595 165.205L230.283 146.091L217.141 138.923L212.875 133.973L219.36 136.021L233.184 143.872L246.496 162.816L253.323 161.109L259.979 162.816L273.461 143.872L287.285 136.021L293.771 133.973L289.504 138.923L276.363 146.091L263.221 165.376L266.805 170.325C266.805 170.325 274.315 172.885 275.851 174.763C277.728 177.323 278.24 186.88 278.24 186.88L284.043 190.293L291.04 210.773V243.371L286.432 246.443L300.768 267.264ZM271.413 225.109V240.981L280.459 220.672L253.152 208.725L227.211 217.771L227.381 218.624L253.152 215.723L271.413 225.109ZM264.757 181.248L273.632 184.832L266.635 172.032L264.757 181.248ZM232.843 185.003L241.888 181.589L239.84 172.203L232.843 185.003ZM220.384 210.091L238.987 200.192H267.659L286.261 210.091L284.213 204.288L270.901 193.195L282.848 197.291L281.483 193.195C281.483 193.195 268.683 186.88 268.512 186.368H238.304C238.133 186.88 225.333 193.195 225.333 193.195L223.968 197.291L235.915 193.195L222.603 204.288L220.384 210.091ZM290.869 324.096L268.683 331.947H237.792L215.947 324.096L223.627 337.579L241.888 344.235L229.088 343.893L246.496 357.205H259.979L277.387 343.893L264.587 344.235L282.848 337.579L290.869 324.096ZM236.256 313.856H270.219L286.091 301.739L285.92 301.227L268.512 307.541H238.133L220.725 301.227L220.555 301.739L236.256 313.856ZM295.307 268.629L269.195 271.701L288.992 260.779L281.141 249.856L269.877 257.365H236.768L225.845 250.027L217.995 260.779L237.451 271.701L211.339 268.459V282.453L228.235 288.768H278.411L295.307 282.453V268.629ZM498.912 256C498.912 120.491 388.661 10.0693 252.981 10.0693C117.301 10.0693 7.22119 120.491 7.22119 256C7.22119 391.509 117.472 501.931 253.152 501.931C388.832 501.931 498.912 391.509 498.912 256ZM493.109 256C493.109 388.267 385.419 495.957 253.152 495.957C120.885 495.957 13.0239 388.267 13.0239 256C13.0239 123.733 120.715 16.0427 253.152 16.0427C385.589 16.0427 493.109 123.733 493.109 256ZM131.467 173.739C157.92 134.827 202.464 109.397 252.811 109.397C303.499 109.397 348.384 135.339 374.667 174.592L380.299 172.203C352.992 131.072 305.717 103.424 252.811 103.424C199.904 103.424 153.312 130.389 125.835 171.52L131.467 173.739ZM102.795 228.523C101.088 237.397 100.405 246.784 100.405 256C100.405 340.139 168.843 408.576 252.981 408.576C337.12 408.576 405.557 340.139 405.557 256C405.557 246.613 404.704 237.227 402.997 228.352H397.024C398.731 237.227 399.584 246.613 399.584 256C399.584 336.896 333.707 402.603 252.981 402.603C172.256 402.603 106.037 336.896 106.037 256C106.037 246.613 106.891 237.397 108.597 228.523H102.795Z" fill="#0F0F0F"/>
<path d="M222.432 204.458L235.744 193.365L223.797 197.461L225.163 193.365C225.163 193.365 237.963 187.05 238.133 186.538H268.341C268.512 187.05 281.312 193.365 281.312 193.365L282.677 197.461L270.731 193.365L284.043 204.458L286.091 210.261L267.488 200.362H238.816L220.213 210.261L222.432 204.458ZM290.869 324.096L268.683 331.946H237.792L215.947 324.096L223.627 337.578L241.888 344.234L229.088 343.893L246.496 357.205H259.979L277.387 343.893L264.587 344.234L282.848 337.578L290.869 324.096ZM295.307 268.629L269.195 271.701L288.992 260.778L281.141 249.856L269.877 257.365H236.768L225.845 250.026L217.995 260.778L237.451 271.701L211.339 268.458V282.453L228.235 288.768H278.411L295.307 282.453V268.629Z" fill="#FFB400"/>
<path d="M317.493 165.376V127.488L320.224 129.024V162.816L317.493 165.376ZM317.493 308.907V382.976L320.224 381.44V313.344L317.493 308.907ZM320.224 196.779V183.125L317.493 186.368V197.973L320.224 196.779ZM320.224 266.581V257.195L317.493 255.488V261.12L320.224 266.581ZM277.045 137.557V115.541L274.315 115.029V139.093L277.045 137.557ZM274.315 358.741V396.971L277.045 396.459V356.352L274.315 358.741ZM274.315 155.307V169.131L277.045 170.496V151.211L274.315 155.307ZM363.744 179.2V164.864L361.013 162.475V180.395L363.744 179.2ZM360.843 263.509V340.309L363.573 340.821V263.339L360.843 263.509ZM190.005 165.376V127.488L187.275 129.024V162.816L190.005 165.376ZM187.275 313.344V381.44L190.005 382.976V308.907L187.275 313.344ZM190.005 197.973V186.368L187.275 183.125V196.779L190.005 197.973ZM190.005 261.12V255.488L187.275 257.195V266.581L190.005 261.12ZM233.184 139.093V115.029L230.453 115.541V137.557L233.184 139.093ZM230.624 356.523V396.629L233.355 397.141V358.912L230.624 356.523ZM230.624 151.211V170.496L233.355 169.131V155.307L230.624 151.211ZM146.485 180.224V162.304L143.755 164.693V179.029L146.485 180.224ZM144.096 263.339V340.821L146.827 340.309V263.509L144.096 263.339Z" fill="#E5E5E5"/>
<path d="M113.205 131.584C110.816 129.536 108.085 130.56 106.037 132.949L102.453 137.216L109.792 143.36L113.205 139.264C115.253 136.704 115.595 133.632 113.205 131.584Z" fill="#D20000"/>
<path d="M231.477 455.338L237.792 456.021L235.573 447.146L231.477 455.338Z" fill="#D20000"/>
<path d="M206.901 439.808L202.976 438.784L201.269 444.757L205.024 445.781C206.901 446.293 208.779 445.44 209.291 443.562C209.803 441.344 208.437 440.149 206.901 439.808Z" fill="#D20000"/>
<path d="M94.7732 123.904L91.3599 128L97.6745 133.29L100.917 129.365C102.624 127.317 102.624 124.757 100.576 123.05C98.5279 121.173 96.1385 122.368 94.7732 123.904Z" fill="#D20000"/>
<path d="M63.1999 252.416C65.0773 252.416 66.2719 251.051 66.2719 249.344C66.2719 247.637 65.0773 246.272 63.1999 246.272C61.4933 246.272 60.2986 247.637 60.2986 249.344C60.2986 251.051 61.4933 252.416 63.1999 252.416Z" fill="#D20000"/>
<path d="M148.192 413.013C144.267 410.453 138.976 411.477 136.075 416.256C133.003 421.035 134.368 425.984 138.293 428.544C142.219 431.104 147.509 430.08 150.411 425.472C153.483 420.693 152.288 415.573 148.192 413.013Z" fill="#D20000"/>
<path d="M204.171 450.219L200.075 449.024L198.197 455.851L202.123 456.875C204.512 457.557 206.731 456.704 207.413 454.485C207.925 452.437 206.389 450.901 204.171 450.219Z" fill="#D20000"/>
<path d="M63.1998 256C60.2985 256 58.4211 258.048 58.4211 260.608C58.4211 263.168 60.2985 265.216 63.1998 265.216C66.1011 265.216 67.9785 263.168 67.9785 260.608C67.9785 258.219 66.1011 256 63.1998 256Z" fill="#D20000"/>
<path d="M133.685 93.5251C131.979 91.4771 129.248 91.1358 126.859 93.0131L122.763 96.4264L128.736 103.765L132.661 100.693C135.051 98.6451 135.392 95.7438 133.685 93.5251Z" fill="#D20000"/>
<path d="M408.288 137.387C412.896 132.949 414.261 126.293 408.97 121.173L405.045 117.248L387.979 133.973L391.733 137.728C397.024 143.019 403.68 141.824 408.288 137.387Z" fill="#D20000"/>
<path d="M437.472 252.245C439.349 252.245 440.544 250.88 440.544 249.173C440.544 247.467 439.349 246.101 437.472 246.101C435.765 246.101 434.571 247.467 434.571 249.173C434.571 251.051 435.765 252.245 437.472 252.245Z" fill="#D20000"/>
<path d="M437.472 256C434.571 256 432.693 258.048 432.693 260.608C432.693 263.168 434.571 265.216 437.472 265.216C440.373 265.216 442.251 263.168 442.251 260.608C442.251 258.048 440.373 256 437.472 256Z" fill="#D20000"/>
<path d="M461.194 246.272C458.293 246.272 456.586 248.491 456.586 251.051C456.586 253.611 458.464 255.829 461.194 255.829C464.096 255.829 465.802 253.611 465.802 251.051C465.802 248.32 463.925 246.272 461.194 246.272Z" fill="#D20000"/>
<path d="M376.715 97.7917C378.251 95.7437 378.08 93.0131 375.52 91.1357L371.253 87.8931L365.621 95.5731L369.717 98.6451C372.107 100.522 375.008 100.01 376.715 97.7917Z" fill="#D20000"/>
<path d="M324.661 89.4291C330.464 91.8185 336.949 89.4291 339.851 82.6025C342.752 75.7758 339.851 69.2905 334.048 66.9011C328.245 64.5118 321.76 66.9011 318.859 73.8985C315.957 80.5545 318.859 87.0398 324.661 89.4291Z" fill="#D20000"/>
<path d="M253.323 22.016C124.299 22.016 19.5093 126.976 19.5093 255.829C19.5093 384.853 124.469 489.643 253.323 489.643C382.347 489.643 487.136 384.683 487.136 255.829C487.136 126.976 382.176 22.016 253.323 22.016ZM413.408 116.736C421.771 125.269 420.064 136.021 413.579 142.336C407.264 148.651 396 150.869 386.784 141.653L378.251 133.12L404.192 107.52L413.408 116.736ZM379.957 86.6986C385.76 91.136 386.272 97.4506 382.859 102.059C380.64 105.131 376.373 107.179 371.595 105.813L369.376 124.245L362.379 118.955L364.768 102.741L362.037 100.693L353.333 112.128L347.531 107.691L369.376 78.6773L379.957 86.6986ZM312.203 70.9973C316.469 60.928 327.051 56.4906 336.779 60.5866C346.507 64.6826 350.944 75.264 346.677 85.3333C342.411 95.4026 331.829 99.6693 322.101 95.5733C312.373 91.6479 307.936 81.0666 312.203 70.9973ZM285.237 45.9093L306.912 50.0053L305.717 56.1493L291.211 53.4186L289.504 62.1226L301.109 64.3413L299.915 70.4853L288.309 68.2666L285.408 82.944L278.24 81.5786L285.237 45.9093ZM238.304 43.6906L268.341 43.8613V50.176H256.907L256.736 80.2133H249.397L249.568 50.176H238.133L238.304 43.6906ZM199.051 50.8586L220.896 69.4613L215.776 46.9333L222.944 45.2266L231.136 80.7253L224.48 82.2613L202.805 63.8293L207.925 86.1866L200.757 87.8933L192.565 52.3946L199.051 50.8586ZM171.915 59.5626L174.645 65.1946L161.333 71.5093L165.088 79.5306L175.669 74.4106L178.4 80.0426L167.819 85.1626L171.573 93.0133L185.227 86.528L187.957 92.16L167.648 101.888L151.947 69.12L171.915 59.5626ZM123.616 87.7226C129.248 83.1146 135.563 84.1386 139.147 88.7466C141.536 91.6479 142.56 96.256 140 100.693L157.237 107.349L150.411 112.981L135.221 106.667L132.661 108.715L141.707 119.979L136.075 124.587L113.035 96.0853L123.616 87.7226ZM90.5066 119.467C95.2853 113.835 100.747 113.323 104.501 116.395C107.232 118.784 108.256 122.539 106.891 125.952C110.133 123.392 114.4 123.051 117.984 125.952C122.08 129.365 123.957 136.363 118.667 142.507L109.963 152.917L81.9733 129.536L90.5066 119.467ZM45.7919 268.8H41.6959V245.077L45.7919 242.517V268.8ZM63.1999 269.141C58.2506 269.141 54.3253 265.557 54.3253 260.779C54.3253 257.707 55.8613 255.317 58.2506 253.952C57.0559 252.928 56.3733 251.221 56.3733 249.344C56.3733 245.589 59.2746 242.517 63.1999 242.517C67.1253 242.517 70.0266 245.589 70.0266 249.344C70.0266 251.221 69.3439 252.757 68.1493 253.952C70.5386 255.317 72.0746 257.877 72.0746 260.779C72.0746 265.557 68.3199 269.141 63.1999 269.141ZM100.576 378.88L96.8213 381.611L91.5306 374.443L82.4853 381.099L79.2426 376.661L101.259 360.448L111.157 373.76L107.403 376.491L100.747 367.616L95.4559 371.541L100.576 378.88ZM104.843 408.405C99.3813 402.773 99.3813 394.069 105.355 388.267C111.328 382.464 119.861 382.635 125.493 388.437C130.955 394.069 130.955 402.773 124.981 408.576C119.008 414.379 110.304 414.208 104.843 408.405ZM155.189 428.373C150.752 435.2 142.389 437.077 135.563 432.811C128.907 428.544 127.029 420.011 131.296 413.184C135.733 406.187 144.267 404.309 150.923 408.576C157.579 413.013 159.627 421.547 155.189 428.373ZM186.763 433.835L178.912 430.251L169.525 450.901L164.576 448.683L173.963 428.032L166.112 424.448L167.989 420.181L188.64 429.568L186.763 433.835ZM214.923 443.904C214.24 446.464 211.851 448.341 209.12 448.512C211.851 450.048 213.557 452.779 212.533 456.021C211.509 459.947 207.243 463.36 201.44 461.653L191.541 458.923L198.88 432.64L208.437 435.371C213.899 436.907 215.947 440.491 214.923 443.904ZM240.864 467.627L239.157 461.312L229.088 460.288L226.187 466.261L220.213 465.579L233.525 439.467L238.816 439.979L246.667 468.309L240.864 467.627ZM252.981 414.549C165.6 414.549 94.4319 343.381 94.4319 256C94.4319 246.443 95.4559 236.203 96.9919 228.011C97.5039 225.451 98.3573 222.549 98.3573 222.549L89.1413 191.147C87.2639 184.491 86.4106 182.613 87.4346 180.907C87.7759 180.224 88.6293 179.029 91.7013 178.347L118.837 171.52L119.349 170.496C147.509 126.635 196.832 97.4506 252.811 97.4506C308.448 97.4506 357.6 126.293 385.76 169.813L386.613 171.349L413.749 178.176C416.821 179.029 417.675 180.053 418.016 180.736C419.04 182.443 418.357 184.32 416.309 190.976L407.264 222.379C407.264 222.379 408.117 225.451 408.629 228.181C410.336 237.227 411.019 246.443 411.019 256C411.531 343.381 340.363 414.549 252.981 414.549ZM259.467 467.968L257.931 440.661L263.392 440.32L264.757 463.019L275.68 462.336L276.021 466.944L259.467 467.968ZM288.48 464.896L283.189 438.101L288.651 437.077L293.088 459.264L303.84 457.045L304.693 461.653L288.48 464.896ZM341.728 448.171C335.072 451.072 327.221 448.853 323.637 440.661C319.712 431.957 324.32 424.448 330.805 421.547C334.219 420.011 338.656 419.669 342.752 421.888L340.704 426.837C337.973 425.131 335.072 425.301 332.853 426.325C328.587 428.203 326.197 432.469 328.757 438.101C331.147 443.392 335.755 445.099 340.021 443.221C343.264 441.856 345.141 438.784 344.971 434.688L350.091 435.029C349.92 441.344 346.677 446.123 341.728 448.171ZM364.939 435.541L349.749 412.843L354.357 409.771L366.987 428.544L376.032 422.4L378.592 426.325L364.939 435.541ZM396.853 412.501C392.757 416.085 386.272 417.109 381.664 411.989L370.059 398.677L374.155 395.093L385.419 407.893C388.149 410.965 391.051 410.624 393.44 408.576C395.659 406.528 396.512 403.627 393.781 400.555L382.517 387.755L386.613 384.171L398.219 397.483C402.997 402.603 401.12 408.917 396.853 412.501ZM421.941 385.195L414.944 392.704L394.976 373.931L401.803 366.763C405.557 362.667 409.824 362.667 412.384 365.056C414.432 366.933 414.944 369.835 413.749 372.395C416.309 370.688 419.552 370.517 422.112 372.907C425.013 375.467 426.037 380.757 421.941 385.195ZM437.472 269.141C432.523 269.141 428.597 265.557 428.597 260.779C428.597 257.707 430.133 255.317 432.523 253.952C431.328 252.928 430.645 251.221 430.645 249.344C430.645 245.589 433.547 242.517 437.472 242.517C441.397 242.517 444.299 245.589 444.299 249.344C444.299 251.221 443.616 252.757 442.421 253.952C444.811 255.317 446.347 257.877 446.347 260.779C446.347 265.387 442.592 269.141 437.472 269.141ZM460.853 268.8H456.416L461.877 259.413C461.536 259.413 461.195 259.584 460.853 259.584C456.587 259.584 452.491 256.171 452.491 251.051C452.491 246.272 456.245 242.517 461.195 242.517C466.144 242.517 469.899 246.272 469.899 251.051C469.899 252.928 469.216 254.464 468.363 256L460.853 268.8Z" fill="#D20000"/>
<path d="M409.312 369.834C407.776 368.298 405.899 369.152 404.875 370.346L402.144 373.248L406.752 377.514L409.312 374.613C410.507 373.077 410.677 371.2 409.312 369.834Z" fill="#D20000"/>
<path d="M109.109 392.363C105.184 396.288 105.184 401.579 108.427 404.992C111.669 408.405 116.96 408.576 121.056 404.821C125.152 400.896 124.981 395.605 121.738 392.192C118.496 388.608 113.205 388.437 109.109 392.363Z" fill="#D20000"/>
<path d="M412.896 377.514L409.995 380.586L415.285 385.536L418.016 382.634C419.723 380.928 420.064 378.368 418.357 376.832C416.48 375.125 414.432 375.808 412.896 377.514Z" fill="#D20000"/>
</svg>
