<svg width="447" height="512" viewBox="0 0 447 512" fill="none" xmlns="http://www.w3.org/2000/svg">
<g clip-path="url(#clip0_14_83)">
<mask id="mask0_14_83" style="mask-type:luminance" maskUnits="userSpaceOnUse" x="-14" y="-14" width="476" height="541">
<path d="M461.01 -13.043H-13.1156V526.687H461.01V-13.043Z" fill="white"/>
</mask>
<g mask="url(#mask0_14_83)">
<path d="M220.069 509.987C162.221 499.252 107.946 469.433 67.3959 426.491C26.2453 382.657 2.98453 328.681 2.68768 275.011V2.4635H445.207V275.011C444.61 328.984 421.649 382.66 380.498 426.491C339.944 469.431 285.97 499.252 227.825 509.987L223.949 510.584L220.069 509.987Z" fill="#5F0041"/>
</g>
<mask id="mask1_14_83" style="mask-type:luminance" maskUnits="userSpaceOnUse" x="-14" y="-14" width="476" height="541">
<path d="M461.01 -13.043H-13.1156V526.687H461.01V-13.043Z" fill="white"/>
</mask>
<g mask="url(#mask1_14_83)">
<path d="M16.4076 16.1796V275.012C17.004 325.407 38.7724 375.801 77.5374 417.253C116.004 458.105 167.591 486.435 222.757 496.868L223.949 497.166L225.142 496.868C280.308 486.431 331.895 458.401 370.362 417.253C409.127 375.803 430.898 325.407 431.492 274.715V16.1796H16.4076ZM417.778 274.715C416.883 371.03 331.599 462.277 223.95 483.154C116.004 462.579 31.0181 371.036 30.1221 275.012V29.8995H418.069V274.715H417.778Z" fill="white"/>
</g>
<mask id="mask2_14_83" style="mask-type:luminance" maskUnits="userSpaceOnUse" x="-14" y="-14" width="476" height="541">
<path d="M461.01 -13.043H-13.1156V526.687H461.01V-13.043Z" fill="white"/>
</mask>
<g mask="url(#mask2_14_83)">
<path d="M102.581 360.293C104.072 359.995 104.966 359.697 105.563 358.206C106.159 356.715 106.159 354.031 102.283 352.54L93.9333 349.26L87.9693 364.468L96.6174 367.748C99.3009 368.941 102.581 368.345 103.774 365.363C104.669 362.678 103.774 361.188 102.581 360.293ZM99.3009 362.678C98.7045 363.871 97.8102 363.871 96.9153 363.275L94.2318 362.082L95.4246 359.399L98.4061 360.591C99.3009 361.188 99.5989 361.784 99.3009 362.678ZM100.792 357.013C100.494 357.908 99.5989 357.908 98.7045 357.609L96.3189 356.715L97.2138 354.329L99.5988 355.224C100.792 355.82 101.09 356.417 100.792 357.013Z" fill="white"/>
</g>
<mask id="mask3_14_83" style="mask-type:luminance" maskUnits="userSpaceOnUse" x="-14" y="-14" width="476" height="541">
<path d="M461.01 -13.043H-13.1156V526.687H461.01V-13.043Z" fill="white"/>
</mask>
<g mask="url(#mask3_14_83)">
<path d="M113.915 357.017L109.442 354.93L105.268 363.876C103.478 368.05 104.671 371.032 109.144 373.12C113.617 375.207 116.897 374.312 118.686 370.138L122.861 361.192L118.388 359.104L114.512 367.156C113.915 368.647 113.021 370.436 110.635 369.541C108.548 368.647 109.442 366.56 110.039 365.068L113.915 357.017Z" fill="white"/>
</g>
<mask id="mask4_14_83" style="mask-type:luminance" maskUnits="userSpaceOnUse" x="-14" y="-14" width="476" height="541">
<path d="M461.01 -13.043H-13.1156V526.687H461.01V-13.043Z" fill="white"/>
</mask>
<g mask="url(#mask4_14_83)">
<path d="M121.072 379.081L124.053 374.012L126.439 375.205C128.228 376.099 127.334 377.59 126.737 379.081C126.439 379.976 126.141 380.572 125.843 381.466L130.316 383.852C130.316 382.958 131.21 381.169 131.509 380.572C132.403 378.783 132.403 376.994 131.509 375.801C133.298 376.099 134.789 374.907 135.683 373.415C137.174 370.732 135.981 368.048 133.298 366.855L124.948 362.084L116.897 376.099L121.072 379.081ZM127.334 368.346L129.421 369.539C131.21 370.433 131.21 371.328 130.614 372.223C130.017 373.415 128.825 373.117 127.93 372.521L125.545 371.328L127.334 368.346Z" fill="white"/>
</g>
<mask id="mask5_14_83" style="mask-type:luminance" maskUnits="userSpaceOnUse" x="-14" y="-14" width="476" height="541">
<path d="M461.01 -13.043H-13.1156V526.687H461.01V-13.043Z" fill="white"/>
</mask>
<g mask="url(#mask5_14_83)">
<path d="M134.193 387.431L139.858 380.573L138.069 390.413L141.946 393.693L152.084 380.871L148.506 377.889L142.84 384.747L144.63 374.907L140.753 371.627L130.316 384.449L134.193 387.431Z" fill="white"/>
</g>
<mask id="mask6_14_83" style="mask-type:luminance" maskUnits="userSpaceOnUse" x="-14" y="-14" width="476" height="541">
<path d="M461.01 -13.043H-13.1156V526.687H461.01V-13.043Z" fill="white"/>
</mask>
<g mask="url(#mask6_14_83)">
<path d="M152.975 402.338L155.659 399.058L149.994 394.883L157.449 385.043L153.274 382.061L143.433 394.883L152.975 402.338Z" fill="white"/>
</g>
<mask id="mask7_14_83" style="mask-type:luminance" maskUnits="userSpaceOnUse" x="-14" y="-14" width="476" height="541">
<path d="M461.01 -13.043H-13.1156V526.687H461.01V-13.043Z" fill="white"/>
</mask>
<g mask="url(#mask7_14_83)">
<path d="M165.799 411.287L168.185 407.709L160.73 402.937L161.923 401.148L168.483 405.323L170.571 402.341L164.309 397.868L165.203 396.377L172.36 400.85L173.851 399.061V408.901L170.869 413.971L175.043 416.655L178.025 411.287L188.164 405.025L183.393 402.341L178.025 406.218L178.622 399.657L174.745 397.57L163.414 390.115L154.468 403.534L165.799 411.287Z" fill="white"/>
</g>
<mask id="mask8_14_83" style="mask-type:luminance" maskUnits="userSpaceOnUse" x="-14" y="-14" width="476" height="541">
<path d="M461.01 -13.043H-13.1156V526.687H461.01V-13.043Z" fill="white"/>
</mask>
<g mask="url(#mask8_14_83)">
<path d="M192.041 424.106L194.128 418.142L200.39 420.229L201.583 416.651L195.321 414.563L196.215 412.476L203.372 415.16L204.565 411.283L192.935 407.108L187.27 422.316L192.041 424.106Z" fill="white"/>
</g>
<mask id="mask9_14_83" style="mask-type:luminance" maskUnits="userSpaceOnUse" x="-14" y="-14" width="476" height="541">
<path d="M461.01 -13.043H-13.1156V526.687H461.01V-13.043Z" fill="white"/>
</mask>
<g mask="url(#mask9_14_83)">
<path d="M202.479 419.037C201.585 423.809 203.971 427.983 209.04 428.878C213.811 429.773 217.687 427.089 218.88 422.019C219.774 417.249 217.389 413.074 212.32 412.179C207.251 411.285 203.374 414.267 202.479 419.037ZM207.251 420.23C207.847 416.652 209.934 416.354 211.425 416.354C212.618 416.652 214.407 417.845 213.811 421.423C213.215 425.001 211.127 425.3 209.636 425.3C208.443 425.001 206.654 423.809 207.251 420.23Z" fill="white"/>
</g>
<mask id="mask10_14_83" style="mask-type:luminance" maskUnits="userSpaceOnUse" x="-14" y="-14" width="476" height="541">
<path d="M461.01 -13.043H-13.1156V526.687H461.01V-13.043Z" fill="white"/>
</mask>
<g mask="url(#mask10_14_83)">
<path d="M227.528 431.262C232.598 431.262 235.878 427.983 235.878 422.913C235.878 417.844 232.598 414.265 227.827 414.265C222.758 414.265 219.477 417.546 219.477 422.615C219.179 427.386 222.459 430.964 227.528 431.262ZM227.827 418.142C229.019 418.142 231.107 419.036 231.107 422.615C231.107 426.193 229.019 427.088 227.827 427.088C226.634 427.088 224.547 426.193 224.547 422.615C224.547 419.036 226.336 418.142 227.827 418.142Z" fill="white"/>
</g>
<mask id="mask11_14_83" style="mask-type:luminance" maskUnits="userSpaceOnUse" x="-14" y="-14" width="476" height="541">
<path d="M461.01 -13.043H-13.1156V526.687H461.01V-13.043Z" fill="white"/>
</mask>
<g mask="url(#mask11_14_83)">
<path d="M240.347 417.845L242.434 430.071L247.205 429.176L245.416 417.248L249.889 416.354L249.293 412.179L235.278 414.565L235.874 418.74L240.347 417.845Z" fill="white"/>
</g>
<mask id="mask12_14_83" style="mask-type:luminance" maskUnits="userSpaceOnUse" x="-14" y="-14" width="476" height="541">
<path d="M461.01 -13.043H-13.1156V526.687H461.01V-13.043Z" fill="white"/>
</mask>
<g mask="url(#mask12_14_83)">
<path d="M263.906 424.408C266.59 423.513 268.677 420.829 267.484 417.847C266.59 415.462 265.099 414.865 263.31 414.865C264.204 413.971 264.801 412.778 264.205 411.287C263.608 409.796 262.117 407.709 257.942 409.2L249.593 412.182L254.96 427.39L263.906 424.408ZM262.713 419.04C263.012 420.233 262.415 420.829 261.52 421.127L258.837 422.022L257.942 419.04L260.924 417.847C261.52 417.847 262.415 418.145 262.713 419.04ZM258.24 413.076C259.135 412.778 260.03 412.778 260.328 413.673C260.626 414.567 260.03 415.164 259.135 415.462L256.749 416.357L255.855 413.971L258.24 413.076Z" fill="white"/>
</g>
<mask id="mask13_14_83" style="mask-type:luminance" maskUnits="userSpaceOnUse" x="-14" y="-14" width="476" height="541">
<path d="M461.01 -13.043H-13.1156V526.687H461.01V-13.043Z" fill="white"/>
</mask>
<g mask="url(#mask13_14_83)">
<path d="M273.745 420.23L273.447 417.845L277.92 415.459L279.709 417.248L284.182 414.863L271.36 403.234L266.887 405.619L269.273 422.914L273.745 420.23ZM271.658 408.899L275.237 412.776L272.552 414.267L271.658 408.899Z" fill="white"/>
</g>
<mask id="mask14_14_83" style="mask-type:luminance" maskUnits="userSpaceOnUse" x="-14" y="-14" width="476" height="541">
<path d="M461.01 -13.043H-13.1156V526.687H461.01V-13.043Z" fill="white"/>
</mask>
<g mask="url(#mask14_14_83)">
<path d="M294.919 407.109L292.832 403.83L286.569 407.706L280.009 397.568L275.835 400.251L284.78 413.968L294.919 407.109Z" fill="white"/>
</g>
<mask id="mask15_14_83" style="mask-type:luminance" maskUnits="userSpaceOnUse" x="-14" y="-14" width="476" height="541">
<path d="M461.01 -13.043H-13.1156V526.687H461.01V-13.043Z" fill="white"/>
</mask>
<g mask="url(#mask15_14_83)">
<path d="M305.951 399.062L303.565 395.484L297.9 399.957L290.444 390.116L286.568 393.098L296.408 406.219L305.951 399.062Z" fill="white"/>
</g>
<mask id="mask16_14_83" style="mask-type:luminance" maskUnits="userSpaceOnUse" x="-14" y="-14" width="476" height="541">
<path d="M461.01 -13.043H-13.1156V526.687H461.01V-13.043Z" fill="white"/>
</mask>
<g mask="url(#mask16_14_83)">
<path d="M318.176 389.817C321.754 386.835 321.754 382.362 319.667 379.976L315.79 382.958C316.387 384.45 316.685 385.642 315.492 386.835C313.703 388.326 311.615 386.835 310.423 385.344C308.932 383.555 308.335 381.468 310.125 379.976C311.615 378.783 313.107 379.678 313.703 380.275L317.579 377.293C314.597 374.311 311.317 374.013 307.739 376.696C303.863 379.678 303.266 384.449 306.546 388.624C309.528 391.904 314.299 393.097 318.176 389.817Z" fill="white"/>
</g>
<mask id="mask17_14_83" style="mask-type:luminance" maskUnits="userSpaceOnUse" x="-14" y="-14" width="476" height="541">
<path d="M461.01 -13.043H-13.1156V526.687H461.01V-13.043Z" fill="white"/>
</mask>
<g mask="url(#mask17_14_83)">
<path d="M334.281 376.696L331.597 373.415L325.932 377.889L318.775 368.048L314.601 371.03L324.441 384.151L334.281 376.696Z" fill="white"/>
</g>
<mask id="mask18_14_83" style="mask-type:luminance" maskUnits="userSpaceOnUse" x="-14" y="-14" width="476" height="541">
<path d="M461.01 -13.043H-13.1156V526.687H461.01V-13.043Z" fill="white"/>
</mask>
<g mask="url(#mask18_14_83)">
<path d="M341.136 372.82C345.311 370.137 346.504 367.155 344.118 363.279L339.049 354.631L334.874 357.315L339.347 365.068C340.242 366.559 341.136 368.348 339.347 369.541C337.26 370.733 336.067 368.944 335.47 367.453L330.998 359.7L326.823 362.384L331.892 371.032C333.681 374.61 336.962 375.206 341.136 372.82Z" fill="white"/>
</g>
<mask id="mask19_14_83" style="mask-type:luminance" maskUnits="userSpaceOnUse" x="-14" y="-14" width="476" height="541">
<path d="M461.01 -13.043H-13.1156V526.687H461.01V-13.043Z" fill="white"/>
</mask>
<g mask="url(#mask19_14_83)">
<path d="M356.642 365.362C359.326 364.467 361.413 361.783 360.22 358.801C359.326 356.416 357.835 355.819 356.046 355.819C356.94 354.925 357.537 353.732 356.94 352.241C356.344 350.75 354.555 348.662 350.678 350.154L342.329 353.136L347.696 368.343L356.642 365.362ZM355.45 359.994C355.747 361.187 355.151 361.783 354.257 362.081L351.573 362.976L350.678 359.994L353.66 358.801C354.555 358.801 355.151 359.099 355.45 359.994ZM350.976 354.03C351.871 353.732 352.765 353.732 353.064 354.626C353.362 355.521 352.765 356.118 351.871 356.416L349.486 357.31L348.591 354.925L350.976 354.03Z" fill="white"/>
</g>
<mask id="mask20_14_83" style="mask-type:luminance" maskUnits="userSpaceOnUse" x="-14" y="-14" width="476" height="541">
<path d="M461.01 -13.043H-13.1156V526.687H461.01V-13.043Z" fill="white"/>
</mask>
<g mask="url(#mask20_14_83)">
<path d="M381.394 329.281L380.5 328.386H380.202C389.148 312.88 386.464 298.268 386.464 297.374C386.166 296.181 385.569 293.498 382.885 291.112C379.605 288.13 374.238 286.937 367.081 287.831C359.328 288.726 353.663 291.41 351.575 295.585L351.277 295.883C350.681 297.075 349.786 299.461 350.084 302.741C350.382 305.127 351.277 308.109 351.873 310.494C347.401 311.091 343.226 311.687 339.349 313.178C335.473 314.669 333.385 316.458 332.789 318.844C332.491 319.44 332.491 320.335 332.789 320.931C332.789 320.931 331.894 333.753 333.385 345.681C314.599 354.03 303.864 364.169 303.864 364.169C262.713 402.338 229.911 403.531 226.035 403.531H225.737C225.439 403.531 191.147 404.127 147.908 364.169C147.908 364.169 137.471 355.223 119.58 347.172C121.369 334.648 120.474 319.44 120.176 318.545C119.58 316.16 117.492 314.073 113.616 312.88C109.739 311.389 105.564 310.793 101.092 310.196C101.986 307.811 102.582 304.829 102.881 302.443C103.179 299.163 102.582 297.075 101.688 295.585C101.688 295.287 101.39 295.287 101.39 294.988C99.0046 290.813 93.637 287.831 85.8837 287.235C78.7269 286.639 73.3599 287.534 70.0794 290.516C67.3959 292.901 66.7995 295.585 66.5015 296.777C66.5015 297.374 63.8174 311.091 73.9563 326.895C73.9563 326.895 73.6578 326.895 73.3599 327.193C73.3599 327.193 73.0614 327.491 72.7635 327.491C72.1671 327.79 71.8686 328.088 71.5707 328.684C70.6758 329.579 69.483 331.368 68.5887 333.455C66.5015 338.227 65.3087 348.365 74.5527 369.537L74.8506 370.133L75.447 370.431C75.7455 370.431 101.39 377.588 128.824 399.058C148.206 414.266 171.465 430.666 196.214 437.823L198.301 438.419C201.582 439.314 205.16 440.208 208.738 440.506L211.124 440.805C211.422 440.805 212.019 440.805 212.615 441.103H213.808C217.684 441.401 221.56 441.699 225.437 441.699C227.524 441.699 229.314 441.699 231.401 441.401C236.47 441.103 241.838 440.506 247.205 439.314C251.082 438.419 253.766 437.823 254.958 437.226C277.621 430.666 301.477 416.651 322.052 398.461C349.188 374.307 374.832 370.133 375.131 370.133H376.025L376.324 369.238C383.778 349.26 384.673 339.121 383.778 334.052C384.076 332.56 382.289 330.473 381.394 329.281ZM354.259 296.48C356.346 293.199 360.819 291.112 367.379 290.516C368.572 290.516 369.765 290.217 370.958 290.217C375.43 290.217 378.711 291.112 380.798 293.199C382.885 294.988 383.184 297.075 383.481 297.672V298.865V299.163C382.587 304.531 378.412 306.916 371.256 308.109L369.168 298.567L367.678 298.865C356.942 301.847 354.557 300.057 353.96 299.461C353.066 298.567 354.259 296.48 354.259 296.48ZM353.96 303.039C356.645 304.232 361.117 303.934 367.081 302.443L368.572 309.003C366.186 309.301 363.503 309.6 360.521 309.898H360.222C359.626 309.898 359.03 309.898 358.434 310.196C357.837 310.196 356.942 310.196 356.346 310.494H355.153C355.153 310.196 354.855 309.6 354.557 309.003C354.259 308.109 353.96 306.916 353.663 305.723C353.364 304.829 353.066 303.636 353.066 302.741C353.364 302.741 353.663 303.039 353.96 303.039ZM335.771 319.738C336.069 318.247 337.858 317.055 340.542 315.862C344.419 314.371 348.593 313.775 353.066 313.178C353.662 313.178 353.96 313.178 354.557 312.88C356.346 312.582 357.837 312.582 359.626 312.283H359.924H360.521H361.714C362.31 312.283 362.906 312.283 363.503 311.985C366.485 311.687 369.467 311.389 372.15 310.793C374.536 310.494 376.623 309.898 378.711 309.003C380.202 308.407 381.394 307.811 382.587 306.916C383.184 306.32 384.078 305.724 384.674 305.127V306.916C384.376 312.283 382.885 319.44 378.711 326.597C377.816 326.001 376.623 325.702 375.132 325.404C370.958 324.211 363.503 323.913 356.346 323.615C351.277 323.317 345.909 323.317 342.033 322.72C338.455 322.124 337.262 321.527 336.964 321.229C335.771 320.931 335.771 320.335 335.771 319.738ZM335.473 324.808V324.211C337.56 325.106 341.138 325.702 345.611 326.001C347.699 326.001 349.786 326.299 352.171 326.299H355.153C362.012 326.597 369.168 326.895 373.343 327.79C374.536 328.088 375.43 328.386 376.325 328.684C376.922 328.983 377.22 328.983 377.518 329.281C379.009 330.175 379.009 330.771 379.009 330.771C379.009 331.368 378.412 332.263 376.623 333.157C375.729 333.753 374.536 334.052 373.045 334.648C370.659 335.542 367.379 336.139 362.906 336.735C352.768 338.227 343.822 341.208 336.069 344.19C335.473 337.034 335.473 329.281 335.473 324.808ZM100.496 302.443C100.496 303.338 100.197 304.232 99.8994 305.425C99.6015 306.618 99.3031 307.512 99.0051 308.705C98.7066 309.301 98.7066 309.6 98.4087 310.196H97.2159C96.6195 310.196 95.7246 310.196 95.1282 309.898C94.5318 309.898 93.9354 309.898 93.339 309.6H93.0411C90.0591 309.301 87.3756 309.003 84.99 308.705L86.4807 302.145C92.7426 303.636 96.9174 303.934 99.6015 302.741C100.197 302.741 100.496 302.741 100.496 302.443ZM72.4655 292.901C75.1496 290.516 79.9203 289.621 86.1828 290.217C92.7426 290.813 97.5138 292.901 99.303 296.181C99.601 296.479 100.197 298.567 99.6015 299.461C99.0051 300.057 96.6195 301.847 85.8843 298.865L84.3936 298.567L82.3059 308.109C75.1496 306.916 70.6763 304.531 70.0799 299.163V298.865V297.672C70.0799 297.075 70.3784 294.69 72.4655 292.901ZM70.0799 307.214C70.0799 306.618 69.782 306.021 69.782 305.425C70.3784 306.021 70.9748 306.618 71.5712 306.916C72.764 307.811 73.9568 308.407 75.4475 309.003C77.2367 309.898 79.6224 310.494 81.7095 310.793C84.3936 311.389 87.3756 311.687 90.357 311.985C90.9534 311.985 91.5498 311.985 92.1462 312.283H93.339H93.9354H94.2339C96.0231 312.283 97.5138 312.582 99.303 312.88C99.8994 312.88 100.197 312.88 100.794 313.178C105.267 313.775 109.442 314.371 113.318 315.862C116.002 317.055 117.791 318.247 118.089 319.738C118.387 320.335 118.089 320.931 117.791 321.527C117.493 321.826 116.002 322.422 112.722 323.019C108.845 323.615 103.478 323.615 98.4087 323.913C91.2519 324.211 83.7972 324.509 79.6224 325.702C78.7275 326.001 78.1311 326.299 77.2367 326.597C72.764 319.142 70.6763 312.283 70.0799 307.214ZM74.5532 331.368V330.771C74.8511 330.473 75.4475 329.877 76.0439 329.578C76.3424 329.281 76.9388 329.281 77.2367 328.982C77.5352 328.684 78.1311 328.684 78.7275 328.386C79.026 328.386 79.6224 328.088 80.2188 328.088C84.0951 326.895 91.2519 326.597 98.4087 326.597C99.8995 326.597 101.39 326.597 102.881 326.299C105.267 326.299 107.354 326.001 109.143 326.001C113.02 325.702 116.3 325.106 118.089 324.211V324.808C118.089 329.578 118.387 338.227 117.195 346.278C109.143 342.699 99.8994 339.419 89.1642 337.332C86.1828 336.735 83.7972 336.139 82.008 335.542C81.4116 335.245 80.8152 335.245 80.2188 334.946C74.5532 332.859 74.5532 331.666 74.5532 331.368ZM374.535 368.344C369.764 369.238 346.207 374.904 320.86 397.269C300.583 415.16 277.026 428.877 254.662 435.437C253.469 435.736 250.786 436.63 247.207 437.226C242.138 438.419 237.069 439.016 231.999 439.314C226.334 439.612 220.37 439.612 214.704 438.717H213.511C213.214 438.717 212.617 438.717 212.319 438.419L209.933 438.121C207.25 437.823 204.566 437.226 201.882 436.332L200.093 435.736C175.045 428.877 151.487 412.178 131.806 396.97C106.46 377.289 82.3059 369.537 78.1311 368.046C69.1856 346.576 70.9748 337.63 72.764 334.35C72.764 334.052 73.0619 334.052 73.0619 333.753C73.6583 334.35 74.2547 334.946 75.4475 335.542C76.0439 335.841 76.9388 336.437 77.8331 336.735C80.2187 337.63 84.0951 338.823 89.1642 340.015C95.7246 341.507 101.689 343.296 107.056 345.085C109.143 345.979 111.231 346.576 113.318 347.47C115.107 348.067 116.897 348.961 118.686 349.856C136.577 357.907 146.716 366.555 146.716 366.555C190.55 407.109 224.841 406.811 226.331 406.811H226.63C230.506 406.811 264.202 405.618 306.245 366.853C306.245 366.853 316.384 357.012 334.275 348.961C334.574 348.663 335.17 348.663 335.767 348.365C337.257 347.768 338.748 347.172 340.537 346.576C347.396 343.892 355.149 341.804 364.095 340.314C370.058 339.419 374.233 338.227 376.917 337.034C377.812 336.735 378.706 336.139 379.303 335.841C380.496 335.245 381.092 334.648 381.688 334.052C381.688 334.35 381.986 334.648 381.986 334.946C382.284 338.524 381.99 348.067 374.535 368.344Z" fill="white"/>
</g>
<mask id="mask21_14_83" style="mask-type:luminance" maskUnits="userSpaceOnUse" x="-14" y="-14" width="476" height="541">
<path d="M461.01 -13.043H-13.1156V526.687H461.01V-13.043Z" fill="white"/>
</mask>
<g mask="url(#mask21_14_83)">
<path d="M223.648 334.052C225.437 330.771 222.455 327.789 222.455 328.386C222.753 329.28 220.964 329.578 220.964 329.578C219.174 329.877 215.298 328.684 215.298 328.684C202.178 326.298 206.352 342.699 207.247 346.278C207.843 348.365 206.352 353.136 198.897 352.539C193.232 351.943 192.934 354.925 192.934 354.925C195.617 352.837 197.406 354.329 197.406 354.329C194.424 354.627 193.53 357.907 193.53 357.907C196.512 355.223 199.196 357.012 199.196 357.012C196.81 357.609 196.81 360.889 196.81 360.889C198.599 358.504 200.388 359.696 200.388 359.696C200.388 359.696 203.967 361.187 204.861 357.311C205.16 356.118 207.247 357.907 207.247 357.907C206.948 356.416 207.545 354.925 207.843 354.329C208.141 353.732 210.527 356.118 210.527 356.118C211.72 354.925 211.123 353.434 211.123 353.136C211.123 352.54 210.229 350.452 210.825 349.26C212.614 346.874 215 351.048 215 351.048C215.596 347.768 212.316 341.506 212.018 341.208C210.527 339.419 209.93 335.244 216.491 340.314C218.876 342.401 221.858 341.208 221.858 341.208C220.963 337.928 223.648 334.052 223.648 334.052Z" fill="white"/>
</g>
<mask id="mask22_14_83" style="mask-type:luminance" maskUnits="userSpaceOnUse" x="-14" y="-14" width="476" height="541">
<path d="M461.01 -13.043H-13.1156V526.687H461.01V-13.043Z" fill="white"/>
</mask>
<g mask="url(#mask22_14_83)">
<path d="M215.298 297.674C215.298 297.674 216.491 299.165 215.298 301.252C215.298 301.252 218.876 302.147 220.666 300.357C220.666 300.357 219.771 302.743 221.262 305.427C221.262 305.427 223.946 303.936 224.542 302.147C224.542 302.147 225.735 302.445 226.63 304.532C227.524 306.619 228.419 306.918 228.419 306.918C228.419 306.918 228.419 303.936 230.506 303.339C230.506 303.339 232.892 306.321 236.171 305.129C236.171 305.129 230.804 302.147 236.171 300.954C236.171 300.954 232.295 299.761 232.593 297.972C232.593 297.972 230.506 301.252 226.033 300.357C226.033 300.357 227.226 298.867 226.63 297.078C226.63 297.078 223.051 299.165 220.069 297.674C220.069 297.674 220.069 294.393 222.156 293.201C222.156 293.201 217.386 292.604 215.894 294.096C215.894 294.096 215 292.008 216.491 290.219C216.491 290.219 212.018 291.71 210.825 298.867C210.527 299.165 213.807 299.463 215.298 297.674Z" fill="white"/>
</g>
<mask id="mask23_14_83" style="mask-type:luminance" maskUnits="userSpaceOnUse" x="-14" y="-14" width="476" height="541">
<path d="M461.01 -13.043H-13.1156V526.687H461.01V-13.043Z" fill="white"/>
</mask>
<g mask="url(#mask23_14_83)">
<path d="M185.78 315.566C185.78 315.566 181.605 318.846 184.885 322.424C184.885 322.424 185.184 317.951 187.867 319.144C187.867 319.144 183.395 322.424 187.867 325.108C187.867 325.108 187.569 320.635 191.148 321.529C193.235 322.126 194.726 319.442 194.726 319.442C194.726 319.442 197.111 317.951 198.602 320.039C200.093 322.424 202.181 322.722 202.479 323.021C202.479 323.021 200.988 320.933 202.479 320.039C202.479 320.039 204.864 322.424 206.654 322.424C206.654 322.424 204.566 320.039 206.654 319.74C206.654 319.74 207.846 319.74 208.144 320.933C208.443 322.424 212.021 323.021 212.319 323.021C212.319 323.021 210.232 321.232 211.425 319.442V319.144C212.618 317.355 213.81 317.951 213.81 317.951C218.283 316.759 217.985 311.988 217.985 310.795C218.283 310.795 218.581 311.093 218.581 311.391C219.177 312.882 219.476 316.46 214.406 319.442C214.406 319.442 214.705 323.617 221.563 326.599C221.563 326.599 220.669 321.232 224.843 328.984C224.843 328.984 226.334 331.966 224.545 334.948C223.054 337.93 221.265 342.999 226.931 346.28C232.596 349.858 236.175 353.735 233.491 363.873C233.491 363.873 231.702 367.451 228.124 366.557C224.545 365.662 223.054 364.171 220.072 368.048C220.072 368.048 223.651 366.258 225.738 368.644C225.738 368.644 221.563 367.451 220.072 372.819C220.072 372.819 224.247 370.433 226.036 372.222C226.036 372.222 223.651 372.819 223.651 375.801C223.651 375.801 226.036 374.012 227.825 374.906C230.807 376.099 231.403 374.31 232.298 372.819C233.193 371.328 235.28 373.415 238.262 372.819C238.262 372.819 234.088 369.539 236.473 368.048C237.964 367.153 240.647 368.943 241.84 367.451C241.84 367.451 236.473 365.364 239.157 361.786C240.349 360.294 242.437 362.084 243.629 361.189C243.629 361.189 240.051 359.997 240.647 356.717C240.946 354.629 241.84 354.927 242.437 355.225C243.033 355.524 244.524 355.822 245.419 355.225C245.419 355.225 243.928 354.927 243.629 353.138C243.331 351.349 243.629 348.963 241.542 347.473C240.349 346.578 239.455 346.578 239.455 343.596C239.455 340.017 240.946 339.719 241.84 339.421C242.735 339.421 244.822 339.123 246.015 338.229C246.015 338.229 253.768 333.457 249.593 323.617C245.419 313.777 243.331 313.18 243.928 305.427C244.524 297.674 246.313 294.096 248.102 291.412C249.295 289.325 251.979 287.834 253.768 287.536C253.768 287.536 258.241 286.641 257.645 292.008C257.645 292.008 257.645 293.5 254.961 295.587C252.277 297.972 251.383 300.358 251.383 300.358C251.383 300.358 254.365 298.27 254.961 298.867C255.557 299.463 255.259 300.358 254.066 301.849C252.873 303.042 251.383 306.024 251.681 308.409C251.681 308.409 252.575 306.918 253.768 306.918C253.768 306.918 253.172 311.689 256.154 313.478C256.154 313.478 255.259 308.111 257.346 305.129C258.837 303.042 262.416 296.183 260.328 291.412C260.328 291.412 260.328 285.15 256.452 284.554C256.452 284.554 257.048 285.746 256.75 285.448C256.452 285.15 244.524 284.256 242.139 303.042C242.139 303.936 241.542 306.62 241.542 306.62C241.542 306.62 241.244 311.391 238.262 307.813C238.262 307.813 237.964 311.689 241.84 314.075C245.717 316.758 238.262 316.46 236.771 313.777C236.771 313.777 236.771 316.758 240.647 318.547C244.524 320.039 243.928 322.126 237.665 320.635C237.665 320.635 239.455 323.319 244.524 323.319C249.593 323.319 249.891 331.072 248.102 332.861C245.419 335.247 243.928 334.948 242.735 334.65C241.244 334.352 240.647 334.65 240.647 334.65C240.647 334.65 237.665 331.668 237.069 328.984C236.771 326.897 232.596 323.319 232.596 323.319C232.596 323.319 230.211 320.337 231.106 314.373C232 308.409 232.298 306.62 232 305.726C232 305.726 230.509 305.427 229.913 304.533C229.913 304.533 229.018 306.918 229.018 308.409C229.018 308.409 226.036 307.813 224.843 305.427C223.949 303.042 223.054 303.638 223.054 303.638C223.054 303.638 221.265 306.024 219.177 306.62C219.177 306.62 218.283 306.322 218.283 303.936V302.445V301.551C218.283 301.551 215.003 302.445 212.916 301.551C212.916 301.551 213.512 300.06 212.916 299.165C212.916 299.165 211.425 300.06 208.443 299.463C208.443 299.463 207.846 296.78 210.53 292.605C210.53 292.605 210.828 291.412 209.337 288.728C207.846 286.343 205.461 280.975 207.548 277.397C209.039 275.011 208.443 271.731 206.355 270.539C204.566 269.346 203.373 269.346 200.69 270.241C200.69 270.241 204.268 269.942 204.268 272.924C204.268 272.924 200.392 269.048 197.111 272.924C197.111 272.924 201.584 272.328 200.69 275.906C200.69 275.906 197.41 271.433 194.129 276.8C194.129 276.8 198.602 276.204 198.602 280.081C198.304 282.764 201.882 283.659 201.882 283.659C201.882 283.659 202.777 291.412 198.304 291.114C198.304 291.114 200.988 292.903 202.18 292.605C202.18 292.605 202.479 295.587 199.795 295.885C199.795 295.885 201.286 297.376 203.373 297.376C203.373 297.376 203.672 298.27 202.479 298.867C200.988 299.762 200.988 302.147 200.988 302.445C200.988 302.445 202.479 301.252 204.864 302.445C207.25 303.638 210.232 302.744 210.828 302.445C210.828 302.445 211.425 302.147 212.021 302.147C211.723 302.445 211.425 303.042 210.828 303.936C209.934 305.129 208.741 306.62 207.548 308.111C204.268 311.391 198.602 314.671 190.253 310.795C188.166 309.9 184.587 309.602 183.096 311.093C181.605 312.584 181.009 314.373 182.5 316.46C183.096 318.25 183.096 314.97 185.78 315.566Z" fill="white"/>
</g>
<mask id="mask24_14_83" style="mask-type:luminance" maskUnits="userSpaceOnUse" x="-14" y="-14" width="476" height="541">
<path d="M461.01 -13.043H-13.1156V526.687H461.01V-13.043Z" fill="white"/>
</mask>
<g mask="url(#mask24_14_83)">
<path d="M224.84 292.606C222.157 293.799 222.455 296.482 222.455 296.482C226.63 296.184 227.524 294.395 227.524 294.395C229.91 294.991 228.419 298.271 228.121 298.57H228.717C229.612 298.57 231.401 297.675 233.19 295.289C233.19 295.886 233.786 299.763 239.75 299.464C239.75 299.464 235.874 297.675 236.768 295.289V294.991C239.154 297.377 242.434 294.395 242.434 294.395C239.154 294.395 238.856 292.606 238.856 291.711C242.732 294.097 244.82 290.22 244.223 289.624C244.223 289.624 237.365 292.308 243.03 280.082C243.627 278.591 245.714 276.205 243.627 274.118C241.54 272.03 240.645 268.452 243.03 266.663C243.03 266.663 240.347 265.47 236.768 267.856C234.979 269.049 233.488 268.452 233.488 268.452C233.488 268.452 230.506 266.961 227.822 268.154C225.735 269.049 225.139 270.242 224.84 270.837C223.35 270.242 220.666 272.03 220.368 272.03C220.07 272.03 220.368 273.223 220.07 273.819C219.771 274.416 219.473 276.504 222.157 276.504C224.84 276.205 226.63 275.609 226.63 275.609C226.63 275.609 227.226 276.205 227.524 277.696C227.822 279.486 228.717 282.169 225.139 282.467L226.033 283.362C226.928 283.958 229.91 283.958 230.208 282.169C230.804 280.678 231.699 280.38 231.699 280.38C231.699 280.38 233.19 284.555 227.226 285.151C221.262 285.747 217.684 287.835 216.491 292.308C223.648 290.519 224.84 292.606 224.84 292.606ZM230.506 272.03C229.314 272.925 228.121 272.627 226.63 271.136C228.121 269.347 230.208 268.75 233.19 270.837C233.19 270.837 231.699 271.136 230.506 272.03Z" fill="white"/>
</g>
<mask id="mask25_14_83" style="mask-type:luminance" maskUnits="userSpaceOnUse" x="-14" y="-14" width="476" height="541">
<path d="M461.01 -13.043H-13.1156V526.687H461.01V-13.043Z" fill="white"/>
</mask>
<g mask="url(#mask25_14_83)">
<path d="M166.695 231.179L157.153 215.077L147.313 231.477L157.153 249.965L166.695 231.179Z" fill="white"/>
</g>
<mask id="mask26_14_83" style="mask-type:luminance" maskUnits="userSpaceOnUse" x="-14" y="-14" width="476" height="541">
<path d="M461.01 -13.043H-13.1156V526.687H461.01V-13.043Z" fill="white"/>
</mask>
<g mask="url(#mask26_14_83)">
<path d="M305.055 231.179L295.215 215.077L285.374 231.477L295.513 249.965L305.055 231.179Z" fill="white"/>
</g>
<mask id="mask27_14_83" style="mask-type:luminance" maskUnits="userSpaceOnUse" x="-14" y="-14" width="476" height="541">
<path d="M461.01 -13.043H-13.1156V526.687H461.01V-13.043Z" fill="white"/>
</mask>
<g mask="url(#mask27_14_83)">
<path d="M224.247 391.905H225.439C281.501 380.872 325.932 330.479 326.525 277.099V145.001H279.113C282.095 143.808 284.48 140.826 284.48 137.247C284.48 132.775 280.902 128.898 276.131 128.898H264.501C259.73 128.302 258.836 123.531 258.836 123.531C253.17 129.495 247.504 120.251 247.504 120.251L237.664 123.531L235.278 119.058C236.471 116.672 237.962 114.287 239.453 113.094C242.137 110.708 243.031 110.41 243.031 110.41C241.839 107.726 241.242 105.341 241.242 104.446C241.541 104.148 243.628 103.254 245.715 102.359C246.61 102.061 247.504 101.762 248.399 101.464H249.89L248.697 100.272C248.995 100.272 249.592 100.868 249.89 100.868C250.486 101.166 251.083 101.464 251.679 101.464C252.275 101.464 253.17 101.464 252.872 100.868C253.17 100.868 253.767 101.166 254.065 101.166H255.257C255.555 100.868 255.854 100.868 256.152 100.57C256.45 100.272 256.748 100.272 257.047 99.9736C257.047 99.6752 257.344 99.6751 257.344 99.3772C257.344 99.0787 257.344 98.7808 257.047 98.7808C256.45 98.1844 255.854 98.1844 255.257 97.8859L253.17 97.2895C252.574 96.9916 252.275 96.9916 251.679 96.6931C250.188 96.0967 251.679 96.6931 252.275 96.6931H253.767C254.363 96.6931 254.661 96.3952 255.257 96.3952L256.748 95.7988C256.748 95.7988 255.257 96.3952 251.977 94.0096C250.785 93.1147 250.188 91.9219 249.293 91.0276C247.504 88.9405 245.715 86.8528 243.628 85.0636C241.541 83.2744 239.453 81.4852 237.067 80.2924C234.98 79.1001 232.595 78.2052 229.911 78.2052H229.613C229.613 77.9073 229.016 73.1361 231.7 67.1721C233.191 63.8922 233.489 60.6117 231.998 57.9281C230.805 55.841 229.016 54.6482 226.929 54.0518C226.631 54.0518 223.052 53.4554 218.878 56.4374C217.685 57.0338 216.492 57.6302 215.3 58.2261C218.878 54.0518 226.631 49.877 228.122 49.5785V49.2806C227.823 49.2806 222.754 49.5785 219.474 51.6662C220.071 50.4734 220.667 48.3857 220.071 45.1058V44.8079H219.772C219.772 44.8079 212.019 46.5971 212.019 57.3317C212.019 57.3317 212.019 58.8225 211.423 60.6117C210.528 61.2081 210.23 61.8045 210.23 61.8045C210.528 61.5066 210.827 61.5066 211.125 61.5066C210.827 62.103 210.528 62.9973 209.932 63.5937C208.143 65.9793 206.652 70.1541 206.652 73.7325V74.0304L206.95 73.7325C206.95 73.7325 209.932 71.6448 210.528 68.9613C210.827 67.7685 211.721 66.8742 212.019 66.2778C212.318 67.4706 212.616 70.1541 212.616 70.7505V71.0484H212.914C213.51 70.452 215.896 67.1721 213.51 62.6994C213.212 62.103 213.212 61.2081 213.212 60.3138C217.089 59.4189 219.772 60.9102 220.965 61.5066C221.562 62.103 222.158 62.6994 222.456 63.5937C223.052 65.3829 222.754 67.4706 221.562 69.5577C220.667 71.6448 219.474 73.1361 218.58 74.6268C216.194 78.5037 214.405 81.1873 215.001 87.1513C215.896 94.0096 220.369 97.2895 223.052 98.4823C224.544 99.9736 225.438 102.359 226.034 103.551C226.929 105.341 226.034 105.043 226.034 105.043C220.965 105.341 219.176 102.657 215.597 101.166C214.703 100.868 213.808 100.57 212.914 100.57C210.827 99.6751 207.845 99.6751 205.161 100.57C200.092 102.061 196.812 106.236 198.004 109.814C198.302 111.007 199.197 112.199 200.688 112.795C201.881 113.392 203.372 113.69 205.161 113.69C206.354 113.69 207.845 113.392 209.336 113.094C213.51 111.603 216.492 108.621 216.79 105.639C218.58 106.236 223.649 110.112 227.526 111.603C231.7 113.392 233.191 108.621 233.191 108.621C234.384 110.708 231.402 117.567 229.613 121.444L227.823 122.636L226.929 118.163L222.754 123.829C221.264 123.232 216.79 117.865 216.79 117.865C216.194 123.531 214.405 125.021 213.808 125.32L203.968 118.759C203.968 123.232 199.495 125.916 197.11 125.916L190.549 122.636C191.146 127.407 187.269 128.302 186.076 128.302H174.745C170.272 128.302 166.396 131.88 166.396 136.651C166.396 140.229 168.483 143.211 171.763 144.404H123.158V276.503C123.754 330.476 168.188 380.873 224.247 391.905ZM269.274 132.479H269.572C274.94 131.286 278.518 133.075 278.518 133.075C280.307 133.97 280.904 135.162 280.605 136.355C280.307 138.741 277.027 141.424 276.729 139.934C276.132 136.653 272.554 135.162 272.554 135.162C272.554 135.162 267.783 132.777 269.274 132.479ZM277.325 167.665C277.325 167.367 277.623 166.771 277.623 166.473C275.835 163.193 274.343 160.509 273.747 159.614C273.449 159.316 273.449 159.316 273.15 159.018C272.256 157.825 271.66 157.229 272.256 156.93C272.554 156.632 273.15 156.93 273.747 156.93C273.747 156.93 275.834 158.123 278.22 162.298C278.518 162.596 278.518 162.894 278.816 163.491C280.307 160.211 282.096 158.123 284.184 158.123C286.271 158.123 288.06 160.211 289.551 163.491C289.849 162.894 290.148 162.298 290.446 162C292.831 157.825 294.919 156.632 294.919 156.632C295.217 156.334 295.813 156.036 296.41 156.632C296.708 157.229 296.41 157.527 295.515 158.719L294.919 159.316C294.024 160.211 292.533 162.894 290.744 166.473C291.042 166.771 291.042 166.771 291.34 167.367C300.882 165.578 308.338 165.876 308.933 168.262C309.53 170.051 304.163 172.735 299.392 175.419C304.163 178.102 309.53 180.786 308.933 182.575C308.039 185.259 301.181 185.557 291.638 183.768L291.34 185.855V186.452L291.937 187.346C291.937 187.346 294.62 192.117 296.41 193.907C297.006 194.503 296.708 194.801 296.708 194.801C296.708 195.099 296.41 195.099 296.112 195.099C295.813 195.099 295.217 194.801 294.322 194.503C293.726 194.204 292.533 192.415 290.744 189.433C290.446 190.03 290.446 190.925 290.148 191.521C288.656 195.397 286.868 197.485 284.482 197.485C282.096 197.485 279.711 194.503 278.518 189.732C277.027 192.415 275.834 194.204 275.238 194.503C274.343 195.099 273.747 195.099 273.449 195.099C273.15 195.099 273.15 195.099 272.853 194.801C272.853 194.801 272.554 194.204 273.15 193.907C274.94 191.819 277.623 187.346 277.623 187.048C277.623 187.048 277.922 186.75 277.922 186.153C277.922 186.153 277.623 184.066 277.623 183.47C268.379 185.259 261.223 184.961 260.627 182.277C260.03 180.488 264.801 177.506 269.871 174.822C268.379 174.226 267.186 173.331 265.994 172.735C262.714 170.945 260.328 169.156 260.627 167.963C260.328 166.174 267.485 165.876 277.325 167.665ZM222.759 57.0371C222.759 57.0371 223.951 55.2478 227.231 57.0371C227.231 57.0371 226.039 59.4221 222.759 57.0371ZM224.548 81.1905C224.548 92.2236 234.686 96.1 234.985 96.3984C234.686 96.1 234.388 95.5036 234.388 95.2057C235.581 95.8021 236.774 96.3984 237.967 96.6964C238.563 96.9949 239.159 96.9949 239.756 97.2928H240.054C239.756 96.9949 239.457 96.3984 239.457 96.1C240.352 96.6964 241.247 96.9949 242.141 96.9949C242.439 96.9949 243.036 96.9949 243.334 96.6964L243.93 96.3984C244.229 96.3984 244.526 96.1 244.825 96.1C244.825 96.3984 244.526 96.6964 244.526 96.9949L243.93 97.5913C243.334 97.8892 242.738 98.1877 242.141 98.1877C241.843 98.1877 241.545 98.1877 241.247 97.8892C240.949 98.1877 240.352 98.1877 239.756 98.1877C239.159 98.1877 238.265 98.1877 237.668 97.8892C237.072 97.5913 236.774 97.5913 236.177 97.2928C233.195 97.5913 221.566 93.4164 224.548 81.1905ZM229.319 129.199C238.265 125.92 249.298 130.691 249.298 130.691C252.876 132.181 254.963 133.672 256.752 135.163C257.349 135.76 257.647 136.058 257.945 136.356C259.138 137.549 261.226 139.338 263.015 139.636C264.506 139.935 261.822 142.917 257.647 140.829C257.349 140.531 256.752 140.233 256.156 139.636C251.982 136.356 248.403 136.356 248.403 136.356C244.526 136.058 245.421 138.443 245.421 138.443C247.508 142.618 242.141 141.425 239.457 138.443C235.283 133.971 231.406 132.48 229.021 131.287C226.337 130.392 228.126 129.498 229.319 129.199ZM230.81 191.819C231.108 192.117 232.003 193.907 230.512 197.485C230.512 197.485 225.741 200.168 218.882 197.783C218.882 197.485 218.882 192.714 218.584 191.819C218.286 190.925 215.602 189.135 215.602 189.135C215.602 188.837 212.918 172.437 215.005 165.876C215.005 165.876 215.005 160.509 216.795 159.912C217.987 159.614 217.689 165.578 217.689 165.578V172.437C215.304 174.226 217.093 174.524 217.093 174.524C224.548 173.331 228.424 173.033 230.213 173.331H230.81C232.003 173.629 232.003 174.226 232.003 174.226C232.003 174.226 232.301 175.717 226.933 176.611C226.933 176.611 223.951 177.207 223.355 178.4C222.759 179.593 222.46 183.47 223.951 185.855C223.951 185.855 224.846 185.557 224.548 184.364C224.249 183.171 224.548 180.189 225.442 179.593C226.337 178.699 234.09 177.804 234.09 175.717C234.09 175.717 233.195 172.138 234.985 168.262C236.475 165.578 238.265 169.156 237.967 173.927C237.967 173.927 237.668 181.382 237.668 182.873C237.668 184.364 236.774 189.135 231.705 190.03C231.705 190.03 229.915 190.626 229.617 191.521C229.319 191.521 230.512 191.521 230.81 191.819ZM222.759 168.56C222.759 170.051 222.759 170.945 222.46 171.542C221.268 171.542 220.373 171.84 219.479 171.84C218.882 169.156 218.882 165.876 218.882 165.876L219.18 160.211C219.18 159.912 219.18 156.632 220.969 156.632C222.46 156.632 222.46 160.509 222.46 160.509C222.46 160.509 222.46 164.683 222.759 168.56ZM229.617 163.491C229.617 160.807 229.617 157.229 231.406 157.229C232.599 157.229 232.599 159.614 232.599 161.105V167.367C232.003 168.262 231.705 170.945 231.705 171.542C231.108 171.244 230.512 171.244 229.617 171.244C229.319 170.647 229.617 166.174 229.617 163.491ZM225.741 154.545H226.039C228.424 155.141 228.126 169.156 227.53 170.945C226.635 170.945 225.741 170.945 224.846 171.244C224.548 170.647 224.548 170.051 224.548 169.156C224.548 167.665 224.548 158.421 224.846 156.334C224.548 154.843 225.442 154.545 225.741 154.545ZM197.114 130.391C205.165 127.409 215.005 131.882 215.005 131.882C223.057 135.46 224.249 139.337 224.249 139.337C224.249 139.337 225.442 143.512 220.969 140.231C217.391 137.548 214.707 138.144 214.707 138.144C212.023 138.144 211.428 144.704 205.761 139.039C201.885 135.162 198.307 133.672 196.22 132.479C194.132 131.286 195.921 130.988 197.114 130.391ZM174.451 133.075C178.03 130.69 182.502 132.18 184.292 134.864C188.168 140.53 193.238 141.424 190.852 141.723C189.361 142.021 184.888 140.53 182.801 138.741C180.117 136.355 175.942 138.144 178.924 140.53C179.222 140.828 178.626 141.126 178.03 141.126C172.364 141.126 170.575 135.759 174.451 133.075ZM143.737 168.858C144.632 166.174 151.789 165.876 161.629 167.963C161.629 167.665 161.927 167.069 161.927 166.771C160.138 163.491 158.647 160.807 158.05 159.912L157.454 159.316C156.56 158.123 155.963 157.527 156.56 157.229C156.858 156.93 157.455 157.229 158.05 157.229C158.05 157.229 160.138 158.421 162.524 162.596C162.822 162.894 162.822 163.193 163.12 163.789C164.611 160.509 166.4 158.421 168.488 158.421C170.575 158.421 172.364 160.509 173.855 163.789C174.153 163.193 174.451 162.596 174.75 162.298C177.135 158.123 179.222 156.93 179.222 156.93C179.52 156.632 180.117 156.334 180.713 156.93C181.012 157.527 180.713 157.825 179.819 159.018C179.52 159.316 179.52 159.316 179.222 159.614C178.328 160.509 176.837 163.193 175.048 166.771C175.346 167.069 175.346 167.069 175.644 167.665C185.186 165.876 192.641 166.174 193.238 168.56C193.834 170.349 188.466 173.033 183.695 175.717C188.466 178.4 193.834 181.084 193.238 182.873C192.343 185.557 185.484 185.855 175.942 184.066L175.644 186.153V186.75L176.24 187.645C176.24 187.645 178.924 192.415 180.713 194.204C181.31 194.801 181.012 195.099 181.012 195.099C181.012 195.397 180.713 195.397 180.415 195.397C180.117 195.397 179.52 195.099 178.626 194.801C178.03 194.503 176.837 192.714 175.048 189.732C174.75 190.328 174.75 191.222 174.451 191.819C172.96 195.696 171.171 197.783 168.786 197.783C166.4 197.783 164.014 194.801 162.822 190.03C161.331 192.714 160.138 194.503 159.542 194.801C158.647 195.397 158.05 195.397 157.753 195.397C157.455 195.397 157.454 195.397 157.156 195.099C157.156 195.099 156.858 194.503 157.454 194.204C159.243 192.117 161.927 187.644 161.927 187.346C161.927 187.346 162.225 187.048 162.225 186.452C162.225 186.452 161.927 184.364 161.927 183.768C152.683 185.557 145.527 185.259 144.93 182.575C144.334 180.786 149.105 177.804 154.174 175.12C152.683 174.524 151.491 173.629 150.298 173.033C145.825 171.84 143.141 170.051 143.737 168.858ZM132.406 294.696C132.108 293.802 132.108 292.609 131.81 291.714C131.81 291.118 131.81 290.82 131.511 290.223C131.213 289.031 131.213 287.838 130.915 286.645V285.75C130.915 284.557 130.617 283.067 130.617 281.874V281.576C130.617 280.085 130.617 278.594 130.319 277.103V206.134H319.375V282.171C319.375 283.363 319.077 284.556 319.077 285.749C319.077 286.345 319.077 286.643 318.779 287.24C318.779 288.134 318.481 289.029 318.481 289.625C318.481 290.52 318.183 291.415 317.884 292.607C317.884 293.204 317.586 293.502 317.586 294.098C317.288 295.589 316.99 297.378 316.394 298.869H311.324V284.258H297.906V272.33H285.083V258.315H273.454V245.791H260.929V235.056H247.809L247.511 221.041H234.39L226.339 210.306L219.481 221.041H204.869V234.161H189.363V246.686H175.945V258.613H162.824V272.032H149.405V283.661H139.863V295.887H133.303C132.706 295.589 132.704 295.293 132.406 294.696ZM151.192 336.145C150.894 335.847 150.894 335.549 150.596 335.25C149.999 334.356 149.403 333.461 148.806 332.865C148.806 332.865 148.807 332.567 148.509 332.567C146.719 329.883 144.93 326.901 143.439 324.217C143.439 323.919 143.141 323.919 143.141 323.621C141.65 320.639 140.159 317.657 138.668 314.377H150.894V301.257H163.418V287.838H177.732V274.419H190.852V261.299H204.867V247.88H218.286V235.356H233.195V248.476H245.123V261.597H257.945V274.717H271.066V287.539H283.888V301.257H300.289V316.465H310.725C310.129 317.359 309.831 318.552 309.235 319.446V319.744C307.744 322.726 306.253 325.708 304.463 328.392C304.463 328.392 304.463 328.69 304.166 328.69C303.569 329.585 302.973 330.479 302.376 331.374C300.587 334.058 298.499 337.04 296.711 339.425C296.412 339.723 296.412 339.723 296.114 340.022L290.15 347.178C289.852 347.476 289.852 347.775 289.554 347.775C288.958 348.371 288.361 349.266 287.765 349.862C287.466 350.16 287.168 350.458 286.87 350.756C284.783 352.844 282.696 354.633 280.608 356.72C280.012 357.019 279.714 357.615 279.117 357.913C278.521 358.509 277.924 358.808 277.328 359.404C276.732 359.702 276.135 360.299 275.837 360.597C274.942 361.193 274.346 361.789 273.452 362.386C272.557 362.982 271.96 363.579 271.066 364.175C270.47 364.473 269.873 365.07 269.575 365.368C268.978 365.964 268.084 366.263 267.488 366.859C266.891 367.157 266.295 367.456 265.996 367.753C265.102 368.35 263.909 368.946 263.015 369.543C262.418 369.841 262.12 370.139 261.524 370.438C260.629 371.034 259.734 371.63 258.542 371.928C257.945 372.226 257.647 372.525 257.051 372.823C256.156 373.419 255.262 373.717 254.367 374.314C254.069 374.612 253.472 374.612 253.175 374.91C251.982 375.507 250.49 376.103 249.298 376.699C249 376.997 248.701 376.997 248.403 376.997C247.508 377.296 246.316 377.892 245.421 378.19C245.123 378.489 244.526 378.489 244.229 378.787C243.036 379.085 242.141 379.681 240.949 379.979C240.65 379.979 240.352 380.278 240.054 380.278C238.563 380.874 237.37 381.172 235.879 381.769C235.581 381.769 234.985 382.067 234.686 382.067C233.493 382.365 232.599 382.663 231.406 382.961C231.108 382.961 230.512 383.259 230.213 383.259C228.723 383.558 227.231 383.856 225.741 384.154C224.249 383.856 222.759 383.558 221.268 383.259C220.969 383.259 220.373 382.961 220.075 382.961C218.882 382.663 217.987 382.365 216.795 382.067C216.497 382.067 215.9 381.769 215.602 381.769C214.111 381.47 212.918 380.874 211.428 380.278C211.129 380.278 211.129 380.278 210.831 379.979C209.638 379.681 208.446 379.085 207.253 378.489C206.954 378.19 206.358 378.19 206.06 377.892C205.165 377.594 203.972 376.997 203.078 376.699C202.779 376.401 202.183 376.401 201.885 376.103C200.692 375.507 199.202 374.91 198.009 374.314C197.71 374.015 197.412 374.015 197.114 373.717C196.22 373.121 195.027 372.823 194.132 372.226C193.536 371.928 193.238 371.63 192.641 371.332C191.746 370.735 190.852 370.437 190.256 369.841C189.659 369.543 189.361 369.245 188.765 368.946C187.572 368.35 186.379 367.455 185.186 366.859C184.59 366.561 184.292 366.263 183.695 365.964C183.099 365.368 182.204 365.07 181.608 364.474C179.91 363.047 178.166 362.042 176.539 360.597C167.95 352.681 157.372 344.77 151.192 336.145Z" fill="white"/>
</g>
<mask id="mask28_14_83" style="mask-type:luminance" maskUnits="userSpaceOnUse" x="-14" y="-14" width="476" height="541">
<path d="M461.01 -13.043H-13.1156V526.687H461.01V-13.043Z" fill="white"/>
</mask>
<g mask="url(#mask28_14_83)">
<path d="M172.956 185.254C172.956 184.657 173.255 183.763 173.255 183.763C171.465 183.465 169.974 182.868 168.185 182.57C166.396 183.166 164.607 183.465 162.818 183.763C162.818 183.763 162.818 184.657 163.116 185.254C163.712 185.552 167.589 186.745 172.956 185.254Z" fill="white"/>
</g>
<mask id="mask29_14_83" style="mask-type:luminance" maskUnits="userSpaceOnUse" x="-14" y="-14" width="476" height="541">
<path d="M461.01 -13.043H-13.1156V526.687H461.01V-13.043Z" fill="white"/>
</mask>
<g mask="url(#mask29_14_83)">
<path d="M171.763 166.169C171.763 165.87 171.763 165.573 171.465 165.573C170.571 162.59 169.08 161.398 167.887 161.398C166.694 161.398 165.203 162.59 164.309 165.573C164.309 165.87 164.01 166.169 164.01 166.467C167.291 164.976 169.974 165.573 171.763 166.169Z" fill="white"/>
</g>
<mask id="mask30_14_83" style="mask-type:luminance" maskUnits="userSpaceOnUse" x="-14" y="-14" width="476" height="541">
<path d="M461.01 -13.043H-13.1156V526.687H461.01V-13.043Z" fill="white"/>
</mask>
<g mask="url(#mask30_14_83)">
<path d="M163.117 186.749C163.415 188.538 163.415 188.538 164.011 189.432C164.608 189.731 167.59 190.625 172.062 189.432C172.361 188.836 172.659 187.643 172.659 186.749C170.87 187.345 169.08 187.345 167.59 187.345C165.502 187.345 164.011 187.047 163.117 186.749Z" fill="white"/>
</g>
<mask id="mask31_14_83" style="mask-type:luminance" maskUnits="userSpaceOnUse" x="-14" y="-14" width="476" height="541">
<path d="M461.01 -13.043H-13.1156V526.687H461.01V-13.043Z" fill="white"/>
</mask>
<g mask="url(#mask31_14_83)">
<path d="M280.308 191.218C280.607 192.112 281.203 193.007 281.501 193.305C283.589 193.901 283.887 193.901 286.272 193.305C286.869 192.708 286.869 192.112 287.465 190.919C285.974 191.218 285.08 191.218 283.887 191.218C282.396 191.516 280.905 191.516 280.308 191.218Z" fill="white"/>
</g>
<mask id="mask32_14_83" style="mask-type:luminance" maskUnits="userSpaceOnUse" x="-14" y="-14" width="476" height="541">
<path d="M461.01 -13.043H-13.1156V526.687H461.01V-13.043Z" fill="white"/>
</mask>
<g mask="url(#mask32_14_83)">
<path d="M164.607 191.218C164.905 192.112 165.501 193.007 165.799 193.305C167.887 193.901 168.185 193.901 170.571 193.305C171.167 192.708 171.167 192.112 171.763 190.919C170.272 191.218 169.378 191.218 168.185 191.218C166.694 191.516 165.203 191.516 164.607 191.218Z" fill="white"/>
</g>
<mask id="mask33_14_83" style="mask-type:luminance" maskUnits="userSpaceOnUse" x="-14" y="-14" width="476" height="541">
<path d="M461.01 -13.043H-13.1156V526.687H461.01V-13.043Z" fill="white"/>
</mask>
<g mask="url(#mask33_14_83)">
<path d="M288.658 185.254C288.658 184.657 288.956 183.763 288.956 183.763C287.167 183.465 285.676 182.868 283.887 182.57C282.098 183.166 280.308 183.465 278.519 183.763C278.519 183.763 278.519 184.657 278.818 185.254C279.413 185.552 283.29 186.745 288.658 185.254Z" fill="white"/>
</g>
<mask id="mask34_14_83" style="mask-type:luminance" maskUnits="userSpaceOnUse" x="-14" y="-14" width="476" height="541">
<path d="M461.01 -13.043H-13.1156V526.687H461.01V-13.043Z" fill="white"/>
</mask>
<g mask="url(#mask34_14_83)">
<path d="M278.813 186.749C279.111 188.538 279.111 188.538 279.708 189.432C280.304 189.731 283.286 190.625 287.759 189.432C288.057 188.836 288.355 187.643 288.355 186.749C286.566 187.345 284.777 187.345 283.286 187.345C281.497 187.345 280.006 187.047 278.813 186.749Z" fill="white"/>
</g>
<mask id="mask35_14_83" style="mask-type:luminance" maskUnits="userSpaceOnUse" x="-14" y="-14" width="476" height="541">
<path d="M461.01 -13.043H-13.1156V526.687H461.01V-13.043Z" fill="white"/>
</mask>
<g mask="url(#mask35_14_83)">
<path d="M287.465 166.169C287.465 165.87 287.465 165.573 287.167 165.573C286.272 162.59 284.782 161.398 283.589 161.398C282.396 161.398 280.905 162.59 280.01 165.573C280.01 165.87 279.712 166.169 279.712 166.467C282.992 164.976 285.974 165.573 287.465 166.169Z" fill="white"/>
</g>
</g>
<defs>
<clipPath id="clip0_14_83">
<rect width="445.546" height="512" fill="white" transform="translate(0.727142 0.5)"/>
</clipPath>
</defs>
</svg>
