<svg width="512" height="512" viewBox="0 0 512 512" fill="none" xmlns="http://www.w3.org/2000/svg">
<g clip-path="url(#clip0_1_2402)">
<g clip-path="url(#clip1_1_2402)">
<path d="M512 255.999C512 397.395 397.379 512 255.999 512C114.612 512 0 397.395 0 255.999C0 114.618 114.612 0 255.999 0C397.379 0 512 114.618 512 255.999Z" fill="#DBA111"/>
<path d="M503.459 256C503.459 392.672 392.671 503.46 255.998 503.46C119.324 503.46 8.53491 392.673 8.53491 256C8.53491 119.325 119.324 8.53613 255.998 8.53613C392.669 8.53613 503.459 119.325 503.459 256Z" fill="#034694"/>
<path d="M432.348 255.999C432.348 353.395 353.393 432.337 255.998 432.337C158.599 432.337 79.6418 353.395 79.6418 255.999C79.6418 158.595 158.599 79.6429 255.998 79.6429C353.395 79.6418 432.348 158.595 432.348 255.999Z" fill="#DBA111"/>
<path d="M427.013 256C427.013 350.448 350.435 427.012 255.999 427.012C161.551 427.012 84.9863 350.447 84.9863 256C84.9863 161.552 161.551 84.9854 255.999 84.9854C350.437 84.9854 427.013 161.551 427.013 256Z" fill="white"/>
<path d="M109.467 403.536C111.359 405.342 116.014 409.776 116.014 409.776L120.477 405.077L107.166 392.387L105.453 394.184L87.5811 412.92L94.3668 419.378C94.3668 419.378 100.098 413.368 102.195 411.178C103.948 412.842 108.153 416.851 108.153 416.851L112.618 412.163C112.618 412.163 108.42 408.157 106.669 406.481C107.78 405.31 108.344 404.718 109.467 403.536Z" fill="#DBA111"/>
<path d="M141.567 424.934C140.965 421.341 138.948 418.166 135.895 415.997C132.857 413.839 129.21 412.987 125.617 413.576C121.747 414.234 118.27 416.489 115.82 419.917C113.38 423.367 112.394 427.387 113.051 431.272C113.655 434.855 115.659 438.009 118.702 440.178C121.747 442.343 125.421 443.209 129.008 442.606C132.876 441.954 136.355 439.694 138.796 436.256C140.75 433.53 141.769 430.408 141.769 427.286C141.77 426.508 141.704 425.709 141.567 424.934ZM122.453 434.886C119.343 432.686 121.91 428.085 123.722 425.556C125.529 423.007 129.033 419.065 132.144 421.263C135.39 423.585 132.357 428.602 130.901 430.639C129.44 432.699 125.706 437.207 122.453 434.886Z" fill="#DBA111"/>
<path d="M162.489 432.038C155.326 428.414 147.041 431.384 143.236 438.926C141.329 442.696 140.957 446.834 142.185 450.558C143.319 454.019 145.778 456.842 149.111 458.519C152.445 460.216 156.197 460.511 159.664 459.373C163.385 458.159 166.489 455.409 168.384 451.641C172.205 444.086 169.666 435.663 162.489 432.038ZM154.567 452.997C153.727 453.273 152.93 453.187 152.025 452.737C150.604 452.013 150.104 450.719 150.104 449.274C150.104 447.274 151.066 444.917 151.882 443.31C153.295 440.516 156.164 436.103 159.569 437.821C160.467 438.28 161.005 438.876 161.277 439.706C161.847 441.425 161.275 444.248 159.739 447.271C158.212 450.294 156.279 452.431 154.567 452.997Z" fill="#DBA111"/>
<path d="M177.282 442.41L175.963 446.188C175.963 446.188 179.335 447.371 180.358 447.709C179.068 451.399 173.12 468.376 173.12 468.376L181.951 471.473C181.951 471.473 187.908 454.511 189.196 450.821C190.225 451.181 193.598 452.352 193.598 452.352L195.738 446.254L178.103 440.067L177.282 442.41Z" fill="#DBA111"/>
<path d="M213.949 450.603L202.014 448.083L201.504 450.51L196.17 475.839L208.315 478.415C212.197 479.216 214.753 478.263 216.21 477.32C218.061 476.113 219.358 474.133 219.856 471.767C219.993 471.123 220.059 470.498 220.059 469.886C220.059 468.176 219.517 466.633 218.537 465.309C219.905 464.223 220.881 462.689 221.287 460.775C221.39 460.281 221.452 459.723 221.452 459.14C221.452 455.898 219.6 451.781 213.949 450.603ZM210.663 469.94C210.536 470.519 210.304 471.284 209.865 471.571C209.46 471.834 208.682 471.867 207.673 471.648C207.673 471.648 207.215 471.547 206.672 471.44C207.059 469.613 207.319 468.397 207.697 466.567C208.216 466.688 208.88 466.819 208.88 466.819C210.446 467.149 210.746 468.308 210.746 469.149C210.747 469.488 210.704 469.774 210.663 469.94ZM209.848 456.384C210.896 456.622 211.666 457.006 211.962 457.454C212.098 457.66 212.165 457.949 212.165 458.289C212.165 458.495 212.137 458.733 212.083 459.019C211.922 459.762 211.705 460.791 209.64 460.368C209.64 460.368 209.383 460.3 209.028 460.225C209.358 458.692 209.514 457.926 209.848 456.384Z" fill="#DBA111"/>
<path d="M235.98 454.728L223.018 481.274L230.42 481.841C230.42 481.841 232.424 477.613 233.224 475.928C234.79 476.058 236.36 476.168 237.894 476.292C238.469 478.065 239.915 482.565 239.915 482.565L249.764 483.331L238.759 449.219L235.98 454.728Z" fill="#DBA111"/>
<path d="M265.21 475.917C265.046 472.037 264.301 454.377 264.301 454.377L254.947 454.77L256.13 483.113L274.875 482.334L274.593 475.534C274.593 475.535 267.898 475.82 265.21 475.917Z" fill="#DBA111"/>
<path d="M290.866 473.202C290.263 469.366 287.526 451.907 287.526 451.907L285.075 452.3L278.27 453.36L282.662 481.393L301.204 478.482L300.142 471.756C300.142 471.756 293.528 472.8 290.866 473.202Z" fill="#DBA111"/>
<path d="M344.545 454.346C344.469 456.776 343.037 458.869 340.802 459.753C339.563 460.245 338.38 460.245 337.196 459.743C335.377 458.965 333.693 456.996 332.681 454.465C331.491 451.481 331.249 448.945 332.03 447.164C332.566 445.917 333.619 444.985 335.226 444.341C336.967 443.648 338.621 444.286 340.887 445.62L342.966 446.847L346.418 441.402L344.369 440.056C340.604 437.582 335.942 437.077 331.909 438.688C328.166 440.18 325.265 442.972 323.731 446.541C322.174 450.161 322.174 454.304 323.753 458.233C326.732 465.68 335.151 469.349 342.511 466.402C347.831 464.277 350.842 460.236 351.225 454.715L351.4 452.252L344.624 451.749L344.545 454.346Z" fill="#DBA111"/>
<path d="M366.379 446.604C364.463 443.198 355.855 427.757 355.855 427.757L353.699 428.973L347.676 432.337L361.519 457.103L377.885 447.961L374.572 442.016C374.573 442.016 368.715 445.281 366.379 446.604Z" fill="#DBA111"/>
<path d="M384.582 408.407L382.576 409.875L379.06 412.459L390.548 428.118C391.074 428.826 391.074 429.3 391.028 429.576C390.918 430.384 390.077 431.26 389.332 431.796C388.981 432.046 388.169 432.387 387.338 432.257C386.744 432.171 386.276 431.849 385.859 431.286L374.505 415.802L366.938 421.342L378.237 436.747C379.914 439.028 381.996 440.376 384.426 440.747C387.152 441.172 390.251 440.244 393.131 438.115C399.055 433.784 398.958 428.033 396.373 424.508L384.582 408.407Z" fill="#DBA111"/>
<path d="M419.054 402.714C417.312 400.907 415.165 400.095 412.909 400.218C412.777 398.465 412.097 396.79 410.742 395.388C408.376 392.945 403.085 391.042 398.214 395.783L389.452 404.257L409.195 424.64L418.108 415.999C420.957 413.24 421.584 410.568 421.611 408.84C421.658 406.623 420.747 404.454 419.054 402.714ZM404.138 402.027C404.432 402.341 404.792 402.707 404.792 403.216C404.792 403.634 404.565 404.15 403.881 404.804C403.881 404.804 403.696 404.991 403.446 405.242C402.34 404.095 401.815 403.557 400.694 402.404C402.67 400.591 403.491 401.366 404.138 402.027ZM408.813 409.044C410.413 407.5 411.954 408.857 412.393 409.318C412.819 409.745 413.302 410.347 413.302 410.868C413.302 410.868 413.302 410.868 413.302 410.885C413.292 411.367 412.885 412.033 412.152 412.745C412.152 412.745 411.812 413.076 411.408 413.456C410.116 412.121 409.243 411.224 407.949 409.896C408.331 409.516 408.813 409.044 408.813 409.044Z" fill="#DBA111"/>
<path d="M109.405 400.907C110.177 401.65 115.942 407.149 115.942 407.149L117.843 405.144L107.222 395.015L106.794 395.463L90.2156 412.854L94.3 416.752C94.3 416.752 101.364 409.349 102.124 408.539C102.896 409.274 108.093 414.223 108.093 414.223L109.998 412.225C109.998 412.225 104.801 407.279 104.028 406.545C104.718 405.823 108.722 401.621 109.405 400.907Z" fill="white"/>
<path d="M134.811 417.51C132.178 415.636 129.028 414.888 125.935 415.405C122.54 415.987 119.496 417.969 117.34 421.002C115.178 424.045 114.311 427.573 114.888 430.955C115.406 434.056 117.149 436.793 119.783 438.66C122.432 440.545 125.595 441.282 128.701 440.762C132.078 440.194 135.127 438.204 137.279 435.191C139 432.761 139.909 430.009 139.909 427.283C139.909 426.603 139.85 425.915 139.739 425.236C139.212 422.14 137.466 419.395 134.811 417.51ZM132.414 431.725C130.633 434.216 125.996 439.691 121.381 436.408C116.781 433.143 120.433 426.971 122.207 424.463C123.986 421.956 128.625 416.49 133.218 419.755C137.834 423.049 134.194 429.225 132.414 431.725Z" fill="white"/>
<path d="M161.65 433.707C155.435 430.564 148.235 433.179 144.896 439.782C143.214 443.102 142.883 446.715 143.95 449.99C144.93 452.965 147.061 455.398 149.95 456.852C152.847 458.333 156.094 458.596 159.085 457.612C162.339 456.537 165.056 454.126 166.737 450.809C170.066 444.206 167.882 436.847 161.65 433.707ZM151.187 454.388C146.155 451.857 148.832 445.199 150.223 442.464C151.609 439.717 155.376 433.614 160.4 436.168C161.738 436.837 162.631 437.832 163.057 439.134C164.043 442.149 162.443 446.045 161.398 448.115C160.358 450.17 158.163 453.774 155.145 454.763C153.854 455.2 152.518 455.068 151.187 454.388Z" fill="white"/>
<path d="M179.045 443.019L178.332 445.037C178.332 445.037 181.849 446.273 182.73 446.583C182.34 447.687 175.485 467.233 175.485 467.233L180.813 469.105C180.813 469.105 187.673 449.56 188.056 448.453C188.937 448.76 192.454 449.989 192.454 449.989L193.373 447.393L179.241 442.433L179.045 443.019Z" fill="white"/>
<path d="M213.572 452.417L203.457 450.282L203.322 450.896L198.378 474.418L208.699 476.585C211.323 477.134 213.506 476.861 215.195 475.755C216.655 474.801 217.635 473.28 218.036 471.387C218.138 470.87 218.2 470.377 218.2 469.895C218.2 467.838 217.18 466.096 215.358 464.848C217.467 464.241 218.977 462.689 219.463 460.385C219.546 460.026 219.596 459.6 219.596 459.119C219.595 456.765 218.357 453.426 213.572 452.417ZM210.036 454.499C211.737 454.859 212.914 455.509 213.513 456.435C213.858 456.96 214.028 457.575 214.028 458.29C214.028 458.639 213.983 459.001 213.901 459.394C213.244 462.527 210.714 462.493 209.259 462.176C209.259 462.176 207.719 461.858 206.826 461.67C207.033 460.705 208.208 455.122 208.41 454.16C209.056 454.291 210.036 454.499 210.036 454.499ZM209.259 464.999C212.132 465.603 212.586 467.87 212.586 469.248C212.586 469.839 212.493 470.261 212.482 470.331C212.192 471.691 211.674 472.609 210.878 473.123C210.037 473.684 208.825 473.792 207.292 473.474C207.292 473.474 205.452 473.081 204.467 472.885C204.679 471.874 206.055 465.358 206.262 464.365C207.105 464.541 209.259 464.999 209.259 464.999Z" fill="white"/>
<path d="M237.657 455.545L225.892 479.628L229.281 479.88C229.281 479.88 231.771 474.646 232.101 473.977C232.817 474.032 238.576 474.48 239.283 474.537C239.508 475.228 241.305 480.81 241.305 480.81L247.14 481.261L238.402 454.17L237.657 455.545ZM236.366 465.228C236.935 467.047 238.029 470.554 238.391 471.699C237.229 471.613 234.552 471.405 233.402 471.318C233.93 470.236 235.533 466.939 236.366 465.228Z" fill="white"/>
<path d="M263.423 477.857C263.376 476.683 262.512 456.317 262.512 456.317L261.911 456.339L256.874 456.545L257.909 481.183L272.94 480.546L272.808 477.471C272.81 477.472 264.51 477.821 263.423 477.857Z" fill="white"/>
<path d="M289.322 475.349C289.134 474.188 285.972 454.028 285.972 454.028L285.369 454.125L280.399 454.912L284.219 479.268L299.08 476.922L298.601 473.878C298.6 473.88 290.385 475.171 289.322 475.349Z" fill="white"/>
<path d="M346.396 454.388C346.308 457.597 344.425 460.314 341.49 461.497C339.782 462.177 338.095 462.153 336.464 461.453C334.167 460.481 332.16 458.179 330.944 455.158C329.575 451.708 329.354 448.687 330.311 446.428C331.055 444.72 332.469 443.441 334.537 442.621C337.243 441.537 339.727 442.772 341.829 444.02L342.355 444.327L343.867 441.952L343.361 441.61C340.098 439.473 336.069 439.027 332.601 440.416C329.314 441.733 326.763 444.163 325.438 447.274C324.079 450.425 324.092 454.083 325.482 457.531C328.076 464.038 335.399 467.233 341.83 464.671C346.494 462.799 349.025 459.416 349.364 454.586L349.408 453.964L346.431 453.758L346.396 454.388Z" fill="white"/>
<path d="M365.658 449.133C365.077 448.115 355.133 430.299 355.133 430.299L354.586 430.604L350.207 433.056L362.219 454.567L375.349 447.235L373.856 444.542C373.858 444.545 366.587 448.594 365.658 449.133Z" fill="white"/>
<path d="M384.176 411.003L383.669 411.375L381.656 412.854L392.048 427.013C392.744 427.966 393.017 428.917 392.869 429.849C392.621 431.535 391.085 432.83 390.441 433.29C389.704 433.846 388.356 434.306 387.064 434.096C385.968 433.934 385.069 433.355 384.349 432.389L374.089 418.396L369.545 421.747L379.738 435.641C381.109 437.515 382.784 438.62 384.708 438.906C387.744 439.365 390.593 437.675 392.025 436.63C396.943 433.014 397.009 428.49 394.884 425.612L384.176 411.003Z" fill="white"/>
<path d="M417.716 404.008C415.809 402.035 413.368 401.585 410.837 402.558C411.037 401.968 411.157 401.366 411.157 400.764C411.157 399.3 410.574 397.872 409.402 396.666C407.815 395.035 403.707 393.018 399.506 397.104L392.079 404.299L409.224 421.999L416.817 414.638C418.731 412.799 419.73 410.817 419.754 408.813C419.784 407.063 419.073 405.407 417.716 404.008ZM406.645 403.239C406.645 404.479 405.837 405.496 405.186 406.132C405.186 406.132 404.048 407.238 403.405 407.872C402.712 407.161 398.739 403.067 398.059 402.341C398.52 401.895 399.246 401.203 399.246 401.203C401.566 398.943 403.603 398.794 405.473 400.731C406.329 401.621 406.645 402.461 406.645 403.239ZM411.367 416.083C410.664 415.36 406.032 410.565 405.321 409.842C405.933 409.252 407.519 407.709 407.519 407.709C410.545 404.793 413.611 407.883 413.742 408.027C414.695 409.011 415.163 409.943 415.163 410.869C415.163 410.886 415.163 410.896 415.163 410.905C415.151 411.922 414.561 412.988 413.442 414.094C413.445 414.094 411.967 415.515 411.367 416.083Z" fill="white"/>
<path d="M142.263 87.3539L131.916 90.1446L133.104 93.8509C134.533 98.3446 133.239 103.049 129.737 106.121C127.788 107.83 125.538 108.614 123.056 108.443C119.285 108.19 115.029 105.75 111.675 101.911C107.722 97.3827 105.75 93.0237 106.001 89.3293C106.175 86.6354 107.485 84.2691 109.998 82.0675C112.773 79.6364 116.293 79.7312 121.068 80.678L124.61 81.3781L126.899 71.4677L123.334 70.5985C115.669 68.7017 107.674 70.565 101.971 75.5575C90.8016 85.3311 89.8903 101.293 99.8524 112.685C109.11 123.269 125.173 124.422 135.642 115.265C143.183 108.678 145.81 100.251 143.249 90.9201L142.263 87.3539Z" fill="#DBA111"/>
<path d="M170.363 35.4527L159.793 40.4299C159.793 40.4299 165.693 52.934 167.722 57.2435C164.707 58.6609 161.787 60.0407 158.769 61.4657C156.733 57.1594 150.829 44.65 150.829 44.65L136.912 51.2203L158.107 96.1784L172.036 89.6114C172.036 89.6114 165.469 75.706 163.357 71.1973C166.374 69.7852 169.292 68.4065 172.315 66.9826C174.434 71.4784 180.992 85.3859 180.992 85.3859L194.918 78.8145L173.73 33.8672L170.363 35.4527Z" fill="#DBA111"/>
<path d="M217.486 63.3055C216.807 59.9579 216.118 56.5521 215.448 53.2088C219.748 52.3439 231.173 50.0367 231.173 50.0367L229.164 40.0509C229.164 40.0509 217.732 42.3613 213.429 43.2305C212.81 40.1694 212.297 37.5984 211.674 34.5416C216.139 33.6411 228.367 31.1702 228.367 31.1702L226.351 21.1888L222.693 21.9234L194.567 27.6115L204.4 76.3362L236.442 69.8586L234.428 59.8825C234.428 59.8825 221.981 62.3911 217.486 63.3055Z" fill="#DBA111"/>
<path d="M262.933 20.0331L247.524 19.7132L247.447 23.4292L246.484 69.4062L278.83 70.0848L279.061 59.3192C279.061 59.3192 266.643 59.0521 262.105 58.9595C262.235 52.8738 262.933 20.0331 262.933 20.0331Z" fill="#DBA111"/>
<path d="M312.865 45.1003C308.868 42.1642 307.698 40.9869 308.102 39.3831C308.3 38.5516 309.206 35.8965 312.077 36.6074C313.805 37.0512 315.524 37.9613 316.29 41.6795L317.131 45.8069L327.305 42.3688L326.672 39.1655C325.421 32.8742 320.1 27.5189 313.421 25.8504C308.637 24.6624 303.842 25.2979 299.906 27.6621C296.294 29.826 293.753 33.2415 292.748 37.2838C290.194 47.4732 297.063 52.3794 301.604 55.6301C306.26 58.9594 307.444 60.2627 306.733 63.0437C306.51 63.9129 305.998 64.5991 305.197 65.0848C304.265 65.6331 303.096 65.8312 302.144 65.5835C299.698 64.9814 298.64 63.8257 297.609 60.6623L296.359 56.8698L286.151 61.0446L287.139 64.2856C289.053 70.5834 293.622 74.5525 301.1 76.4256C309.503 78.5281 319.698 74.6635 322.238 64.5732C324.887 53.9412 317.651 48.6138 312.865 45.1003Z" fill="#DBA111"/>
<path d="M349.625 71.6099C353.547 73.5918 363.941 78.848 363.941 78.848L368.538 69.7594C368.538 69.7594 358.135 64.5032 354.227 62.5278C355.626 59.7403 356.812 57.3965 358.209 54.6144C362.265 56.663 373.414 62.2973 373.414 62.2973L377.998 53.2088L349.066 38.5882L347.393 41.9003L326.64 82.9474L355.814 97.6822L360.414 88.599C360.414 88.599 349.078 82.872 344.982 80.8094C346.516 77.7591 348.091 74.6613 349.625 71.6099Z" fill="#DBA111"/>
<path d="M407.246 76.2522L360.886 100.24L369.755 107.953C369.755 107.953 377.407 103.885 380.188 102.425C382.256 104.226 385.304 106.877 387.339 108.645C386.341 111.603 383.507 119.919 383.507 119.919L395.726 130.55L415.547 72.1032L407.246 76.2522Z" fill="#DBA111"/>
<path d="M140.526 90.3782L135.062 91.8635L135.462 93.1C137.199 98.5545 135.633 104.26 131.362 107.994C128.909 110.146 126.05 111.132 122.891 110.928C118.412 110.628 113.649 107.939 109.805 103.543C105.409 98.5103 103.23 93.5352 103.519 89.1535C103.745 85.8264 105.376 82.8127 108.366 80.1975C112.292 76.7648 117.235 77.3927 121.551 78.2469L122.736 78.4764L123.932 73.2966L122.744 73.0004C115.855 71.3094 108.706 72.9628 103.603 77.4305C93.5062 86.2735 92.6951 100.716 101.723 111.048C110.079 120.602 124.562 121.649 134.017 113.392C140.873 107.379 143.177 100.049 140.854 91.5793L140.526 90.3782Z" fill="white"/>
<path d="M171.418 37.6857L163.103 41.6171C163.103 41.6171 170.103 56.4714 171.024 58.4241C169.245 59.2675 159.368 63.9281 157.575 64.765C156.657 62.809 149.661 47.9558 149.661 47.9558L140.209 52.4085L159.29 92.8697L168.735 88.4235C168.735 88.4235 160.989 72.0031 160.056 70.0159C161.847 69.1725 171.712 64.5238 173.503 63.6771C174.434 65.659 182.183 82.0891 182.183 82.0891L191.616 77.632L172.536 37.1644L171.418 37.6857Z" fill="white"/>
<path d="M215.538 66.2276C215.151 64.2835 212.914 53.2131 212.527 51.2689C214.596 50.8531 228.25 48.0936 228.25 48.0936L227.217 42.9817C227.217 42.9817 213.567 45.7294 211.486 46.1505C211.108 44.244 209.138 34.5038 208.76 32.5995C210.845 32.1719 225.443 29.2325 225.443 29.2325L224.408 24.1185L197.491 29.5503L206.345 73.4054L233.519 67.9198L232.486 62.8057C232.484 62.8068 217.641 65.8022 215.538 66.2276Z" fill="white"/>
<path d="M260.396 22.466L249.961 22.2399L249.939 23.4721L249.015 66.9729L276.409 67.5535L276.531 61.7468C276.531 61.7468 261.701 61.4334 259.577 61.3882C259.631 59.067 260.396 22.466 260.396 22.466Z" fill="white"/>
<path d="M312.68 34.2077C315.997 35.0381 317.913 37.2548 318.725 41.1808L319.008 42.553L324.45 40.7133L324.244 39.6394C323.169 34.2787 318.583 29.6989 312.823 28.2502C308.681 27.2173 304.556 27.7591 301.192 29.7786C298.15 31.6075 296.004 34.4888 295.158 37.887C293.015 46.4338 298.586 50.4148 303.054 53.6084C307.576 56.8429 310.302 59.0509 309.141 63.6383C308.68 65.548 307.433 66.6391 306.471 67.2132C304.98 68.1061 303.152 68.3851 301.545 67.9909C298.245 67.1636 296.547 65.3897 295.259 61.4324L294.839 60.1679L289.19 62.4718L289.519 63.5564C291.16 68.9538 295.151 72.3757 301.718 74.0194C308.932 75.8214 317.675 72.5567 319.829 63.9625C322.074 54.9547 316.161 50.5957 311.375 47.0973C307.313 44.0986 304.86 42.0942 305.695 38.781C306.426 35.819 308.879 33.2555 312.68 34.2077Z" fill="white"/>
<path d="M357.116 51.2873C359.021 52.2448 372.306 58.9583 372.306 58.9583L374.67 54.2977L350.166 41.9186L349.605 43.0237L329.983 81.8542L354.717 94.3539L357.073 89.6955C357.073 89.6955 343.57 82.8678 341.657 81.8973C342.549 80.1244 347.644 70.0568 348.53 68.2828C350.415 69.2349 362.841 75.5144 362.841 75.5144L365.21 70.8538C365.21 70.8538 352.77 64.5797 350.885 63.6222C351.762 61.8924 356.242 53.017 357.116 51.2873Z" fill="white"/>
<path d="M408.386 78.4602L365.275 100.771L370.093 104.96C370.093 104.96 379.236 100.113 380.529 99.4281C381.602 100.365 389.179 106.957 390.23 107.871C389.773 109.234 386.387 119.135 386.387 119.135L394.568 126.248L411.225 77.1289L408.386 78.4602ZM385.521 96.8614C387.559 95.8069 392.769 93.1001 395.947 91.4468C394.764 94.8246 392.815 100.387 392.067 102.552C390.414 101.104 387.176 98.2907 385.521 96.8614Z" fill="white"/>
<path d="M378.303 249.283C374.767 239.918 362.592 235.85 351.084 240.194C346.285 241.999 342.355 245.017 339.675 248.581C347.274 226.892 378.228 222.29 378.228 202.112C378.228 168.292 330.2 177.766 337.188 202.117C337.188 191.068 354.773 189.043 354.773 202.117C354.773 215.193 324.111 223.768 324.111 245.858C324.111 270.21 348.467 272.464 346.002 294.736C345.583 298.576 341.453 303.622 335.475 303.622C298.17 303.622 311.487 257.699 298.452 243.724L299.134 234.289C306.669 238.91 326.661 228.085 313.5 211.584C313.5 219.699 296.603 219.25 296.603 203.918C296.603 183.173 315.997 193.998 316.94 198.579C316.01 191.024 315.659 186.23 316.906 181.876C306.451 185.248 305.473 179.204 306.795 176.866C308.31 174.161 310.336 171.002 314.409 171.002C316.611 171.002 317.933 171.309 318.711 171.845C320.014 172.736 320.966 170.701 320.779 172.594C321.898 170.891 321.45 173.017 322.53 171.309C323.629 169.613 325.11 167.694 327.713 165.138L327.601 161.311L330.647 162.428L333.571 157.699C330.415 151.155 326.133 154.307 322.979 146.194C320.341 145.509 279.259 149.977 280.451 133.589C277.101 133.589 269.166 135.424 274.076 142.097C270.258 142.557 267.506 138.22 261.75 149.949C268.96 148.597 265.228 156.657 265.228 158.95C265.228 173.81 245.446 173.559 245.446 166.599C240.679 171.231 243.383 181.362 250.593 183.857C250.593 183.857 247.851 194.693 241.083 201.563C231.036 201.162 214.917 199.416 205.644 190.65C201.645 186.873 198.469 184.815 195.765 183.757V178.845C199.724 176.908 204.066 173.478 208.578 167.747C212.098 163.448 214.003 157.936 213.491 152.082C213.424 151.383 213.321 150.692 213.198 150.019C213.16 149.805 213.107 149.597 213.058 149.384C212.959 148.912 212.844 148.459 212.708 147.993C212.642 147.768 212.58 147.537 212.509 147.314C212.356 146.847 212.188 146.4 212.006 145.956C211.93 145.77 211.876 145.572 211.787 145.397C211.536 144.799 211.256 144.237 210.953 143.671C210.824 143.441 210.687 143.227 210.561 143.016C210.353 142.675 210.156 142.331 209.937 142.002C209.761 141.742 209.575 141.478 209.389 141.215C209.197 140.964 208.995 140.706 208.798 140.454C208.579 140.185 208.364 139.9 208.13 139.633C207.975 139.456 207.807 139.286 207.643 139.123C207.057 138.476 206.422 137.874 205.758 137.298C205.703 137.251 205.637 137.19 205.573 137.14C205.202 136.823 204.807 136.521 204.418 136.232C204.319 136.157 204.216 136.083 204.105 136.006C203.689 135.713 203.264 135.427 202.82 135.153C202.793 135.136 202.768 135.125 202.749 135.106C198.526 132.52 193.424 131.168 188.035 131.595C175.061 132.628 165.416 143.469 166.5 155.811C167.343 165.426 174.435 173.106 183.655 175.555C180.42 177.36 177.688 178.402 177.071 178.402C177.173 178.467 177.306 178.544 177.452 178.638C177.49 178.655 177.534 178.682 177.579 178.704C177.704 178.785 177.853 178.868 178.004 178.95C178.042 178.972 178.089 178.993 178.125 179.016C178.333 179.12 178.547 179.229 178.789 179.344C178.826 179.361 178.872 179.375 178.909 179.394C179.123 179.493 179.34 179.596 179.571 179.685C179.637 179.715 179.708 179.742 179.779 179.765C180.343 180.001 180.978 180.214 181.673 180.412C181.772 180.439 181.877 180.461 181.962 180.488C182.243 180.559 182.528 180.625 182.824 180.696C182.921 180.713 183.02 180.734 183.124 180.755C183.497 180.822 183.887 180.888 184.278 180.935C184.311 180.935 184.344 180.952 184.377 180.952V183.745C184.23 183.777 184.098 183.792 183.961 183.814C179.741 184.509 176.998 185.808 175.759 189.565C174.527 193.336 175.792 194.698 177.769 197.343C176.099 200.328 171.724 201.444 177.434 208.038C177.018 210.528 177.545 214.494 181.169 215.697C182.352 216.098 183.337 216.311 184.377 216.491L184.372 265.925C180.757 267.841 178.973 270.23 177.987 272.456C177.987 272.456 175.085 266.014 175.277 278.775C178.574 276.217 177.276 281.737 177.276 281.737C172.786 287.554 178.489 287.238 178.489 287.238C182.355 283.376 181.567 288.988 181.567 288.988C181.567 295.833 184.347 298.512 184.371 298.523V336.184L181.087 336.193L181.118 346.585L186.861 346.575C183.638 347.913 181.512 351.096 181.822 354.614C182.212 359.048 186.308 362.343 190.973 361.983C195.634 361.608 199.098 357.721 198.7 353.276C198.437 350.208 196.404 347.705 193.64 346.555L198.94 346.54L198.918 336.148L195.757 336.163L195.762 302.749C196.414 303.107 197.118 303.355 197.883 303.522C198.188 303.579 198.49 303.621 198.802 303.641C198.939 303.663 199.081 303.663 199.218 303.667C198.368 299.275 200.992 296.363 200.992 296.363C202.339 294.335 204.287 292.754 206.505 291.638C213.137 288.311 222.187 289.152 224.891 294.569C242.029 290.051 256.756 272.825 256.756 272.825L265.192 287.183C247.307 293.163 208.35 327.029 235.392 338.759C235.382 342.173 234.924 367.513 218.675 365.5C195.274 362.618 189.439 372.3 193.932 383.184C191.82 392.362 198.888 395.548 198.888 395.548C197.827 390.246 200.376 385.854 210.048 385.91C209.998 395.581 216.244 397.325 216.244 397.325C216.289 389.043 222.043 385.976 227.156 385.998C227.119 392.823 235.047 395.416 235.047 395.416C235.047 395.416 233.037 387.552 242 385.998C264.688 382.045 243.38 358.711 277.882 352.281C277.882 352.281 260.702 349.69 260.702 340.298C260.702 331.749 276.254 325.904 281.608 325.904C292.589 346.885 304.519 347.05 307.646 347.2C312.509 352.632 310.879 370.94 303.859 370.581C278.158 369.201 279.098 384.834 281.979 388.032C281.65 394.1 286.371 397.605 286.371 397.605C286.371 391.101 292.56 389.272 300.497 389.701C300.08 397.647 305.143 398.834 305.143 398.834C305.281 390.838 311.197 389.482 315.4 389.701C315.093 395.306 320.655 396.956 320.655 396.956C320.655 396.956 320.108 389.842 327.596 389.842C341.801 389.833 321.171 359.391 348.894 329.284C324.541 340.557 311.585 312.378 311.585 306.969C324.102 321.617 364.685 324.541 364.685 299.52C364.685 275.617 338.413 266.711 350.705 257.568C357.854 252.253 371.912 262.992 363.868 274.085C375.403 269.811 381.832 258.642 378.303 249.283ZM222.638 250.036C213.457 255.435 207.301 262.264 198.931 265.252C197.66 265.698 196.646 265.825 195.765 265.768V219.113C197.983 219.32 203.738 220.108 210.467 222.89C217.131 226.526 217.131 234.042 208.721 235.824C214.036 246.001 232.449 241.019 236.463 232.729C238.428 232.555 240.166 236.064 241.8 239.381C239.216 240.724 233.928 243.39 222.638 250.036ZM325.403 172.693C324.393 174.063 323.397 175.426 322.525 176.593C324.854 180.463 329.234 182.882 334.034 182.439C340.666 181.811 345.549 175.923 344.939 169.284C344.904 169.043 344.87 168.825 344.838 168.589C344.127 172.027 340.075 174.939 334.921 175.415C331.019 175.781 327.486 174.661 325.403 172.693Z" fill="#D1D3D4"/>
<path d="M315.099 169.163C317.41 173.033 321.802 175.452 326.6 175.005C333.244 174.385 338.113 168.494 337.506 161.847C337.481 161.612 337.438 161.386 337.407 161.151C336.702 164.585 332.631 167.504 327.488 167.981C323.575 168.347 320.047 167.225 317.964 165.259C316.96 166.634 315.953 167.995 315.099 169.163Z" fill="#ED1C24"/>
<path d="M279.554 118.466C279.363 118.466 279.17 118.541 278.943 118.619C274.773 119.499 261.973 128.308 266.645 134.659C262.81 135.113 253.905 132.485 248.161 144.207C255.378 142.849 257.785 149.243 257.785 151.539C257.785 160.238 251.027 163.727 245.412 163.76C241.652 163.77 238.428 162.239 238.079 159.636C238.095 159.559 238.061 159.484 238.079 159.407C238.074 159.399 238.003 159.416 238.003 159.407H237.85C233.371 164.132 236.092 173.98 243.196 176.44C243.196 176.44 240.417 187.289 233.649 194.16C226.911 193.898 217.503 192.981 209.207 189.806C206.885 188.923 204.687 187.814 202.638 186.522C201.057 185.542 199.541 184.492 198.208 183.237C194.211 179.46 191.055 177.409 188.355 176.363V171.398C192.314 169.456 196.675 166.054 201.187 160.323C204.712 156.029 206.59 150.523 206.075 144.665C206.02 143.965 205.909 143.288 205.77 142.603C205.739 142.389 205.662 142.205 205.617 141.992C205.514 141.52 205.447 140.994 205.312 140.541C205.25 140.309 205.163 140.083 205.082 139.853C204.934 139.386 204.722 138.998 204.548 138.555C204.47 138.366 204.472 138.13 204.395 137.944C204.138 137.358 203.852 136.816 203.555 136.263C203.436 136.027 203.297 135.801 203.173 135.576C202.965 135.238 202.702 134.911 202.485 134.583C202.306 134.32 202.144 134.081 201.951 133.819C201.76 133.568 201.543 133.296 201.34 133.055C201.122 132.77 200.965 132.482 200.729 132.215C200.576 132.038 200.359 131.848 200.194 131.68C199.602 131.04 199.022 130.412 198.361 129.847C198.294 129.793 198.198 129.742 198.132 129.694C197.76 129.382 197.386 129.062 196.986 128.778C196.88 128.709 196.784 128.62 196.681 128.549C196.258 128.248 195.828 127.985 195.382 127.709C195.356 127.696 195.33 127.718 195.306 127.709C191.086 125.111 186.027 123.774 180.641 124.195C179.481 124.288 178.307 124.494 177.203 124.73C165.989 127.215 158.111 137.174 159.101 148.408C159.94 157.924 166.831 165.508 175.905 168.038C175.998 168.064 176.113 168.09 176.21 168.114C172.97 169.919 170.262 170.94 169.642 170.94C169.747 171.007 169.876 171.147 170.024 171.246C170.061 171.263 170.133 171.222 170.176 171.246C170.307 171.321 170.395 171.464 170.558 171.551C170.598 171.573 170.666 171.536 170.711 171.551C170.905 171.655 171.087 171.818 171.322 171.933C171.365 171.945 171.441 171.986 171.475 172.009C171.681 172.106 171.922 172.14 172.162 172.239C172.228 172.267 172.244 172.288 172.315 172.315C172.891 172.542 173.522 172.806 174.225 173.002C174.322 173.024 174.431 173.051 174.53 173.079C174.803 173.15 175.075 173.17 175.37 173.232C175.469 173.258 175.571 173.285 175.676 173.308C176.047 173.379 176.42 173.488 176.822 173.537C176.85 173.537 176.946 173.517 176.974 173.537V176.287C176.843 176.306 176.658 176.336 176.516 176.363C172.306 177.052 169.58 178.405 168.343 182.168C167.111 185.939 168.354 187.314 170.329 189.959C168.648 192.933 164.325 194.054 170.024 200.652C169.619 203.137 170.146 207.085 173.766 208.29C174.952 208.691 175.939 208.869 176.974 209.054V258.472C173.355 260.391 171.537 262.813 170.558 265.041C170.558 265.041 163.64 264.112 163.837 276.88C167.132 274.309 169.871 274.283 169.871 274.283C165.387 280.094 168.572 285.435 168.572 285.435C172.438 281.563 174.148 281.539 174.148 281.539C174.148 288.412 176.974 291.087 176.974 291.087V328.743H173.69V333.555V339.131H179.418C178.717 339.424 178.085 339.817 177.509 340.276C175.525 341.786 174.305 344.119 174.377 346.692V347.151C174.772 351.596 178.873 354.943 183.543 354.56C188.199 354.195 191.642 350.287 191.258 345.852C190.985 342.797 188.98 340.281 186.216 339.131H191.487V328.743H188.355V295.288C189.012 295.628 189.669 295.904 190.417 296.052C190.738 296.125 191.099 296.169 191.41 296.205C191.547 296.207 191.655 296.2 191.792 296.205C190.942 291.814 193.549 288.948 193.549 288.948C194.907 286.916 196.84 285.331 199.048 284.213C205.689 280.883 214.752 281.701 217.456 287.115C234.595 282.604 249.307 265.423 249.307 265.423L257.785 279.706C239.896 285.694 200.956 319.6 227.997 331.34C227.984 334.743 227.51 360.065 211.269 358.073C187.874 355.178 182.031 364.833 186.522 375.717C184.402 384.906 191.487 388.091 191.487 388.091C190.43 382.796 192.969 378.42 202.638 378.467C202.586 388.136 208.825 389.924 208.825 389.924C208.859 381.631 214.628 378.513 219.748 378.543C219.714 385.368 227.615 388.014 227.615 388.014C227.615 388.014 225.593 380.096 234.565 378.543C257.246 374.59 235.96 351.299 270.464 344.859C270.464 344.859 253.279 342.269 253.279 332.867C253.279 324.332 268.785 318.508 274.131 318.508C274.136 318.52 274.201 318.496 274.207 318.508C285.187 339.395 297.135 339.581 300.253 339.742C305.113 345.163 303.454 363.483 296.434 363.114C270.733 361.745 271.633 377.408 274.512 380.605C274.193 386.683 278.943 390.153 278.943 390.153C278.943 383.644 285.136 381.867 293.073 382.286C292.646 390.224 297.732 391.375 297.732 391.375C297.851 383.378 303.758 382.064 307.967 382.286C307.673 387.903 313.238 389.542 313.238 389.542C313.238 389.542 312.705 382.447 320.188 382.439C334.398 382.439 313.759 351.975 341.498 321.869C317.146 333.147 304.148 304.975 304.148 299.565C316.667 314.218 357.309 317.095 357.309 292.08C357.309 271.897 338.573 262.393 340.124 254.424C340.408 252.961 341.35 251.571 343.255 250.147C350.414 244.826 364.472 255.569 356.469 266.645C367.993 262.37 374.421 251.178 370.905 241.821C367.358 232.457 355.137 228.39 343.637 232.732C338.819 234.55 334.933 237.565 332.256 241.134C339.842 219.447 370.829 214.88 370.829 194.695C370.829 160.875 322.748 170.342 329.736 194.695C329.736 194.328 329.767 193.977 329.812 193.625C329.88 192.994 330.014 192.431 330.194 191.868C332.895 183.427 347.38 182.832 347.38 194.695C347.38 207.771 316.675 216.361 316.675 238.461C316.675 262.813 341.059 265.004 338.596 287.268C338.179 291.122 334.033 296.205 328.055 296.205C315.237 296.205 308.361 290.755 304.377 283.067C296.776 268.383 299.569 245.487 291.011 236.322L291.698 226.851C299.238 231.477 319.27 220.667 306.134 204.166C306.134 212.289 289.177 211.776 289.177 196.451C289.177 175.706 308.552 186.604 309.495 191.181C308.564 183.631 308.221 178.791 309.495 174.454C299.029 177.815 298.034 171.757 299.336 169.412C300.868 166.702 302.908 163.531 306.974 163.531C312.852 163.531 312.477 165.685 312.168 168.725C314.413 165.33 315.041 162.835 320.264 157.726L320.188 153.907L323.244 154.977L326.146 150.241C322.994 143.698 318.696 146.903 315.529 138.784C312.903 138.094 278.358 134.86 279.554 118.466ZM182.092 140.922C185.311 140.665 188.157 142.964 188.431 146.04C188.699 149.101 186.31 151.819 183.085 152.074C179.853 152.334 177.003 150.03 176.745 146.957C176.674 146.141 176.776 145.391 177.051 144.665C177.051 144.648 177.043 144.595 177.051 144.589C177.082 144.479 177.168 144.391 177.203 144.283C178.047 142.477 179.875 141.102 182.092 140.922ZM237.85 163.378C238.05 164.565 238.485 165.62 239.072 166.586C238.486 165.618 238.048 164.567 237.85 163.378ZM336.381 184.23C334.987 184.977 333.676 185.967 332.638 187.133C333.684 185.948 334.969 184.986 336.381 184.23ZM188.355 211.651C190.573 211.864 196.302 212.699 203.02 215.47C203.098 215.508 203.183 215.502 203.249 215.546C209.71 219.23 209.581 226.631 201.263 228.378C206.569 238.565 225.054 233.613 229.066 225.323C231.022 225.149 232.699 228.656 234.336 231.968C231.757 233.313 226.526 235.939 215.241 242.585C206.059 247.99 199.859 254.803 191.487 257.785C190.211 258.247 189.23 258.368 188.355 258.32V211.651ZM173.537 265.576C173.303 265.745 173.094 265.993 172.926 266.187C173.113 265.96 173.262 265.769 173.537 265.576ZM166.816 270.999C165.97 271.951 165.203 272.947 164.677 273.978C165.194 272.962 165.986 271.939 166.816 270.999ZM347.38 286.199C347.421 286.84 347.456 287.514 347.456 288.185C347.456 288.516 347.372 288.993 347.303 289.559C347.372 288.993 347.38 288.516 347.38 288.185C347.38 287.488 347.424 286.863 347.38 286.199ZM344.783 296.205C344.487 296.618 344.154 297.03 343.79 297.427C344.139 297.043 344.497 296.603 344.783 296.205ZM179.342 339.894C179.702 339.894 180.072 339.978 180.411 340.047C180.072 339.978 179.702 339.971 179.342 339.971C179.02 339.971 178.728 339.988 178.426 340.047C178.728 339.987 179.021 339.894 179.342 339.894Z" fill="#034694"/>
<path d="M298.969 146.762L303.141 146.982L301.053 149.845C301.053 149.845 298.267 150.726 298.969 146.762ZM289.018 146.762H295.028C295.028 146.762 294.812 151.613 299.2 152.047L298.268 153.591C298.268 153.591 286.474 150.509 289.018 146.762Z" fill="white"/>
<path d="M185.791 188.198C185.999 187.416 178.708 183.151 174.742 182.113C173.071 181.68 171.784 183.688 171.576 184.473C171.374 185.26 171.511 187.642 173.176 188.08C177.145 189.119 185.588 188.982 185.791 188.198ZM185.193 195.475C185.255 194.736 177.983 192.121 174.232 191.84C172.661 191.725 171.834 193.756 171.784 194.489C171.732 195.235 172.25 197.359 173.822 197.47C177.567 197.748 185.146 196.226 185.193 195.475ZM176.937 173.532V176.32C178.004 177.387 181.892 178.64 182.336 178.64V173.12C182.337 173.121 179.412 173.734 176.937 173.532ZM175.415 200.726C174.277 200.771 173.849 202.281 173.877 202.824C173.887 203.361 174.43 204.844 175.569 204.8C178.278 204.703 183.589 202.998 183.568 202.467C183.546 201.933 178.125 200.632 175.415 200.726ZM169.836 274.312C165.352 280.123 168.581 285.424 168.581 285.424C168.581 281.377 173.198 276.168 174.227 275.151C174.227 275.152 172.646 274.312 169.836 274.312ZM184.142 286.641C183.453 290.225 185.236 293.716 188.324 295.321C188.981 295.661 189.694 295.931 190.443 296.078C190.764 296.152 191.064 296.19 191.376 296.226C191.513 296.228 191.65 296.231 191.787 296.236C191.787 296.236 187.246 291.984 189.072 287.966C187.887 287.153 186.119 286.641 184.142 286.641ZM175.935 168.04C169.136 164.722 164.301 156.406 164.301 146.655C164.301 136.307 169.737 127.562 177.206 124.699C165.992 127.184 158.08 137.15 159.07 148.384C159.909 157.901 166.862 165.51 175.935 168.04ZM248.127 144.173C255.344 142.815 257.792 149.231 257.792 151.527C257.792 160.226 251.017 163.731 245.401 163.764V163.769C271.452 163.769 262.271 130.032 248.127 144.173ZM230.715 219.036C243.165 219.036 242.328 202.775 239.635 200.08C243.63 196.088 251.851 177.774 251.851 174.391C251.851 174.391 235.418 170.847 238.042 159.444C238.037 159.437 238.037 159.432 238.037 159.422L237.817 159.382C233.339 164.107 236.062 173.963 243.166 176.422C243.166 176.422 240.424 187.258 233.656 194.128C226.917 193.867 217.472 192.98 209.176 189.805C222 196.611 235.205 206.897 230.715 219.036ZM182.078 140.96C185.298 140.703 188.133 142.985 188.407 146.061C188.674 149.122 186.277 151.828 183.052 152.083C179.821 152.343 176.98 150.06 176.723 146.987C176.723 151.75 180.59 155.621 185.362 155.621C185.433 155.621 185.505 155.617 185.577 155.617C186.004 157.729 186.151 159.973 185.462 161.617C190.122 157.564 193.999 152.494 193.999 146.987C193.999 142.212 190.122 138.342 185.362 138.342C181.388 138.342 178.06 141.019 177.042 144.655C177.797 142.656 179.708 141.152 182.078 140.96ZM273.829 134.674C268.199 129.034 276.519 118.494 279.576 118.494C276.233 118.494 261.736 127.985 266.657 134.674C269.373 134.674 273.829 134.674 273.829 134.674ZM201.291 228.387C205.757 229.758 210.248 228.086 211.293 224.655C212.339 221.217 209.553 217.334 205.079 215.958C204.461 215.774 203.838 215.642 203.224 215.566C209.684 219.25 209.609 226.64 201.291 228.387ZM188.336 180.934C188.336 180.934 194.736 182.959 202.61 186.557C201.029 185.577 199.546 184.472 198.213 183.217C194.216 179.439 191.036 177.381 188.336 176.335V180.934ZM190.764 263.254C204.145 263.254 250.409 233.715 250.409 233.715C238.982 233.715 234.367 231.948 234.367 231.948C231.787 233.292 226.493 235.948 215.209 242.595C206.026 248 199.872 254.834 191.5 257.817C190.224 258.279 189.211 258.386 188.336 258.338C186.409 258.172 184.289 257.91 182.336 257.794V215.312C182.336 210.857 179.083 209.066 176.937 209.066V258.504C173.318 260.422 171.538 262.806 170.559 265.034C170.559 265.034 163.66 264.114 163.857 276.882C163.857 273.496 168.882 267.574 172.366 267.574C172.366 263.254 185.047 263.254 190.764 263.254ZM306.166 331.644C302.778 331.644 287.227 332.302 285.83 318.757C282.393 318.019 278.381 317.87 274.167 318.469C285.161 339.451 297.095 339.619 300.218 339.779C305.077 345.201 303.449 363.507 296.428 363.138C270.728 361.77 271.67 377.406 274.549 380.604C274.549 368.814 282.564 366.019 302.81 366.019C302.811 366.019 319.36 344.839 306.166 331.644ZM311.452 382.271H307.973C307.679 387.888 313.239 389.541 313.239 389.541C311.452 387.756 310.15 383.585 311.452 382.271ZM278.93 390.179C277.451 388.698 276.233 382.763 278.381 380.604H274.549C274.229 386.682 278.93 390.179 278.93 390.179ZM355.648 194.973C355.648 177.024 331.032 179.844 329.817 193.627C330.903 183.525 347.349 182.034 347.349 194.688C347.349 207.764 316.677 216.33 316.677 238.43C316.677 262.782 341.027 265.035 338.563 287.299C338.147 291.153 334.017 296.189 328.039 296.189C315.221 296.189 308.359 290.749 304.375 283.061C308.45 293.945 315.621 302.288 330.545 302.288C346.009 302.288 347.413 290.858 347.413 288.203C347.413 265.912 324.132 260.613 324.132 239.428C324.135 218.801 355.648 210.304 355.648 194.973ZM174.134 281.569C174.134 288.442 176.937 291.108 176.937 291.108C176.937 286.964 178.64 283.461 179.614 282.495C178.175 281.046 174.134 281.569 174.134 281.569ZM352 243.581C345.752 243.581 340.636 248.362 340.097 254.461C340.382 252.998 341.357 251.575 343.263 250.151C350.421 244.83 364.451 255.547 356.449 266.623C360.847 264.856 363.938 260.564 363.938 255.534C363.94 248.938 358.595 243.581 352 243.581ZM297.241 382.271H293.067C292.64 390.209 297.72 391.404 297.72 391.404C295.565 389.255 295.205 384.305 297.241 382.271ZM179.335 339.934C178.69 339.934 178.088 340.066 177.513 340.285C175.529 341.795 174.32 344.141 174.392 346.714C175.053 348.83 177.003 350.36 179.335 350.36C182.215 350.36 184.547 348.027 184.547 345.149C184.547 342.266 182.215 339.934 179.335 339.934ZM208.655 378.482H202.622C202.57 388.151 208.824 389.904 208.824 389.904C207.06 388.129 204.822 382.312 208.655 378.482ZM227.363 317.336C227.363 295.22 280.33 292.624 280.33 274.404C280.33 266.984 273.925 263.633 269.371 263.633C270.66 264.924 277.549 279.739 257.766 279.739C239.876 285.726 200.92 319.589 227.96 331.329C227.948 334.732 227.49 360.074 211.249 358.083C187.854 355.187 182.017 364.859 186.507 375.743C186.507 359.229 198.104 362.296 213.249 362.296C222.72 362.296 236.566 350.319 236.566 330.153C236.566 330.153 227.363 326.622 227.363 317.336ZM182.337 330.89V286.481C179.335 286.481 176.937 291.108 176.937 291.108L176.938 328.998V328.755L173.657 328.765L173.686 333.548C176.209 333.547 182.337 332.246 182.337 330.89ZM191.453 388.114C191.453 388.114 186.771 380.758 191.788 375.743H186.507C184.388 384.931 191.453 388.114 191.453 388.114ZM224.105 378.578C224.105 378.578 221.584 378.578 219.727 378.578C219.694 385.402 227.622 387.986 227.622 387.986C224.828 385.205 222.914 379.752 224.105 378.578Z" fill="#6A7AB5"/>
<path d="M76.823 304.849L76.5311 303.953L76.4062 303.02C75.9786 299.827 75.2063 293.878 70.6136 292.814C69.3857 292.528 68.1169 292.675 66.763 293.232C67.1313 291.818 67.0883 290.539 66.6444 289.366C64.9513 284.963 58.9572 285.019 55.7367 285.061H54.7899L53.8571 284.888C50.6937 284.306 44.7923 283.204 42.3709 287.245C41.7204 288.324 41.4619 289.574 41.5728 291.029C40.3471 290.238 39.1116 289.884 37.8655 289.944C33.1521 290.195 31.3501 295.915 30.3861 298.993L30.092 299.887L29.6547 300.717C28.1102 303.553 25.2461 308.811 28.3396 312.372C29.1657 313.323 30.2773 313.96 31.6969 314.296C30.5746 315.226 29.8497 316.289 29.533 317.505C28.3019 322.053 33.1898 325.531 35.8071 327.394L36.5751 327.961L37.2364 328.629C39.4542 330.976 43.5751 335.319 47.9148 333.481C49.063 332.986 50.0151 332.13 50.7777 330.886C51.3206 332.243 52.1015 333.249 53.1538 333.943C57.1067 336.503 61.9203 332.936 64.5096 331.031L65.2755 330.47L66.1253 330.053C69.0335 328.661 74.4513 326.09 74.042 321.392C73.9332 320.132 73.4065 318.975 72.464 317.867C73.9149 317.781 75.1147 317.341 76.0885 316.552C79.7592 313.587 77.8484 307.905 76.823 304.849Z" fill="white"/>
<path d="M56.175 308.659C82.5445 324.244 74.4232 307.106 73.8437 304.571C73.2599 302.045 73.0381 283.087 56.175 308.659Z" fill="#ED1C24"/>
<path d="M54.5174 312.56C47.8437 342.443 61.6338 329.434 63.858 328.109C66.0811 326.772 84.0428 320.698 54.5174 312.56Z" fill="#ED1C24"/>
<path d="M50.2833 312.198C19.7885 315.076 36.4329 324.177 38.3878 325.876C40.3481 327.571 51.6652 342.785 50.2833 312.198Z" fill="#ED1C24"/>
<path d="M49.3268 308.048C37.1556 279.941 33.6454 298.579 32.6318 300.974C31.6183 303.348 20.6459 318.822 49.3268 308.048Z" fill="#ED1C24"/>
<path d="M484.896 300.72L484.461 299.889L484.162 298.995C483.198 295.916 481.396 290.197 476.696 289.945C475.436 289.886 474.207 290.237 472.981 291.02C473.093 289.575 472.819 288.325 472.186 287.246C469.754 283.203 463.861 284.306 460.698 284.888L459.755 285.061H458.813C455.604 285.019 449.605 284.964 447.918 289.367C447.459 290.539 447.426 291.819 447.785 293.231C446.452 292.676 445.181 292.531 443.945 292.815C439.356 293.877 438.568 299.827 438.162 303.02L438.021 303.954L437.736 304.85C436.705 307.905 434.801 313.587 438.471 316.555C439.445 317.343 440.636 317.784 442.095 317.87C441.153 318.978 440.627 320.136 440.517 321.395C440.111 326.093 445.52 328.664 448.434 330.056L449.275 330.473L450.041 331.034C452.639 332.941 457.457 336.506 461.397 333.946C462.463 333.252 463.238 332.246 463.774 330.889C464.542 332.133 465.484 332.989 466.643 333.485C470.981 335.322 475.106 330.979 477.322 328.632L477.989 327.965L478.746 327.397C481.372 325.535 486.256 322.056 485.029 317.509C484.701 316.29 483.99 315.229 482.86 314.3C484.274 313.962 485.389 313.326 486.211 312.375C489.31 308.813 486.45 303.557 484.896 300.72Z" fill="white"/>
<path d="M461.584 305.868C438.62 285.609 457.423 288.027 460.008 287.8C462.582 287.583 480.691 281.929 461.584 305.868Z" fill="#ED1C24"/>
<path d="M458.387 308.659C432.018 324.244 440.123 307.106 440.714 304.571C441.293 302.045 441.511 283.087 458.387 308.659Z" fill="#ED1C24"/>
<path d="M460.039 312.56C466.716 342.443 452.924 329.434 450.696 328.109C448.475 326.772 430.52 320.698 460.039 312.56Z" fill="#ED1C24"/>
<path d="M464.267 312.198C494.763 315.076 478.131 324.177 476.168 325.876C474.22 327.571 462.886 342.785 464.267 312.198Z" fill="#ED1C24"/>
<path d="M465.217 308.048C477.396 279.941 480.899 298.579 481.917 300.974C482.925 303.348 493.897 318.822 465.217 308.048Z" fill="#ED1C24"/>
<path d="M471.141 308.925C471.112 308.68 471.034 308.462 471 308.225C473.449 306.426 476.094 304.499 476.094 304.499L475.84 303.929C475.84 303.929 472.754 304.468 469.794 304.984C468.309 302.549 465.776 300.898 462.877 300.616C461.956 297.848 461.036 295.028 461.036 295.028L460.416 295.081C460.416 295.081 459.999 298.019 459.579 300.897C457.797 301.379 456.198 302.387 454.982 303.83C454.333 304.608 453.865 305.488 453.492 306.406C450.511 306.406 447.36 306.416 447.36 306.416L447.228 307.03C447.228 307.03 450.165 308.462 452.878 309.79C452.888 310.037 452.856 310.282 452.878 310.532C453.086 312.922 454.205 315.067 456.01 316.633C455.057 319.612 453.984 322.941 453.984 322.941L454.51 323.259C454.51 323.259 456.984 320.696 459.187 318.435C460.337 318.813 461.562 318.961 462.799 318.851C464.047 318.756 465.229 318.383 466.302 317.826C468.856 319.665 471.736 321.748 471.736 321.748L472.208 321.342C472.208 321.342 470.575 318.256 469.12 315.493C470.629 313.63 471.34 311.309 471.141 308.925Z" fill="white"/>
<path d="M461.538 304.336C460.092 304.448 458.79 305.131 457.861 306.248C456.931 307.355 456.481 308.755 456.613 310.193C456.865 313.17 459.502 315.383 462.471 315.12C463.927 314.988 465.218 314.308 466.161 313.205C467.082 312.088 467.53 310.698 467.408 309.25C467.149 306.272 464.509 304.067 461.538 304.336Z" fill="#ED1C24"/>
<path d="M52.9717 305.868C75.943 285.609 57.1293 288.027 54.5518 287.8C51.9657 287.583 33.8597 281.929 52.9717 305.868Z" fill="#ED1C24"/>
<path d="M61.6682 309.79C64.4008 308.463 67.3241 307.029 67.3241 307.029L67.1872 306.415C67.1872 306.415 64.0432 306.405 61.0542 306.405C60.6923 305.488 60.2216 304.607 59.57 303.83C58.355 302.387 56.7566 301.38 54.9707 300.896C54.5615 298.016 54.1446 295.081 54.1446 295.081L53.5134 295.028C53.5134 295.028 52.599 297.846 51.6921 300.616C48.7742 300.898 46.2387 302.549 44.7555 304.984C41.8075 304.468 38.7033 303.929 38.7033 303.929L38.4643 304.499C38.4643 304.499 41.1032 306.426 43.5504 308.225C43.5105 308.463 43.4394 308.681 43.4135 308.924C43.2111 311.321 43.938 313.629 45.4449 315.493C43.9779 318.253 42.345 321.341 42.345 321.341L42.8286 321.748C42.8286 321.748 45.7034 319.664 48.2551 317.826C49.3278 318.386 50.5094 318.746 51.7535 318.851C53.0007 318.963 54.2222 318.812 55.3725 318.434C57.5687 320.697 60.0396 323.259 60.0396 323.259L60.5814 322.941C60.5814 322.941 59.5064 319.61 58.5478 316.641C60.3498 315.065 61.4678 312.92 61.68 310.53C61.7059 310.282 61.6682 310.037 61.6682 309.79Z" fill="white"/>
<path d="M56.6974 306.249C55.7647 305.132 54.4689 304.447 53.017 304.337C50.0496 304.068 47.4096 306.273 47.1511 309.252C47.0284 310.7 47.4753 312.09 48.3962 313.207C49.3268 314.31 50.6355 314.99 52.0799 315.122C55.0473 315.385 57.6862 313.171 57.9437 310.195C58.0654 308.756 57.6216 307.356 56.6974 306.249Z" fill="#ED1C24"/>
<path d="M56.329 178.432C43.4911 176.165 31.1982 184.783 28.9298 197.621C26.6647 210.467 35.2728 222.759 48.1119 225.026C60.9616 227.292 73.26 218.679 75.5208 205.834C77.7935 192.994 69.1799 180.703 56.329 178.432Z" fill="white"/>
<path d="M61.6844 196.325C61.4766 196.198 61.1146 195.963 60.6762 195.673C58.7363 194.387 54.9331 191.872 54.8286 191.797C54.3019 191.435 53.7892 191.09 53.2841 190.75C51.593 189.617 50.0808 188.631 48.659 187.81C48.1108 187.499 47.5808 187.208 47.0477 186.948C44.7868 185.807 42.6197 185.118 40.0616 184.893C38.0894 186.317 36.3779 188.08 34.9917 190.118C40.8737 192.242 46.6168 195.643 58.5748 203.071C59.2587 201.49 61.5476 196.621 61.6844 196.325Z" fill="#ED1C24"/>
<path d="M56.1707 209.005C56.4098 208.409 57.4611 205.749 57.8908 204.724C45.6367 197.112 39.9464 193.744 34.0514 191.66C33.137 193.302 32.4519 195.093 32.0049 196.999C35.3698 201.619 44.3873 206.158 56.1707 209.005Z" fill="#ED1C24"/>
<path d="M54.8437 189.661C59.4321 186.947 64.6453 187.685 68.6694 189.059C67.1689 187.121 65.3519 185.428 63.2386 184.11C59.4375 183.353 54.1877 183.235 50.0086 186.557C51.5284 187.45 53.0977 188.491 54.8437 189.661Z" fill="#ED1C24"/>
<path d="M36.5352 211.584C37.1492 212.006 37.7782 212.406 38.447 212.782C39.7977 213.529 41.2604 214.174 42.7716 214.726C43.4125 214.969 44.0641 215.194 44.7212 215.406C47.0197 216.162 52.2942 217.532 52.6874 217.624C52.7683 217.421 54.7446 212.533 55.4943 210.676C46.3583 208.41 36.3543 204.444 31.601 199.287C31.3156 201.669 31.4265 204.024 31.9295 206.258C32.9323 208.442 34.5426 210.183 36.5352 211.584Z" fill="#ED1C24"/>
<path d="M52.9954 219.533L51.089 219.042C49.3215 218.593 47.4053 218.09 45.4568 217.492C46.4068 219.517 47.9019 221.095 49.496 222.317C51.6318 222.6 53.7397 222.546 55.7658 222.196C54.302 221.057 52.9954 219.533 52.9954 219.533Z" fill="#ED1C24"/>
<path d="M72.1031 195.697C71.6691 194.278 71.0993 192.904 70.383 191.623C66.7812 190.017 61.2955 188.448 56.5046 190.792L63.1126 195.155C64.4902 195.033 65.7579 194.995 66.918 195.023C67.5513 195.033 68.1394 195.067 68.7017 195.122C69.9952 195.236 71.0993 195.444 72.1031 195.697Z" fill="#ED1C24"/>
<path d="M68.72 196.906C68.5271 207.765 63.4077 216.14 58.9959 221.381C65.9012 218.981 71.347 213.03 72.7052 205.343C73.1705 202.716 73.0887 200.132 72.6018 197.673C71.5291 197.339 70.2462 197.06 68.72 196.906Z" fill="#ED1C24"/>
<path d="M48.3585 185.637C51.4509 182.911 55.1033 181.99 58.4714 181.914C57.6162 181.641 56.7448 181.405 55.8368 181.251C51.0341 180.403 46.3357 181.296 42.3451 183.458C44.4702 183.874 46.3907 184.619 48.3585 185.637Z" fill="#ED1C24"/>
<path d="M63.3646 196.916C61.7932 200.189 60.869 202.194 60.1021 204.017C59.8662 204.57 59.6368 205.106 59.4052 205.664C59.039 206.579 57.9102 209.421 57.9102 209.421L57.237 211.09L54.3192 218.318C55.1238 219.386 56.0985 220.256 57.0572 220.935C61.3925 215.991 66.7877 207.68 66.9525 196.801C65.8614 196.762 64.6615 196.802 63.3646 196.916Z" fill="#ED1C24"/>
<path d="M43.2703 216.774C41.8151 216.273 40.3621 215.702 38.9899 215.033C39.5026 216.617 40.2415 218.022 40.9858 219.229C42.5422 220.227 44.2505 221.014 46.074 221.577C44.8924 220.245 43.8724 218.671 43.2703 216.774Z" fill="#ED1C24"/>
<path d="M36.8486 213.863C35.862 213.272 34.9443 212.614 34.0945 211.891C35.0563 213.611 36.2681 215.188 37.6737 216.571C37.3398 215.708 37.0468 214.816 36.8486 213.863Z" fill="#ED1C24"/>
<path d="M436.471 205.836C438.74 218.68 451.029 227.294 463.871 225.028C476.716 222.761 485.322 210.468 483.067 197.622C480.8 184.784 468.505 176.166 455.658 178.433C442.814 180.703 434.206 192.995 436.471 205.836Z" fill="white"/>
<path d="M450.305 196.325C450.508 196.198 450.872 195.963 451.321 195.673C453.263 194.387 457.059 191.872 457.156 191.797C457.695 191.435 458.209 191.09 458.713 190.75C460.385 189.617 461.911 188.631 463.334 187.81C463.882 187.499 464.418 187.208 464.942 186.948C467.197 185.807 469.376 185.118 471.93 184.893C473.901 186.317 475.62 188.08 476.987 190.118C471.109 192.242 465.383 195.643 453.41 203.071C452.724 201.49 450.446 196.621 450.305 196.325Z" fill="#ED1C24"/>
<path d="M455.823 209.005C455.58 208.409 454.521 205.749 454.115 204.724C466.345 197.112 472.053 193.744 477.943 191.66C478.852 193.302 479.542 195.093 479.99 196.999C476.619 201.619 467.603 206.158 455.823 209.005Z" fill="#ED1C24"/>
<path d="M457.15 189.661C452.557 186.947 447.348 187.685 443.318 189.059C444.82 187.121 446.648 185.428 448.76 184.11C452.557 183.353 457.804 183.235 461.977 186.557C460.47 187.45 458.889 188.491 457.15 189.661Z" fill="#ED1C24"/>
<path d="M475.447 211.584C474.847 212.006 474.22 212.406 473.539 212.782C472.195 213.529 470.734 214.174 469.226 214.726C468.58 214.969 467.924 215.194 467.268 215.406C464.981 216.162 459.702 217.532 459.305 217.624C459.217 217.421 457.235 212.533 456.5 210.676C465.633 208.41 475.63 204.444 480.397 199.287C480.681 201.669 480.558 204.024 480.064 206.258C479.058 208.442 477.451 210.183 475.447 211.584Z" fill="#ED1C24"/>
<path d="M459.001 219.533L460.895 219.042C462.668 218.593 464.596 218.09 466.545 217.492C465.581 219.517 464.093 221.095 462.502 222.317C460.369 222.6 458.255 222.546 456.24 222.196C457.686 221.057 459.001 219.533 459.001 219.533Z" fill="#ED1C24"/>
<path d="M439.889 195.697C440.327 194.278 440.887 192.904 441.62 191.623C445.211 190.017 450.685 188.448 455.479 190.792L448.878 195.155C447.498 195.033 446.231 194.995 445.068 195.023C444.443 195.033 443.852 195.067 443.282 195.122C441.991 195.236 440.899 195.444 439.889 195.697Z" fill="#ED1C24"/>
<path d="M443.274 196.906C443.461 207.765 448.593 216.14 453.01 221.381C446.086 218.981 440.634 213.03 439.289 205.343C438.828 202.716 438.894 200.132 439.397 197.673C440.461 197.339 441.753 197.06 443.274 196.906Z" fill="#ED1C24"/>
<path d="M463.64 185.637C460.546 182.911 456.886 181.99 453.523 181.914C454.375 181.641 455.242 181.405 456.159 181.251C460.957 180.403 465.655 181.296 469.644 183.458C467.528 183.874 465.603 184.619 463.64 185.637Z" fill="#ED1C24"/>
<path d="M448.63 196.916C450.206 200.189 451.113 202.194 451.905 204.017C452.133 204.57 452.351 205.106 452.583 205.664C452.956 206.579 454.083 209.421 454.083 209.421L454.752 211.09L457.676 218.318C456.866 219.386 455.899 220.256 454.937 220.935C450.604 215.991 445.199 207.68 445.047 196.801C446.133 196.762 447.338 196.802 448.63 196.916Z" fill="#ED1C24"/>
<path d="M468.724 216.774C470.181 216.273 471.623 215.702 473.008 215.033C472.48 216.617 471.756 218.022 471.001 219.229C469.447 220.227 467.739 221.014 465.923 221.577C467.102 220.245 468.121 218.671 468.724 216.774Z" fill="#ED1C24"/>
<path d="M475.151 213.863C476.125 213.272 477.045 212.614 477.899 211.891C476.935 213.611 475.732 215.188 474.321 216.571C474.648 215.708 474.943 214.816 475.151 213.863Z" fill="#ED1C24"/>
</g>
</g>
<defs>
<clipPath id="clip0_1_2402">
<rect width="512" height="512" fill="white"/>
</clipPath>
<clipPath id="clip1_1_2402">
<rect width="512" height="512" fill="white"/>
</clipPath>
</defs>
</svg>
