<svg width="413" height="512" viewBox="0 0 413 512" fill="none" xmlns="http://www.w3.org/2000/svg">
<g clip-path="url(#clip0_1_2827)">
<path d="M131.315 405.43C131.315 405.43 74.0176 376.692 46.1035 332.61C46.2519 370.489 44.3821 417.74 44.3821 417.74L132.079 434.969L131.315 405.43Z" fill="white"/>
<path d="M282.727 406.209C282.727 406.209 340.024 379.735 367.938 335.66C367.789 373.532 369.667 417.732 369.667 417.732L281.962 434.969L282.727 406.209Z" fill="white"/>
<path d="M283.345 461.492H130.923V391.93H283.345V461.492Z" fill="white"/>
<path d="M252.484 397.078C252.484 421.727 232.235 441.731 207.259 441.731C182.291 441.731 162.042 421.727 162.042 397.078C162.042 372.414 182.291 352.417 207.259 352.417C232.235 352.417 252.484 372.414 252.484 397.078Z" fill="white"/>
<path d="M25.0359 420.387V355.136L21.1404 353.674V344.852L25.0359 343.123V336.972L21.1404 335.517V324.996L33.9399 312.857V309.985C33.9399 309.985 34.3702 307.462 37.6499 307.462H41.4267C41.4267 307.462 44.3798 307.893 44.3798 309.985V312.664L57.5058 325.033L57.3797 335.555L53.4767 336.935V343.071L57.4613 344.778V354.49V414.11L25.0359 420.387Z" fill="white"/>
<path d="M390.533 420.387V355.136L394.429 353.674V344.852L390.533 343.123V336.972L394.429 335.517V324.996L381.629 312.857V309.985C381.629 309.985 381.199 307.462 377.919 307.462H374.135C374.135 307.462 371.189 307.893 371.189 309.985V312.664L358.063 325.033L358.182 335.555L362.085 336.935V343.071L358.108 344.778V354.49V414.11L390.533 420.387Z" fill="white"/>
<path d="M203.294 512C171.603 512 151.347 501.137 130.007 489.688C118.699 483.634 107.012 477.364 93.2776 472.756C54.4265 459.712 28.8424 475.694 27.7739 476.384L22.5947 468.4C23.8116 467.606 52.8906 449.16 96.305 463.733C110.796 468.601 122.839 475.063 134.496 481.311C156.533 493.124 177.317 504.291 211.538 502.236C243.547 500.314 265.548 489.436 286.821 478.914C295.888 474.425 304.458 470.189 313.54 466.775C314.126 466.553 314.824 466.278 315.625 465.967C327.008 461.463 361.666 447.795 391.591 470.582L385.826 478.15C360.168 458.606 330.347 470.381 319.113 474.811C318.267 475.145 317.525 475.442 316.887 475.679C308.257 478.929 299.888 483.062 291.035 487.44C269.94 497.865 246.033 509.693 212.116 511.733C209.082 511.911 206.143 512 203.294 512Z" fill="white"/>
<path d="M373.031 494.809L366.301 490.476C364.795 489.504 360.825 488.888 356.796 489.533C356.084 489.645 355.334 489.815 354.592 489.978C351.216 490.728 347.009 491.64 343.744 489.021C342.409 487.945 340.799 485.868 340.799 482.054C340.791 479.153 342.045 476.57 344.323 474.797C351.758 469.017 370.004 473.053 375.42 474.426C379.019 475.413 382.996 475.376 383.775 474.664C385.623 454.125 393.97 439.27 398.667 432.37C364.936 411.979 313.315 423.057 293.964 435.412C265.122 453.836 241.074 465.262 210.362 465.396C184.192 465.418 161.984 454.637 138.544 443.166C125.418 436.74 111.854 430.099 96.9403 425.091C65.5833 414.562 29.9154 426.411 16.3665 431.82C21.4046 438.751 29.0843 452.352 29.9154 471.822C30.65 472.727 34.6048 472.957 38.159 472.17C43.7314 471.035 62.1479 467.882 69.2933 474.011C71.4822 475.895 72.6175 478.522 72.4765 481.416C72.291 485.222 70.5918 487.233 69.1969 488.242C65.8133 490.706 61.6581 489.585 58.3117 488.672C57.5697 488.48 56.8426 488.279 56.1451 488.138C52.1457 487.292 48.1538 487.715 46.5956 488.621L39.6801 492.613L39.413 481.601C36.6824 482.128 28.9434 483.197 24.1649 479.546C21.8573 477.78 20.5662 475.25 20.44 472.222C19.3716 447.328 5.51102 433.505 5.37004 433.371L0.554443 428.667L6.60918 425.714C8.63484 424.727 56.8648 401.636 99.9528 416.097C115.461 421.306 129.321 428.096 142.707 434.655C165.034 445.585 186.121 455.906 210.006 455.906H210.325C238.744 455.787 261.449 444.924 288.859 427.413C311.519 412.959 370.79 400.553 408.224 427.309L412.461 430.344L409.055 434.276C408.922 434.425 395.477 450.341 393.206 475.346C392.939 478.366 391.529 480.837 389.14 482.484C384.243 485.868 376.652 484.488 373.81 483.805L373.031 494.809Z" fill="white"/>
<path d="M68.7553 474.026C68.7553 474.026 64.0214 469.278 62.0477 465.79C58.1522 458.882 27.6782 472.513 27.6782 472.513L35.9886 474.301" fill="white"/>
<path d="M343.206 475.842C343.206 475.842 348.052 471.205 350.099 467.769C354.18 460.958 384.306 475.3 384.306 475.3L375.958 476.896" fill="white"/>
<path d="M24.1344 474.298C24.1344 474.298 23.474 455.555 19.2743 447.245C15.0672 438.927 13.3828 430.557 13.3828 430.557C13.3828 430.557 38.9299 417.698 55.5803 417.387C72.2234 417.075 113.657 424.273 126.56 431.388C139.471 438.512 174.263 457.596 192.309 461.491C210.362 465.387 240.175 460.749 258.822 453.077C277.468 445.405 289.941 432.19 297.495 428.836C305.048 425.482 329.423 416.667 345.814 415.198C362.204 413.714 381.942 420.429 393.064 422.529C404.187 424.629 402.547 428.836 402.547 428.836L389.169 471.412C389.169 471.412 367.777 464.14 353.434 463.725C339.091 463.302 314.694 474.09 307.133 476.888C299.587 479.693 266.353 493.561 255.653 497.768C244.954 501.967 208.811 511.628 188.213 507.013C167.622 502.39 127.614 482.082 117.152 476.888C106.682 471.701 68.8325 459.228 63.8165 461.61C58.8006 463.984 24.1344 474.298 24.1344 474.298Z" fill="white"/>
<path d="M232.965 316.47C233.047 316.522 233.136 316.552 233.21 316.589L231.949 316.797L232.965 316.47ZM380.92 68.0486C380.163 65.7336 376.223 63.9453 360.263 63.9453C354.045 63.9453 348.25 64.1976 348.19 64.1976C347.938 64.205 347.701 64.257 347.463 64.3238C337.587 65.0435 328.156 67.3215 319.638 71.024C330.939 57.3935 348.539 48.8753 359.179 44.6756C359.728 44.453 361.302 43.7333 361.635 43.2213C362.147 42.4051 363.023 41.6631 362.303 40.3349C361.064 38.0718 356.226 37.4856 352.991 37.4856C349.519 37.4856 344.584 37.9605 338.411 38.888C335.473 39.2219 332.571 39.6968 329.796 40.3052C329.67 40.3275 329.544 40.3571 329.425 40.4017C317.167 43.1545 305.57 48.6453 295.887 56.2805C294.529 57.3564 293.223 58.4694 291.939 59.6046L299.738 46.3303C303.96 39.4371 308.523 33.0633 313.346 27.3944C313.673 27.016 313.888 26.556 313.984 26.0737C314.177 25.1091 315.275 23.5954 314.652 22.8311C314.251 22.3562 313.361 21.5549 311.773 21.5549C310.363 21.5549 305.703 22.0298 287.829 35.6084C271.008 47.3616 256.59 62.5875 246.069 79.7203C241.847 87.2887 234.464 101.335 232.008 111.226C231.867 110.224 231.726 109.23 231.622 108.265C231.177 104.295 230.94 100.177 230.873 95.2948C230.791 89.4553 231.051 84.2242 231.288 80.8704C231.392 79.4605 231.125 76.1364 229.76 75.8099C228.387 75.4686 226.302 78.2066 225.746 79.5051C217.005 99.5168 214.705 116.16 214.23 126.088L211.032 155.286C210.668 157.304 209.147 167.054 209.147 167.054C206.721 162.832 205.014 159.7 203.159 155.122C203.092 154.966 203.018 154.826 202.929 154.677L200.176 150.277C200.109 150.158 200.028 150.04 199.939 149.943C195.769 144.987 191.554 142.427 186.679 139.481C179.831 135.326 171.312 130.169 158.654 115.522C151.672 107.434 143.576 91.1025 140.965 79.8612C135.785 57.5938 136.268 30.9709 142.219 7.05621C142.76 5.46091 143.139 2.54483 142.426 1.55057C141.885 0.793732 140.868 0.274353 139.926 0.274353C138.063 0.274353 136.379 1.91415 124.7 20.4716C124.67 20.5235 124.641 20.568 124.611 20.62C116.946 32.8333 111.53 46.7977 108.97 61.0441C108.398 64.1457 107.975 67.2398 107.679 70.3117C104.97 63.5744 102.729 56.5996 100.978 49.4838C97.2386 34.2357 95.9995 18.7575 97.4093 4.74115C97.4983 3.8656 97.6912 1.52832 97.0679 0.905029C96.4669 0.333679 95.6359 -0.000213623 94.7677 -0.000213623C92.193 -0.000213623 88.2381 3.31653 80.0093 25.302C72.1812 46.2264 69.6584 65.4071 72.107 86.3834C63.2179 74.8156 59.2111 58.5362 55.605 43.8817C54.7071 40.2459 53.8316 36.6768 52.9041 33.2637C52.444 31.5496 51.2049 27.4019 49.6467 28.1884C49.5354 28.2329 49.4315 28.2997 49.3276 28.3739C49.3202 28.3813 49.3054 28.3887 49.2906 28.3961C49.2312 28.4332 49.1793 28.4778 49.1273 28.5297C49.0531 28.5891 48.9789 28.641 48.9195 28.7003C48.6005 29.0046 47.4727 32.6255 47.2797 33.0188C46.7826 33.9537 46.4561 35.319 46.2632 37.3076C46.2558 37.404 46.2484 37.4931 46.2484 37.5895C46.2484 38.2722 46.2038 38.9548 46.1667 39.6375C46.1222 40.3943 46.0703 41.1437 46.0703 41.9005C45.0092 52.897 44.1708 81.3452 58.7733 111.077L59.1072 111.849C59.3001 112.294 59.5005 112.747 59.7008 113.199C61.2887 116.546 63.0843 119.625 64.8058 122.586C65.3771 123.565 65.9336 124.53 66.4827 125.494C68.5009 129.034 70.2669 131.193 72.0848 133.248C63.8412 131.564 51.6575 129.137 45.7809 128.254C44.423 128.076 43.132 128.818 42.6422 130.087C42.1599 131.363 42.62 132.803 43.7701 133.545C48.6747 136.765 57.6232 144.831 67.0169 153.572L66.8834 153.609L83.5487 169.109L85.0698 170.534C90.5087 175.653 96.1553 180.944 101.55 185.849L90.1228 184.713C88.8614 184.565 87.6371 185.307 87.1548 186.494C86.6651 187.681 87.0138 189.047 88.0155 189.855L114.609 211.381L114.587 211.388L126.221 220.648C126.303 220.73 126.37 220.834 126.466 220.908L146.433 236.972C146.923 237.366 147.539 237.588 148.169 237.61L153.289 237.744C142.449 242.248 132.536 242.396 120.931 238.508C111.99 235.511 103.427 230.843 96.1775 225.004C95.1461 224.173 92.512 222.629 91.451 223.416C90.3899 224.21 91.1764 227.133 91.6736 228.365C93.9367 233.908 98.1067 238.79 102.321 243.183C88.5646 241.365 76.01 237.573 61.7116 231.029C60.5318 230.487 58.3801 229.092 57.5342 230.064C56.6957 231.044 57.3709 234.145 58.0684 235.236C64.5387 245.275 69.7252 252.161 74.8747 257.526C80.2913 263.158 87.4368 268.923 90.9538 271.03C91.6216 271.446 93.4247 272.514 101.987 272.514C105.222 272.514 108.821 272.351 111.841 272.062C112.22 272.024 112.591 271.987 112.947 271.958C104.406 274.978 96.5263 276.098 89.737 275.245C88.2678 275.03 84.9214 275.178 84.5726 276.61C84.2313 278.057 86.999 280.357 88.394 280.854C98.5816 284.49 108.547 286.976 118.089 288.23C121.227 289.113 130.169 291.45 139.8 292.296C140.453 292.355 141.061 292.355 141.647 292.34C142.441 292.422 143.235 292.481 143.999 292.563C147.695 292.897 151.189 293.231 154.914 293.231C157.979 293.231 161.006 293.001 164.152 292.511C164.182 292.889 164.278 293.26 164.456 293.609L166.133 296.904C165.525 297.008 164.931 297.304 164.493 297.787C163.648 298.692 163.47 300.042 164.056 301.133L167.669 307.885C167.751 308.041 167.847 308.197 167.959 308.33C167.988 308.353 168.07 308.464 168.226 308.65C168.07 308.716 167.922 308.813 167.773 308.909C166.794 309.592 166.341 310.824 166.63 311.981C168.5 319.505 172.136 322.147 174.8 324.083C176.618 325.396 177.716 326.19 178.287 328.253C178.673 329.618 179.296 331.147 179.949 332.787C181.329 336.23 183.407 341.431 182.109 343.494C180.365 346.276 179.17 347.078 177.174 348.398C175.935 349.23 174.392 350.268 172.507 351.953C167.988 356.019 167.669 361.413 171.572 368.002L171.81 368.388C172.403 369.434 173.598 369.991 174.792 369.805C175.987 369.605 176.929 368.692 177.167 367.498C178.072 362.853 185.707 359.172 187.199 359.076C189.825 358.898 192.311 358.727 194.018 357.021C196.8 354.245 211.885 354.075 211.885 354.075C211.885 354.075 213.651 354.134 216.433 354.705C216.968 354.973 217.517 355.21 218.007 355.522C218.489 355.833 219.001 355.997 219.572 355.959C219.899 355.959 224.959 358 225.375 358.482C226.124 359.365 234.679 364.099 235.674 364.633C236.252 364.938 241.231 371.579 241.951 371.579C243.108 373.285 243.546 372.81 243.576 371.067C246.818 369.152 249.734 364.886 250.855 360.337C251.975 355.804 251.3 351.493 248.926 347.864C248.792 347.656 248.636 347.471 248.451 347.308C247.946 346.848 246.633 345.801 245.089 344.585C242.982 342.93 239.465 340.162 238.753 339.346C236.616 336.905 235.577 334.249 234.546 331.229C235.362 331.177 236.126 330.783 236.646 330.13C237.187 329.448 237.388 328.535 237.195 327.682L236.809 326.012C236.215 323.46 235.54 320.573 234.998 317.405L234.961 317.242C235.087 317.257 235.206 317.264 235.325 317.264C235.332 317.264 235.347 317.257 235.369 317.264C236.972 317.264 238.271 315.966 238.271 314.363C238.271 313.821 238.122 313.317 237.87 312.886L234.664 304.212C234.961 304.546 235.176 304.791 235.273 304.895C236.067 305.726 237.981 307.143 239.072 306.75C240.148 306.379 240.185 304.272 240.274 303.129C240.727 297.341 245.149 291.48 249.92 288.044C250.187 288.831 250.447 289.358 250.514 289.484C251.011 290.456 251.055 292.57 252.146 292.57C252.161 292.57 252.183 292.57 252.205 292.563C253.303 292.548 254.134 291.02 255.715 289.387C257.711 287.31 259.388 285.514 261.488 284.898L271.497 288.927C272.091 290.715 273.33 293.624 275.511 295.39C277.389 296.904 279.214 298.054 282.523 300.154C282.872 300.376 283.243 300.606 283.636 300.859C283.332 301.007 283.006 301.155 282.627 301.289C281.485 301.697 278.198 302.78 278.19 303.997C278.19 305.207 281.455 306.305 282.598 306.728C284.816 307.559 287.265 308.004 289.661 308.004C294.588 308.004 298.899 306.238 301.504 303.174C303.648 300.643 304.472 297.438 303.886 293.921C303.448 291.287 302.409 284.787 302.075 282.694L304.783 273.827C304.865 273.553 304.91 273.256 304.91 272.967C304.887 268.767 303.685 264.078 301.348 259.025L301.237 258.691C301.133 258.342 300.955 258.03 300.74 257.763C300.613 257.496 300.487 257.266 300.376 257.051C299.745 255.671 298.974 254.291 297.987 252.777C290.812 240.949 280.602 231.311 280.171 230.903C279.303 230.094 277.597 228.677 276.521 229.174C275.445 229.678 275.222 232.001 275.289 233.188L275.326 233.819C274.629 232.157 271.957 229.374 271.364 228.484C270.073 226.555 269.115 224.581 268.767 223.164C277.381 183.311 303.745 156.777 304.004 156.51C304.479 156.035 304.783 155.412 304.843 154.736C310.556 97.7137 375.681 72.6119 376.342 72.3671C376.587 72.278 378.271 71.7512 378.479 71.6028C380.742 69.9333 381.105 68.62 380.92 68.0486Z" fill="white"/>
<path d="M203.338 508.905C172.27 508.905 152.31 498.198 131.275 486.92C119.863 480.806 108.08 474.491 94.1228 469.802C53.7877 456.253 26.5637 473.549 26.2891 473.72L24.0706 470.314C25.2429 469.557 53.2237 451.786 95.4213 465.951C109.697 470.744 121.636 477.148 133.196 483.336C155.583 495.342 176.722 506.687 211.693 504.587C244.244 502.628 266.489 491.632 288.007 480.984C297.015 476.525 305.526 472.317 314.489 468.949C315.09 468.719 315.803 468.444 316.611 468.125C328.817 463.309 361.228 450.532 389.921 472.377L387.458 475.612C360.59 455.147 329.723 467.316 318.103 471.909C317.272 472.228 316.537 472.525 315.914 472.755C307.151 476.05 298.722 480.212 289.81 484.635C268.953 494.948 245.313 506.635 211.938 508.638C208.977 508.816 206.113 508.905 203.338 508.905Z" fill="#292D6B"/>
<path d="M199.115 476.849L198.195 476.82L197.972 483.587L198.811 483.616C201.296 483.691 202.684 482.644 202.765 480.27C202.847 478.074 201.593 476.931 199.115 476.849Z" fill="#1B458F"/>
<path d="M219.594 485.817L224.201 485.186L220.87 477.595L219.594 485.817Z" fill="#1B458F"/>
<path d="M151.679 473.796L153.237 465.657L147.531 471.711L151.679 473.796Z" fill="#1B458F"/>
<path d="M69.0113 432.737L67.5125 432.648L67.1044 439.4L68.6403 439.496C71.0518 439.637 72.4393 438.472 72.5729 436.246C72.699 434.132 71.4228 432.878 69.0113 432.737Z" fill="#1B458F"/>
<path d="M264.303 473.121L268.539 471.206L263.19 464.87L264.303 473.121Z" fill="#1B458F"/>
<path d="M375.683 455.702C373.724 455.857 372.017 454.403 371.847 452.452C371.691 450.493 373.145 448.779 375.111 448.615C377.063 448.452 378.777 449.914 378.933 451.865C379.103 453.824 377.634 455.538 375.683 455.702ZM370.118 435.608C368.886 434.406 367.409 433.442 365.443 433.226C361.993 432.855 359.463 435.193 359.003 439.481C358.528 443.852 360.694 446.62 364.182 446.998C365.933 447.183 367.558 446.738 369.45 445.915L369.747 452.051C367.602 452.845 365.384 453.268 362.438 452.949C354.766 452.118 350.714 446.716 351.575 438.717C352.414 430.941 357.815 426.259 365.599 427.105C368.144 427.379 370.162 428.114 371.839 429.212L370.118 435.608ZM346.589 452.147C344.638 452.303 342.923 450.849 342.76 448.897C342.604 446.939 344.051 445.225 346.018 445.061C347.969 444.906 349.683 446.36 349.846 448.319C350.002 450.27 348.555 451.992 346.589 452.147ZM336.119 453.75L328.855 455.271L323.669 430.585L339.273 427.313L340.542 433.323L332.202 435.067L333.033 439.044L339.043 437.79L341.299 443.548L334.287 445.017L336.119 453.75ZM303.694 465.11L294.159 441.752L309.563 435.467L311.789 440.914L303.152 444.431L304.518 447.784L311.055 445.128L314.097 450.159L306.714 453.171L308.242 456.896L317.176 453.253L319.402 458.699L303.694 465.11ZM294.708 469.941C287.771 473.324 281.464 470.898 277.947 463.663C274.518 456.622 276.604 449.78 283.645 446.367C285.945 445.247 288.045 444.794 290.056 444.831L291.993 451.161C290.316 450.804 288.55 450.767 286.784 451.635C283.653 453.157 282.755 456.488 284.639 460.369C286.554 464.316 289.87 465.503 293.024 463.967C294.604 463.203 295.747 461.957 296.912 460.25L300.422 465.296C299.027 467.114 297.38 468.649 294.708 469.941ZM275.587 479.178L272.404 475.676L265.169 478.948L265.778 483.319L259.181 486.302L256.688 459.627L264.316 456.176L281.998 474.994L275.587 479.178ZM241.247 491.933L233.798 467.833L240.958 465.615L246.538 483.638L253.349 481.531L256.206 487.311L241.247 491.933ZM228.693 494.835L226.637 490.576L218.772 491.659L218.119 496.029L210.937 497.016L216.131 470.712L224.426 469.577L236.038 492.653L228.693 494.835ZM199.027 489.069L197.855 489.032L197.603 496.601L190.153 496.348L190.999 471.12L199.732 471.41C206.24 471.632 210.135 474.585 209.935 480.403C209.734 486.354 205.386 489.285 199.027 489.069ZM176.04 493.87L161.163 489.054L168.91 465.066L176.04 467.366L170.238 485.315L177.027 487.504L176.04 493.87ZM157.208 486.65L149.922 484.291L150.634 479.616L143.548 476.047L140.528 479.282L134.058 476.025L153.216 457.304L160.703 461.066L157.208 486.65ZM123.054 469.933L131.876 453.09L125.881 449.944L128.775 444.445L146.754 453.861L144.772 459.842L138.517 456.57L129.695 473.413L123.054 469.933ZM115.322 448.504C119.849 452.504 121.244 455.293 119.619 459.085C117.274 464.561 112.384 464.932 107.68 462.914C104.281 461.46 101.825 459.575 99.6662 457.304L103.079 452.118C105.224 454.626 107.709 456.726 110.025 457.72C111.368 458.299 112.436 458.195 112.874 457.193C113.289 456.221 112.926 455.509 110.24 453.038C106.218 449.335 104.734 446.864 106.478 442.798C108.518 438.035 113.267 437.248 117.838 439.207C121.199 440.639 122.995 442.093 124.827 444.149L121.429 449.283C119.574 446.946 117.474 445.247 115.723 444.497C114.35 443.911 113.475 444.089 113.134 444.898C112.74 445.803 113.074 446.501 115.322 448.504ZM92.5356 456.896L85.3085 454.93L87.6235 446.397L83.4016 429.034L91.3484 430.162L93.3963 440.758L100.349 432.87L107.865 434.918L94.8951 448.215L92.5356 456.896ZM72.1528 453.008L68.0051 444.661L66.8698 444.594L66.4023 452.4L58.9898 451.954L60.5034 426.764L70.142 427.342C76.6419 427.736 80.1887 430.845 79.8696 436.246C79.6619 439.645 77.985 441.96 75.0466 443.251L80.1145 452.274L72.1528 453.008ZM48.854 453.772C41.2708 455.219 35.8245 451.235 34.3182 443.325C32.8491 435.638 36.6481 429.583 44.3427 428.114C46.8581 427.639 48.995 427.75 50.9316 428.314L51.1542 434.94C49.6257 434.154 47.9265 433.657 45.9825 434.02C42.5693 434.681 40.8256 437.656 41.6344 441.893C42.458 446.204 45.3444 448.23 48.7947 447.569C50.5161 447.243 51.9482 446.338 53.5138 444.995L55.5914 450.782C53.7661 452.177 51.7627 453.223 48.854 453.772ZM291.414 431.416C262.839 449.654 239.585 460.532 210.343 460.651C170.809 460.799 140.172 434.607 98.4493 420.59C56.7118 406.581 8.68958 429.976 8.68958 429.976C8.68958 429.976 24.0193 444.95 25.1768 472.026C25.1768 472.026 53.0315 453.861 94.769 467.87C136.499 481.887 158.121 509.845 211.812 506.61C258.573 503.805 285.166 482.154 315.202 470.853C324.522 467.351 358.876 451.376 388.594 473.925C391.302 447.54 405.474 431.171 405.474 431.171C369.91 405.758 312.405 418.015 291.414 431.416Z" fill="#1B458F"/>
<path d="M51.6714 480.967C53.7787 480.967 55.8266 481.212 57.5184 481.56C58.3346 481.738 59.2027 481.968 60.0635 482.198C61.9259 482.696 64.4635 483.401 65.25 482.822C65.5394 482.607 65.7323 481.976 65.7769 481.1C65.814 480.254 65.5543 479.639 64.9236 479.104C62.052 476.633 53.4226 476.789 46.0322 477.687L46.1287 481.635C47.8724 481.152 49.7942 480.967 51.6714 480.967ZM356.196 478.496C352.797 478.496 349.926 478.934 348.449 480.091C347.796 480.596 347.499 481.204 347.499 482.05C347.507 482.933 347.67 483.571 347.952 483.794C348.701 484.402 351.276 483.846 353.146 483.423C354.022 483.237 354.897 483.044 355.736 482.911C358.948 482.391 363.452 482.339 367.103 483.527L367.378 479.587C363.682 478.949 359.661 478.496 356.196 478.496ZM370.598 489.945L367.801 488.142C365.508 486.665 360.692 486.101 356.352 486.799C355.595 486.918 354.801 487.103 353.999 487.274C350.898 487.949 347.707 488.654 345.481 486.873C344.212 485.849 343.574 484.232 343.574 482.05C343.567 479.995 344.413 478.244 346.03 476.99C352.76 471.736 372.505 476.552 374.738 477.116C376.69 477.657 382.737 478.763 385.327 476.96C386.054 476.463 386.432 475.758 386.529 474.741C388.591 452.058 398.861 436.573 402.615 431.594C368.372 408.755 313.842 420.056 292.428 433.1C268.046 447.97 241.609 462.484 210.348 462.617H209.992C184.564 462.617 162.801 451.955 139.762 440.676C126.561 434.206 112.909 427.528 97.8238 422.46C62.5492 410.625 22.125 426.267 11.9596 430.659C16.2187 435.742 26.1986 449.892 27.1483 471.937C27.1854 472.953 27.5416 473.673 28.2391 474.207C30.7619 476.129 36.8314 475.313 38.7681 474.875C41.0534 474.407 60.9984 470.542 67.4835 476.114C69.0417 477.442 69.8059 479.23 69.7095 481.286C69.5982 483.46 68.8784 485.048 67.5725 485.998C65.2575 487.689 62.0965 486.829 59.0321 485.998C58.2456 485.79 57.459 485.575 56.717 485.419C52.406 484.514 47.5756 484.847 45.2086 486.205L42.3371 487.875L42.1145 478.258C41.2241 478.407 40.3782 478.563 39.5917 478.726C38.6939 478.926 30.2796 480.722 25.8573 477.346C24.2174 476.092 23.3048 474.289 23.2157 472.107C22.0953 446.122 7.45566 431.535 7.30726 431.386L5.31128 429.427L7.81924 428.211C9.8078 427.231 57.0509 404.622 99.0778 418.72C114.408 423.877 128.172 430.622 141.491 437.137C164.107 448.215 185.476 458.677 209.999 458.677H210.333C237.624 458.566 261.205 447.517 290.388 429.739C312.944 415.982 371.088 404.17 406.615 429.568L408.366 430.83L406.948 432.455C406.822 432.625 392.806 449.12 390.454 475.105C390.246 477.272 389.259 479.03 387.56 480.195C382.982 483.363 374.657 481.175 373.722 480.915C372.965 480.729 372.141 480.529 371.273 480.343L370.598 489.945Z" fill="#C4122E"/>
<path d="M203.358 509.21C172.298 509.21 152.346 498.51 131.318 487.232C119.913 481.118 108.108 474.796 94.1582 470.106C53.9122 456.595 26.5323 473.861 26.2652 474.039L24.1208 470.744C25.2858 469.973 53.274 452.224 95.4122 466.381C109.688 471.175 121.627 477.578 133.18 483.767C155.574 495.772 176.721 507.11 211.713 505.017C244.272 503.066 266.532 492.055 288.058 481.414C297.058 476.955 305.569 472.748 314.525 469.387C315.126 469.157 315.838 468.875 316.647 468.556C328.845 463.747 361.234 450.963 389.897 472.807L387.515 475.931C360.603 455.444 329.714 467.635 318.094 472.221C317.255 472.54 316.528 472.837 315.912 473.074C307.142 476.361 298.713 480.531 289.801 484.939C268.944 495.26 245.304 506.947 211.943 508.95C208.99 509.128 206.126 509.21 203.358 509.21Z" fill="#C4122E"/>
<path d="M65.636 479.716C56.1978 472 52.5397 464.513 52.3839 464.186L55.9233 462.48C55.9678 462.561 59.4107 469.543 68.1292 476.674L65.636 479.716Z" fill="#C4122E"/>
<path d="M347.967 480.534L345.652 477.351C355.81 469.968 357.019 462.103 357.027 462.021L360.93 462.57C360.87 462.956 359.461 472.179 347.967 480.534Z" fill="#C4122E"/>
<path d="M251.497 272.244C251.801 272.54 252.075 272.815 252.328 273.045C252.328 273.045 252.201 272.704 251.497 272.244Z" fill="#27409B"/>
<path d="M230.461 119.175C229.852 116.259 229.214 112.631 228.732 108.587C229.11 111.933 229.659 115.428 230.461 119.175Z" fill="#27409B"/>
<mask id="mask0_1_2827" style="mask-type:luminance" maskUnits="userSpaceOnUse" x="228" y="108" width="3" height="12">
<path d="M228.733 119.178H230.462V108.59H228.733V119.178Z" fill="white"/>
</mask>
<g mask="url(#mask0_1_2827)">
<path d="M230.461 119.175C229.852 116.259 229.214 112.631 228.732 108.587C229.11 111.933 229.659 115.428 230.461 119.175Z" fill="white"/>
</g>
<mask id="mask1_1_2827" style="mask-type:luminance" maskUnits="userSpaceOnUse" x="0" y="-2" width="1447" height="517">
<path d="M0.553589 514.768H1446.05V-1.9389H0.553589V514.768Z" fill="white"/>
</mask>
<g mask="url(#mask1_1_2827)">
<path d="M297.795 299.134C296.734 300.477 295.042 301.657 293.239 302.443C291.251 303.319 289.121 303.719 287.519 303.319C287.556 303.304 287.593 303.281 287.637 303.259C287.808 303.178 287.956 303.096 288.112 303.007C288.223 302.94 288.357 302.881 288.468 302.814C292.505 300.313 290.323 295.602 286.131 290.794L286.057 290.779L276.455 282.431L275.943 281.979L275.795 281.853L275.891 281.823L276.188 281.726L276.262 281.712L276.619 281.593L278.066 282.402L282.955 285.162L283.319 285.355L285.486 286.579L287.838 287.907C287.845 287.907 287.852 287.9 287.86 287.9C287.875 287.892 287.89 287.892 287.912 287.885C290.116 287.373 292.594 286.757 292.965 286.653C294.612 286.223 295.54 285.755 296.044 285.37C296.081 285.711 300.229 296.04 297.795 299.134ZM287.014 297.086L283.541 294.259L281.048 292.233L280.425 290.311L280.269 289.807L279.401 287.18L279.386 287.098C282.184 288.753 284.395 291.736 285.842 294.118C286.146 294.63 287.697 297.642 287.697 297.642L287.014 297.086ZM268.924 273.349L264.479 265.35L253.127 259.63L262.402 270.389C257.52 267.599 249.194 263.169 240.172 261.492C240.172 261.492 247.844 268.66 251.502 272.244C252.199 272.696 252.326 273.052 252.326 273.052C252.081 272.815 251.799 272.54 251.502 272.244C250.419 271.546 247.97 270.611 242.36 270.292C237.159 269.765 230.993 268.4 225.391 265.247C225.391 265.247 226.504 266.886 228.797 268.86C228.826 268.89 228.863 268.912 228.893 268.934C228.901 268.942 228.908 268.957 228.923 268.964C231.067 270.789 234.221 272.867 238.472 274.247C238.799 274.358 243.058 276.117 243.399 276.213C240.335 277.438 237.767 278.899 235.623 280.561C231.475 283.759 228.908 287.61 227.372 291.528C224.723 298.303 222.297 310.538 224.167 317.513C218.29 309.618 213.103 299.445 215.99 287.93C207.041 292.968 201.276 291.32 195.073 290.408C192.209 294.266 188.424 303.534 187.942 311.481C187.415 310.642 186.926 309.729 186.473 308.78C184.158 303.845 182.978 298.206 182.689 292.79C182.548 290.63 182.563 288.545 182.733 286.638V286.624L203.183 272.118L173.436 269.624C173.444 269.61 173.451 269.61 173.451 269.61C173.941 269.246 174.453 268.89 174.95 268.526C186.399 260.468 200.527 254.911 214.706 255.541C215.804 255.578 216.902 255.667 218.001 255.794C208.867 250.681 192.832 250.926 183.327 253.901C170.424 257.93 165.304 258.175 151.495 255.727C165.994 252.796 165.467 252.403 174.067 248.336C181.131 244.382 194.546 237.08 211.464 240.197C207.316 238.379 203.776 236.672 198.738 235.47C193.819 234.342 185.798 233.244 177.213 235.084C177.213 235.084 183.052 228.837 193.967 227.301C179.075 213.87 135.075 192.798 135.075 192.798C197.551 207.549 224.107 236.872 228.07 241.614C228.337 241.822 228.589 242.029 228.841 242.23C226.489 236.872 212.636 204.566 174.66 180.911C169.4 177.631 163.59 175.316 158.225 172.207C149.655 167.221 141.73 161.7 134.526 155.653L134.563 155.772C63.9095 99.6619 90.206 22.4493 90.206 22.4493C87.9206 40.3612 90.9554 57.9021 96.1419 73.5212C99.4364 83.4343 103.599 92.5535 107.828 100.493C112.585 109.412 117.415 116.832 121.199 122.174C129.992 132.918 140.432 142.104 152.527 148.738C152.527 148.738 99.2064 112.424 129.495 35.0114C128.315 38.3207 107.346 100.359 186.132 154.392C187.653 155.416 188.758 155.379 189.211 156.484C199.688 181.72 240.06 221.899 247.584 241.228C247.243 237.273 246.909 233.318 246.568 229.371C251.086 234.231 254.626 240.249 256.481 246.622C256.822 242.719 257.171 236.791 257.505 232.888C264.027 236.472 273.703 243.959 281.686 252.573C281.686 252.573 281.597 252.484 281.471 252.343C281.182 252.032 280.922 251.75 280.677 251.49C280.796 251.616 280.915 251.742 281.019 251.853C281.093 251.935 281.145 251.994 281.204 252.061C281.315 252.173 281.397 252.262 281.471 252.343C281.545 252.432 281.605 252.484 281.686 252.573L281.338 246.838L281.167 244.166C281.167 244.166 293.232 258.999 297.335 270.47C297.565 271.123 297.78 271.769 297.951 272.392C297.877 275.62 297.417 277.786 296.883 279.218C296.423 280.435 294.59 282.439 294.189 282.736C293.9 282.958 293.714 283.025 293.714 283.025C294.278 282.595 294.397 281.556 294.404 280.591C294.412 279.374 294.152 278.105 293.699 276.659C293.277 275.301 292.765 274.002 292.342 273.008C291.882 271.917 291.525 271.197 291.525 271.197C291.778 273.861 291.644 275.813 291.332 277.222C291.332 277.26 291.325 277.304 291.31 277.349C290.702 280.005 289.477 280.702 289.151 280.843C289.106 280.866 289.069 280.881 289.069 280.881C288.98 280.45 288.884 280.042 288.78 279.671C288.446 278.699 288.068 277.749 287.697 276.814C286.331 273.401 281.345 263.97 279.713 260.683C278.303 262.694 280.188 267.376 280.188 267.376C280.826 268.615 282.31 271.769 282.31 271.769C280.93 274.915 282.97 278.395 285.738 279.723C284.959 280.072 282.369 279.701 280.551 278.647C281.226 280.02 283.66 283.292 284.877 284.227C281.375 283.359 273.332 277 268.924 273.349ZM298.641 260.09C298.537 259.763 298.478 259.578 298.478 259.578C298.478 259.578 298.508 259.711 298.56 259.912C298.292 259.363 298.025 258.813 297.743 258.25C297.105 256.847 296.334 255.549 295.51 254.287C288.454 242.66 278.184 233.029 278.184 233.029L278.347 235.856C278.355 235.856 278.385 235.871 278.385 235.871L278.704 240.286C278.704 240.286 245.603 221.06 231.483 203.342C220.538 189.6 207.939 174.619 200.475 156.217L197.714 151.81C188.18 140.479 178.237 142.616 156.459 117.418C148.995 108.774 140.751 91.767 138.139 80.5183C132.611 56.7594 133.598 29.7135 139.475 6.11792C139.475 6.11792 142.235 -1.94022 127.158 22.019L127.165 22.0042C119.619 33.9875 114.336 47.6328 111.813 61.5528C110.529 68.6685 109.951 75.8362 110.181 82.8927C105.068 72.705 100.972 61.6196 98.1676 50.1779C94.465 35.1079 93.0181 19.4443 94.5244 4.45587C94.5244 4.45587 91.8754 1.87369 82.7266 26.3226C73.5703 50.7863 72.1234 71.6588 76.3305 95.0392C59.5094 80.7854 55.7029 54.6744 50.1083 34.0097C50.1083 34.0097 50.1008 34.0097 50.1008 34.0246C50.0934 34.0246 50.0786 34.0394 50.0637 34.0468C50.0192 34.0913 49.9376 34.1878 49.8486 34.3659C49.6334 34.7665 49.344 35.6718 49.1585 37.5861C49.1585 39.0775 48.9656 40.5616 48.9656 42.0456C47.949 52.3965 46.9919 80.5109 61.4163 109.894C61.728 110.577 62.01 111.289 62.329 111.957C64.3769 116.283 66.8033 120.186 69.007 124.051C72.6576 130.492 75.4995 132.065 79.5953 137.741C79.165 137.675 54.4119 132.481 45.3521 131.123C50.8354 134.714 60.8673 143.826 72.2718 154.511C72.2718 154.511 106.426 157.256 133.235 177.09C133.235 177.09 110.025 165.73 82.133 163.793C83.7728 165.336 85.4126 166.88 87.0599 168.43C95.0067 175.902 102.983 183.345 110.084 189.607L109.98 189.6L89.8349 187.604L118.795 211.029L123.997 211.207C123.997 211.207 133.724 210.865 143.355 213.039C153.625 215.369 159.078 218.701 159.078 218.701C153.343 216.757 143.801 216.46 138.043 216.831C133.939 217.091 131.261 218.241 128.278 218.656L129.977 220.014L148.245 234.706L164.517 235.136C150.783 243.684 137.301 247.053 120.012 241.258C110.826 238.178 101.922 233.355 94.3611 227.271C97.4182 234.773 104.519 241.221 110.04 246.904C91.8235 245.502 77.1467 241.287 60.5037 233.667C66.8701 243.543 71.9305 250.258 76.9761 255.519C82.0143 260.772 88.9668 266.463 92.4468 268.548C94.658 269.877 104.838 269.825 111.568 269.172C112.83 269.053 113.987 268.919 114.929 268.756C116.473 268.504 118.402 268.088 120.457 267.614C127.38 266.018 135.713 263.688 135.253 263.993C132.248 265.944 128.968 267.858 125.51 269.632C123.47 270.678 121.37 271.68 119.226 272.6C109.542 276.755 98.9912 279.337 89.3749 278.12C100.126 281.964 111.383 284.776 122.78 285.852C126.698 286.23 128.122 286.171 131.535 284.583C136.625 282.231 140.825 280.294 144.869 278.365C146.917 277.378 148.95 276.384 151.005 275.33C153.847 273.891 156.771 272.362 160.043 270.537C158.158 272.31 156.259 273.965 154.315 275.612C153.224 276.518 152.111 277.438 150.983 278.373C147.051 281.593 142.843 284.932 138.043 289.146C150.909 290.044 158.359 292.174 175.447 286.831C175.447 286.831 171.93 289.458 167.04 292.292L172.108 302.235L166.61 299.764L170.223 306.517C170.223 306.517 172.791 309.7 176.449 312.356L177.688 316.341C174.861 315.502 171.24 312.482 169.444 311.288C172.301 322.759 179.12 320.511 181.086 327.463C182.407 332.16 187.378 340.574 184.566 345.041C181.264 350.302 179.098 349.931 174.445 354.123C169.051 358.961 173.206 365.016 174.319 366.945C175.432 361.284 179.654 357.596 182.051 356.876C185.813 355.771 190.324 356.616 191.971 354.969C197.915 349.041 210.699 347.534 219.544 353.07C215.448 346.451 213.341 346.651 205.194 344.299C219.588 345.249 220.538 348.403 227.58 356.594C228.159 351.927 224.285 345.991 220.976 343.149C219.945 342.274 208.503 340.663 197.388 339.699C193.485 339.358 191.904 334.342 191.341 331.641C192.023 332.034 195.169 333.689 198.234 333.652C197.455 329.734 196.379 325.289 195.733 322.618C196.831 323.115 197.952 323.813 200.415 323.894L198.805 317.32C198.048 312.067 196.342 308.268 201.387 300.239C204.17 302.191 205.401 303.037 206.663 304.454C206.663 304.454 207.709 309.47 208.859 312.148C209.082 312.653 214.038 316.89 214.216 317.402L205.683 314.931C205.683 314.931 208.533 321.409 214.164 325.141C217.503 326.321 220.471 327.664 221.443 328.962C222.445 330.313 224.13 333.948 223.336 335.9C222.697 337.473 218.164 330.75 208.622 338.764C215.136 338.868 222.95 340.649 224.634 342.637C226.816 345.219 228.381 347.564 229.954 348.506C236.885 352.662 237.367 354.843 236.81 362.998C241.099 359.688 239.897 351.059 239.251 348.974C244.935 355.793 243.689 365.053 241.952 368.674C246.211 366.307 251.376 356.891 246.501 349.449C245.18 348.254 237.975 342.86 236.573 341.257C232.959 337.124 232.054 332.479 230.281 327.767C231.535 327.842 233.108 328.346 234.369 328.331C233.731 325.541 232.833 321.906 232.136 317.891C232.076 317.528 232.01 317.157 231.95 316.793C231.928 316.645 231.906 316.489 231.883 316.341C231.794 315.747 231.705 315.146 231.624 314.53C231.609 314.389 231.594 314.233 231.579 314.092C231.498 313.477 231.431 312.853 231.371 312.223C233.709 313.721 235.319 314.36 235.319 314.36L231.312 303.497V303.467C231.386 302.651 231.49 301.827 231.624 301.004C231.624 300.959 231.639 300.892 231.646 300.848C231.765 300.106 231.921 299.356 232.091 298.622C232.121 298.503 232.151 298.377 232.18 298.258C232.336 297.583 232.544 296.915 232.766 296.247C232.818 296.084 232.855 295.928 232.915 295.765C233.197 294.971 233.516 294.17 233.872 293.398C232.062 297.286 237.389 302.903 237.389 302.903C238.057 294.296 245.751 286.26 252.207 283.359C251.851 285.748 253.09 288.152 253.09 288.152C254.997 284.086 258.892 282.491 261.682 281.853L266.906 283.952L272.441 286.178L273.895 286.765C273.895 286.765 274.89 291.165 277.338 293.131C279.698 295.038 282.147 296.44 288.031 300.224C287.593 301.686 286.265 303.059 283.616 304.016C291.978 307.147 302.522 303.385 301.03 294.4C300.504 291.231 299.109 282.483 299.109 282.483V282.454L301.09 275.998L301.676 274.069L301.735 273.869L302.01 272.978C301.988 268.816 300.659 264.408 298.641 260.09Z" fill="#1B458F"/>
<path d="M348.32 67.0919L348.802 67.1364C335.35 67.9526 322.024 71.8481 310.923 78.8971C320.065 61.0966 340.255 49.0391 358.107 41.9752C358.107 41.9752 360.311 38.5472 338.741 41.7749C335.936 42.0939 333.154 42.5391 330.401 43.1476C330.356 43.155 330.319 43.1624 330.275 43.1698H330.312C318.455 45.7965 307.191 51.0573 297.679 58.5589C292.314 62.8032 287.484 67.7375 283.44 73.3099C265.253 97.4917 259.109 118.646 259.109 118.646C259.109 118.646 256.483 87.4301 296.365 46.2417C300.758 38.9033 305.692 31.9063 311.139 25.5177C311.139 25.5177 312.059 20.8505 289.48 37.9833C273.148 49.3952 258.887 64.391 248.603 81.138C244.908 87.7566 236.998 102.604 234.705 112.428C234.727 112.718 234.742 113.022 234.764 113.311C234.764 113.311 235.009 119.195 236.093 127.023C237.406 136.491 241.287 149.565 241.287 149.565C238.645 144.171 233.926 132.277 232.36 126.801C231.596 124.122 230.988 121.599 230.461 119.173C230.134 117.659 229.882 116.212 229.637 114.78C229.504 114.016 229.378 113.222 229.251 112.406C229.066 111.115 228.873 109.831 228.732 108.577C228.227 104.006 228.035 99.6806 227.968 95.3324C227.886 89.5968 228.138 84.4102 228.398 80.6631C218.032 104.429 217.053 122.735 217.031 130.065C216.519 134.74 216.237 138.227 216.044 141.151C218.73 148.786 223.501 158.974 232.049 171.892C232.049 171.892 224.362 167.611 215.317 151.784C214.953 155.271 214.315 159.241 212.935 165.422C223.189 182.844 233.473 196.252 242.771 206.484V185.753C246.095 189.084 248.388 191.674 249.961 193.677C251.445 186.925 253.53 178.822 256.431 170.2C274.506 116.405 295.935 100.014 295.935 100.014C276.213 130.83 258.115 193.143 258.872 222.237C262.693 225.494 266.107 228.106 268.941 230.094C267.42 227.794 266.129 225.182 265.802 223.142C274.58 181.575 301.96 154.448 301.96 154.448C307.926 94.8947 375.322 69.6592 375.322 69.6592C380.805 65.645 348.32 67.0919 348.32 67.0919Z" fill="#1B458F"/>
<path d="M358.428 410.143V379.409V376.463C354.896 379.172 351.579 381.59 348.448 383.787V387.133V391.541V393.715H343.343V387.259C321.446 401.736 310.613 403.249 310.613 403.249C325.372 395.703 335.923 388.306 343.343 382.028V373.74V369.177C316.438 392.29 292.278 404.192 283.345 408.176C283.345 408.814 283.345 410.781 283.352 413.526H323.019H329.482C338.691 411.998 348.537 411.263 358.42 411.686" fill="#D3D2D2"/>
<path d="M316.78 416.216C309.56 418.086 303.008 420.393 297.503 422.916V416.216H316.78Z" fill="#A7A5A6"/>
<path d="M258.819 444.46C257.024 445.262 253.811 446.672 252.46 447.243L252.483 440.402V426.363H258.819V440.402V444.46Z" fill="#A7A5A6"/>
<path d="M258.814 423.843H252.485V407.942H258.814V423.843Z" fill="#A7A5A6"/>
<path d="M280.794 431.337V426.366H275.14V431.337V435.93C277.017 434.847 278.909 433.719 280.816 432.554L280.794 431.337Z" fill="#A7A5A6"/>
<path d="M280.792 423.843H275.138V407.942H280.792V423.843Z" fill="#A7A5A6"/>
<path d="M265.696 436.945V426.364H261.341V436.945L261.333 443.304C262.78 442.606 264.234 441.864 265.696 441.122V436.945Z" fill="#A7A5A6"/>
<path d="M265.693 423.843H261.337V407.942H265.693V423.843Z" fill="#A7A5A6"/>
<path d="M272.556 423.843H268.2V407.942H272.556V423.843Z" fill="#A7A5A6"/>
<path d="M272.552 435.832V426.364H268.189V435.832V439.794C269.643 439.022 271.097 438.228 272.552 437.405V435.832Z" fill="#A7A5A6"/>
<path d="M280.814 394.452H252.485V405.427H280.814V394.452Z" fill="#A7A5A6"/>
<path d="M139.676 433.067C137.614 432.058 135.536 431.041 133.444 430.039L133.436 428.815V426.359H139.676V428.815V433.067Z" fill="#A7A5A6"/>
<path d="M139.775 423.843H133.446V407.942H139.775V423.843Z" fill="#A7A5A6"/>
<path d="M155.942 440.942C157.856 441.84 159.778 442.723 161.685 443.576L161.744 431.252V426.362H155.942V431.252V440.942Z" fill="#A7A5A6"/>
<path d="M161.746 423.843H156.077V407.942H161.746V423.843Z" fill="#A7A5A6"/>
<path d="M146.542 423.843H142.194V407.942H146.542V423.843Z" fill="#A7A5A6"/>
<path d="M153.428 423.843H149.146V407.942H153.428V423.843Z" fill="#A7A5A6"/>
<path d="M161.768 394.452H133.438V405.427H161.768V394.452Z" fill="#A7A5A6"/>
<path d="M149.089 437.66C150.409 438.306 152.057 439.174 153.437 439.849V436.659V426.367H149.074V436.659L149.089 437.66Z" fill="#A7A5A6"/>
<path d="M126.567 426.8C128.029 427.475 129.476 428.15 130.923 428.84V424.64V416.219H126.56V424.64L126.567 426.8Z" fill="#A7A5A6"/>
<path d="M142.192 434.297L142.919 434.646C144.128 435.24 145.33 435.833 146.54 436.419V433.103V426.365H142.192V433.103V434.297Z" fill="#A7A5A6"/>
<path d="M57.0436 398.25V376.457C60.5681 379.173 63.8848 381.592 67.0161 383.788V393.716H72.121V387.268C94.0174 401.737 104.851 403.244 104.851 403.244C90.0923 395.698 79.5484 388.307 72.121 382.022V372.948V369.178C97.8981 391.32 121.152 403.177 130.917 407.629V413.535C130.917 413.535 91.695 413.728 90.7155 413.52C79.2887 411.072 67.7506 410.909 57.0436 411.962" fill="#D3D2D2"/>
<path d="M117.149 422.728C111.658 420.458 104.276 417.475 100.165 416.102H117.149V422.728Z" fill="#A7A5A6"/>
<path d="M119.682 422.355V416.211H124.045V422.355L124.03 425.634C123.6 425.434 121.952 424.737 119.667 423.779L119.682 422.355Z" fill="#A7A5A6"/>
<path d="M288.118 426.364V416.213H283.34V426.364V431.023C284.913 430.044 286.508 429.042 288.111 428.026L288.118 426.364Z" fill="#A7A5A6"/>
<path d="M294.998 422.903V416.218H290.635V422.903L290.68 426.428C292.016 425.641 293.463 424.862 294.998 424.105V422.903Z" fill="#A7A5A6"/>
<path d="M250.007 405.43V397.661C250.007 373.976 230.819 354.781 207.135 354.781C183.45 354.781 164.262 373.976 164.262 397.661V405.43L171.563 405.422C171.096 403.122 170.851 400.733 170.851 398.284C170.851 378.384 186.982 362.26 206.875 362.26C226.775 362.26 242.899 378.384 242.899 398.284C242.899 400.733 242.654 403.137 242.194 405.452L250.007 405.43Z" fill="#A7A5A6"/>
<path d="M67.0198 374.209V364.578L57.0474 354.487V363.391V365.802C58.4126 367.924 61.4252 372.057 67.0198 377.437V374.209Z" fill="#D3D2D2"/>
<path d="M358.428 365.802C357.055 367.924 354.042 372.057 348.448 377.437V372.473V364.578L358.428 354.494V362.233V365.802Z" fill="#D3D2D2"/>
<path d="M199.932 439.487C198.782 439.487 197.995 440.244 197.995 441.557C197.995 442.811 198.619 443.508 199.932 443.508C200.733 443.508 201.453 443.249 202.143 442.722V442.655C202.143 440.607 201.245 439.487 199.932 439.487Z" fill="#A7A5A6"/>
<path d="M210.773 439.539C209.275 439.539 208.451 440.979 208.451 443.598C208.451 446.225 209.275 447.672 210.773 447.672C212.265 447.672 213.066 446.225 213.066 443.598C213.066 440.979 212.265 439.539 210.773 439.539Z" fill="#A7A5A6"/>
<path d="M220.712 449.355C219.332 449.355 218.248 449.028 217.365 448.554L217.677 446.721C218.515 447.218 219.547 447.589 220.727 447.589C222.01 447.589 222.967 446.943 222.967 445.652C222.967 444.554 222.248 443.879 220.942 443.879C220.2 443.879 219.673 444.02 219.213 444.205L217.81 443.894L218.204 438.062H224.385L224.667 439.835H219.858L219.658 442.425C220.074 442.306 220.593 442.195 221.328 442.195C223.531 442.195 224.971 443.456 224.971 445.548C224.971 448.012 223.168 449.355 220.712 449.355ZM210.776 449.355C208.12 449.355 206.354 447.3 206.354 443.604C206.354 439.924 208.12 437.846 210.776 437.846C213.41 437.846 215.184 439.924 215.184 443.604C215.184 447.3 213.41 449.355 210.776 449.355ZM197.739 449.37L197.472 447.619C199.683 447.173 201.405 446.194 201.984 444.294C201.197 444.799 200.329 445.111 199.327 445.111C197.331 445.111 195.996 443.916 195.996 441.675C195.996 439.375 197.687 437.846 199.951 437.846C202.377 437.846 204.083 439.471 204.083 442.543C204.083 446.431 201.435 448.643 197.739 449.37ZM193.332 449.14H191.239V440.095L188.976 440.963L188.746 439.308L191.477 438.047H193.332V449.14ZM241.577 408.011C237.325 423.185 223.405 434.307 206.881 434.307C190.349 434.307 176.414 423.17 172.177 407.988L164.26 407.944V437.564L164.245 444.695C179.123 451.165 194.022 455.907 210.212 455.907H210.531C224.659 455.855 237.37 453.139 249.946 448.279L250.006 407.929L241.577 408.011Z" fill="#A7A5A6"/>
<path d="M47.2832 349.809C48.782 350.091 50.2215 350.455 51.5794 350.87V370.118C50.2141 369.695 48.782 369.339 47.2832 369.057V349.809Z" fill="#A7A5A6"/>
<path d="M44.7925 368.672C43.3976 368.501 41.9581 368.382 40.4963 368.345L40.5038 349.098C41.2012 349.12 41.8987 349.15 42.5962 349.202C43.3382 349.261 44.0728 349.335 44.7925 349.424V368.672Z" fill="#A7A5A6"/>
<path d="M33.6989 368.672C35.0938 368.501 36.5333 368.382 38.0025 368.345V349.098C36.5333 349.135 35.0938 349.246 33.6989 349.424V368.672Z" fill="#A7A5A6"/>
<path d="M26.9222 370.127C28.2875 369.69 29.7122 369.341 31.211 369.059V349.811C29.7122 350.093 28.2875 350.457 26.9222 350.873V370.127Z" fill="#A7A5A6"/>
<path d="M23.037 334.173C23.9645 333.75 24.9365 333.356 25.9605 333.008V335.323L23.037 334.173Z" fill="#A7A5A6"/>
<path d="M38.0001 340.926C36.531 340.963 35.0915 341.074 33.6965 341.252V331.235C35.0915 331.065 36.531 330.953 38.0001 330.902V340.926Z" fill="#A7A5A6"/>
<path d="M44.7925 331.236C43.3976 331.066 41.9581 330.947 40.4963 330.91V340.927C41.9581 340.964 43.3976 341.068 44.7925 341.253V331.236Z" fill="#A7A5A6"/>
<path d="M47.2832 331.622C48.782 331.904 50.2141 332.268 51.5794 332.683V342.693C50.2215 342.277 48.782 341.914 47.2832 341.646V331.622Z" fill="#A7A5A6"/>
<path d="M31.2078 341.642C29.7164 341.916 28.2769 342.28 26.9191 342.696V332.686C28.2843 332.27 29.7164 331.907 31.2078 331.617V341.642Z" fill="#A7A5A6"/>
<path d="M52.5426 333.007C53.5814 333.363 54.5683 333.756 55.5032 334.194L52.5426 335.329V333.007Z" fill="#A7A5A6"/>
<path d="M23.037 352.36C23.9645 351.93 24.9365 351.544 25.9605 351.195V353.51L23.037 352.36Z" fill="#A7A5A6"/>
<path d="M52.5426 351.194C53.5814 351.551 54.5683 351.944 55.5032 352.382L52.5426 353.517V351.194Z" fill="#A7A5A6"/>
<path d="M55.5039 327.68C51.0444 325.617 45.3904 324.385 39.2541 324.385C33.1251 324.385 27.4934 325.617 23.0339 327.665V331.842C27.4934 329.787 33.1251 328.57 39.2541 328.57C45.3904 328.57 51.0444 329.802 55.5039 331.857V327.68Z" fill="#A7A5A6"/>
<path d="M55.5039 346.022C51.0444 343.967 45.3904 342.728 39.2541 342.728C33.1251 342.728 27.4934 343.952 23.0339 346.007V350.185C27.4934 348.137 33.1251 346.905 39.2541 346.905C45.3904 346.905 51.0444 348.144 55.5039 350.2V346.022Z" fill="#A7A5A6"/>
<path d="M55.5039 325.842C51.0444 323.779 45.3904 322.54 39.2541 322.54C33.1251 322.54 27.4934 323.772 23.0339 325.82L35.9151 313.554C37.0058 313.465 38.1188 313.428 39.2541 313.428C40.3893 313.428 41.4949 313.465 42.5931 313.547L55.5039 325.842Z" fill="#A7A5A6"/>
<path d="M35.9121 310.123V312.149C37.0028 312.067 38.1233 312.03 39.2511 312.03C40.3864 312.03 41.4994 312.067 42.5901 312.149V310.123C42.5901 309.359 40.928 309.329 40.4977 309.314C40.0896 309.314 39.6666 309.307 39.2511 309.307C38.8282 309.307 38.4126 309.314 37.9971 309.314C37.5519 309.329 35.9121 309.314 35.9121 310.123Z" fill="#A7A5A6"/>
<path d="M51.5794 390.997C50.2141 390.559 48.782 390.21 47.2832 389.928V371.208C48.782 371.482 50.2141 371.839 51.5794 372.261V390.997Z" fill="#A7A5A6"/>
<path d="M44.7925 389.541C43.405 389.363 41.9581 389.259 40.4963 389.215V370.487C41.9581 370.524 43.405 370.643 44.7925 370.813V389.541Z" fill="#A7A5A6"/>
<path d="M38.0001 389.22C36.531 389.257 35.0915 389.361 33.6965 389.539V370.811C35.0915 370.625 36.531 370.529 38.0001 370.477V389.22Z" fill="#A7A5A6"/>
<path d="M31.2078 389.933C29.7164 390.207 28.2843 390.571 26.9191 390.994V372.259C28.2843 371.836 29.7164 371.487 31.2078 371.205V389.933Z" fill="#A7A5A6"/>
<path d="M384.283 349.809C385.781 350.091 387.213 350.455 388.571 350.87V370.118C387.213 369.695 385.781 369.339 384.283 369.057V349.809Z" fill="#A7A5A6"/>
<path d="M381.79 368.672C380.395 368.501 378.963 368.382 377.494 368.345V349.098C378.206 349.12 378.897 349.15 379.594 349.202C380.336 349.261 381.071 349.335 381.79 349.424V368.672Z" fill="#A7A5A6"/>
<path d="M370.698 368.672C372.093 368.501 373.525 368.382 375.002 368.345V349.098C373.525 349.135 372.093 349.246 370.698 349.424V368.672Z" fill="#A7A5A6"/>
<path d="M363.918 370.127C365.284 369.69 366.716 369.341 368.207 369.059V349.811C366.716 350.093 365.284 350.457 363.918 350.873V370.127Z" fill="#A7A5A6"/>
<path d="M360.036 334.173C360.964 333.75 361.936 333.356 362.96 333.008V335.323L360.036 334.173Z" fill="#A7A5A6"/>
<path d="M374.999 340.926C373.53 340.963 372.091 341.074 370.696 341.252V331.235C372.091 331.065 373.53 330.953 374.999 330.902V340.926Z" fill="#A7A5A6"/>
<path d="M381.79 331.236C380.395 331.066 378.963 330.947 377.494 330.91V340.927C378.963 340.964 380.395 341.068 381.79 341.253V331.236Z" fill="#A7A5A6"/>
<path d="M384.283 331.622C385.781 331.904 387.213 332.268 388.571 332.683V342.693C387.213 342.277 385.781 341.914 384.283 341.646V331.622Z" fill="#A7A5A6"/>
<path d="M368.205 341.642C366.713 341.916 365.274 342.28 363.916 342.696V332.686C365.281 332.27 366.713 331.907 368.212 331.617L368.205 341.642Z" fill="#A7A5A6"/>
<path d="M389.543 333.007C390.574 333.363 391.568 333.756 392.503 334.194L389.543 335.329V333.007Z" fill="#A7A5A6"/>
<path d="M360.036 352.36C360.964 351.93 361.936 351.544 362.96 351.195V353.51L360.036 352.36Z" fill="#A7A5A6"/>
<path d="M389.543 351.194C390.574 351.551 391.568 351.944 392.503 352.382L389.543 353.517V351.194Z" fill="#A7A5A6"/>
<path d="M392.503 327.68C388.036 325.617 382.39 324.385 376.253 324.385C370.125 324.385 364.493 325.617 360.033 327.665V331.842C364.493 329.787 370.125 328.57 376.253 328.57C382.39 328.57 388.044 329.802 392.503 331.857V327.68Z" fill="#A7A5A6"/>
<path d="M392.503 346.022C388.036 343.967 382.39 342.728 376.253 342.728C370.125 342.728 364.493 343.952 360.033 346.007V350.185C364.493 348.137 370.125 346.905 376.253 346.905C382.39 346.905 388.044 348.144 392.503 350.2V346.022Z" fill="#A7A5A6"/>
<path d="M392.503 325.842C388.036 323.779 382.39 322.54 376.253 322.54C370.125 322.54 364.493 323.772 360.033 325.82L372.907 313.554C374.005 313.465 375.118 313.428 376.253 313.428C377.389 313.428 378.494 313.465 379.592 313.547L392.503 325.842Z" fill="#A7A5A6"/>
<path d="M372.91 310.123V312.149C374.008 312.067 375.114 312.03 376.249 312.03C377.377 312.03 378.497 312.067 379.588 312.149V310.123C379.588 309.359 377.926 309.329 377.496 309.314C377.08 309.314 376.665 309.307 376.249 309.307C375.834 309.307 375.411 309.314 374.995 309.314C374.55 309.329 372.91 309.314 372.91 310.123Z" fill="#A7A5A6"/>
<path d="M388.576 390.997C387.211 390.559 385.779 390.21 384.287 389.928V371.208C385.779 371.482 387.211 371.839 388.576 372.261V390.997Z" fill="#A7A5A6"/>
<path d="M381.79 389.541C380.395 389.363 378.963 389.259 377.494 389.215V370.487C378.963 370.524 380.395 370.643 381.79 370.813V389.541Z" fill="#A7A5A6"/>
<path d="M374.999 389.22C373.53 389.257 372.091 389.361 370.696 389.539V370.811C372.091 370.625 373.53 370.529 374.999 370.477V389.22Z" fill="#A7A5A6"/>
<path d="M368.205 389.933C366.713 390.207 365.281 390.571 363.916 390.994V372.259C365.281 371.836 366.713 371.487 368.205 371.205V389.933Z" fill="#A7A5A6"/>
<path d="M31.1781 416.703C29.709 417.118 28.2843 417.534 26.9265 417.957C26.9265 415.456 26.9191 408.533 26.9191 408.533V393.285C26.9191 393.285 29.7164 392.499 31.2078 392.217V406.849L31.1781 416.703ZM38.0416 414.937C36.5428 415.286 35.0811 415.649 33.6638 416.02C33.6638 414.989 33.7009 406.278 33.7009 406.278V391.831C33.7009 391.831 36.528 391.542 37.9971 391.504L38.0491 406.278L38.0416 414.937ZM44.7938 391.831C43.3989 391.645 40.4977 391.504 40.4977 391.504V406.278C40.4977 406.278 40.4754 413.178 40.4754 414.38C41.8852 414.076 43.3173 413.787 44.7716 413.512L44.7938 391.831ZM51.5831 405.654V393.285C50.2179 392.855 47.287 392.217 47.287 392.217V405.654L47.2499 413.067C47.2499 413.067 50.0991 412.6 51.5535 412.399L51.5831 405.654ZM368.202 408.207V392.217C366.718 392.499 363.921 393.285 363.921 393.285V409.899C363.921 409.899 363.958 410.218 363.958 412.132C365.375 412.251 366.792 412.407 368.209 412.585M375.043 407.383L374.999 391.504C373.53 391.542 370.702 391.831 370.702 391.831V407.383C370.702 407.383 370.643 411.479 370.643 412.919C372.127 413.141 373.596 413.386 375.058 413.661M381.803 415.204C380.371 414.818 378.931 414.469 377.477 414.15C377.477 413.06 377.492 407.383 377.492 407.383V391.504C377.492 391.504 380.4 391.645 381.795 391.831V407.383L381.803 415.204ZM388.577 417.304C387.145 416.784 385.706 416.324 384.244 415.887C384.244 414.751 384.281 406.634 384.281 406.634V392.217C384.281 392.217 387.212 392.855 388.577 393.285V406.634V417.304Z" fill="#A7A5A6"/>
<path d="M193.037 410.581C198.832 413.75 204.39 415.234 208.026 415.901C208.107 415.916 208.174 415.931 208.241 415.931C208.501 415.931 208.753 415.85 208.953 415.679C209.22 415.471 209.376 415.167 209.391 414.833C209.636 408.66 208.263 403.176 207.662 401.106C207.573 400.794 207.358 400.535 207.069 400.394C199.686 396.817 193.705 392.899 189.298 388.729C186.085 385.687 183.748 382.578 182.375 379.484C182.204 379.106 181.848 378.853 181.44 378.809C181.024 378.764 180.624 378.957 180.386 379.291C177.953 382.786 176.164 386.852 175.229 391.037C175.177 391.274 175.207 391.527 175.311 391.757C178.962 399.807 184.927 406.144 193.037 410.581Z" fill="#C4122E"/>
<path d="M190.824 386.935C191.039 387.136 191.321 387.247 191.618 387.247H191.714C192.041 387.225 192.345 387.054 192.538 386.787C201.153 375.16 210.591 370.841 216.994 369.261C217.491 369.15 217.848 368.704 217.87 368.193C217.885 367.681 217.566 367.22 217.076 367.065C213.826 366.004 210.435 365.469 206.985 365.469C202.607 365.469 198.326 366.338 194.259 368.066C190.386 369.721 186.928 372.058 183.96 375.026C183.686 375.301 183.575 375.716 183.664 376.095C184.139 378.031 185.682 382.016 190.824 386.935Z" fill="#C4122E"/>
<path d="M194.192 388.44C193.828 388.937 193.925 389.642 194.414 390.013C197.961 392.78 202.295 395.444 207.318 397.937C207.481 398.011 207.652 398.048 207.822 398.048C208.149 398.048 208.468 397.915 208.691 397.648C211.696 394.168 220.221 385.857 234.482 383.654C234.853 383.602 235.18 383.364 235.351 383.03C235.514 382.696 235.506 382.296 235.314 381.969C232.798 377.532 229.229 373.696 224.992 370.891C224.814 370.773 224.599 370.706 224.384 370.698C223.1 370.661 218.262 370.743 212.104 373.444C205.344 376.404 199.304 381.45 194.192 388.44Z" fill="#C4122E"/>
<path d="M237.426 386.488C237.24 385.991 236.743 385.687 236.217 385.753C233.686 386.065 231.201 386.592 228.826 387.341C228.537 387.43 228.285 387.638 228.151 387.905C228.017 388.18 227.988 388.491 228.084 388.788C228.923 391.378 230.377 396.653 230.637 402.857C230.8 406.782 230.459 410.544 229.628 414.001C229.071 416.302 228.292 418.52 227.313 420.576C227.075 421.073 227.223 421.674 227.661 421.993C227.869 422.149 228.099 422.215 228.344 422.215C228.626 422.215 228.9 422.119 229.123 421.919C232.662 418.661 235.378 414.721 237.196 410.225C240.268 402.604 240.349 394.16 237.426 386.488Z" fill="#C4122E"/>
<path d="M208.668 418.719C208.497 418.467 208.23 418.289 207.926 418.237C204.364 417.584 198.895 416.181 193.086 413.199C186.163 409.644 180.613 404.792 176.591 398.782C176.302 398.351 175.76 398.166 175.27 398.321C174.788 398.485 174.469 398.952 174.491 399.464C174.639 403.36 175.5 407.166 177.029 410.772C179.314 416.137 182.987 420.789 187.662 424.24C192.151 427.534 197.449 429.641 202.991 430.331C203.043 430.346 203.08 430.346 203.132 430.346C203.459 430.346 203.77 430.198 203.993 429.946C206.412 427.156 208.052 423.661 208.846 419.587C208.905 419.283 208.838 418.971 208.668 418.719Z" fill="#C4122E"/>
<path d="M225.949 389.708C225.846 389.396 225.623 389.144 225.326 389.011C225.029 388.877 224.681 388.877 224.391 389.018C216.622 392.491 211.851 397.521 210.16 399.517C209.907 399.822 209.818 400.215 209.93 400.586C210.575 402.738 211.658 407.123 211.785 412.354C211.859 415.634 211.54 418.713 210.835 421.518C210.16 424.181 209.113 426.645 207.733 428.797C207.503 429.168 207.496 429.613 207.711 429.999C207.926 430.34 208.29 430.555 208.698 430.555H208.765C212.029 430.377 215.294 429.665 218.47 428.47C218.611 428.426 218.745 428.344 218.856 428.233C222.217 425.072 224.733 421.28 226.32 416.977C227.649 413.37 228.339 409.356 228.376 405.06C228.42 398.375 226.877 392.572 225.949 389.708Z" fill="#C4122E"/>
</g>
</g>
<defs>
<clipPath id="clip0_1_2827">
<rect width="411.906" height="512" fill="white" transform="translate(0.554688)"/>
</clipPath>
</defs>
</svg>
