<svg width="498" height="508" viewBox="0 0 498 508" fill="none" xmlns="http://www.w3.org/2000/svg">
<path d="M499.611 322.874C499.514 322.585 499.322 322.393 499.033 322.393L468.038 310.456C468.615 308.242 469.77 305.258 471.888 302.178L487.867 309.205C488.445 309.494 488.926 309.59 489.503 309.59C490.947 309.59 492.295 308.82 493.065 307.569C493.45 306.895 494.701 304.873 495.76 302.274C497.3 298.135 497.685 294.381 496.723 291.301C495.76 288.028 493.45 285.525 489.985 283.985L447.342 264.445C447.342 264.445 447.15 264.349 447.053 264.252C445.417 263.578 442.337 262.712 438.583 263.964C438.583 262.616 438.583 261.268 438.583 259.921C438.583 256.648 438.486 253.182 438.294 249.717C438.101 246.156 437.812 242.498 437.427 238.744C434.925 217.182 429.919 201.299 427.898 195.524L427.128 193.598C418.753 170.304 412.208 151.822 412.4 129.779C412.496 113.126 433.288 89.8315 441.278 82.2271L448.786 75.1039L369.95 3.19867L363.693 7.33777C349.255 16.8674 330.58 22.0654 311.04 22.0654C290.633 22.0654 271.189 16.3861 256.557 6.08646L251.071 2.23608L245.584 6.08646C230.856 16.3861 211.508 22.0654 191.101 22.0654C171.561 22.0654 152.887 16.8674 138.448 7.33777L132.191 3.19867L60.9597 68.1733L53.3553 75.1039L60.7672 82.2271C68.7567 89.8315 89.5486 113.126 89.7411 129.779C89.8373 151.822 83.2917 170.304 74.9172 193.598L74.2434 195.524C72.222 201.299 67.1203 217.182 64.7138 238.744C64.3288 242.498 64.04 246.156 63.8475 249.717C63.655 253.182 63.4624 256.648 63.4624 259.921C63.4624 261.268 63.4624 262.616 63.5587 263.964C59.8046 262.712 56.7243 263.578 55.1842 264.252C55.0879 264.349 54.8954 264.445 54.7992 264.445L12.1565 283.985C8.69124 285.525 6.38106 288.028 5.41847 291.301C4.45588 294.381 4.8409 298.135 6.38103 302.274C7.43988 304.873 8.69127 306.895 9.17256 307.569C9.84637 308.82 11.194 309.59 12.6379 309.59C13.2154 309.59 13.6967 309.494 14.2743 309.205L30.2532 302.178C32.3709 305.258 33.4297 308.242 34.1035 310.456L3.10825 322.393C2.81947 322.393 2.62695 322.585 2.53069 322.874C2.43443 323.163 2.43443 323.355 2.53069 323.644L4.35961 328.361C23.7076 376.682 56.6281 418.17 99.4632 448.01C139.314 475.733 186 492 234.418 494.984L250.397 510.771C250.589 510.963 250.782 511.06 251.071 511.06C251.263 511.06 251.552 510.963 251.744 510.771L267.723 494.984C316.142 492 362.827 475.733 402.582 448.01C445.513 418.17 478.434 376.682 497.782 328.361L499.611 323.644C499.707 323.355 499.707 323.163 499.611 322.874Z" fill="white"/>
<path d="M51.5458 286.325C50.0057 282.282 49.5244 278.143 50.1019 274.485C50.1982 274.292 50.1982 274.003 50.2944 273.715L50.6795 271.79L14.1974 288.539C12.0797 289.501 10.7321 290.849 10.2508 292.678C9.09572 296.528 11.5022 301.533 12.561 303.555L13.0423 304.325L51.9308 287.191L51.5458 286.325Z" fill="#274488"/>
<path d="M450.605 286.325C452.146 282.282 452.627 278.143 452.049 274.485C451.953 274.292 451.953 274.003 451.857 273.715L451.376 271.79L487.954 288.539C490.072 289.501 491.419 290.849 491.9 292.678C493.056 296.528 490.649 301.533 489.59 303.555L489.109 304.325L450.22 287.191L450.605 286.325Z" fill="#274488"/>
<path d="M125.097 424.379L119.418 428.903L124.327 432.079L126.252 425.149C126.445 424.283 126.637 423.609 126.83 423.031C126.252 423.416 125.675 423.897 125.097 424.379Z" fill="#274488"/>
<path d="M323.149 445.969C320.261 446.932 319.106 450.205 320.839 455.114C322.572 460.408 325.171 462.045 328.347 460.986C331.331 460.023 332.486 457.039 330.657 451.841C328.925 446.451 326.326 444.911 323.149 445.969Z" fill="#274488"/>
<path d="M345.597 437.248L344.057 438.019L347.233 444.853C347.714 444.757 348.773 444.275 349.062 444.083C351.372 443.024 352.142 441.291 351.084 438.981C349.928 436.478 348.003 436.093 345.597 437.248Z" fill="#274488"/>
<path d="M292.953 237.04C292.953 236.944 288.429 235.692 285.156 235.115C281.113 234.441 278.707 234.345 277.937 234.249C277.07 234.056 274.856 234.056 274.952 232.805C274.952 231.938 275.915 231.746 276.878 231.65C278.322 231.553 282.076 231.938 284.29 232.227C289.584 232.997 292.953 234.056 292.953 233.864V227.222C292.953 227.029 285.541 224.526 277.551 223.66C272.161 223.179 269.658 223.275 266.482 223.179C265.904 223.179 264.653 223.371 264.653 222.312C264.653 221.254 265.808 221.157 266.193 221.061C270.236 220.676 275.434 220.58 280.824 220.965C286.792 221.35 292.857 223.468 292.857 223.275V216.152C290.546 215.093 287.177 214.034 284.386 213.553C280.824 212.975 276.108 212.687 275.434 212.687C274.76 212.687 274.471 212.302 274.375 212.013C274.279 211.532 274.567 211.146 275.241 210.954C276.3 210.761 278.899 210.665 282.076 210.761C284.386 210.858 289.969 211.435 292.76 211.82L292.664 206.334C287.37 203.542 279.188 202.194 273.894 201.424C265.904 200.173 258.589 199.98 257.337 199.98C256.663 199.884 255.99 199.884 255.893 199.21C255.893 198.633 256.278 198.152 257.337 198.152C258.3 198.152 264.557 197.959 274.375 198.825C279.092 199.21 288.429 201.039 292.664 201.906L292.568 196.515C287.851 194.205 280.439 192.472 269.755 190.932C256.663 189.007 231.636 189.873 230.288 190.066C228.46 190.162 228.171 189.777 228.074 189.103C227.978 188.429 228.652 188.044 230 187.756C231.347 187.563 248.481 185.927 262.343 186.6C272.835 187.082 287.947 190.066 292.568 190.932L292.472 186.697C284.578 181.306 271.583 180.729 270.717 180.729C269.851 180.632 269.273 180.247 269.177 179.766C269.081 179.285 269.658 178.9 270.332 178.804C271.006 178.707 272.931 178.515 276.974 178.804C280.247 178.996 289.006 180.825 292.472 181.595L292.375 177.36C286.504 173.894 272.931 171.873 262.439 170.91C262.439 170.91 261.187 170.814 258.877 170.718L258.685 173.509C258.685 174.376 258.011 174.953 257.145 174.953C250.984 174.664 248.77 174.664 242.61 174.953C241.839 174.953 241.069 174.376 241.069 173.509L240.877 170.718C235.294 170.91 228.748 171.392 221.433 172.162C220.374 172.258 219.315 172.547 219.219 171.777C219.026 171.295 219.315 170.91 220.663 170.525C221.721 170.333 236.256 168.311 239.914 167.926C240.107 167.926 240.396 167.926 240.684 167.926L239.722 150.022C239.722 149.637 239.914 149.252 240.107 148.867C240.396 148.578 240.781 148.386 241.166 148.386C248.674 148.097 251.273 148.097 258.589 148.386C258.974 148.386 259.359 148.578 259.647 148.867C259.84 149.156 260.032 149.541 260.032 149.83C263.401 149.926 266.77 150.118 269.466 150.311C275.145 150.6 288.525 152.525 292.087 153.006V148.867C291.413 148.386 290.45 148.097 289.68 147.712C285.926 146.268 271.391 143.765 250.695 143.765C229.903 143.765 217.486 146.461 215.561 146.942C213.443 147.519 211.133 148.29 211.229 149.637L211.518 196.515C211.229 199.692 211.614 212.302 211.711 215.286C211.807 220.195 219.507 223.275 236.353 229.147C253.968 235.596 276.204 242.527 292.953 247.147V237.04Z" fill="#274488"/>
<path d="M278.177 246.762C274.808 245.8 273.076 245.222 269.707 244.163C269.321 244.067 269.033 244.259 269.033 244.644C269.033 250.612 269.033 253.596 269.033 259.276C269.033 259.661 269.321 259.95 269.61 260.142C272.979 261.297 274.712 261.875 278.177 263.03C278.466 263.222 278.755 262.934 278.755 262.645C278.755 256.966 278.755 253.789 278.755 247.628C278.755 247.243 278.466 246.858 278.177 246.762Z" fill="#274488"/>
<path d="M263.96 242.421C260.494 241.362 258.858 240.881 255.393 239.726C255.104 239.629 254.815 239.822 254.815 240.111C254.815 245.79 254.815 248.678 254.815 254.357C254.815 254.646 255.104 255.031 255.393 255.127C258.762 256.282 260.494 256.956 263.96 258.111C264.249 258.207 264.537 258.111 264.537 257.726C264.537 252.047 264.537 249.063 264.537 243.191C264.537 242.902 264.249 242.517 263.96 242.421Z" fill="#274488"/>
<path d="M235.419 233.007C231.954 231.852 230.317 231.274 226.852 229.926C226.563 229.83 226.274 230.023 226.274 230.311V244.269C226.274 244.558 226.563 244.943 226.852 245.039C230.221 246.194 231.954 246.868 235.419 248.119C235.708 248.216 235.997 248.023 235.997 247.734C235.997 242.055 235.997 239.263 235.997 233.777C235.997 233.488 235.708 233.199 235.419 233.007Z" fill="#274488"/>
<path d="M284.299 129.865C284.011 129.384 283.818 128.807 283.433 128.037C280.064 126.785 271.593 124.667 265.529 124.09C264.374 123.994 262.641 123.897 262.641 123.031C262.641 122.261 263.315 121.972 265.24 121.972C270.149 122.069 278.042 123.32 281.508 123.994C280.545 121.876 279.39 119.373 278.139 116.678C271.593 114.175 259.176 113.405 256.962 113.213C254.555 112.924 253.785 112.635 253.978 111.865C254.074 111.095 255.614 111.191 259.368 111.095C263.7 110.999 273.23 111.769 275.925 112.058C275.058 110.132 274.096 108.111 273.133 105.897C269.475 103.394 262.545 102.913 260.62 102.817C258.791 102.721 258.117 102.047 258.213 101.469C258.309 100.795 259.272 100.603 260.042 100.507C260.716 100.507 268.705 100.41 269.379 100.314C269.86 100.314 270.342 100.025 269.957 99.3515C269.187 97.6188 268.705 96.56 267.839 94.8273C266.588 94.2497 264.951 93.7685 263.604 93.5759C262.449 93.3834 258.694 93.1909 256.769 92.9984C255.71 92.7096 255.518 92.5171 255.518 92.1321C255.518 91.6508 255.807 91.362 256.769 91.2657C259.176 91.0732 263.604 91.2657 264.566 91.1695C265.24 91.1695 266.01 90.8807 265.721 90.3031C265.24 89.148 264.759 88.1854 264.277 87.1266C263.219 86.6453 261.582 86.3565 260.235 86.0678C258.502 85.6827 255.229 85.3939 252.534 85.2977C251.86 85.2977 251.283 84.9127 251.283 84.5276C251.283 84.1426 251.571 83.7575 252.341 83.6613C254.17 83.3725 258.021 83.3725 259.561 83.2763C260.812 83.18 262.352 82.9875 261.871 81.9286C261.005 80.196 260.523 78.9446 259.657 77.3082C258.502 77.3082 256.481 77.212 255.037 77.0194C254.459 76.9232 253.689 76.8269 253.689 76.3456C253.593 75.8643 254.363 75.5756 255.037 75.2868C255.518 75.0943 257.154 74.613 258.309 74.3242C257.732 73.2654 257.347 72.3028 256.866 71.2439C255.229 71.1477 252.245 70.9551 249.935 70.9551C248.972 70.9551 248.491 70.4739 248.491 70.0888C248.491 69.7038 248.684 69.415 249.742 69.2225C251.475 68.7412 254.17 68.5487 255.518 68.4524C253.978 65.1796 252.534 62.0031 251.186 59.1153C240.598 81.7361 221.154 123.416 217.977 130.058C228.951 127.459 243.774 126.496 250.705 126.496C257.636 126.496 273.23 127.555 284.299 129.865Z" fill="#274488"/>
<path d="M221.125 227.886C217.756 226.634 216.023 226.057 212.558 224.709C212.269 224.613 211.98 224.709 211.98 225.094V239.244C211.98 239.629 212.269 240.014 212.558 240.014C216.023 241.266 217.756 241.843 221.125 243.095C221.51 243.095 221.702 242.998 221.702 242.613V228.656C221.702 228.367 221.51 228.078 221.125 227.886Z" fill="#274488"/>
<path d="M249.704 237.868C246.239 236.809 244.602 236.135 241.137 234.98C240.848 234.884 240.559 235.076 240.559 235.365V249.322C240.559 249.611 240.848 249.996 241.137 250.093C244.506 251.344 246.239 251.921 249.704 253.077C249.993 253.269 250.281 253.077 250.281 252.788C250.281 247.109 250.281 244.221 250.281 238.638C250.281 238.349 249.993 237.964 249.704 237.868Z" fill="#274488"/>
<path d="M222.058 308.887C222.058 305.229 219.363 302.534 215.802 302.534C210.796 302.534 208.678 306.288 208.293 312.738L217.342 312.449C220.711 312.449 222.058 311.39 222.058 308.887Z" fill="#274488"/>
<path d="M314.313 302.351C307.767 302.351 305.264 308.319 305.264 317.656C305.264 328.726 308.537 334.598 314.601 334.598C320.666 334.598 323.939 329.4 323.939 319.293C323.939 308.319 320.473 302.351 314.313 302.351Z" fill="#274488"/>
<path d="M272.931 159.224C273.701 159.128 277.166 159.128 281.691 159.706C285.06 160.187 289.969 161.246 292.183 161.727V157.877C287.562 155.951 276.974 154.026 271.295 153.352C267.829 152.871 263.786 152.486 259.84 152.197L259.07 167.31C261.091 167.406 262.439 167.406 262.439 167.406C265.038 167.599 267.637 167.695 270.236 167.984C280.247 168.946 288.621 170.872 292.279 171.642V166.251C286.6 161.534 273.509 161.149 272.739 161.149C271.968 161.149 271.198 160.957 271.198 160.187C271.198 159.417 272.161 159.32 272.931 159.224Z" fill="#274488"/>
<path d="M211.431 143.544C213.164 143.159 226.448 138.346 250.705 138.346C274.866 138.346 289.305 143.64 291.037 144.41C292.962 145.277 294.695 145.854 295.561 144.41C296.331 142.966 295.369 141.138 294.021 140.271C288.727 136.902 270.149 132.667 250.705 132.956C231.164 133.052 211.624 137.383 208.929 138.539C206.137 139.597 204.982 141.234 205.848 142.774C207.292 145.373 209.699 144.025 211.431 143.544Z" fill="#274488"/>
<path d="M292.375 250.978C289.006 249.919 287.274 249.438 283.905 248.475C283.519 248.379 283.327 248.572 283.327 248.957C283.231 255.31 283.231 258.486 283.231 264.166C283.231 264.551 283.519 264.839 283.808 265.032C287.274 266.187 289.006 266.765 292.375 268.016C292.664 268.112 292.953 267.92 292.953 267.631V251.845C292.953 251.459 292.664 251.074 292.375 250.978Z" fill="#274488"/>
<path d="M245.728 171.854C250.156 171.757 255.739 171.854 255.739 171.854L256.798 152.313C252.178 152.024 244.573 152.409 244.573 152.409L245.728 171.854Z" fill="#274488"/>
<path d="M356.079 436.334C358.486 441.436 355.791 445.767 350.881 447.981C350.496 448.174 349.438 448.655 349.052 448.751L352.133 455.297C352.422 455.874 352.325 456.259 351.555 456.644L348.379 458.088C347.801 458.377 347.32 458.281 347.031 457.607L337.501 437.393C337.116 436.623 337.309 436.334 337.983 435.949L343.084 433.639C346.742 431.906 349.63 431.425 352.133 432.387C353.865 433.157 355.309 434.601 356.079 436.334ZM444.349 343.637C444.06 343.059 443.964 342.578 444.349 341.904L445.696 339.786C445.985 339.209 446.37 339.113 446.948 339.498L466.777 350.375C467.451 350.76 467.547 351.241 467.162 351.722L465.237 354.706C464.852 355.477 464.274 355.477 463.504 354.995L452.916 348.931L460.905 360.193C461.386 360.771 461.194 361.252 460.905 361.637L460.231 362.696C459.942 363.273 459.557 363.562 458.787 363.466L444.734 361.926L444.637 362.022L455.13 368.76C455.996 369.242 455.9 369.723 455.418 370.3L453.878 372.803C453.493 373.477 453.012 373.669 452.338 373.188L433.856 360.674C433.183 360.097 433.183 359.712 433.471 359.134L434.819 357.017C435.3 356.247 435.685 356.15 436.455 356.247L454.167 358.076L454.263 357.979L444.349 343.637ZM435.397 378.097L425.867 370.397C425.386 369.915 425.482 369.434 425.867 368.953L428.081 366.258C428.562 365.776 428.947 365.584 429.525 366.065L439.247 374.054C445.311 379.156 445.504 384.547 441.076 389.648C436.455 395.231 431.257 395.231 425.482 390.515L415.76 382.525C415.182 382.044 415.375 381.466 415.76 380.985L417.974 378.386C418.455 377.809 418.744 377.712 419.321 378.194L428.755 385.894C433.086 389.456 435.493 388.975 437.61 386.472C439.632 384.065 439.632 381.563 435.397 378.097ZM407.674 390.611C407.482 390.033 407.578 389.456 408.155 388.878L409.888 387.242C410.465 386.761 410.851 386.857 411.236 387.242L427.503 402.932C427.503 403.028 427.6 403.028 427.6 403.028C427.985 403.51 427.985 403.991 427.503 404.376L424.904 406.782C424.23 407.456 423.749 407.264 423.075 406.494L414.508 397.927L419.225 410.922C419.514 411.595 419.225 411.98 418.936 412.269L417.974 413.135C417.396 413.617 417.107 413.809 416.337 413.521L403.15 408.323L403.054 408.419L411.428 417.66C412.102 418.43 411.813 418.718 411.236 419.296L409.118 421.221C408.54 421.799 408.059 421.895 407.578 421.317L407.481 421.221L393.043 404.28C392.465 403.606 392.561 403.221 393.043 402.74L394.968 401.007C395.545 400.429 396.027 400.429 396.701 400.718L413.257 407.167L413.353 407.071L407.674 390.611ZM397.182 425.649L398.626 424.687C399.107 424.301 399.588 424.494 399.877 424.879L400.936 426.419C401.225 426.708 401.225 427.189 400.84 427.478L393.524 432.869C393.043 433.157 392.561 433.061 392.273 432.772L391.214 431.232C390.829 430.751 390.925 430.27 391.31 429.981L392.658 429.018L382.358 415.157L380.818 416.312C380.337 416.601 379.855 416.408 379.566 416.023L378.508 414.579C378.219 414.194 378.219 413.713 378.604 413.424L386.305 407.841C386.69 407.552 387.171 407.552 387.46 407.938L388.615 409.478C388.904 409.959 388.904 410.344 388.422 410.729L386.882 411.788L397.182 425.649ZM379.085 441.147C379.566 441.917 379.47 442.013 378.893 442.398L375.427 444.42C374.85 444.805 374.754 444.708 374.272 444.131L364.454 427.767L358.871 431.04C358.293 431.425 357.812 431.328 357.523 430.655L356.176 428.441C355.791 427.863 355.983 427.478 356.561 427.189L371.384 418.43L372.925 417.467C373.502 417.178 373.791 417.275 374.08 417.66L375.331 420.355C375.62 420.932 375.331 421.317 374.657 421.703L369.267 424.879L379.085 441.147ZM321.715 441.436C328.838 439.125 334.132 443.072 336.346 449.81C338.945 457.318 336.058 463.479 329.704 465.596C322.966 467.81 317.576 464.345 315.169 457.126C312.667 450.003 315.073 443.649 321.715 441.436ZM295.34 470.217L297.073 469.928C297.65 469.928 298.035 470.217 298.132 470.698L298.42 472.527C298.517 473.008 298.228 473.393 297.747 473.49L288.795 475.03C288.313 475.126 287.832 474.837 287.832 474.452L287.447 472.527C287.351 471.95 287.639 471.565 288.121 471.468L289.757 471.179L286.869 454.238L284.944 454.527C284.367 454.623 284.078 454.238 283.982 453.757L283.597 451.928C283.597 451.543 283.789 451.158 284.27 451.061L293.704 449.425C294.185 449.329 294.57 449.714 294.666 450.003L294.955 451.928C295.051 452.505 294.763 452.89 294.281 452.987L292.356 453.275L295.34 470.217ZM266.655 459.436C266.848 460.591 268.291 461.072 269.158 461.457L273.393 462.997C276.281 463.96 278.206 465.693 278.495 468.966C278.88 473.971 275.03 477.244 270.217 477.629C267.906 477.821 265.115 477.533 262.708 476.955C262.131 476.859 261.938 476.57 261.938 476.281C261.938 476.089 261.938 475.896 262.035 475.704L262.805 472.72C262.805 472.431 262.997 472.046 263.478 472.046C263.575 472.046 263.864 472.046 264.056 472.142C265.885 472.72 267.906 472.912 269.639 472.816C271.179 472.72 272.912 471.757 272.816 470.024C272.719 468.677 271.564 468.195 270.409 467.714L265.596 465.885C262.805 464.923 260.976 462.901 260.687 459.917C260.302 455.489 264.634 452.505 268.773 452.217C271.372 452.024 273.586 452.313 275.896 453.083C276.473 453.275 276.666 453.468 276.762 453.853C276.762 453.949 276.666 454.142 276.666 454.43L275.703 457.222C275.607 457.703 275.415 457.8 275.126 457.896C274.933 457.896 274.741 457.8 274.452 457.8C272.912 457.318 270.987 456.837 269.543 457.029C268.099 457.126 266.559 457.8 266.655 459.436ZM50.5543 348.546L38.8107 355.765C38.1369 356.15 37.7519 355.958 37.3668 355.38L35.6342 352.589C35.1529 351.915 35.1529 351.53 35.8267 351.049L54.9822 339.401C55.8485 338.92 56.1373 339.209 56.6186 339.786L58.1587 342.289C58.4475 342.963 58.5437 343.348 58.255 343.925L51.7094 360.289L63.5492 353.07C64.223 352.685 64.7043 352.878 64.9931 353.455L66.822 356.439C67.3033 357.209 66.9182 357.498 66.4369 357.787L47.2815 369.434C46.5114 369.915 46.2226 369.723 45.8376 369.145L44.2974 366.546C43.9124 366.065 43.9124 365.487 44.1049 364.91L50.5543 348.642V348.546ZM60.9502 383.199C61.239 383.68 61.0465 384.162 60.6614 384.45L59.2175 385.605C58.9288 385.798 58.3512 385.798 58.0624 385.509L52.5757 378.29C52.1907 377.809 52.3832 377.327 52.5757 377.135L54.1158 375.98C54.5971 375.595 55.0784 375.691 55.3672 376.076L56.4261 377.424L70.191 366.835L69.0359 365.391C68.6509 364.91 68.8434 364.429 69.2284 364.14L70.7686 363.081C71.0574 362.792 71.5387 362.792 71.8274 363.177L77.603 370.685C77.988 371.07 77.8917 371.552 77.603 371.84L76.0628 372.899C75.5815 373.381 75.1002 373.188 74.8115 372.803L73.5601 371.359L59.7951 381.755L60.9502 383.199ZM78.4693 401.296C78.9506 401.777 78.8543 402.258 78.373 402.74L76.4479 404.568C75.8703 405.05 75.389 404.953 74.9077 404.472L65.7631 394.654C65.2818 394.076 65.1856 393.691 65.8594 393.114L82.4159 377.905C82.8972 377.52 83.3785 377.52 83.8598 378.001L86.2662 380.6C86.7475 381.178 86.8438 381.563 86.2662 382.044L72.405 394.75L78.4693 401.296ZM102.823 416.697L100.513 411.98C99.1649 409.381 99.2612 406.686 101.09 404.376C103.978 400.814 109.08 401.681 112.352 404.28C114.278 405.916 115.721 407.649 116.877 409.766C117.165 410.344 117.165 410.633 116.973 410.825C116.877 411.018 116.684 411.114 116.491 411.21L113.892 412.654C113.507 412.847 113.219 412.847 112.93 412.654C112.834 412.558 112.737 412.365 112.545 412.173C111.871 410.729 110.716 409.189 109.561 408.323C108.502 407.36 106.866 406.782 105.807 408.034C105.133 408.996 105.807 410.344 106.192 411.307L108.213 415.253C109.561 417.948 109.753 420.547 107.732 423.05C104.555 426.997 99.5499 426.708 95.6996 423.724C93.9669 422.28 92.0418 420.162 90.7904 418.141C90.4054 417.563 90.4054 417.275 90.6941 417.082C90.7904 416.89 90.9829 416.793 91.1754 416.697L93.6782 415.061C94.0632 414.868 94.352 414.676 94.737 414.964C94.8333 415.157 94.9295 415.253 95.0258 415.446C95.9884 417.082 97.336 418.622 98.6836 419.777C99.8387 420.74 101.764 421.317 102.919 419.97C103.689 418.911 103.304 417.756 102.823 416.697ZM122.171 435.756L116.973 432.387L115.914 431.713L112.449 434.505C112.064 434.794 111.582 434.986 111.005 434.601L107.636 432.387C107.347 432.195 107.347 431.906 107.443 431.617C107.539 431.521 107.636 431.425 107.732 431.328L127.272 416.986C127.754 416.697 128.235 416.601 128.716 416.89L131.797 418.911C132.47 419.296 132.567 419.777 132.47 420.259L127.369 443.649C127.272 443.938 127.272 444.035 127.176 444.131C126.887 444.516 126.599 444.708 126.117 444.42L122.845 442.206C122.074 441.724 122.074 441.243 122.171 440.665L123.23 436.526L122.171 435.756ZM138.246 428.344C137.668 427.959 137.572 427.574 137.861 426.997L139.112 424.59C139.401 424.109 139.786 423.916 140.364 424.301L155.669 432.195L157.305 433.061C157.883 433.35 157.979 433.735 157.69 434.12L156.15 436.623C155.669 437.2 155.187 437.104 154.61 436.719L149.027 433.927L140.171 450.676C139.786 451.35 139.69 451.446 139.016 451.158L135.454 449.232C134.781 448.944 134.781 448.847 135.166 448.174L144.021 431.328L138.246 428.344ZM164.621 458.57C165.102 458.762 165.198 459.243 165.102 459.725L164.332 461.457C164.236 461.842 163.754 462.131 163.273 461.842L154.899 458.57C154.417 458.281 154.225 457.8 154.321 457.511L155.091 455.682C155.284 455.104 155.669 455.008 156.246 455.201L157.69 455.778L164.236 439.799L162.503 439.125C161.926 438.837 161.829 438.355 162.022 437.97L162.792 436.238C162.888 435.853 163.273 435.564 163.754 435.756L172.61 439.318C173.092 439.51 173.284 439.895 173.188 440.377L172.418 442.109C172.129 442.687 171.744 442.783 171.263 442.591L169.434 441.917L162.984 457.896L164.621 458.57ZM184.546 452.409L188.012 455.297C190.322 457.318 191.477 459.725 190.514 462.805C189.071 467.618 184.258 469.254 179.637 467.907C177.423 467.233 174.92 465.982 172.899 464.538C172.418 464.249 172.322 463.96 172.418 463.671C172.418 463.479 172.61 463.286 172.707 463.094L174.439 460.687C174.632 460.302 174.92 460.11 175.402 460.206C175.498 460.302 175.691 460.302 175.883 460.591C177.423 461.65 179.156 462.612 180.889 463.19C182.332 463.575 184.354 463.383 184.835 461.746C185.22 460.398 184.45 459.532 183.488 458.762L179.541 455.297C177.423 453.372 176.364 450.773 177.231 447.981C178.578 443.649 183.68 442.494 187.627 443.746C190.033 444.42 192.055 445.478 193.883 447.019C194.365 447.5 194.461 447.789 194.365 448.077C194.365 448.174 194.268 448.366 194.076 448.462L192.247 450.773C191.958 451.254 191.766 451.35 191.381 451.254C191.284 451.158 191.092 451.061 190.803 450.869C189.648 449.906 187.915 448.847 186.568 448.462C185.22 447.981 183.488 448.077 183.006 449.714C182.717 450.773 183.873 451.831 184.546 452.409ZM234.601 454.238L231.809 476.281C231.713 477.148 231.232 477.34 230.654 477.244L227.67 476.859C226.996 476.762 226.515 476.474 226.226 475.896L217.467 460.784L215.638 474.356C215.542 475.126 215.157 475.319 214.483 475.222L211.21 474.837C210.44 474.741 210.055 474.549 210.247 473.682L212.943 451.543C213.039 450.676 213.52 450.484 214.29 450.676L217.178 450.965C217.948 451.061 218.237 451.35 218.526 451.928L227.285 467.137L229.114 453.468C229.21 452.698 229.595 452.505 230.269 452.602L233.735 452.987C234.601 453.083 234.601 453.66 234.601 454.238ZM495.847 327.562C476.691 375.595 444.06 416.697 401.513 446.345C361.855 473.971 315.458 490.142 267.233 493.03C266.944 493.03 266.751 493.126 266.559 493.319L251.061 508.72L235.563 493.319C235.371 493.126 235.178 493.03 234.89 493.03C186.76 490.142 140.267 473.971 100.609 446.345C58.1587 416.697 25.4307 375.595 6.27526 327.562L4.73512 323.807L63.4529 301.283C64.9931 300.609 66.6295 301.187 67.4958 302.534L67.5921 302.63C67.9771 303.208 68.7472 304.363 69.9023 305.422C70.3836 306.962 70.8648 308.502 71.4424 309.946C68.3621 308.791 66.1482 305.903 65.2819 304.652L65.0893 304.267C64.9931 304.171 64.8005 304.074 64.608 304.074C64.608 304.074 64.5118 304.074 64.4155 304.074L60.2764 305.711L58.4475 306.481L58.7363 307.251C58.9288 307.636 59.025 308.021 59.1213 308.214C60.8539 312.545 62.7791 316.684 64.7043 320.823C65.0893 321.401 65.3781 322.075 65.6669 322.652L67.4958 321.979L75.1965 319.187C75.6778 320.15 76.1591 321.016 76.5441 321.882L68.9397 324.674L67.0145 325.348C67.3033 325.925 67.592 326.503 67.9771 327.08C83.4747 356.343 105.614 381.466 133.048 400.718C164.236 422.376 200.333 434.794 238.259 437.2L241.532 440.377C201.777 438.644 163.754 425.842 131.315 403.125C97.336 379.445 71.2499 346.717 55.9447 308.406L55.5597 307.54L8.77799 325.54L9.16302 326.406C28.126 373.958 60.3726 414.579 102.438 443.938C142 471.468 188.397 487.447 236.622 490.046L250.387 503.715L251.061 504.389L265.5 490.046C313.726 487.447 360.122 471.468 399.685 443.938C441.75 414.579 474.093 373.958 493.055 326.406L493.344 325.54L446.562 307.54L446.274 308.406C430.872 346.717 404.786 379.445 370.807 403.125C338.271 425.842 300.346 438.644 260.591 440.377L263.863 437.2C301.789 434.794 337.886 422.376 369.074 400.718C396.508 381.466 418.744 356.343 434.145 327.08C434.53 326.503 434.819 325.925 435.108 325.348L433.183 324.674L425.578 321.882C425.963 321.016 426.444 320.15 426.829 319.187L434.626 321.979L436.455 322.652C436.744 322.075 437.129 321.401 437.418 320.823C439.343 316.684 441.268 312.545 443.001 308.214C443.097 308.021 443.29 307.636 443.386 307.251L443.771 306.481L441.846 305.711L437.707 304.074C437.61 304.074 437.61 304.074 437.418 304.074C437.322 304.074 437.129 304.171 437.033 304.267L436.84 304.652C435.974 305.903 433.76 308.791 430.68 310.042C431.161 308.502 431.739 306.962 432.22 305.422C433.279 304.459 434.145 303.208 434.53 302.63L434.626 302.534C435.493 301.187 437.129 300.609 438.669 301.283L497.387 323.807L495.847 327.562ZM31.3988 300.417L30.9175 299.646L13.4947 307.443C12.4358 307.828 11.377 307.443 10.8957 306.481C10.5107 306 9.25929 304.074 8.29671 301.572C7.33412 298.973 6.37153 295.219 7.33412 291.85C8.10419 289.154 10.0294 287.037 12.9171 285.785L55.656 266.245C55.7522 266.245 55.8485 266.148 55.9447 266.148C56.7148 265.763 58.1587 265.282 59.7951 265.282C60.9502 265.282 62.2016 265.571 63.5492 266.052C63.6454 267.304 63.6455 268.362 63.7417 269.518C62.3941 268.747 61.0465 268.266 59.6988 268.266C58.8325 268.266 57.9662 268.459 57.1961 268.844L56.9073 268.94C54.9822 269.903 53.6345 272.117 53.057 275.101C52.4794 278.47 53.057 282.416 54.7896 286.267L55.0784 287.037C55.4634 287.999 54.9822 289.058 54.0196 289.539L33.709 298.491L34.3828 299.454C36.7893 302.823 38.0406 306.096 38.8107 308.599L35.9229 309.754C35.2491 307.251 33.9015 303.786 31.3988 300.417ZM236.141 435.082C199.37 432.387 164.428 420.066 134.203 398.985C107.154 380.119 85.2074 355.284 69.806 326.406L77.5067 323.711C77.6992 324.192 77.988 324.577 78.1805 325.059C79.9132 328.139 81.7421 331.219 83.7635 334.107C83.956 334.396 84.2448 334.781 84.6298 335.262L84.7261 335.551C119.09 386.953 169.53 419.007 226.996 425.842L236.141 435.082ZM252.216 474.356C252.794 474.356 253.083 474.741 253.083 475.222V477.148C253.083 477.533 252.794 477.918 252.312 477.918L243.168 477.821C242.59 477.821 242.302 477.436 242.302 477.051V475.126C242.302 474.452 242.687 474.26 243.168 474.26H244.901L245.093 457.029L243.264 456.933C242.687 456.933 242.398 456.548 242.398 456.067V454.238C242.398 453.757 242.687 453.372 243.168 453.372L252.698 453.564C253.275 453.564 253.564 453.949 253.564 454.334V456.259C253.564 456.837 253.179 457.126 252.698 457.126H250.772L250.484 474.356H252.216ZM424.616 323.711L432.316 326.406C417.011 355.284 395.064 380.119 367.919 398.985C337.694 420.066 302.752 432.387 265.981 435.082L275.126 425.842C332.592 419.007 383.032 386.953 417.3 335.551L417.492 335.262C417.781 334.781 418.07 334.396 418.359 334.011C420.284 331.219 422.209 328.139 423.845 325.059C424.134 324.577 424.423 324.192 424.616 323.711ZM66.822 249.881C67.0145 246.319 67.3033 242.758 67.7846 239.1C70.0948 217.73 75.1002 202.233 77.1217 196.553L77.7955 194.628C86.2662 171.045 92.9081 152.371 92.7156 129.75C92.6193 112.135 71.1536 87.8773 62.8754 79.9842L57.7737 75.1712L62.9716 70.4545L132.47 7.02008L136.706 9.81155C151.722 19.6299 170.974 25.1167 191.092 25.1167C212.076 25.1167 232.098 19.1487 247.307 8.56024L251.061 5.96121L254.815 8.56024C270.024 19.1487 289.95 25.1167 311.03 25.1167C331.052 25.1167 350.4 19.6299 365.32 9.81155L369.556 7.02008L444.349 75.1712L439.247 80.0804C430.969 87.8773 409.503 112.135 409.407 129.75C409.214 152.371 415.856 171.045 424.327 194.628L425.001 196.553C427.022 202.233 432.027 217.73 434.338 239.1C434.723 242.758 435.108 246.319 435.3 249.881C435.396 253.25 435.589 256.715 435.589 259.988C435.685 284.63 430.872 306.096 421.246 323.615C419.61 326.599 417.781 329.583 415.856 332.278C415.663 332.663 415.375 333.048 414.99 333.626L414.797 333.818C380.914 384.643 331.052 416.312 274.259 422.954H273.778L251.061 445.671L228.344 422.954H227.863C171.07 416.312 121.112 384.643 87.2288 333.818L87.1326 333.626C86.7475 333.048 86.4588 332.663 86.2662 332.374C84.3411 329.583 82.5122 326.599 80.8758 323.615C71.2499 306.096 66.437 284.63 66.5332 259.988C66.5332 256.715 66.6295 253.25 66.822 249.881ZM438.477 266.148C439.921 265.571 441.268 265.282 442.327 265.282C443.964 265.282 445.311 265.763 446.177 266.148C446.274 266.148 446.37 266.245 446.466 266.245L489.205 285.785C492.093 287.037 494.018 289.154 494.788 291.85C495.847 295.219 494.788 298.973 493.826 301.572C492.863 304.074 491.612 306 491.227 306.481C490.745 307.443 489.59 307.828 488.724 307.443L471.205 299.646L470.723 300.417C468.221 303.786 466.873 307.251 466.199 309.754L463.408 308.599C464.082 306.096 465.333 302.823 467.739 299.454L468.413 298.491L448.103 289.539C447.14 289.058 446.659 287.999 447.044 287.037L447.333 286.267C449.065 282.416 449.643 278.47 449.065 275.101C448.584 272.117 447.14 269.903 445.215 268.94L445.022 268.844C444.156 268.459 443.29 268.266 442.423 268.266C441.076 268.266 439.728 268.747 438.381 269.614C438.477 268.362 438.477 267.304 438.477 266.148ZM499.601 322.845C499.505 322.652 499.312 322.46 499.12 322.364L468.124 310.427C468.702 308.31 469.761 305.229 471.879 302.149L487.857 309.272C488.435 309.465 488.916 309.561 489.494 309.561C490.938 309.561 492.285 308.791 493.055 307.54C493.441 306.866 494.692 304.941 495.751 302.245C497.291 298.106 497.676 294.449 496.713 291.272C495.751 287.999 493.44 285.496 489.975 283.956L447.333 264.512C447.333 264.416 447.236 264.32 447.044 264.32C445.407 263.549 442.327 262.683 438.573 263.935V259.988C438.573 256.619 438.477 253.154 438.284 249.688C438.092 246.127 437.803 242.469 437.418 238.811C434.915 217.153 429.91 201.366 427.792 195.591L427.118 193.666C418.84 170.275 412.198 151.793 412.391 129.846C412.487 113.193 433.279 89.8026 441.268 82.1981L448.776 75.075L369.941 3.26599L363.684 7.30887C349.245 16.8385 330.571 22.0364 311.03 22.0364C290.623 22.0364 271.179 16.3572 256.548 6.0575L251.061 2.20712L245.574 6.0575C230.847 16.3572 211.499 22.0364 191.092 22.0364C171.551 22.0364 152.877 16.8385 138.438 7.30887L132.182 3.26599L60.9502 68.1443L53.3458 75.075L60.7577 82.1981C68.7471 89.8026 89.539 113.193 89.7316 129.846C89.8278 151.793 83.2822 170.275 74.9077 193.666L74.2339 195.591C72.2125 201.366 67.1108 217.153 64.7043 238.811C64.3193 242.469 64.0305 246.127 63.838 249.688C63.6454 253.154 63.4529 256.619 63.4529 259.988C63.4529 261.336 63.4529 262.587 63.5492 263.935C59.7951 262.683 56.7148 263.549 55.1747 264.32H55.0784C54.9822 264.32 54.8859 264.416 54.7896 264.512L12.1471 283.956C8.68174 285.496 6.37154 287.999 5.40895 291.272C4.44636 294.449 4.8314 298.106 6.37154 302.245C7.43038 304.941 8.68173 306.866 9.16302 307.54C9.83683 308.791 11.1845 309.561 12.6283 309.561C13.2059 309.561 13.6872 309.465 14.2647 309.272L30.2437 302.149C32.3614 305.229 33.4202 308.31 34.094 310.427L3.09872 322.364C2.80995 322.46 2.61743 322.652 2.52117 322.845C2.42491 323.134 2.42491 323.422 2.52117 323.615L4.35009 328.332C23.6981 376.75 56.6186 418.141 99.4537 447.981C139.305 475.8 185.99 492.068 234.408 494.955L250.387 510.838C250.58 510.934 250.772 511.127 251.061 511.127C251.35 511.127 251.639 510.934 251.735 510.838L267.714 494.955C316.132 492.068 362.817 475.8 402.669 447.981C445.504 418.141 478.424 376.75 497.772 328.332L499.601 323.615C499.697 323.422 499.697 323.134 499.601 322.845Z" fill="#274488"/>
<path d="M237.806 372.977C239.924 371.725 242.138 370.185 242.138 367.201C242.138 364.602 240.213 362.581 237.517 362.581C234.918 362.581 232.897 364.506 232.897 367.105C232.897 369.896 235.111 371.436 237.806 372.977Z" fill="#274488"/>
<path d="M382.926 102.461C380.423 104.001 377.824 104.578 375.995 104.193C376.573 102.172 378.305 99.9581 380.808 98.3217C383.215 96.7815 385.91 96.204 387.739 96.589C387.161 98.7067 385.429 100.921 382.926 102.461ZM378.017 111.509C375.61 113.146 373.011 113.723 371.086 113.242C371.664 111.22 373.396 109.006 375.899 107.466C378.402 105.83 381.001 105.252 382.926 105.734C382.252 107.755 380.519 109.969 378.017 111.509ZM373.3 119.499C370.509 120.076 367.813 119.595 366.177 118.44C367.332 116.803 369.738 115.359 372.53 114.782C375.321 114.204 377.92 114.686 379.557 115.841C378.402 117.477 376.092 118.921 373.3 119.499ZM371.086 337.621C368.487 337.621 365.888 337.717 364.444 337.717C365.214 333.385 365.503 328.38 365.503 322.508V315.481C365.503 310.861 365.118 305.374 358.476 305.374C356.166 305.374 353.856 306.337 352.027 308.069C350.005 310.091 349.428 311.823 349.428 316.829V322.508C349.428 329.92 349.909 334.348 351.064 337.717C349.813 337.717 347.214 337.621 344.711 337.621C342.016 337.621 339.513 337.717 338.166 337.717C338.839 333.385 339.128 328.38 339.128 322.508V312.69C339.128 308.743 338.743 302.871 337.396 298.636C340.957 298.636 345.866 298.636 349.332 298.347L349.043 305.278L352.316 302.486C356.262 299.214 359.439 297.77 363.482 297.77C372.722 297.77 375.899 303.064 375.899 312.112V322.508C375.899 329.92 376.38 334.348 377.535 337.717C376.188 337.717 373.589 337.621 371.086 337.621ZM313.716 338.968C301.299 338.968 293.983 331.749 293.983 319.235C293.983 306.914 301.491 297.866 315.545 297.866C328.058 297.866 335.182 304.989 335.182 317.214C335.182 330.594 326.807 338.968 313.716 338.968ZM293.117 299.31C292.828 300.465 291.961 303.738 291.48 305.085C288.4 304.797 286.571 304.7 284.453 304.7H280.892C280.795 307.396 280.699 310.572 280.699 312.882V321.931C280.699 327.995 281.373 332.519 286.667 332.519C288.304 332.519 289.651 332.134 291.769 331.075C292.154 330.883 292.924 330.883 292.635 332.038C292.154 333.77 291.673 335.407 291.191 337.428C286.378 338.68 284.357 338.968 281.854 338.968C274.924 338.968 270.496 336.081 270.496 326.262V314.037C270.496 310.187 270.496 307.299 270.399 304.604C268.282 304.604 265.972 304.893 264.913 305.085C264.72 305.085 264.143 305.085 264.431 304.219C264.431 303.93 265.49 300.272 265.875 299.021C266.838 299.117 268.763 299.214 270.688 299.214C270.688 296.037 270.496 294.401 270.399 291.994C273.191 291.128 278.293 288.818 280.507 287.47C281.373 286.892 281.758 287.663 281.662 288.529C281.565 289.491 280.988 292.09 280.892 299.214H286.475C288.4 299.214 290.518 299.117 292.539 298.636C292.924 298.54 293.309 298.732 293.117 299.31ZM277.426 392.103C272.132 392.103 268.474 388.927 268.474 384.306C268.474 380.36 270.881 378.146 274.924 375.835C272.421 374.295 269.918 372.274 269.918 368.52C269.918 364.188 273.672 360.723 278.485 360.723C283.106 360.723 286.571 363.707 286.571 367.75C286.571 371.504 283.972 373.429 281.18 374.969C284.55 376.894 287.534 379.205 287.534 383.344C287.534 388.445 283.298 392.103 277.426 392.103ZM255.576 391.044L255.479 391.237H255.287C255.287 391.237 251.822 391.237 249.8 391.429L249.319 390.659L264.143 365.343H254.806C253.362 365.343 251.533 365.536 249.993 366.691L249.8 366.787L249.126 366.402L249.223 366.21C249.704 364.862 250.089 362.552 250.281 361.685V361.493H250.474C251.533 361.493 252.688 361.493 253.939 361.493H264.624C265.972 361.493 266.645 361.493 267.897 361.493L268.186 361.397V361.685C268.186 362.07 268.474 363.996 268.571 364.381L268.667 364.477L268.571 364.573C266.26 367.172 263.565 371.985 261.159 376.221C257.308 383.247 255.864 387.098 255.576 391.044ZM248.934 337.717C247.682 337.717 245.083 337.621 242.677 337.621C240.174 337.621 237.672 337.717 236.131 337.717C236.901 333.193 237.094 329.246 237.094 323.567V313.941C237.094 310.187 236.805 303.256 235.458 299.021C238.442 299.021 243.158 298.925 246.335 298.732L246.239 307.877L249.126 304.123C252.688 299.31 255.191 297.866 258.945 297.866C260.292 297.866 260.966 297.962 262.41 298.636C261.255 302.679 260.1 306.914 259.426 309.417C259.233 309.898 258.752 310.668 258.078 309.802C256.538 308.166 256.249 307.492 254.421 307.492C252.11 307.492 250.281 308.743 248.934 310.957C247.779 312.786 247.394 314.326 247.394 318.08V324.53C247.394 331.46 247.779 334.348 248.934 337.717ZM236.516 391.526C231.222 391.526 227.564 388.253 227.564 383.729C227.564 379.782 230.067 377.568 234.014 375.162C231.511 373.718 229.008 371.6 229.008 367.942C229.008 363.514 232.762 360.145 237.672 360.145C242.292 360.145 245.661 363.129 245.661 367.172C245.661 370.926 243.062 372.851 240.271 374.392C243.64 376.221 246.624 378.531 246.624 382.67C246.624 387.772 242.388 391.526 236.516 391.526ZM223.425 390.756C222.944 390.659 221.981 390.563 221.019 390.563C220.249 390.563 219.479 390.659 218.516 390.756H218.131L218.227 390.467C218.612 388.06 218.709 385.654 218.709 382.959V369.29C218.709 365.44 218.42 365.054 217.168 365.054C216.88 365.054 216.302 365.151 215.628 365.247L213.511 365.728C212.837 365.921 212.452 366.017 211.97 366.306L211.297 365.825L211.393 365.632C211.682 365.054 212.067 364.092 212.259 363.226L212.355 363.033C213.511 362.937 214.377 362.841 215.628 362.552L220.152 361.589C221.019 361.397 221.981 361.204 222.751 360.915H222.848L223.425 361.397L223.329 361.493C222.944 364.092 222.848 366.98 222.848 368.616V383.44C222.848 386.424 223.136 388.83 223.618 390.371L223.714 390.756H223.425ZM197.339 318.754C197.339 306.433 205.136 297.962 216.398 297.962C226.217 297.962 232.281 303.738 232.281 313.171C232.281 313.941 232.281 317.406 230.837 317.406H220.826C216.687 317.406 210.912 317.503 208.313 317.599C208.505 327.032 213.511 332.423 221.981 332.423C225.35 332.423 227.372 331.653 230.163 329.824C230.837 329.343 231.607 329.728 231.222 330.979C230.452 333.77 230.26 334.444 229.586 336.754C226.024 338.006 221.404 339.161 217.265 339.161C205.04 339.161 197.339 330.883 197.339 318.754ZM185.499 329.631C184.344 332.423 183.767 334.54 183.093 337.717C182.227 337.621 180.398 337.621 178.569 337.621C177.029 337.621 175.007 337.717 173.563 337.717C172.986 334.252 172.312 332.134 171.157 328.572L165.959 312.69C164.322 307.877 162.493 302.679 159.028 298.636C164.226 298.829 168.269 298.636 173.274 298.251C173.66 302.101 174.43 305.855 175.585 309.513L178.472 319.524C179.242 321.931 180.783 327.225 180.783 327.225C181.264 325.492 181.938 323.76 182.515 322.316L187.039 310.476C187.81 308.358 188.868 305.182 189.157 302.005C189.157 300.946 189.253 299.887 189.157 298.54C190.312 298.636 192.334 298.636 194.066 298.636C195.606 298.636 198.205 298.443 199.361 298.251C200.516 298.155 200.323 298.829 199.938 299.214C197.243 302.679 195.029 307.396 193.007 312.208L185.499 329.631ZM161.82 329.535C161.242 331.46 159.606 337.525 159.413 338.102C150.557 337.717 144.686 337.717 139.488 337.717C132.942 337.717 128.707 337.717 125.145 337.717C125.723 333.578 126.204 328.765 126.204 322.797V298.058C126.204 294.016 126.011 286.411 124.664 282.85C127.263 283.042 129.188 283.042 131.113 283.042H145.937C151.231 283.042 153.349 282.85 159.124 282.85C158.066 286.604 157.007 290.55 156.525 292.09C156.14 293.631 155.274 292.475 155.178 292.283C152.771 288.721 147.958 288.336 143.531 288.336C142.087 288.336 140.45 288.433 138.429 288.433C138.333 289.78 138.14 293.534 138.14 297V304.989H144.686C149.499 304.989 154.312 304.604 156.237 304.315C157.007 304.315 156.814 304.893 156.814 304.893C156.237 307.107 155.467 309.898 154.985 311.727C149.884 311.246 147.188 311.15 143.627 311.15H138.044V322.316C138.044 329.535 138.814 331.942 147.477 331.942C152.29 331.942 154.985 331.942 160.28 327.995C161.146 327.225 162.301 327.61 161.82 329.535ZM122.546 115.841C124.183 114.686 126.878 114.204 129.669 114.782C132.461 115.359 134.771 116.803 136.022 118.44C134.29 119.595 131.691 120.076 128.899 119.499C126.108 118.921 123.798 117.477 122.546 115.841ZM119.273 105.734C121.199 105.252 123.797 105.83 126.204 107.466C128.707 109.006 130.439 111.22 131.017 113.242C129.188 113.723 126.589 113.146 124.086 111.509C121.68 109.969 119.851 107.755 119.273 105.734ZM114.364 96.589C116.289 96.204 118.888 96.7815 121.391 98.3217C123.894 99.9581 125.626 102.172 126.204 104.193C124.279 104.578 121.68 104.001 119.177 102.461C116.771 100.921 115.038 98.7067 114.364 96.589ZM115.519 74.9308C117.348 75.7009 119.273 77.7223 120.621 80.5138C121.969 83.3053 122.45 86.1931 121.969 88.3108C120.14 87.5407 118.214 85.5193 116.867 82.7278C115.519 79.9363 115.038 77.0485 115.519 74.9308ZM121.006 67.5189C122.45 68.8665 123.797 71.4655 124.279 74.5458C124.76 77.7223 124.279 80.6101 123.316 82.439C121.776 81.0914 120.525 78.4924 120.043 75.4121C119.562 72.2356 119.947 69.3478 121.006 67.5189ZM123.894 65.7862C123.99 62.5134 125.049 59.8182 126.396 58.2781C127.552 60.0107 128.322 62.8022 128.129 66.075C127.937 69.1553 126.974 71.8505 125.626 73.3907C124.471 71.7543 123.701 68.8665 123.894 65.7862ZM127.07 90.9098C128.514 92.2574 129.766 94.8564 130.247 97.9366C130.728 101.113 130.343 104.001 129.284 105.83C127.744 104.482 126.493 101.883 126.011 98.7067C125.626 95.6264 126.011 92.7387 127.07 90.9098ZM124.183 98.4179C122.257 98.0329 119.947 96.4928 118.118 94.0863C116.289 91.5836 115.327 88.8883 115.423 86.7706C117.348 87.0594 119.658 88.5995 121.391 91.006C123.22 93.5087 124.183 96.204 124.183 98.4179ZM122.931 91.006C122.642 89.0808 123.124 86.5781 124.471 84.1716C125.819 81.7652 127.648 80.0325 129.284 79.455C129.669 81.3801 129.092 83.9791 127.744 86.3856C126.493 88.7921 124.568 90.5247 122.931 91.006ZM128.995 72.8131C130.921 71.0804 133.135 70.1179 134.867 70.2141C134.578 72.1393 133.327 74.3533 131.306 76.1822C129.38 77.9148 127.167 78.8774 125.434 78.7812C125.723 76.856 126.974 74.642 128.995 72.8131ZM131.594 62.6097C133.231 60.0107 135.349 58.2781 137.177 57.7005C137.466 59.9145 136.696 62.8022 135.06 65.305C133.52 68.0002 131.306 69.7328 129.477 70.2141C129.284 68.0964 129.958 65.2087 131.594 62.6097ZM137.177 117.092C135.349 116.322 133.52 114.301 132.172 111.509C130.824 108.718 130.536 105.734 131.017 103.712C132.75 104.482 134.675 106.504 136.022 109.295C137.274 112.183 137.659 115.071 137.177 117.092ZM143.338 122.001C141.99 123.638 139.584 124.889 136.792 125.274C133.905 125.659 131.306 124.985 129.766 123.734C131.017 122.194 133.52 120.942 136.311 120.557C139.103 120.172 141.702 120.75 143.338 122.001ZM145.841 116.803C148.151 118.632 149.787 120.942 150.269 122.964C148.343 123.349 145.841 122.579 143.434 120.75C141.028 119.114 139.391 116.707 138.91 114.589C140.835 114.301 143.338 115.071 145.841 116.803ZM151.327 124.408C151.424 124.408 151.424 124.504 151.424 124.504C152.194 124.889 152.964 125.178 153.734 125.563C153.734 125.563 154.6 124.985 156.237 124.408C157.873 123.734 160.087 123.541 162.397 124.215C165.189 124.889 167.403 126.429 168.558 128.162C166.921 129.221 164.322 129.509 161.435 128.836C158.836 128.162 156.622 126.718 155.467 125.082C155.082 125.37 154.793 125.659 154.408 125.948C157.392 127.777 159.798 130.087 162.205 133.167C161.242 134.611 160.857 135.381 159.895 136.825C158.066 132.782 156.237 129.509 153.734 126.718C151.135 129.509 148.921 132.879 147.188 136.825C146.226 135.381 145.744 134.707 144.878 133.264C147.188 130.183 149.884 127.777 152.964 125.948C152.675 125.659 152.29 125.37 152.001 124.985C150.75 126.718 148.632 128.162 145.937 128.836C143.146 129.509 140.45 129.221 138.814 128.162C139.873 126.429 142.183 124.889 144.974 124.215C147.381 123.541 149.595 123.734 151.231 124.408H151.327ZM161.435 116.803C163.841 115.071 166.344 114.301 168.269 114.589C167.788 116.707 166.151 119.114 163.841 120.75C161.435 122.579 158.836 123.349 157.007 122.964C157.392 120.942 159.028 118.632 161.435 116.803ZM170.964 120.557C173.756 120.942 176.162 122.194 177.51 123.734C175.873 124.985 173.274 125.659 170.387 125.274C167.595 124.889 165.189 123.638 163.937 122.001C165.478 120.75 168.076 120.172 170.964 120.557ZM171.253 109.295C172.601 106.504 174.43 104.482 176.258 103.712C176.74 105.734 176.355 108.718 175.007 111.509C173.756 114.301 171.831 116.322 170.002 117.092C169.617 115.071 169.905 112.183 171.253 109.295ZM170.002 57.7005C171.927 58.2781 174.045 60.0107 175.681 62.6097C177.221 65.2087 177.991 68.0964 177.702 70.2141C175.873 69.7328 173.756 68.0002 172.119 65.305C170.483 62.8022 169.809 59.9145 170.002 57.7005ZM181.841 78.7812C180.109 78.8774 177.895 77.9148 175.873 76.1822C173.852 74.3533 172.601 72.1393 172.312 70.2141C174.045 70.1179 176.258 71.0804 178.28 72.8131C180.301 74.642 181.553 76.856 181.841 78.7812ZM180.783 58.2781C182.227 59.8182 183.189 62.5134 183.285 65.7862C183.574 68.8665 182.804 71.7543 181.649 73.3907C180.301 71.8505 179.243 69.1553 179.05 66.075C178.954 62.8022 179.628 60.0107 180.783 58.2781ZM186.269 67.5189C187.328 69.3478 187.713 72.2356 187.232 75.4121C186.751 78.4924 185.403 81.0914 183.959 82.439C182.9 80.6101 182.515 77.7223 182.997 74.5458C183.478 71.4655 184.729 68.8665 186.269 67.5189ZM191.66 74.9308C192.141 77.0485 191.756 79.9363 190.409 82.7278C189.061 85.5193 187.039 87.5407 185.307 88.3108C184.826 86.1931 185.211 83.3053 186.558 80.5138C187.906 77.7223 189.831 75.7009 191.66 74.9308ZM181.071 104.193C181.649 102.172 183.382 99.9581 185.884 98.3217C188.387 96.7815 190.89 96.204 192.815 96.589C192.237 98.7067 190.505 100.921 188.002 102.461C185.499 104.001 182.9 104.578 181.071 104.193ZM180.205 90.9098C181.168 92.7387 181.649 95.6264 181.168 98.7067C180.686 101.883 179.435 104.482 177.895 105.83C176.932 104.001 176.451 101.113 176.932 97.9366C177.414 94.8564 178.665 92.2574 180.205 90.9098ZM185.788 91.006C187.617 88.5995 189.831 87.0594 191.756 86.7706C191.852 88.8883 190.89 91.5836 189.061 94.0863C187.232 96.4928 185.018 98.0329 183.093 98.4179C183.093 96.204 183.959 93.5087 185.788 91.006ZM184.344 91.006C182.612 90.5247 180.783 88.7921 179.435 86.3856C178.087 83.9791 177.606 81.3801 177.895 79.455C179.531 80.0325 181.36 81.7652 182.708 84.1716C184.055 86.5781 184.633 89.0808 184.344 91.006ZM184.633 115.841C183.478 117.477 181.168 118.921 178.28 119.499C175.488 120.076 172.889 119.595 171.253 118.44C172.408 116.803 174.718 115.359 177.606 114.782C180.398 114.204 182.997 114.686 184.633 115.841ZM183.093 111.509C180.686 113.146 177.991 113.723 176.162 113.242C176.74 111.22 178.472 109.006 180.975 107.466C183.478 105.83 186.077 105.252 187.906 105.734C187.328 107.755 185.596 109.969 183.093 111.509ZM207.061 133.841L246.527 49.9998C245.083 46.8233 247.49 42.8766 250.57 42.8766C253.65 42.8766 256.538 46.8232 255.094 49.9035L294.849 133.264C301.587 136.536 304.571 140.675 304.186 143.467C303.897 146.451 301.78 148.28 299.277 149.243C299.47 164.355 298.796 217.971 298.988 248.581C302.357 249.352 302.357 252.913 302.069 264.464C301.876 275.534 302.839 279.288 295.523 279.288C294.56 279.288 292.635 279.192 292.635 279.192V275.438C292.539 273.512 292.539 272.935 291.48 272.55C288.4 271.299 285.127 270.24 281.565 268.796C279.063 267.929 203.788 240.977 203.788 240.977C203.788 240.977 200.323 240.014 200.323 236.645C200.323 236.357 200.227 233.469 200.227 232.506V221.725C200.227 218.934 202.056 217.971 203.692 218.164C203.788 218.164 203.788 217.875 203.788 217.682C203.692 207.768 203.596 155.884 203.596 150.398C200.131 149.339 199.168 146.932 199.168 146.932C197.532 143.371 199.264 137.98 207.061 133.841ZM316.315 98.3217C318.721 99.9581 320.55 102.172 321.128 104.193C319.203 104.578 316.604 104.001 314.197 102.461C311.694 100.921 309.866 98.7067 309.288 96.589C311.213 96.204 313.812 96.7815 316.315 98.3217ZM310.443 74.9308C312.272 75.7009 314.197 77.7223 315.545 80.5138C316.892 83.3053 317.374 86.1931 316.892 88.3108C315.064 87.5407 313.138 85.5193 311.791 82.7278C310.443 79.9363 309.962 77.0485 310.443 74.9308ZM315.93 67.5189C317.47 68.8665 318.721 71.4655 319.203 74.5458C319.684 77.7223 319.299 80.6101 318.24 82.439C316.7 81.0914 315.449 78.4924 314.967 75.4121C314.486 72.2356 314.871 69.3478 315.93 67.5189ZM318.818 65.7862C319.01 62.5134 319.973 59.8182 321.32 58.2781C322.572 60.0107 323.245 62.8022 323.053 66.075C322.86 69.1553 321.898 71.8505 320.55 73.3907C319.299 71.7543 318.625 68.8665 318.818 65.7862ZM323.823 72.8131C325.844 71.0804 328.058 70.1179 329.887 70.2141C329.502 72.1393 328.251 74.3533 326.326 76.1822C324.304 77.9148 321.994 78.8774 320.261 78.7812C320.55 76.856 321.898 74.642 323.823 72.8131ZM326.518 62.6097C328.155 60.0107 330.272 58.2781 332.101 57.7005C332.39 59.9145 331.62 62.8022 330.08 65.305C328.347 68.0002 326.326 69.7328 324.401 70.2141C324.208 68.0964 324.882 65.2087 326.518 62.6097ZM332.101 117.092C330.272 116.322 328.347 114.301 327.096 111.509C325.748 108.718 325.363 105.734 325.844 103.712C327.673 104.482 329.599 106.504 330.85 109.295C332.198 112.183 332.583 115.071 332.101 117.092ZM324.593 114.782C327.385 115.359 329.695 116.803 330.85 118.44C329.214 119.595 326.615 120.076 323.823 119.499C321.032 118.921 318.721 117.477 317.47 115.841C319.203 114.686 321.802 114.204 324.593 114.782ZM326.037 113.242C324.112 113.723 321.513 113.146 319.01 111.509C316.507 109.969 314.775 107.755 314.197 105.734C316.122 105.252 318.721 105.83 321.128 107.466C323.631 109.006 325.363 111.22 326.037 113.242ZM321.994 90.9098C323.534 92.2574 324.786 94.8564 325.171 97.9366C325.652 101.113 325.267 104.001 324.208 105.83C322.668 104.482 321.417 101.883 321.032 98.7067C320.55 95.6264 320.935 92.7387 321.994 90.9098ZM319.01 98.4179C317.181 98.0329 314.871 96.4928 313.042 94.0863C311.213 91.5836 310.251 88.8883 310.347 86.7706C312.272 87.0594 314.486 88.5995 316.315 91.006C318.144 93.5087 319.106 96.204 319.01 98.4179ZM317.855 91.006C317.566 89.0808 318.048 86.5781 319.395 84.1716C320.743 81.7652 322.572 80.0325 324.304 79.455C324.593 81.3801 324.016 83.9791 322.668 86.3856C321.32 88.7921 319.491 90.5247 317.855 91.006ZM338.166 122.001C336.914 123.638 334.508 124.889 331.716 125.274C328.828 125.659 326.326 124.985 324.689 123.734C326.037 122.194 328.347 120.942 331.235 120.557C334.026 120.172 336.625 120.75 338.166 122.001ZM340.765 116.803C343.075 118.632 344.711 120.942 345.192 122.964C343.267 123.349 340.765 122.579 338.358 120.75C335.952 119.114 334.315 116.707 333.834 114.589C335.759 114.301 338.358 115.071 340.765 116.803ZM348.465 125.563C349.139 125.178 349.909 124.889 350.679 124.504C350.775 124.504 350.775 124.408 350.872 124.408C352.604 123.734 354.818 123.541 357.129 124.215C359.92 124.889 362.23 126.429 363.385 128.162C361.653 129.221 358.957 129.509 356.262 128.836C353.567 128.162 351.353 126.718 350.198 124.985C349.813 125.37 349.524 125.659 349.139 125.948C352.316 127.777 355.011 130.183 357.321 133.264C356.358 134.707 355.973 135.381 355.011 136.825C353.278 132.879 351.064 129.509 348.465 126.718C345.963 129.509 344.037 132.782 342.208 136.825C341.342 135.381 340.861 134.611 339.995 133.167C342.305 130.087 344.711 127.777 347.695 125.948C347.406 125.659 347.021 125.37 346.733 125.082C345.481 126.718 343.364 128.162 340.668 128.836C337.877 129.509 335.278 129.221 333.545 128.162C334.7 126.429 336.914 124.889 339.706 124.215C342.016 123.541 344.23 123.734 345.963 124.408C347.503 124.985 348.465 125.563 348.465 125.563ZM356.358 116.803C358.765 115.071 361.268 114.301 363.193 114.589C362.712 116.707 361.075 119.114 358.765 120.75C356.358 122.579 353.76 123.349 351.834 122.964C352.316 120.942 353.952 118.632 356.358 116.803ZM365.888 120.557C368.68 120.942 371.086 122.194 372.337 123.734C370.797 124.985 368.198 125.659 365.407 125.274C362.519 124.889 360.113 123.638 358.861 122.001C360.401 120.75 363 120.172 365.888 120.557ZM366.177 109.295C367.525 106.504 369.353 104.482 371.182 103.712C371.664 105.734 371.279 108.718 370.027 111.509C368.68 114.301 366.754 116.322 365.022 117.092C364.444 115.071 364.829 112.183 366.177 109.295ZM364.926 57.7005C366.851 58.2781 368.968 60.0107 370.605 62.6097C372.241 65.2087 372.915 68.0964 372.722 70.2141C370.797 69.7328 368.68 68.0002 367.043 65.305C365.407 62.8022 364.733 59.9145 364.926 57.7005ZM376.765 78.7812C375.033 78.8774 372.819 77.9148 370.797 76.1822C368.776 74.3533 367.524 72.1393 367.236 70.2141C368.968 70.1179 371.182 71.0804 373.204 72.8131C375.225 74.642 376.477 76.856 376.765 78.7812ZM375.803 58.2781C377.15 59.8182 378.113 62.5134 378.305 65.7862C378.402 68.8665 377.728 71.7543 376.573 73.3907C375.129 71.8505 374.166 69.1553 374.07 66.075C373.878 62.8022 374.551 60.0107 375.803 58.2781ZM381.193 67.5189C382.156 69.3478 382.637 72.2356 382.156 75.4121C381.675 78.4924 380.327 81.0914 378.883 82.439C377.824 80.6101 377.439 77.7223 377.92 74.5458C378.402 71.4655 379.653 68.8665 381.193 67.5189ZM380.712 91.006C382.541 88.5995 384.755 87.0594 386.68 86.7706C386.776 88.8883 385.814 91.5836 383.985 94.0863C382.156 96.4928 379.942 98.0329 378.017 98.4179C377.92 96.204 378.883 93.5087 380.712 91.006ZM376.092 98.7067C375.61 101.883 374.359 104.482 372.819 105.83C371.856 104.001 371.375 101.113 371.856 97.9366C372.337 94.8564 373.589 92.2574 375.129 90.9098C376.092 92.7387 376.573 95.6264 376.092 98.7067ZM374.359 86.3856C373.011 83.9791 372.53 81.3801 372.819 79.455C374.455 80.0325 376.284 81.7652 377.632 84.1716C378.979 86.5781 379.557 89.0808 379.172 91.006C377.535 90.5247 375.706 88.7921 374.359 86.3856ZM386.584 74.9308C387.065 77.0485 386.68 79.9363 385.236 82.7278C383.888 85.5193 381.963 87.5407 380.231 88.3108C379.749 86.1931 380.134 83.3053 381.482 80.5138C382.83 77.7223 384.755 75.7009 386.584 74.9308ZM434.713 75.2196L368.968 15.3467C353.471 25.4539 333.256 31.6144 311.021 31.6144C287.822 31.6144 266.742 24.8763 251.051 13.9028C235.361 24.8763 214.281 31.6144 191.082 31.6144C168.847 31.6144 148.632 25.4539 133.231 15.3467L67.3899 75.2196C67.3899 75.2196 99.1553 105.349 99.3478 129.702C99.444 154.152 92.2247 173.885 83.2726 198.816C79.9998 208.153 76.1494 222.88 74.3205 239.918C73.9355 243.191 73.5505 246.753 73.3579 250.314C73.1654 253.491 73.1654 256.763 73.0692 260.036C72.9729 280.251 76.4382 301.813 86.6416 320.487C88.1818 323.278 89.8182 325.973 91.6471 328.572C96.9413 336.177 139.969 407.408 231.318 416.745L231.703 417.034L251.051 436.382L270.496 417.034L270.785 416.745C362.134 407.408 405.162 336.177 410.456 328.572C412.285 325.973 414.017 323.278 415.461 320.487C425.665 301.813 429.13 280.251 429.034 260.036C429.034 256.763 428.938 253.491 428.745 250.314C428.553 246.753 428.167 243.191 427.879 239.918C425.954 222.88 422.199 208.153 418.83 198.816C409.975 173.885 402.659 154.152 402.851 129.702C402.948 105.349 434.713 75.2196 434.713 75.2196Z" fill="#274488"/>
<path d="M278.687 373.583C280.805 372.332 283.019 370.792 283.019 367.807C283.019 365.209 281.094 363.187 278.399 363.187C275.8 363.187 273.875 365.112 273.875 367.711C273.875 370.503 275.992 372.043 278.687 373.583Z" fill="#274488"/>
<path d="M277.426 377.27C273.865 379.002 272.132 381.313 272.132 384.104C272.132 387.184 274.442 389.495 277.715 389.495C280.988 389.495 283.491 387.184 283.491 384.104C283.491 381.12 281.469 379.484 277.426 377.27Z" fill="#274488"/>
<path d="M236.536 376.673C232.974 378.406 231.241 380.716 231.241 383.507C231.241 386.588 233.552 388.898 236.824 388.898C240.097 388.898 242.6 386.491 242.6 383.507C242.6 380.523 240.579 378.887 236.536 376.673Z" fill="#274488"/>
</svg>
