<svg width="419" height="512" viewBox="0 0 419 512" fill="none" xmlns="http://www.w3.org/2000/svg">
<path d="M207.682 5.0176C208.757 5.0688 210.447 5.0688 211.445 5.0176C212.444 4.992 211.573 4.9408 209.5 4.9408C207.426 4.9408 206.607 4.992 207.682 5.0176Z" fill="white"/>
<path d="M202.946 5.22235C202.485 5.27355 200.847 5.45275 199.311 5.58075C197.775 5.73435 195.036 6.06715 193.218 6.32315C191.426 6.60475 187.97 7.19355 185.564 7.65435C183.183 8.14075 179.394 8.95995 177.192 9.47195C174.991 10.0095 171.1 11.0335 168.565 11.7503C166.031 12.4671 161.832 13.7215 159.221 14.5407C156.61 15.3599 152.028 16.9215 149.032 17.9711C146.012 19.0463 141.25 20.8127 138.46 21.9135C135.644 23.0143 131.215 24.8319 128.629 25.9071C126.018 27.0079 121.692 28.9023 119.029 30.1055C116.341 31.3087 112.911 32.8703 111.375 33.6127C109.839 34.3551 107.279 35.5839 105.666 36.3519C104.053 37.0943 100.188 39.0655 97.0387 40.7039C93.9155 42.3423 89.4099 44.7231 87.0803 46.0031C84.7507 47.2575 80.8595 49.4591 78.4531 50.8415C76.0467 52.2495 71.8483 54.7327 69.1091 56.3967C66.3699 58.0863 62.0435 60.7999 59.5091 62.4639C56.9747 64.1279 53.1091 66.7391 50.8819 68.3007C48.6803 69.8367 45.6851 71.9871 44.2259 73.0623C42.7411 74.1376 39.8995 76.3391 37.9027 77.9263C35.9059 79.5391 33.0643 81.8687 31.5795 83.1231C30.1203 84.3775 27.1763 87.0912 25.0515 89.1648C22.9523 91.2384 20.3667 93.9008 19.3171 95.104C18.0371 96.5888 16.9619 98.1759 15.9635 100.07C14.7603 102.349 14.3251 103.552 13.5315 106.624C12.9939 108.672 12.1747 112.179 11.6883 114.381C11.2275 116.557 10.4083 120.934 9.84513 124.058C9.30753 127.206 8.56513 132.326 8.15553 135.45C7.77153 138.573 7.23393 143.539 6.95233 146.483C6.69633 149.402 6.41473 152.832 6.33793 154.112C6.26113 155.366 6.08193 158.592 5.95393 161.254C5.82593 163.917 5.72353 170.854 5.72353 176.64C5.72353 182.451 5.82593 189.363 5.95393 192.026C6.08193 194.688 6.26113 197.914 6.33793 199.168C6.41473 200.448 6.64513 203.443 6.82433 205.85C7.02913 208.23 7.46433 212.71 7.79713 215.782C8.12993 218.854 8.74433 223.59 9.12833 226.33C9.53793 229.043 10.1779 233.242 10.5875 235.648C10.9971 238.054 11.9187 242.944 12.6355 246.554C13.3523 250.138 14.5043 255.437 15.1955 258.304C15.8611 261.171 17.0899 265.958 17.8835 268.954C18.7027 271.974 20.2131 277.248 21.2627 280.704C22.3123 284.186 23.9507 289.254 24.9235 291.994C25.8707 294.707 27.3043 298.701 28.0979 300.826C28.9171 302.95 30.5555 307.149 31.7587 310.144C32.9619 313.165 34.8563 317.619 35.9571 320.102C37.0579 322.56 38.7987 326.374 39.8483 328.576C40.8723 330.778 43.0483 335.13 44.6355 338.253C46.2483 341.402 48.9107 346.368 50.5235 349.286C52.1619 352.23 54.9523 357.018 56.7187 359.962C58.4851 362.88 60.9683 366.925 62.2483 368.922C63.5283 370.918 65.8323 374.4 67.3683 376.678C68.9043 378.931 71.5411 382.694 73.2051 385.024C74.8691 387.354 77.6083 391.066 79.2723 393.267C80.9363 395.469 84.2387 399.667 86.6195 402.586C88.9747 405.53 92.2771 409.498 93.9411 411.443C95.6051 413.363 98.0371 416.154 99.3427 417.613C100.648 419.098 103.618 422.298 105.922 424.781C108.226 427.238 113.525 432.64 117.724 436.762C121.922 440.909 127.144 445.926 129.346 447.923C131.548 449.92 135.106 453.094 137.231 454.938C139.381 456.806 143.375 460.211 146.114 462.464C148.853 464.742 152.668 467.866 154.613 469.402C156.533 470.938 160.808 474.214 164.085 476.646C167.362 479.104 172.098 482.611 174.658 484.403C177.192 486.195 182.108 489.6 185.564 491.93C189.045 494.285 193.858 497.434 196.264 498.97C198.671 500.48 202.664 502.963 205.122 504.474C208.552 506.573 209.704 507.161 209.986 506.982C210.191 506.829 213.519 504.73 217.384 502.298C221.276 499.866 227.829 495.616 231.976 492.851C236.098 490.086 241.525 486.374 243.983 484.608C246.466 482.867 250.997 479.539 254.069 477.235C257.141 474.931 261.57 471.552 263.9 469.709C266.255 467.866 270.658 464.282 273.756 461.722C276.828 459.162 280.744 455.834 282.485 454.298C284.2 452.787 287.477 449.869 289.756 447.795C292.034 445.747 297.999 439.962 303.042 434.97C308.06 429.952 313.948 423.885 316.124 421.504C318.3 419.098 322.012 414.899 324.367 412.16C326.722 409.446 330.664 404.685 333.122 401.638C335.58 398.566 338.959 394.189 340.674 391.936C342.364 389.658 345.026 386.022 346.613 383.821C348.175 381.619 350.735 377.907 352.322 375.578C353.884 373.248 356.648 368.998 358.44 366.131C360.232 363.264 362.869 358.963 364.277 356.557C365.685 354.15 367.989 350.08 369.423 347.469C370.856 344.883 373.8 339.2 375.976 334.874C378.127 330.547 381.096 324.326 382.556 321.05C383.989 317.798 386.396 312.064 387.906 308.326C389.416 304.614 391.567 298.931 392.719 295.731C393.845 292.531 395.56 287.462 396.482 284.467C397.429 281.472 398.76 277.12 399.426 274.79C400.117 272.435 401.32 268.032 402.114 264.96C402.908 261.888 403.983 257.485 404.52 255.155C405.058 252.826 405.928 248.73 406.466 246.067C407.004 243.405 407.823 238.925 408.284 236.134C408.744 233.344 409.461 228.71 409.871 225.843C410.255 222.976 410.869 218.163 411.202 215.168C411.535 212.173 412.047 206.72 412.303 203.059C412.559 199.398 412.917 193.382 413.071 189.722C413.224 185.626 413.301 178.893 413.199 172.16C413.122 166.17 412.943 159.462 412.789 157.261C412.661 155.059 412.328 150.656 412.047 147.456C411.791 144.256 411.228 139.059 410.844 135.936C410.434 132.813 409.794 128.23 409.384 125.747C408.975 123.29 408.207 119.091 407.669 116.429C407.132 113.766 406.21 109.67 405.621 107.341C404.751 103.859 404.316 102.63 403.138 100.352C402.268 98.6112 401.167 96.896 400.168 95.7439C399.324 94.72 397.404 92.6463 395.919 91.1359C394.46 89.6255 391.72 87.0143 389.852 85.3503C387.983 83.6863 385.013 81.1519 383.298 79.7439C381.557 78.3103 378.972 76.2879 377.589 75.2127C376.181 74.1375 373.288 71.9871 371.138 70.4767C369.013 68.9407 365.557 66.5343 363.484 65.1519C361.41 63.7439 357.928 61.4399 355.727 60.0319C353.525 58.6495 349.532 56.1919 346.844 54.6047C344.181 52.9919 340.034 50.5599 337.628 49.2031C335.221 47.8207 330.946 45.4911 328.156 43.9807C325.34 42.4703 319.656 39.5775 315.509 37.5039C311.388 35.4303 305.192 32.4863 301.788 30.9503C298.383 29.4143 293.647 27.3151 291.24 26.2911C288.834 25.2671 284.738 23.5775 282.127 22.5535C279.516 21.5039 275.266 19.8911 272.655 18.9439C270.044 18.0223 265.564 16.4863 262.696 15.5391C259.829 14.5919 255.656 13.2863 253.455 12.6207C251.253 11.9807 247.311 10.8799 244.725 10.2143C242.114 9.54875 237.839 8.57595 235.253 8.03835C232.642 7.50075 229.084 6.83515 227.343 6.57915C225.628 6.29755 222.709 5.88795 220.917 5.68315C218.792 5.42715 215.183 5.24795 210.703 5.19675C206.914 5.17115 203.407 5.17115 202.946 5.22235Z" fill="#0060A9"/>
<path d="M205.481 19.2768C204.815 19.328 202.921 19.4816 201.231 19.6352C199.567 19.7888 196.777 20.096 195.036 20.352C193.321 20.608 190.146 21.1456 187.996 21.5808C185.871 21.9904 182.364 22.7584 180.239 23.2704C178.089 23.7824 174.428 24.7552 172.098 25.4208C169.769 26.0864 166.159 27.1616 164.085 27.8272C162.012 28.4928 158.172 29.7728 155.586 30.6688C152.975 31.5392 148.981 32.9984 146.703 33.8688C144.45 34.7392 140.405 36.352 137.717 37.4528C135.055 38.528 130.473 40.4992 127.529 41.8048C124.585 43.1104 120.105 45.1328 117.57 46.336C115.036 47.5136 109.89 50.048 106.153 51.968C102.415 53.8624 97.3718 56.4992 94.991 57.7792C92.5846 59.0848 88.4118 61.4144 85.7494 62.9504C83.087 64.4608 78.479 67.2 75.535 68.992C72.6166 70.8096 68.1878 73.6 65.7046 75.2384C63.247 76.8768 59.2534 79.5904 56.847 81.3312C54.4406 83.0464 51.1126 85.504 49.423 86.784C47.759 88.0384 45.3014 90.0096 43.9702 91.1104C42.639 92.2112 40.1814 94.3616 38.5174 95.8464C36.8278 97.3312 34.4982 99.584 33.295 100.838C32.0918 102.093 30.479 103.808 29.711 104.678L28.3286 106.24C26.639 112.819 25.7686 116.582 25.3078 118.861C24.8214 121.114 24.1302 124.877 23.7206 127.206C23.311 129.536 22.7478 133.094 22.4918 135.091C22.2102 137.088 21.775 140.749 21.519 143.206C21.263 145.664 20.879 149.811 20.6742 152.422C20.4694 155.008 20.1878 159.923 20.0342 163.328C19.855 167.168 19.8038 173.773 19.8806 180.89C19.9574 187.136 20.1878 194.714 20.3926 197.734C20.5974 200.73 20.879 204.442 21.0326 205.952C21.1606 207.488 21.4934 210.765 21.7494 213.222C22.031 215.706 22.4662 219.418 22.7222 221.466C23.0038 223.539 23.6182 227.558 24.079 230.426C24.5398 233.293 25.359 237.926 25.8966 240.742C26.4342 243.533 27.3558 248.013 27.9702 250.675C28.559 253.338 29.6598 257.869 30.3766 260.736C31.0934 263.578 32.4246 268.442 33.295 271.514C34.1654 274.586 35.9062 280.141 37.1606 283.853C38.3894 287.59 40.4374 293.325 41.6662 296.576C42.895 299.853 44.8662 304.819 46.0438 307.61C47.1958 310.4 48.8342 314.214 49.679 316.083C50.5238 317.952 52.5974 322.33 54.287 325.786C55.9766 329.242 58.4854 334.208 59.8678 336.819C61.2502 339.405 63.4774 343.45 64.8086 345.779C66.1398 348.109 68.495 352.077 70.031 354.611C71.567 357.146 74.7158 362.061 77.0198 365.517C79.2982 368.998 82.7542 374.016 84.6486 376.678C86.5686 379.341 89.3334 383.104 90.7926 385.024C92.2774 386.97 95.1446 390.605 97.167 393.139C99.215 395.674 102.645 399.821 104.821 402.355C106.997 404.89 109.762 408.038 110.965 409.37C112.169 410.726 115.266 414.029 117.826 416.768C120.386 419.507 124.943 424.141 127.938 427.059C130.933 430.003 135.337 434.202 137.743 436.403C140.124 438.605 143.836 441.933 145.986 443.802C148.111 445.67 151.849 448.819 154.255 450.842C156.636 452.838 159.989 455.552 161.653 456.909C163.317 458.24 166.773 460.902 169.308 462.848C171.842 464.794 175.554 467.558 177.551 469.043C179.573 470.502 183.234 473.114 185.692 474.854C188.175 476.57 192.706 479.667 195.778 481.715C198.85 483.763 203.177 486.579 205.378 487.962C209.065 490.291 209.423 490.445 209.986 490.189C210.319 490.035 213.212 488.218 216.412 486.144C219.637 484.07 225.193 480.358 228.802 477.901C232.412 475.418 237.455 471.885 239.989 470.042C242.524 468.198 246.901 464.947 249.692 462.797C252.508 460.672 256.937 457.19 259.522 455.066C262.133 452.966 266.613 449.229 269.481 446.771C272.373 444.314 276.623 440.576 278.978 438.451C281.308 436.326 285.455 432.41 288.194 429.722C290.933 427.059 295.311 422.707 297.922 420.045C300.533 417.382 304.297 413.389 306.293 411.187C308.29 409.011 311.26 405.683 312.873 403.814C314.485 401.946 317.097 398.848 318.709 396.902C320.322 394.982 323.266 391.296 325.263 388.762C327.26 386.202 330.409 382.003 332.303 379.418C334.172 376.832 336.809 373.146 338.165 371.226C339.497 369.28 342.057 365.414 343.874 362.624C345.666 359.808 348.405 355.456 349.941 352.922C351.452 350.387 353.756 346.47 355.036 344.192C356.316 341.939 358.671 337.562 360.284 334.515C361.897 331.443 364.38 326.528 365.762 323.61C367.145 320.666 368.911 316.851 369.679 315.136C370.447 313.395 372.034 309.683 373.212 306.893C374.364 304.077 376.233 299.392 377.333 296.474C378.434 293.53 380.149 288.742 381.148 285.798C382.146 282.88 383.58 278.349 384.373 275.738C385.167 273.152 386.242 269.44 386.78 267.52C387.292 265.574 388.085 262.682 388.495 261.094C388.93 259.482 389.852 255.616 390.569 252.493C391.285 249.344 392.361 244.275 392.975 241.229C393.564 238.157 394.434 233.19 394.921 230.195C395.407 227.2 396.047 222.618 396.38 220.006C396.713 217.421 397.199 213.069 397.481 210.33C397.762 207.59 398.146 203.059 398.351 200.269C398.53 197.478 398.812 192.563 398.94 189.363C399.093 186.163 399.196 180.454 399.196 176.64C399.196 172.851 399.093 167.296 398.94 164.275C398.812 161.28 398.607 157.133 398.453 155.085C398.325 153.011 397.993 149.094 397.737 146.355C397.455 143.616 396.969 139.264 396.636 136.653C396.303 134.067 395.74 130.253 395.407 128.179C395.074 126.106 394.409 122.522 393.948 120.192C393.487 117.862 392.617 114.022 392.002 111.642C391.413 109.286 390.799 107.008 390.645 106.624C390.466 106.24 389.058 104.499 387.522 102.81C385.961 101.094 383.119 98.2784 381.199 96.5376C379.279 94.7968 376.335 92.2368 374.671 90.88C372.981 89.4976 369.935 87.0912 367.861 85.5296C365.788 83.9936 362.613 81.6896 360.821 80.4096C359.004 79.1296 356.06 77.1072 354.268 75.9296C352.45 74.7264 349.071 72.5248 346.741 71.0656C344.386 69.6064 340.469 67.2 337.986 65.7408C335.503 64.2816 332.124 62.3104 330.46 61.3632C328.796 60.416 325.442 58.5984 323.061 57.2928C320.655 56.0128 315.279 53.2224 311.157 51.1232C307.01 49.024 301.225 46.2336 298.281 44.8768C295.337 43.5456 290.754 41.4976 288.066 40.3456C285.404 39.168 281.205 37.4272 278.722 36.4032C276.239 35.4048 271.938 33.7408 269.122 32.7168C266.332 31.6672 261.34 29.952 258.089 28.8768C254.812 27.8016 250.383 26.4192 248.233 25.8048C246.108 25.1904 242.447 24.192 240.092 23.6288C237.762 23.04 233.948 22.1696 231.593 21.7088C229.263 21.2224 226.217 20.6848 224.809 20.48C223.401 20.2496 220.841 19.9424 219.1 19.7632C217.359 19.5584 213.852 19.3792 211.317 19.3024C208.783 19.2512 206.172 19.2256 205.481 19.2768Z" fill="#FFE003"/>
<path d="M206.223 68.2241C205.429 68.2753 203.407 68.4289 201.717 68.5825C200.053 68.7361 196.93 69.0945 194.805 69.4273C192.655 69.7345 189.224 70.3233 187.151 70.7585C185.077 71.1681 181.263 72.0641 178.651 72.7041C176.04 73.3441 171.739 74.5217 169.051 75.3409C166.389 76.1345 162.242 77.4657 159.835 78.2849C157.429 79.1041 153.717 80.4353 151.567 81.2289C149.442 82.0225 145.499 83.5585 142.837 84.6081C140.149 85.6833 136.002 87.4497 133.595 88.4993C131.189 89.5745 126.274 91.8785 122.664 93.6449C119.055 95.3857 114.037 97.9713 111.503 99.3281C108.968 100.71 104.975 102.989 102.619 104.397C100.29 105.805 96.7826 107.981 94.8626 109.235C92.917 110.49 89.9218 112.563 88.181 113.843C86.4402 115.098 83.8802 117.069 82.4722 118.221C81.0642 119.347 78.3506 121.805 76.4306 123.699C74.5106 125.568 72.3346 127.898 71.5666 128.896C70.7986 129.92 69.9282 131.379 69.621 132.173C69.3138 132.992 68.8018 134.605 68.4946 135.808C68.1874 137.011 67.7778 139.187 67.5474 140.672C67.3426 142.131 67.061 144.358 66.933 145.638C66.805 146.893 66.6258 149.171 66.5234 150.707C66.421 152.243 66.3442 158.362 66.3698 164.275C66.3954 170.214 66.4722 175.514 66.5234 176.026C66.6002 176.563 66.6514 177.741 66.677 178.637V180.275H352.194C352.475 176.794 352.629 171.827 352.706 166.963C352.808 161.357 352.757 156.134 352.578 152.781C352.424 149.837 352.143 146.022 351.963 144.307C351.759 142.566 351.375 139.955 351.119 138.47C350.863 137.011 350.351 134.963 350.018 133.939C349.685 132.915 349.147 131.533 348.815 130.918C348.507 130.278 347.202 128.563 345.947 127.104C344.667 125.619 342.671 123.546 341.493 122.47C340.29 121.395 338.498 119.834 337.499 118.989C336.501 118.118 334.146 116.275 332.277 114.893C330.408 113.51 327.029 111.13 324.751 109.645C322.472 108.134 318.709 105.779 316.379 104.371C314.024 102.989 310.491 100.941 308.469 99.8401C306.472 98.7393 301.711 96.3073 297.922 94.4129C294.107 92.5185 288.859 90.0097 286.248 88.8577C283.637 87.7057 280.155 86.2209 278.491 85.5297C276.802 84.8385 273.09 83.3793 270.223 82.2785C267.355 81.1521 262.363 79.3601 259.163 78.2849C255.963 77.1841 251.714 75.8273 249.691 75.2385C247.695 74.6497 244.418 73.7281 242.421 73.2161C240.399 72.6785 237.019 71.8593 234.869 71.3985C232.744 70.9121 229.083 70.2209 226.754 69.8113C224.399 69.4273 220.789 68.9153 218.741 68.7105C216.667 68.5313 213.314 68.3009 211.317 68.2497C209.32 68.1985 207.016 68.1985 206.223 68.2241Z" fill="#0060A9"/>
<path d="M208.552 77.3631C208.117 78.5919 207.323 80.8704 206.76 82.432L205.736 85.2736C199.49 85.2224 197.467 85.3503 196.008 85.6063C194.805 85.8111 192.911 86.2976 191.759 86.6304C190.632 86.9888 188.763 87.7568 187.637 88.32C186.511 88.9088 184.821 89.9072 183.874 90.5728C182.952 91.2128 181.442 92.4672 180.571 93.312C179.701 94.1568 178.319 95.744 177.525 96.7936C176.757 97.8688 175.707 99.5072 175.221 100.429C174.735 101.376 173.992 102.989 173.583 104.013C173.173 105.037 172.61 106.829 172.328 107.955L171.842 110.003C163.189 110.003 160.629 110.08 160.578 110.182C160.527 110.285 162.498 111.846 164.955 113.638C167.413 115.43 169.435 116.992 169.435 117.094C169.435 117.197 169.077 118.118 168.667 119.168C168.258 120.192 167.618 122.061 167.285 123.341C166.722 125.44 166.671 126.054 166.645 130.611C166.645 135.27 166.696 135.731 167.311 137.984C167.669 139.315 168.565 141.619 169.282 143.078C169.999 144.538 171.253 146.611 172.047 147.686C172.84 148.762 174.402 150.477 175.528 151.526C176.655 152.576 178.651 154.163 179.983 155.034C181.314 155.904 182.44 156.621 182.466 156.646C182.491 156.646 181.698 159.104 180.699 162.099C179.701 165.094 178.882 167.578 178.907 167.629C178.907 167.654 179.01 167.68 179.138 167.68C179.266 167.68 181.416 166.195 183.874 164.403C186.357 162.611 188.456 161.152 188.559 161.152C188.661 161.152 189.275 161.613 189.941 162.202C190.607 162.765 192.04 163.84 193.115 164.531C194.165 165.248 195.931 166.246 196.981 166.733C198.056 167.245 199.618 167.859 200.463 168.141C201.282 168.422 202.767 168.806 203.739 169.037C204.687 169.242 206.683 169.472 208.168 169.549C209.653 169.626 211.752 169.549 212.904 169.421C214.031 169.267 215.848 168.909 216.898 168.653C217.973 168.371 219.714 167.757 220.789 167.296C221.864 166.835 223.554 165.99 224.527 165.427C225.525 164.864 227.24 163.661 228.367 162.765C229.467 161.869 230.44 161.126 230.517 161.126C230.568 161.126 232.616 162.56 235.074 164.326C237.506 166.067 239.631 167.578 239.81 167.654C239.989 167.731 239.682 166.451 239.016 164.403C238.427 162.534 237.608 160.026 237.199 158.822C236.507 156.826 236.482 156.646 236.866 156.416C237.071 156.288 238.197 155.546 239.349 154.803C240.501 154.035 242.293 152.627 243.368 151.654C244.418 150.656 245.979 148.941 246.824 147.814C247.669 146.688 248.795 144.922 249.307 143.923C249.845 142.925 250.664 140.979 251.125 139.571C251.586 138.163 252.098 136.09 252.277 134.963C252.456 133.683 252.507 131.558 252.431 129.28C252.328 126.797 252.123 125.005 251.791 123.648C251.509 122.547 250.895 120.653 250.434 119.45C249.947 118.246 249.563 117.171 249.563 117.043C249.563 116.89 251.535 115.354 253.941 113.587C256.347 111.821 258.267 110.285 258.191 110.182C258.139 110.08 255.605 110.003 252.61 110.003H247.157C246.927 108.979 246.543 107.597 246.133 106.24C245.723 104.909 245.032 103.014 244.546 102.016C244.085 101.018 243.035 99.1488 242.191 97.8944C241.346 96.6144 239.784 94.72 238.735 93.6704C237.685 92.6208 236.047 91.2128 235.125 90.5728C234.178 89.9072 232.539 88.9343 231.49 88.3967C230.415 87.8335 228.597 87.0911 227.471 86.7071C226.344 86.3231 224.424 85.8367 223.221 85.6063C221.813 85.3503 219.611 85.1967 217.051 85.1967L213.058 85.1712C210.498 77.3888 209.653 75.1104 209.525 75.1104C209.397 75.1104 208.962 76.1343 208.552 77.3631Z" fill="white"/>
<path d="M209.141 78.925C209.09 79.1554 208.757 80.973 208.399 82.9186C208.066 84.8898 207.81 86.8866 207.81 87.3474C207.81 87.8082 207.733 88.1922 207.682 88.1922C207.605 88.1922 207.093 87.9618 206.53 87.6546C205.813 87.2962 204.943 87.0914 203.791 87.0402C202.536 86.9634 201.743 87.0658 200.744 87.4242C199.951 87.7314 198.978 88.3458 198.261 89.037C197.621 89.6514 196.828 90.701 196.469 91.4178C196.111 92.109 195.266 93.261 194.575 93.9778C193.909 94.6946 192.322 96.077 191.042 97.0242C189.762 97.997 187.816 99.405 186.664 100.147C185.538 100.89 184.002 101.76 183.26 102.093C182.543 102.426 181.109 102.887 180.111 103.091C179.112 103.296 177.858 103.731 177.32 104.039C176.783 104.346 176.015 104.986 175.631 105.421C175.247 105.882 174.658 106.855 174.325 107.597C173.967 108.391 173.711 109.415 173.711 110.131C173.685 110.797 173.736 111.616 173.839 111.949L174.018 112.563C171.484 112.077 169.231 111.744 167.362 111.488C165.493 111.258 163.906 111.079 163.829 111.13C163.778 111.181 163.829 111.36 163.983 111.514C164.136 111.693 166.184 112.819 168.514 113.997L172.764 116.199C171.535 117.325 170.92 118.195 170.588 118.861C170.152 119.808 170.05 120.499 170.05 122.01C170.05 123.469 170.152 124.211 170.536 125.031C170.818 125.619 171.663 126.797 172.431 127.642C173.25 128.538 174.172 129.946 174.76 131.149C175.272 132.25 176.194 134.682 176.808 136.551C177.423 138.419 178.088 140.749 178.293 141.747C178.549 142.976 178.652 144.589 178.6 146.714C178.549 149.479 178.6 150.016 179.036 150.963C179.317 151.552 179.957 152.525 180.495 153.088C181.007 153.677 182.005 154.419 182.671 154.727C183.336 155.059 184.207 155.315 184.616 155.315C185 155.315 185.41 155.367 185.512 155.443C185.615 155.495 185.256 156.365 184.693 157.312C184.156 158.285 183.106 160.307 182.389 161.792C181.647 163.328 181.186 164.583 181.314 164.659C181.468 164.711 183.208 163.2 185.205 161.255L188.866 157.747C189.736 159.591 190.402 160.384 191.17 160.973C191.836 161.485 192.988 162.074 193.704 162.279C194.524 162.509 195.573 162.611 196.392 162.535C197.135 162.483 198.466 162.099 199.413 161.664C200.36 161.229 201.666 160.768 202.332 160.64C202.997 160.512 205.685 160.333 208.296 160.256C211.957 160.154 213.57 160.205 215.516 160.512C217.205 160.768 218.536 161.152 219.637 161.664C221.045 162.355 221.532 162.458 223.221 162.458C224.68 162.458 225.448 162.33 226.268 161.971C226.856 161.69 227.778 161.101 228.29 160.64C228.802 160.179 229.442 159.36 229.724 158.823C229.98 158.311 230.236 157.799 230.287 157.747C230.338 157.671 231.08 158.387 231.925 159.309C232.77 160.256 234.434 161.869 235.586 162.893C236.738 163.917 237.736 164.659 237.788 164.531C237.864 164.403 236.943 162.355 235.74 159.975C234.536 157.619 233.564 155.623 233.538 155.571C233.538 155.495 233.948 155.367 234.46 155.29C234.946 155.213 235.74 154.983 236.226 154.752C236.687 154.547 237.532 153.959 238.12 153.447C238.709 152.935 239.477 151.936 239.836 151.194C240.424 149.939 240.476 149.658 240.476 146.125C240.501 143.053 240.578 142.003 241.013 140.416C241.295 139.341 242.037 137.011 242.652 135.219C243.266 133.402 244.162 131.226 244.648 130.355C245.109 129.485 246.056 128.179 246.696 127.463C247.362 126.72 248.13 125.619 248.412 125.031C248.821 124.186 248.949 123.495 248.949 122.01C248.975 120.397 248.872 119.834 248.335 118.733C247.976 117.991 247.336 117.095 246.927 116.736L246.184 116.071C250.408 114.023 252.431 112.973 253.404 112.435C254.376 111.898 255.17 111.36 255.17 111.232C255.17 111.079 254.786 111.027 254.248 111.104C253.762 111.181 251.868 111.437 250.05 111.693C248.258 111.949 246.389 112.256 245.877 112.359L244.981 112.563C245.365 110.643 245.365 109.85 245.186 109.107C245.058 108.467 244.623 107.418 244.264 106.752C243.906 106.087 243.087 105.139 242.421 104.627C241.756 104.09 240.655 103.527 239.989 103.322C239.324 103.143 238.556 102.963 238.274 102.963C238.018 102.963 237.199 102.733 236.456 102.426C235.714 102.119 234.255 101.351 233.18 100.685C232.104 100.019 229.98 98.5346 228.444 97.3826C226.908 96.2306 225.013 94.5922 224.22 93.7474C223.426 92.9026 222.53 91.6738 222.223 91.0594C221.89 90.4194 221.224 89.4978 220.738 89.037C220.226 88.5506 219.381 87.9362 218.844 87.6546C218.152 87.2962 217.282 87.117 215.823 87.0402C214.031 86.9634 213.596 87.0146 212.597 87.5266C211.957 87.8338 211.394 88.013 211.317 87.9618C211.24 87.885 211.189 87.5266 211.189 87.1682C211.189 86.8098 210.984 85.2738 210.728 83.789C210.472 82.2786 210.165 80.4866 210.037 79.7698C209.909 79.0786 209.704 78.5154 209.551 78.5154C209.397 78.5154 209.218 78.6946 209.141 78.925Z" fill="#0060A9"/>
<path d="M201.359 88.2432C200.975 88.3968 200.181 88.832 199.593 89.216C198.876 89.7024 198.236 90.496 197.417 91.8784C196.623 93.2352 195.701 94.3616 194.447 95.5136C193.449 96.4352 191.247 98.1504 189.583 99.3536C187.919 100.531 185.615 101.99 184.489 102.579C183.337 103.168 181.596 103.808 180.597 104.038C179.573 104.269 178.268 104.755 177.628 105.165C176.962 105.574 176.143 106.394 175.733 107.034C175.349 107.674 174.914 108.672 174.786 109.286C174.633 109.952 174.633 110.746 174.786 111.334C174.914 111.872 175.17 112.563 175.375 112.845C175.58 113.152 175.81 113.408 175.913 113.382C176.015 113.382 176.578 113.818 177.141 114.355C177.961 115.149 178.626 115.482 180.546 116.045C181.826 116.454 183.669 116.915 184.617 117.069C185.948 117.299 186.665 117.299 187.996 117.069C189.429 116.813 189.839 116.813 190.556 117.094C191.017 117.274 191.657 117.76 191.964 118.144C192.322 118.605 192.501 119.168 192.501 119.757C192.501 120.371 192.297 120.909 191.887 121.395C191.529 121.83 190.965 122.189 190.505 122.266C190.069 122.342 189.378 122.317 188.969 122.214C188.585 122.138 187.535 121.395 186.665 120.576C185.666 119.654 184.463 118.835 183.388 118.349C182.466 117.914 180.777 117.299 179.676 116.941C177.884 116.378 177.474 116.326 175.81 116.506C174.479 116.634 173.685 116.864 173.122 117.248C172.687 117.555 172.021 118.374 171.663 119.066C171.151 120.064 171.023 120.627 171.023 122.01C171.023 123.29 171.151 123.955 171.561 124.723C171.842 125.286 172.661 126.387 173.353 127.155C174.172 128.051 175.017 129.382 175.759 130.97C176.399 132.301 177.346 134.81 177.909 136.55C178.447 138.266 179.087 140.57 179.292 141.619C179.599 143.078 179.65 144.23 179.548 146.125C179.42 147.994 179.471 148.966 179.727 149.862C179.932 150.554 180.495 151.552 181.007 152.141C181.519 152.755 182.466 153.472 183.157 153.779C183.823 154.086 184.796 154.342 185.333 154.368C185.922 154.368 186.537 154.189 186.921 153.907C187.253 153.651 187.996 153.216 188.559 152.934C189.276 152.55 189.967 151.859 190.94 150.528C191.682 149.504 192.706 147.789 193.244 146.714C193.858 145.485 194.293 144.205 194.447 143.206C194.626 141.85 194.78 141.517 195.522 140.851C196.188 140.237 196.597 140.058 197.365 140.058C197.877 140.058 198.543 140.16 198.825 140.288C199.081 140.442 199.465 140.877 199.669 141.261C199.874 141.67 200.028 142.285 200.028 142.669C200.028 143.027 199.797 143.718 199.49 144.179C199.132 144.717 198.389 145.28 197.468 145.741C196.597 146.176 195.394 147.072 194.447 148.045C193.577 148.915 192.297 150.477 191.58 151.501C190.889 152.55 190.3 153.651 190.3 153.984C190.3 154.317 190.172 154.957 189.967 155.392C189.737 155.955 189.685 156.467 189.865 157.261C189.967 157.85 190.377 158.72 190.761 159.206C191.145 159.667 192.041 160.384 192.757 160.768C193.884 161.382 194.319 161.485 195.778 161.485C197.135 161.459 197.775 161.306 199.055 160.717C199.925 160.307 201.282 159.821 202.101 159.642C203.125 159.411 205.327 159.309 209.628 159.334C214.543 159.334 216.002 159.411 217.333 159.744C218.229 159.974 219.535 160.461 220.252 160.794C220.943 161.152 222.018 161.485 222.607 161.562C223.247 161.638 224.245 161.536 225.039 161.306C225.935 161.05 226.78 160.589 227.548 159.872C228.213 159.283 228.879 158.413 229.084 157.875C229.365 157.184 229.417 156.544 229.289 155.674C229.186 155.008 228.93 154.035 228.7 153.498C228.444 152.96 227.778 151.885 227.189 151.091C226.601 150.272 225.449 148.941 224.655 148.096C223.657 147.021 222.761 146.33 221.711 145.843C220.866 145.459 219.97 144.845 219.689 144.486C219.433 144.102 219.125 143.488 219.049 143.078C218.946 142.592 219.074 142.029 219.381 141.389C219.74 140.646 220.098 140.339 220.815 140.083C221.66 139.802 221.865 139.827 222.709 140.211C223.221 140.467 223.836 140.979 224.066 141.389C224.297 141.798 224.553 142.72 224.655 143.437C224.732 144.179 225.167 145.536 225.628 146.483C226.063 147.405 227.061 149.043 227.829 150.118C228.572 151.168 229.493 152.294 229.852 152.627C230.21 152.934 231.055 153.446 231.721 153.754C232.386 154.086 233.333 154.342 233.794 154.342C234.255 154.342 235.074 154.138 235.612 153.907C236.149 153.651 236.943 153.139 237.404 152.755C237.865 152.371 238.505 151.501 238.863 150.835C239.452 149.683 239.503 149.478 239.426 146.483C239.375 144.256 239.477 142.746 239.759 141.389C239.989 140.314 240.655 137.984 241.218 136.166C241.807 134.374 242.831 131.814 243.497 130.483C244.213 128.998 245.109 127.616 245.801 126.899C246.415 126.285 247.132 125.312 247.388 124.8C247.669 124.262 247.951 123.366 248.028 122.778C248.105 122.214 248.053 121.216 247.9 120.55C247.746 119.885 247.311 118.886 246.901 118.298C246.466 117.709 245.749 117.094 245.135 116.787C244.469 116.48 243.573 116.326 242.601 116.326C241.602 116.301 240.425 116.531 239.196 116.941C238.146 117.274 236.405 117.99 235.305 118.502C233.948 119.142 232.924 119.834 232.156 120.678C231.362 121.472 230.671 121.958 230.031 122.138C229.34 122.317 228.828 122.317 228.265 122.138C227.829 122.01 227.241 121.574 226.985 121.216C226.652 120.781 226.498 120.192 226.498 119.526C226.498 118.707 226.652 118.349 227.241 117.76C227.625 117.35 228.316 116.966 228.751 116.89C229.186 116.813 230.133 116.864 230.876 117.043C231.618 117.197 232.745 117.274 233.436 117.197C234.101 117.12 235.714 116.762 236.994 116.429C238.3 116.096 240.015 115.507 240.783 115.123C241.551 114.739 242.524 114.048 242.959 113.562C243.394 113.075 243.855 112.41 243.983 112.077C244.111 111.744 244.239 110.95 244.213 110.31C244.213 109.67 244.085 108.774 243.906 108.314C243.753 107.827 243.317 107.034 242.959 106.547C242.601 106.061 241.705 105.318 241.013 104.934C240.322 104.525 239.093 104.115 238.274 103.962C237.429 103.834 235.893 103.27 234.639 102.63C233.436 102.016 231.081 100.557 229.417 99.3536C227.753 98.176 225.551 96.4352 224.553 95.5136C223.426 94.464 222.377 93.2352 221.762 92.1856C221.225 91.264 220.457 90.1888 220.073 89.7792C219.663 89.3696 218.895 88.832 218.357 88.576C217.641 88.192 216.898 88.0896 215.439 88.0896C213.749 88.0896 213.34 88.1664 212.597 88.6784C212.111 89.0112 211.42 89.728 211.087 90.2656C210.754 90.8032 210.345 91.8272 210.191 92.5696C210.037 93.3888 209.986 95.0016 210.063 96.7936C210.14 98.4064 210.396 100.301 210.601 101.043C210.831 101.786 211.292 102.861 211.625 103.475C212.137 104.346 212.213 104.755 212.111 105.651C212.009 106.445 211.778 106.906 211.215 107.392C210.677 107.904 210.217 108.058 209.5 108.058C208.706 108.058 208.373 107.904 207.682 107.213C206.991 106.547 206.837 106.189 206.837 105.395C206.837 104.806 207.145 103.782 207.682 102.682C208.399 101.171 208.553 100.506 208.783 98.0224C208.937 96.4352 208.988 94.464 208.885 93.6704C208.809 92.8512 208.501 91.6992 208.245 91.1104C207.989 90.496 207.529 89.7536 207.247 89.4464C206.94 89.1136 206.274 88.6528 205.737 88.4224C205.148 88.1408 204.252 87.9872 203.433 87.9872C202.69 87.9872 201.769 88.1152 201.359 88.2432Z" fill="white"/>
<path d="M189.941 91.8272L186.05 93.7216C181.16 98.5856 179.855 100.07 179.983 100.147C180.111 100.198 182.005 99.4304 184.181 98.4064L188.123 96.5632C192.834 91.5712 194.191 90.0864 194.191 90.0096C194.191 89.9584 194.114 89.9072 194.011 89.9072C193.909 89.9072 192.091 90.7776 189.941 91.8272ZM225.039 90.3168C225.039 90.4192 226.421 91.9552 228.136 93.696L231.234 96.9216C236.891 99.5072 238.607 100.224 238.709 100.173C238.811 100.122 237.608 98.7136 236.047 97.0496L233.179 94.0032C227.061 91.008 225.243 90.1376 225.167 90.1376C225.09 90.1376 225.039 90.2144 225.039 90.3168ZM205.122 109.491C204.251 109.722 203.048 110.131 202.459 110.413C201.845 110.669 200.795 111.258 200.13 111.718C199.439 112.179 198.517 112.87 198.056 113.28C197.595 113.69 196.699 114.662 196.034 115.456C195.368 116.25 194.472 117.683 194.037 118.605C193.602 119.552 193.064 121.011 192.834 121.882C192.578 122.88 192.424 124.416 192.424 126.003C192.424 127.898 192.552 129.05 192.962 130.483C193.269 131.558 193.883 133.12 194.344 133.99C194.805 134.861 195.829 136.346 196.648 137.267C197.467 138.189 198.645 139.315 199.259 139.776C199.874 140.211 201.154 140.954 202.101 141.389C203.023 141.85 204.559 142.387 205.48 142.618C206.453 142.848 208.194 143.027 209.499 143.027C210.805 143.027 212.546 142.848 213.519 142.618C214.44 142.387 216.13 141.773 217.282 141.21C218.946 140.39 219.739 139.802 221.531 138.01C223.323 136.243 223.938 135.424 224.757 133.76C225.32 132.634 225.96 130.995 226.191 130.125C226.447 129.126 226.575 127.616 226.575 126.003C226.575 124.39 226.421 122.88 226.165 121.882C225.935 121.011 225.295 119.373 224.731 118.246C223.912 116.582 223.323 115.789 221.531 113.997C219.739 112.205 218.971 111.616 217.282 110.797C216.13 110.259 214.491 109.645 213.621 109.414C212.648 109.184 211.035 109.056 209.371 109.056C207.605 109.056 206.171 109.21 205.122 109.491Z" fill="#0060A9"/>
<path d="M207.426 109.978C206.761 110.08 205.916 110.259 205.557 110.336C204.969 110.464 204.892 110.592 204.943 111.258C204.994 112.026 205.071 112.051 207.068 112.614C208.809 113.101 209.321 113.152 210.345 112.947C211.01 112.819 212.188 112.538 212.956 112.333C214.261 111.974 214.364 111.898 214.364 111.232C214.364 110.541 214.261 110.49 213.212 110.259C212.572 110.157 211.292 109.978 210.345 109.926C209.423 109.85 208.092 109.875 207.426 109.978Z" fill="#FFE003"/>
<path d="M202.69 111.36C201.974 111.718 200.873 112.333 200.258 112.742C199.67 113.178 198.774 113.894 198.262 114.355C197.75 114.842 197.34 115.302 197.34 115.405C197.34 115.507 197.647 115.686 198.031 115.789L198.697 115.994C198.313 120.755 198.338 121.318 198.62 121.446C198.799 121.549 199.977 122.061 201.231 122.624L203.561 123.622L209.27 119.936L209.142 113.766C207.631 113.306 206.556 112.998 205.788 112.794C204.431 112.435 204.406 112.41 204.406 111.59C204.406 111.13 204.329 110.746 204.226 110.746C204.124 110.746 203.433 111.027 202.69 111.36ZM214.799 111.539C214.722 112.256 214.62 112.333 213.391 112.717C212.649 112.922 211.548 113.254 210.959 113.434L209.858 113.766C209.782 118.272 209.833 119.706 209.935 119.859C210.038 120.013 211.369 120.986 212.905 122.035L215.695 123.955L220.79 122.47C220.892 119.475 220.969 118.374 221.046 118.067C221.122 117.734 221.481 117.376 222.018 117.146L222.863 116.787C221.25 114.842 220.15 113.792 219.33 113.203C218.537 112.614 217.436 111.923 216.898 111.642C216.386 111.386 215.695 111.078 215.388 110.95C214.902 110.771 214.85 110.848 214.799 111.539Z" fill="white"/>
<path d="M196.264 116.634C195.931 117.043 195.291 118.221 194.831 119.219C194.37 120.218 193.832 121.805 193.653 122.726C193.448 123.674 193.346 124.493 193.448 124.57C193.525 124.672 193.832 124.8 194.139 124.877C194.6 125.005 194.933 124.723 196.213 123.162L197.749 121.267C198.056 117.709 198.082 116.557 198.031 116.429C197.954 116.301 197.672 116.122 197.365 116.019C196.955 115.891 196.699 116.045 196.264 116.634ZM222.325 117.555C221.685 117.786 221.659 117.862 221.506 120.141L221.327 122.496C223.656 126.259 224.066 126.72 224.501 126.72C224.808 126.72 225.218 126.669 225.397 126.618C225.627 126.541 225.781 126.182 225.781 125.645C225.781 125.158 225.602 123.955 225.397 122.906C225.192 121.882 224.629 120.192 224.143 119.142C223.631 118.118 223.17 117.274 223.093 117.299C223.042 117.299 222.683 117.427 222.325 117.555ZM206.837 122.112C205.429 123.059 204.2 123.853 204.072 123.878C203.97 123.904 204.2 125.261 204.61 126.848C204.994 128.461 205.378 130.048 205.455 130.432L205.608 131.098H212.776C214.389 125.542 214.85 123.93 214.799 123.93C214.747 123.904 213.672 123.187 212.418 122.317C211.138 121.421 209.935 120.653 209.73 120.576C209.525 120.474 208.347 121.114 206.837 122.112Z" fill="#FFE003"/>
<path d="M196.341 123.725C194.856 125.517 194.78 125.568 193.96 125.389L193.116 125.235C193.397 127.974 193.653 129.434 193.858 130.253C194.088 131.046 194.626 132.454 195.087 133.402L195.932 135.091L197.237 133.734C200.335 135.245 201.384 135.68 201.538 135.68C201.717 135.68 202.127 135.27 202.46 134.784C202.818 134.272 203.535 133.222 204.098 132.429L205.122 130.97L203.407 124.186C199.567 122.419 198.312 121.882 198.184 121.882C198.031 121.882 197.212 122.701 196.341 123.725ZM217.871 123.853C216.54 124.237 215.388 124.621 215.311 124.723C215.208 124.826 214.696 126.413 214.133 128.23L213.135 131.584C215.874 134.758 216.77 135.68 216.898 135.68C217.052 135.68 218.152 135.27 219.381 134.784L221.634 133.888C222.479 134.707 222.812 134.963 222.914 134.963C223.016 134.963 223.477 134.221 223.938 133.325C224.373 132.429 224.911 131.098 225.116 130.355C225.32 129.638 225.551 128.563 225.628 128C225.756 127.053 225.73 126.976 225.295 127.104C225.013 127.155 224.578 127.258 224.322 127.334C223.912 127.437 223.58 127.053 222.428 125.286C221.634 124.058 220.866 123.11 220.661 123.11C220.482 123.136 219.228 123.469 217.871 123.853Z" fill="white"/>
<path d="M170.229 129.946C170.28 130.227 170.588 132.173 170.895 134.247L171.432 137.984C174.402 143.719 175.349 145.434 175.503 145.511C175.631 145.562 175.733 145.331 175.733 144.973C175.733 144.589 175.528 142.643 175.247 140.595L174.76 136.909C171.56 131.072 170.511 129.383 170.357 129.383C170.204 129.383 170.127 129.613 170.229 129.946ZM246.082 133.453L244.008 137.267C243.24 143.079 243.01 145.024 243.01 145.331C243.01 145.613 243.112 145.869 243.189 145.869C243.292 145.869 244.264 144.205 245.314 142.183L247.26 138.471C248.207 131.789 248.412 129.792 248.335 129.741C248.232 129.69 247.234 131.354 246.082 133.453Z" fill="#0060A9"/>
<path d="M203.765 133.734C202.895 134.938 202.152 136.013 202.178 136.115C202.178 136.218 202.92 137.114 203.765 138.112C205.224 139.802 205.327 139.981 204.994 140.416C204.815 140.698 204.661 141.03 204.661 141.21C204.636 141.363 205.199 141.645 205.916 141.798C206.607 141.952 208.22 142.08 209.5 142.08C210.78 142.08 212.392 141.952 213.084 141.798L214.364 141.517C213.8 140.57 213.621 140.211 213.621 140.109C213.621 140.006 214.236 139.11 214.952 138.112C215.695 137.114 216.284 136.192 216.232 136.064C216.181 135.936 215.336 134.861 214.338 133.709L212.546 131.61L205.404 131.584L203.765 133.734Z" fill="white"/>
<path d="M196.725 134.963C196.264 135.45 196.264 135.475 197.007 136.371C197.416 136.858 198.415 137.779 199.208 138.419C199.976 139.059 201.231 139.904 201.973 140.288C202.716 140.698 203.509 141.005 203.74 141.005C203.97 141.03 204.277 140.8 204.405 140.544C204.61 140.134 204.405 139.75 203.125 138.214C201.82 136.627 201.333 136.243 199.669 135.424C198.594 134.886 197.596 134.477 197.442 134.477C197.314 134.477 196.981 134.707 196.725 134.963ZM219.125 135.424C217.026 136.269 216.898 136.371 215.541 138.189C214.159 139.981 214.133 140.083 214.466 140.672C214.824 141.261 214.85 141.261 215.746 140.902C216.258 140.698 217.256 140.16 217.973 139.75C218.664 139.315 219.893 138.394 220.687 137.702C221.48 136.986 222.197 136.166 222.274 135.885C222.351 135.526 222.248 135.168 221.967 134.886C221.711 134.656 221.48 134.477 221.404 134.502C221.327 134.502 220.303 134.938 219.125 135.424Z" fill="#FFE003"/>
<path d="M204.764 162.97C202.485 163.43 200.591 163.84 200.514 163.917C200.437 163.994 200.565 164.096 200.745 164.147C200.949 164.198 202.921 164.557 205.122 164.915L209.141 165.555C215.925 164.454 217.717 164.07 217.666 163.917C217.641 163.789 215.746 163.328 213.493 162.893C211.266 162.458 209.295 162.125 209.167 162.125C209.013 162.15 207.042 162.534 204.764 162.97ZM64.8598 203.11C64.9366 204.621 65.1158 207.846 65.2438 210.33C65.3718 212.787 65.6534 216.55 65.8582 218.675C66.063 220.826 66.2422 222.592 66.2678 222.618C66.2934 222.643 70.8246 217.728 76.303 211.712C81.807 205.67 86.2614 200.678 86.2102 200.576C86.159 200.474 81.295 200.397 75.4326 200.397H64.7318L64.8598 203.11ZM106.281 209.894C101.519 215.117 96.3478 220.8 94.735 222.566C93.1222 224.307 87.183 230.835 81.4998 237.082C75.8166 243.328 71.0294 248.678 70.8246 248.96C70.543 249.37 70.543 249.677 70.799 250.778C70.9526 251.52 71.695 254.515 72.4118 257.459C73.1286 260.378 74.3062 264.858 75.023 267.392C75.7654 269.926 76.9686 273.869 77.711 276.173C78.4534 278.477 79.1702 280.397 79.3238 280.474C79.4518 280.55 86.3638 273.101 94.6838 263.936C103.029 254.771 115.241 241.331 121.845 234.061C128.45 226.816 137.973 216.346 143.017 210.816C148.034 205.286 152.105 200.678 152.053 200.576C151.977 200.474 143.605 200.397 133.417 200.397H114.882L106.281 209.894Z" fill="#0060A9"/>
<path d="M179.138 306.944L179.112 413.491C188.072 421.862 190.658 424.038 192.732 425.498C194.421 426.65 197.749 428.902 200.156 430.515C202.562 432.102 205.608 434.099 206.94 434.918C209.064 436.25 209.448 436.403 209.935 436.173C210.216 436.045 212.52 434.586 215.029 432.973C217.538 431.36 221.813 428.493 224.552 426.624C228.751 423.731 230.312 422.451 234.69 418.406L239.861 413.619V200.397H179.138V306.944Z" fill="white"/>
<path d="M266.972 200.576C266.921 200.678 270.428 204.672 274.805 209.485C279.157 214.298 288.732 224.819 296.053 232.883C303.401 240.922 316.149 254.95 324.418 264.064C332.687 273.152 339.522 280.602 339.625 280.602C339.727 280.602 340.546 278.349 341.442 275.584C342.338 272.794 343.695 268.365 344.437 265.702C345.205 263.014 346.409 258.381 347.125 255.386C347.842 252.39 348.431 249.754 348.431 249.523C348.431 249.293 342.953 243.072 336.245 235.699C329.538 228.352 319.58 217.395 314.076 211.354L304.092 200.397C275.42 200.397 267.049 200.474 266.972 200.576ZM332.789 200.576C332.738 200.678 333.993 202.163 335.605 203.904C337.193 205.645 341.647 210.509 345.461 214.733C349.301 218.957 352.527 222.336 352.629 222.234C352.732 222.157 352.911 221.21 353.039 220.134C353.141 219.085 353.321 217.446 353.397 216.499C353.474 215.578 353.628 212.966 353.756 210.688C353.884 208.435 354.063 205.184 354.114 203.469L354.268 200.397C337.705 200.397 332.866 200.474 332.789 200.576ZM224.066 207.437C223.477 207.565 222.223 208.026 221.276 208.461C220.354 208.922 218.997 209.766 218.306 210.355C217.615 210.944 216.489 212.122 215.772 212.992C214.978 213.99 213.775 216.09 212.495 218.752L210.473 222.925C209.244 222.694 208.348 222.413 207.682 222.131C207.017 221.875 206.146 221.466 205.737 221.21L204.994 220.774C204.738 222.157 204.636 222.694 204.636 222.874C204.636 223.027 205.225 223.437 205.916 223.77C206.607 224.102 207.759 224.512 208.476 224.666C209.474 224.922 209.73 225.075 209.602 225.357C209.5 225.536 208.578 228.045 207.503 230.912C206.453 233.779 205.097 237.44 204.482 239.027C203.868 240.64 202.997 242.714 202.537 243.635L201.743 245.35C199.183 244.71 197.57 244.506 196.495 244.506C195.445 244.506 193.884 244.659 193.039 244.864C192.22 245.043 190.786 245.581 189.916 246.016C189.02 246.426 187.765 247.27 187.125 247.885C186.485 248.474 185.743 249.472 185.461 250.061C185.205 250.675 184.975 251.52 184.975 251.93C184.975 252.365 185.103 253.082 185.282 253.517C185.461 253.952 185.922 254.618 186.332 254.976C186.716 255.36 187.74 255.872 188.61 256.128C189.481 256.41 191.17 256.691 192.373 256.768C194.191 256.896 194.857 256.845 196.265 256.41C197.186 256.128 198.671 255.437 199.541 254.874C200.412 254.336 201.692 253.261 202.409 252.518C203.1 251.776 203.689 251.085 203.689 250.982C203.663 250.88 203.817 250.778 203.97 250.778C204.149 250.778 204.866 251.187 205.609 251.674C206.351 252.186 207.989 253.082 209.269 253.722C210.524 254.362 212.239 255.104 213.084 255.386C213.929 255.642 215.285 255.974 216.13 256.102C216.949 256.205 218.357 256.256 219.228 256.205C220.073 256.128 221.711 255.872 222.863 255.616C223.989 255.334 225.73 254.694 226.754 254.182C227.753 253.67 229.314 252.544 230.236 251.699C231.157 250.88 232.412 249.421 233.026 248.499C233.973 247.04 234.153 246.605 234.153 245.581C234.153 244.634 234.076 244.378 233.717 244.326C233.487 244.275 232.565 244.864 231.669 245.632C230.773 246.374 229.314 247.475 228.444 248.038C227.573 248.576 226.293 249.267 225.602 249.549C224.553 249.958 223.785 250.061 221.455 250.061C219.893 250.061 217.615 249.907 216.412 249.702C215.209 249.523 213.519 249.139 212.649 248.883C211.778 248.602 210.114 248.013 208.962 247.526C207.785 247.066 206.837 246.579 206.837 246.477C206.837 246.4 207.324 245.478 207.887 244.48C208.476 243.482 209.807 240.973 210.831 238.925C211.881 236.851 213.186 234.01 213.749 232.627C214.338 231.219 215.081 229.146 215.439 228.019L216.079 225.946C217.845 225.638 219.305 225.203 220.431 224.819C221.557 224.41 223.145 223.744 223.964 223.36C224.757 222.95 226.063 222.182 226.857 221.645C227.676 221.082 228.879 220.109 229.57 219.418C230.261 218.726 231.209 217.395 231.746 216.371C232.642 214.656 232.693 214.451 232.693 212.326C232.693 210.125 232.693 210.099 231.849 209.254C231.388 208.768 230.441 208.154 229.775 207.872C229.058 207.565 227.881 207.334 226.857 207.283C225.935 207.232 224.681 207.309 224.066 207.437Z" fill="#0060A9"/>
<path d="M223.964 211.021C223.554 211.123 222.812 211.456 222.325 211.763C221.839 212.07 221.122 212.736 220.764 213.197C220.303 213.786 219.56 215.552 218.639 218.317C217.871 220.646 217.308 222.618 217.384 222.694C217.487 222.746 218.613 222.438 219.893 222.003C221.199 221.568 222.965 220.774 223.836 220.288C224.706 219.776 225.756 218.957 226.191 218.47C226.626 217.984 227.215 217.139 227.496 216.576C227.778 215.987 228.06 215.04 228.111 214.451C228.213 213.632 228.111 213.146 227.727 212.557C227.445 212.122 226.984 211.635 226.677 211.43C226.396 211.251 225.807 211.046 225.397 210.97C225.013 210.918 224.348 210.918 223.964 211.021Z" fill="white"/>
<path d="M150.671 233.523C146.217 238.413 133.442 252.467 122.281 264.73C111.145 276.992 98.9079 290.432 95.0935 294.605C91.3047 298.778 88.1559 302.336 88.1047 302.49C88.0535 302.643 89.8967 306.483 92.1751 311.014C94.4279 315.546 97.4487 321.254 98.8567 323.738C100.265 326.195 101.519 328.294 101.596 328.397C101.698 328.499 105.333 324.659 109.66 319.898C114.012 315.136 124.994 303.078 134.082 293.069C143.17 283.085 152.54 272.768 154.895 270.182L159.196 265.446C159.273 231.757 159.196 224.845 159.017 224.768C158.889 224.691 155.125 228.634 150.671 233.523ZM259.778 245.043V265.446C270.556 277.274 280.053 287.693 287.81 296.218C295.567 304.742 305.372 315.52 309.57 320.154C315.407 326.579 317.276 328.499 317.481 328.269C317.634 328.09 318.965 325.837 320.425 323.251C321.909 320.64 324.265 316.288 325.673 313.549C327.055 310.81 328.847 307.2 329.641 305.485L331.074 302.387C329.717 301.005 325.621 296.499 321.09 291.507C316.559 286.515 307.932 277.018 301.916 270.413C295.9 263.808 284.073 250.803 275.625 241.51C267.177 232.218 260.162 224.614 260.009 224.614C259.855 224.614 259.778 231.578 259.778 245.043Z" fill="#0060A9"/>
<path d="M193.32 246.605C192.629 246.835 191.708 247.373 191.298 247.757C190.863 248.166 190.351 248.781 190.172 249.165C189.992 249.523 189.813 250.163 189.813 250.598C189.813 251.059 189.992 251.571 190.248 251.802C190.479 252.006 190.914 252.314 191.221 252.467C191.528 252.595 192.45 252.723 193.295 252.749C194.421 252.749 195.112 252.595 196.008 252.16C196.7 251.827 197.724 251.034 198.338 250.368C198.927 249.702 199.592 248.883 199.772 248.525C200.13 247.936 200.104 247.859 199.669 247.526C199.388 247.322 198.696 247.014 198.082 246.784C197.493 246.579 196.444 246.374 195.778 246.298C194.959 246.221 194.14 246.323 193.32 246.605Z" fill="white"/>
<path d="M201.231 267.187C200.514 267.392 199.26 267.878 198.492 268.314C197.698 268.749 196.418 269.773 195.625 270.592C194.831 271.437 194.191 272.256 194.191 272.41C194.191 272.589 194.473 272.998 194.831 273.331L195.445 273.92C196.623 272.435 197.365 271.616 197.826 271.181C198.313 270.72 199.209 270.106 199.849 269.773C200.668 269.363 201.41 269.21 202.46 269.21C203.689 269.21 203.996 269.312 204.533 269.824C205.02 270.31 205.122 270.643 205.122 271.744C205.122 272.538 204.917 273.664 204.61 274.483C204.303 275.251 203.305 277.222 202.383 278.886C201.436 280.576 199.516 283.878 198.133 286.285C196.725 288.691 194.549 292.352 193.269 294.4C191.631 297.037 190.709 298.854 190.146 300.467C189.685 301.773 189.276 303.539 189.199 304.589C189.071 305.946 189.122 306.765 189.455 307.866C189.762 308.966 190.121 309.555 190.991 310.4C191.836 311.219 192.501 311.603 193.602 311.91C194.498 312.166 195.932 312.346 197.365 312.346C198.645 312.346 200.284 312.166 201.052 311.987C201.82 311.782 203.074 311.296 203.842 310.912C204.61 310.528 205.916 309.683 206.709 309.018C207.503 308.352 208.501 307.354 208.885 306.79C209.295 306.253 209.705 305.792 209.807 305.792C209.909 305.792 210.063 306.202 210.165 306.714C210.242 307.2 210.729 308.224 211.215 308.941C211.676 309.683 212.521 310.63 213.033 311.04C213.57 311.475 214.645 312.115 215.439 312.474C216.796 313.088 217.103 313.114 219.228 313.011C220.994 312.934 221.762 312.781 222.607 312.346C223.221 312.038 224.015 311.501 224.399 311.168C224.783 310.81 225.372 309.965 225.73 309.299C226.268 308.275 226.37 307.814 226.37 306.15C226.345 304.896 226.217 303.898 225.935 303.309C225.602 302.592 225.397 302.413 224.86 302.413C224.501 302.387 223.938 302.566 223.657 302.771C223.145 303.104 223.119 303.206 223.375 304.026C223.529 304.538 223.58 305.331 223.503 305.792C223.426 306.278 223.042 306.944 222.607 307.379C221.89 308.045 221.737 308.096 219.945 308.096C218.076 308.096 217.999 308.07 217.154 307.251C216.642 306.765 216.181 305.997 216.028 305.434C215.874 304.896 215.849 303.974 215.951 303.36C216.028 302.771 216.386 301.517 216.719 300.595C217.052 299.648 218.357 296.704 219.586 294.042C220.841 291.379 223.196 286.413 224.86 283.008C226.549 279.629 228.802 275.149 229.877 273.075C230.953 271.027 231.849 269.133 231.849 268.902C231.849 268.646 231.618 268.442 231.311 268.365C231.004 268.314 229.775 268.16 228.572 268.006L226.37 267.75C225.449 268.851 224.143 271.206 222.889 273.715C221.634 276.25 218.153 283.469 215.157 289.792C212.162 296.141 209.372 301.85 208.937 302.49C208.501 303.155 207.503 304.307 206.709 305.05C205.916 305.792 204.482 306.79 203.561 307.251C202.127 307.942 201.487 308.096 199.746 308.224C197.673 308.326 197.647 308.326 196.956 307.61C196.495 307.149 196.188 306.509 196.06 305.792C195.932 305.05 196.009 304.128 196.29 302.899C196.546 301.773 197.237 300.032 198.082 298.394C198.85 296.934 200.591 293.786 201.973 291.379C203.356 288.973 205.506 285.158 206.786 282.906C208.041 280.627 209.628 277.683 210.268 276.352C211.164 274.534 211.445 273.664 211.445 272.845C211.445 272.205 211.189 271.232 210.831 270.49C210.447 269.67 209.909 269.005 209.321 268.595C208.809 268.262 207.785 267.776 207.017 267.52C206.249 267.238 204.943 266.982 204.098 266.931C203.253 266.906 201.973 267.008 201.231 267.187ZM155.305 300.877C153.385 302.976 144.86 312.346 136.386 321.664C127.913 330.982 120.924 338.688 120.847 338.739C120.796 338.816 119.081 340.659 117.084 342.835L113.449 346.778C114.729 348.544 116.418 350.797 118.031 352.922C119.644 355.046 122.306 358.502 123.97 360.55C125.634 362.624 127.887 365.338 128.962 366.566C130.037 367.821 130.985 368.794 131.061 368.742C131.138 368.717 132.29 367.488 133.621 366.029C134.927 364.57 141.25 357.658 147.625 350.643L159.221 337.894C159.221 306.022 159.119 297.062 159.017 297.062C158.889 297.062 157.225 298.778 155.305 300.877ZM259.778 317.491L259.804 337.894C268.533 347.494 273.628 353.101 276.777 356.557C279.925 359.987 283.689 364.16 285.148 365.773C286.633 367.411 287.938 368.742 288.066 368.691C288.22 368.666 289.781 366.899 291.573 364.774C293.34 362.65 296.079 359.296 297.666 357.274C299.228 355.277 301.532 352.23 302.786 350.49C304.066 348.774 305.167 347.213 305.269 347.059C305.372 346.854 301.865 342.81 295.541 335.872C290.089 329.882 279.951 318.72 273.013 311.066C266.076 303.386 260.239 297.114 260.085 297.088C259.829 297.088 259.778 301.312 259.778 317.491ZM233.513 321.92C233.205 322.278 232.617 322.918 232.207 323.302C231.797 323.686 231.106 324.096 230.62 324.224C230.159 324.352 228.853 324.582 227.727 324.736C226.319 324.915 223.938 324.941 220.431 324.838C217.564 324.736 213.186 324.608 210.703 324.557C208.245 324.531 205.404 324.582 204.405 324.71C203.407 324.838 201.692 325.197 200.642 325.478C199.567 325.76 198.21 326.349 197.596 326.733C197.007 327.142 196.188 328.013 195.778 328.678C195.164 329.702 195.036 330.112 195.036 331.494C195.036 332.928 195.138 333.261 195.778 334.182C196.316 334.925 197.007 335.488 198.185 336.077C199.593 336.794 200.105 336.922 201.461 336.922C202.588 336.922 203.279 336.794 203.74 336.512C204.303 336.154 204.354 336.026 204.098 335.667C203.919 335.462 203.125 334.976 202.332 334.618C201.538 334.259 200.693 333.798 200.463 333.568C200.207 333.363 200.028 332.902 200.028 332.57C200.028 332.237 200.181 331.674 200.361 331.29C200.54 330.931 200.975 330.445 201.333 330.214C201.692 329.984 202.588 329.626 203.356 329.421C204.124 329.216 205.813 329.011 207.068 328.96C208.348 328.909 209.756 328.934 210.191 329.011L211.01 329.165C210.754 331.238 210.396 333.158 210.063 334.746C209.73 336.358 209.295 338.253 209.09 338.995C208.911 339.712 208.476 341.171 208.143 342.195C207.657 343.731 207.452 344.09 207.017 344.192C206.709 344.243 205.711 344.346 204.764 344.422C203.817 344.499 202.357 344.755 201.487 345.037C200.617 345.293 199.362 345.856 198.697 346.317C198.031 346.752 197.237 347.546 196.93 348.083C196.546 348.8 196.393 349.44 196.393 350.566C196.393 351.821 196.495 352.205 196.981 352.794C197.314 353.203 197.775 353.536 197.954 353.536C198.236 353.536 198.364 353.152 198.492 352.128C198.62 351.002 198.773 350.592 199.388 350.003C199.823 349.594 200.668 349.133 201.359 348.954C202.025 348.774 203.407 348.646 204.405 348.646C205.404 348.672 206.249 348.698 206.3 348.749C206.351 348.774 205.967 350.054 205.481 351.59C204.969 353.126 204.073 355.584 203.433 357.043C202.818 358.502 201.82 360.525 201.231 361.523C200.668 362.522 199.669 363.853 199.081 364.467C198.21 365.338 197.596 365.696 196.265 366.106C194.933 366.515 194.293 366.592 193.346 366.464C192.655 366.362 191.861 366.054 191.477 365.722C191.042 365.363 190.658 364.672 190.428 363.827C190.197 362.982 189.916 362.445 189.634 362.368C189.404 362.291 189.045 362.419 188.866 362.624C188.636 362.854 188.508 363.418 188.508 364.134C188.533 364.774 188.738 365.645 188.943 366.08C189.173 366.49 189.685 367.258 190.121 367.744C190.556 368.23 191.477 368.896 192.143 369.254C193.218 369.818 193.628 369.869 196.009 369.869C198.466 369.894 198.825 369.818 200.156 369.203C200.949 368.819 202.204 368.026 202.946 367.462C203.689 366.874 204.841 365.722 205.532 364.877C206.197 364.032 207.273 362.573 207.861 361.651C208.476 360.704 209.525 358.81 210.217 357.402C210.908 356.019 211.855 353.664 212.341 352.205L213.212 349.542C216.258 349.67 217.922 349.594 218.844 349.414C219.791 349.261 220.994 348.877 221.532 348.57C222.069 348.262 222.965 347.494 223.529 346.88C224.143 346.214 224.655 345.37 224.834 344.755C224.962 344.192 225.039 343.27 224.988 342.758C224.937 342.221 224.706 341.478 224.476 341.12C224.271 340.736 223.913 340.454 223.708 340.454C223.477 340.454 223.298 340.762 223.221 341.35C223.145 341.862 222.889 342.579 222.658 342.989C222.402 343.398 221.711 343.962 221.02 344.294C220.201 344.704 219.228 344.909 217.999 344.986C217.001 345.062 215.797 345.037 215.337 344.96L214.466 344.806C215.132 342.272 215.9 338.816 216.617 335.488C217.871 329.446 217.897 329.421 218.485 329.498C218.818 329.523 220.841 329.446 222.991 329.318C225.116 329.165 227.471 328.883 228.213 328.653C228.93 328.448 230.057 328.013 230.697 327.706C231.337 327.373 232.284 326.707 232.847 326.221C233.385 325.709 234.05 324.89 234.306 324.403C234.562 323.891 234.793 323.123 234.818 322.662C234.844 322.15 234.741 321.741 234.485 321.536C234.153 321.306 233.999 321.357 233.513 321.92ZM152.873 375.987C149.621 379.546 146.575 382.874 146.114 383.411L145.244 384.384C150.338 389.222 153.41 392.09 155.33 393.882C157.276 395.674 158.94 397.056 159.042 396.954C159.145 396.851 159.221 390.656 159.221 383.155C159.221 374.784 159.145 369.51 158.991 369.51C158.863 369.51 156.098 372.429 152.873 375.987ZM259.778 383.155C259.778 390.656 259.855 396.851 259.957 396.954C260.06 397.056 261.007 396.339 262.057 395.392C263.132 394.419 266.153 391.578 268.815 389.094C271.452 386.586 273.602 384.435 273.551 384.307C273.525 384.179 270.53 380.8 266.869 376.806C263.234 372.787 260.162 369.51 260.009 369.51C259.855 369.51 259.778 374.221 259.778 383.155ZM216.309 371.226C215.311 371.482 213.391 372.25 212.06 372.915C210.703 373.581 208.578 374.861 207.324 375.757C206.044 376.653 203.765 378.598 202.255 380.058C200.719 381.517 198.773 383.667 197.929 384.794C197.084 385.92 195.778 387.994 195.061 389.402C194.345 390.784 193.372 393.088 192.885 394.47C192.425 395.878 191.861 398.054 191.657 399.334C191.452 400.589 191.298 402.611 191.298 403.814C191.298 405.018 191.452 406.758 191.657 407.68C191.861 408.627 192.425 410.266 192.937 411.315C193.525 412.544 194.396 413.824 195.343 414.822C196.137 415.693 197.34 416.768 197.98 417.178C198.645 417.613 200.028 418.176 201.129 418.458C202.46 418.816 203.817 418.944 205.481 418.944C207.375 418.944 208.271 418.816 209.5 418.406C210.37 418.099 211.778 417.357 212.649 416.742C213.724 415.974 214.799 414.925 215.977 413.363C216.949 412.109 218.05 410.445 218.46 409.677C218.869 408.909 219.228 408.038 219.228 407.757C219.228 407.45 219.074 407.066 218.869 406.886C218.665 406.733 218.306 406.656 218.05 406.733C217.82 406.784 217.154 407.578 216.54 408.474C215.951 409.37 214.569 410.982 213.519 412.032C212.06 413.466 211.241 414.106 210.345 414.413C209.679 414.669 208.425 414.925 207.554 415.002C206.684 415.078 205.429 415.027 204.764 414.874C203.996 414.694 203.177 414.259 202.485 413.67C201.897 413.184 201.18 412.288 200.873 411.674C200.565 411.085 200.156 410.061 199.951 409.37C199.746 408.704 199.516 407.398 199.413 406.477C199.311 405.453 199.362 403.891 199.541 402.586C199.695 401.408 200.105 399.488 200.437 398.362C200.77 397.235 201.41 395.264 201.897 393.984C202.357 392.73 203.33 390.502 204.047 389.018C204.764 387.558 205.967 385.382 206.761 384.179C207.554 382.976 208.937 381.21 209.884 380.211C210.805 379.238 212.341 377.856 213.263 377.139C214.21 376.448 215.772 375.424 216.796 374.886C217.794 374.349 219.381 373.734 220.303 373.504C221.429 373.248 222.351 373.197 222.991 373.299C223.503 373.402 224.271 373.76 224.629 374.118C225.013 374.451 225.5 375.27 225.705 375.936C225.961 376.755 226.037 377.6 225.935 378.496C225.858 379.213 225.73 380.186 225.653 380.595C225.551 381.235 225.628 381.44 226.012 381.645C226.293 381.773 226.626 381.824 226.805 381.773C226.985 381.696 227.317 381.235 227.573 380.723C227.829 380.211 228.085 379.085 228.137 378.112C228.213 376.806 228.137 376.141 227.753 375.091C227.471 374.374 226.882 373.325 226.421 372.787C225.986 372.25 225.141 371.61 224.553 371.354C223.759 371.021 222.735 370.893 220.789 370.816C218.69 370.739 217.743 370.842 216.309 371.226Z" fill="#0060A9"/>
<path d="M115.624 434.944C117.749 437.069 119.567 438.835 119.644 438.835C119.695 438.835 118.031 437.069 115.932 434.944C113.832 432.819 112.04 431.078 111.938 431.078C111.81 431.078 113.474 432.819 115.624 434.944Z" fill="white"/>
</svg>
