<svg width="281" height="512" viewBox="0 0 281 512" fill="none" xmlns="http://www.w3.org/2000/svg">
<g clip-path="url(#clip0_14_18)">
<path d="M202.795 419.66C211.141 419.247 215.872 420.557 224.049 422.255C226.159 422.716 227.688 423.032 229.41 423.517C229.726 424.028 231.205 440.373 231.206 441.179C230.721 441.519 230.284 441.835 229.726 442.029C228.804 441.301 228.173 440.354 227.081 439.36C221.477 434.168 217.303 431.596 209.807 430.092C201.824 428.491 196.292 428.782 189.062 432.542C185.811 434.216 184.113 435.502 181.565 438.122C180.401 439.311 179.819 440.015 178.849 441.349C177.563 443.096 176.956 444.164 175.985 446.08C172.54 452.849 171.982 457.581 172.079 465.199C172.103 467.018 172.152 468.037 172.37 469.857C172.71 472.501 173.074 473.982 173.851 476.553C174.603 479.076 175.112 480.484 176.276 482.837C177.271 484.851 177.926 485.943 179.212 487.786C180.91 490.213 181.93 491.595 184.162 493.512C187.486 496.375 189.888 497.54 194.06 498.826C196.754 499.675 198.379 499.893 201.218 500.112C204.056 500.306 205.706 500.257 208.545 499.917C214.246 499.214 217.643 498.341 222.568 495.357C224.904 493.934 226.254 492.846 228.067 491.133L228.949 490.431C229.531 489.873 229.847 489.291 230.405 488.927C230.915 489.097 231.279 489.534 231.643 489.873C231.351 490.237 229.993 505.498 229.92 505.765C227.469 506.663 224.97 507.633 221.743 508.604C220.166 509.089 219.292 509.355 217.691 509.744C215.314 510.326 213.955 510.544 211.554 510.86C200.781 512.218 193.915 511.975 183.87 507.851C179.261 505.959 176.689 504.6 172.759 501.543C168.586 498.316 166.377 496.109 163.466 491.717C161.792 489.17 160.991 487.593 159.803 484.779C157.959 480.436 157.013 477.815 156.601 473.132C156.552 472.453 156.551 472.065 156.503 471.362C156.212 465.976 155.848 462.845 156.794 457.556C157.206 455.324 157.522 454.087 158.201 451.904C159.996 446.105 161.379 442.732 165.018 437.856C166.474 435.915 167.421 434.896 169.095 433.149C169.725 432.494 170.066 432.129 170.721 431.523C172.2 430.14 173.074 429.413 174.724 428.248C175.621 427.618 176.155 427.277 177.102 426.719C177.951 426.21 178.436 425.943 179.31 425.506C187.68 421.163 193.357 420.121 202.795 419.66Z" fill="#E31F26"/>
<path d="M66.6122 497.565C70.1544 497.565 73.0418 500.451 73.0419 503.994C73.0419 507.536 70.1545 510.423 66.6122 510.423C63.0701 510.423 60.1835 507.536 60.1835 503.994C60.1837 500.452 63.0702 497.565 66.6122 497.565Z" fill="#E31F26"/>
<path d="M131.295 497.565C134.861 497.565 137.724 500.451 137.725 503.994C137.725 507.536 134.861 510.423 131.295 510.423C127.728 510.423 124.865 507.536 124.865 503.994C124.865 500.451 127.753 497.565 131.295 497.565Z" fill="#E31F26"/>
<path d="M247.219 497.565C250.785 497.565 253.648 500.451 253.648 503.994C253.648 507.536 250.785 510.423 247.219 510.423C243.652 510.423 240.789 507.536 240.789 503.994C240.789 500.451 243.677 497.565 247.219 497.565Z" fill="#E31F26"/>
<path d="M133.939 420.848C134.109 422.134 133.988 423.372 134.206 424.658C134.643 428.442 135.056 432.591 135.517 436.328C135.347 436.691 135.807 437.079 135.371 437.346C134.91 437.516 134.424 437.855 134.06 438.098C133.866 437.953 133.455 438.243 133.576 437.807C132.12 436.182 130.446 435.284 128.117 434.241C127.001 433.731 126.345 433.537 125.181 433.173C123.604 432.664 122.706 432.445 121.081 432.106C118.218 431.499 116.568 431.378 113.656 431.111C111.085 430.868 108.27 430.942 107.009 430.747C106.79 430.747 106.645 431.014 106.427 430.965C106.306 434.451 106.378 458.397 106.378 458.502C107.567 458.43 108.586 458.551 110.018 458.502C112.856 458.405 114.482 458.43 117.224 457.824C119.722 457.266 121.202 456.901 123.458 455.664C125.666 454.451 127.365 453.383 128.529 451.685C128.82 451.806 129.815 452.583 129.936 452.874C129.888 456.053 129.936 468.426 129.936 473.982C129.936 474.199 128.086 474.897 128.068 474.904C128.05 474.704 127.868 474.558 127.676 474.385L127.437 474.248C125.982 472.671 124.792 472.114 122.852 471.216C122.269 470.949 121.954 470.804 121.348 470.585C120.741 470.391 120.377 470.294 119.77 470.149C114.797 468.863 111.157 468.474 106.669 468.62V498.389C106.669 499.675 107.64 502.126 108.901 504.188C110.066 506.032 111.206 507.148 112.613 508.361C112.371 508.943 112.225 509.671 111.886 510.278H85.1972C84.8819 509.768 84.8087 509.089 84.5419 508.628C84.7846 508.07 85.5124 507.803 85.7792 507.245C86.41 506.614 86.8952 505.886 87.4775 505.231C90.1463 501.058 91.2626 496.181 91.4081 490.916C91.3355 490.615 91.4566 441.425 91.4081 437.614C91.1898 433.586 90.3408 429.849 88.4726 426.477C87.4779 424.876 86.1921 423.371 84.6152 422.425C84.8335 421.843 85.2218 421.358 85.5615 420.848H133.939Z" fill="#E31F26"/>
<path d="M30.1953 420.727C30.6319 421.212 30.8744 421.867 31.2382 422.425C31.2382 422.498 31.0933 422.619 31.0204 422.692C30.8021 422.765 30.7047 422.862 30.5107 423.007C27.6235 424.997 25.5613 428.297 24.7607 431.669C24.2755 433.319 23.7656 434.993 23.7656 436.619V499.36C29.5883 499.408 35.4357 499.117 40.6035 497.055C45.5528 495.332 50.09 492.979 54.166 489.267C54.36 489.267 54.3118 489.049 54.5058 489L54.6513 488.855L55.5488 489.607C55.5006 489.897 55.8638 489.874 55.9853 490.116C56.0823 490.382 55.8405 490.553 55.7919 490.82C55.1369 492.47 54.5055 494.119 53.996 495.818C52.3463 500.355 50.8421 504.965 49.1923 509.55C48.9498 510.132 48.9496 510.132 48.416 510.132H1.25092C1.17814 509.599 0.886907 509.186 0.765564 508.604C1.05671 508.07 1.54189 507.827 2.00287 507.293C2.05137 507.245 2.19685 506.979 2.29388 506.906C5.20532 503.63 6.54036 499.772 7.5351 495.623C8.02032 493.149 8.23859 490.552 8.14154 488.126V437.735C8.21433 432.155 6.56407 426.574 2.63373 422.304C2.56096 421.722 3.11841 421.236 3.33685 420.727H30.1953Z" fill="#E31F26"/>
<path fill-rule="evenodd" clip-rule="evenodd" d="M263.911 -0.460571C264.906 -0.387634 265.536 0.389003 266.216 0.995483C271.432 7.08513 274.052 15.164 273.058 23.0004C270.437 36.9995 263.135 49.3734 256.438 61.6742C254.667 64.0761 253.211 66.6721 251.513 69.1469C238.751 87.8285 223.078 105.079 205.609 118.835C201.776 121.674 197.845 124.828 194.085 127.666C188.674 131.548 183.118 135.188 177.562 138.828C171.691 142.661 165.795 146.47 160.045 150.497C159.73 150.716 159.73 151.25 159.973 151.565C160.895 152.317 161.744 151.322 162.666 151.322C170.041 149.017 176.98 145.79 183.894 142.491C184.647 142.418 185.181 143.025 185.424 143.631C186.2 147.853 183.725 151.929 180.887 155.01C172.807 162.337 162.884 165.564 152.961 168.936C153.106 169.47 151.966 169.325 152.572 169.931C153.494 171.023 154.805 170.101 156.042 170.173C165.504 168.548 174.578 165.782 183.191 162.167C183.798 161.998 184.186 162.312 184.574 162.701C185.496 165.248 183.41 167.311 182.415 169.47C178.024 174.711 172.031 177.015 166.038 179.247C161.817 180.946 157.279 181.698 152.815 182.935C152.5 183.25 152.112 183.785 152.5 184.245C154.441 184.561 156.819 184.464 158.735 184.391C166.499 184.003 174.19 182.014 182.026 180.703C182.803 182.402 181.663 183.784 180.959 185.167C179.649 186.186 179.261 187.885 177.878 188.953C173.365 192.64 168.245 194.945 162.714 196.28C159.463 197.056 156.066 197.517 152.572 197.711C152.33 197.954 151.942 198.099 151.869 198.414C151.869 198.875 152.039 199.336 152.572 199.336C159.414 200.792 167.106 200.72 174.19 200.186C174.966 200.404 174.506 201.253 174.578 201.786C169.58 210.011 159.827 213.093 150.898 213.409C150.68 213.7 150.68 214.233 150.753 214.621C154.974 217.46 159.682 219.086 164.364 220.93C169.483 222.628 174.797 224.035 180.256 225.005C187.389 226.291 194.764 226.873 202.431 226.558C202.746 226.631 203.061 226.85 203.207 227.238L202.965 228.16C196.341 234.71 188.116 239.393 178.97 240.63C163.272 241.091 149.976 234.54 138.573 225.005C136.851 223.55 135.153 222.046 133.527 220.469L129.523 216.174C129.208 215.932 128.747 216.029 128.432 216.102C127.122 217.242 128.286 218.795 128.747 219.935C129.742 221.706 130.81 223.38 131.95 225.005C139.932 236.384 151.214 244.464 161.744 253.732C166.742 258.123 171.57 262.781 175.815 268.167C184.574 280.444 188.941 295.996 186.418 311.208C186.394 311.281 186.369 311.354 186.369 311.427V311.548C186.078 313.052 185.763 314.557 185.351 316.061C184.817 317.371 184.671 318.827 183.361 319.676C182.803 319.822 182.512 319.433 182.196 319.045C182.536 316.425 182.633 313.804 182.536 311.184C182.318 305.677 181.202 300.193 179.576 295.147C177.659 290.61 175.524 286.146 172.516 282.215C164.728 271.686 153.859 263.17 144.251 253.732C138.234 247.836 132.702 241.576 128.771 234.249C127.073 231.241 125.545 228.159 124.162 225.005C122.998 222.337 121.954 219.643 121.008 216.926C120.838 216.708 120.402 216.781 120.159 216.854C118.849 218.237 119.624 220.372 119.552 221.997C119.673 222.992 119.843 223.987 120.061 224.982C122.342 235.875 128.505 245.24 135.881 253.732C139.617 258.05 143.669 262.127 147.696 266.081C152.063 270.085 156.236 273.773 160.991 277.606C158.759 289.033 160.312 301.043 165.528 311.184C167.493 315.017 169.968 318.584 172.977 321.738C174.966 323.727 177.66 325.426 179.746 327.342C178.29 329.113 175.597 329.041 173.365 328.726C168.828 328.022 164.752 326.324 161.064 323.558C160.676 323.412 160.676 323.873 160.676 324.164C161.816 339.401 164.436 354.128 168.318 368.612C168.852 370.674 169.434 372.737 170.041 374.775C172.176 379.093 172.807 384.48 176.956 387.706C180.086 389.866 184.089 389.939 188.019 389.793H188.723C193.478 389.405 199.083 389.308 203.014 392.389C203.96 393.384 204.396 393.942 204.639 394.864C205.342 398.188 202.94 400.857 200.417 402.87C199.713 403.331 198.864 403.865 197.942 403.719C197.311 401.875 195.638 400.493 193.939 399.716C192.814 399.164 192.748 398.983 191.026 398.589L190.203 398.576C178.848 396.198 165.358 396.44 153.664 397.435C147.356 398.041 141.121 398.819 136.196 402.652C135.056 403.792 134.109 405.345 134.352 406.8C134.036 407.115 134.085 406.8 133.357 406.8C131.368 406.8 129.742 405.588 128.893 403.962C127.898 401.973 128.504 400.056 129.669 398.43C130.591 397.193 132.072 396.659 133.212 395.664C133.382 395.276 132.993 394.961 132.678 394.888C128.602 394.961 124.065 395.568 122.075 399.425C122.002 399.886 121.93 400.25 121.614 400.493C120.595 400.42 119.601 399.886 119.067 398.964C118.218 397.751 118.218 395.665 118.679 394.282C120.159 391.419 122.997 389.429 126.297 389.501C127.849 389.356 129.378 389.744 130.761 389.429C130.227 388.216 130.227 386.76 130.834 385.595C134.667 381.35 141.291 383.97 145.9 384.746C148.981 385.596 152.063 387.052 155.217 387.901C156.211 388.216 157.522 388.289 158.662 388.362C159.657 388.434 160.506 387.513 161.04 386.833C161.744 383.898 159.124 381.835 158.274 379.142C156.722 375.818 155.29 372.446 153.956 369.049C153.907 369.025 153.907 368.976 153.907 368.952C153.907 368.903 153.858 368.83 153.858 368.83C148.06 353.837 144.203 337.848 141.971 321.69C141.825 321.447 141.654 321.302 141.363 321.374C140.126 322.612 139.422 324.14 137.967 325.135C136.026 327.052 133.43 328.896 130.81 329.818C130.567 329.041 131.101 328.362 131.344 327.731C133.091 322.442 133.648 316.861 133.309 311.329C132.945 305.41 131.537 299.538 129.427 294.201L129.111 293.885C112.031 291.799 95.5816 287.504 79.8115 280.953C65.9094 275.446 50.9638 266.372 41.3076 253.853C39.0027 250.844 36.9887 247.666 35.3632 244.27C32.2092 238.447 30.1952 231.872 29.249 225.103C27.9388 215.519 28.7643 205.45 31.5302 196.376C32.6462 192.689 34.0773 189.17 35.8242 185.895C37.4496 181.892 39.6815 178.035 42.1318 174.808C51.8851 160.081 65.9336 149.696 79.496 138.9C85.9011 133.805 92.1852 128.612 97.8867 122.814C102.86 117.525 107.494 110.683 104.874 103.21C104.243 101.925 103.637 100.687 102.86 99.8383C98.9299 94.5977 91.6269 94.2826 85.5615 95.5199C80.7091 96.6845 75.8806 97.679 71.0283 98.14C68.966 101.731 66.8791 105.2 64.1132 108.427C67.3401 107.821 70.7374 108.427 73.2607 110.344C74.716 111.654 75.7834 112.503 77.0204 113.958C79.9561 113.425 82.5526 111.969 84.5663 109.882C84.8575 114.735 80.7083 119.03 76.5595 120.873C73.1144 122.474 68.8692 121.479 66.1035 119.102C63.7258 116.87 62.2695 114.25 61.1777 111.484C59.2368 112.867 57.563 114.25 55.7919 115.705C57.1748 118.447 55.8643 121.528 54.0204 123.615C51.4002 126.089 46.8636 128.856 48.1738 133.078C48.3435 133.368 48.5614 133.684 48.5615 134.072C45.4075 134.533 42.4961 132.98 40.7978 130.286C39.8033 127.982 39.8755 125.216 40.7245 122.911C44.1212 116.992 50.5029 115.22 55.6464 111.459C56.4713 110.61 57.7811 109.98 58.0966 108.912C56.4712 107.918 54.7973 109.009 53.1718 109.228C49.3869 110.538 46.4021 113.449 42.3261 113.837C40.4823 113.91 38.396 113.983 36.9404 113.206C35.8728 113.449 35.023 112.454 34.0283 112.066C32.7912 111.144 31.7971 109.616 32.2578 108.161C33.3252 108.379 34.708 109.228 35.9453 108.767C41.2585 107.311 45.7228 102.774 51.6425 103.308C54.6995 103.138 57.7083 104.909 59.9404 106.995C62.2452 104.594 64.0892 101.512 65.5449 98.601C64.0891 97.3879 60.7172 97.606 60.329 94.8402C60.1835 94.4035 60.7167 94.0155 60.5712 93.6273C62.9489 93.409 65.4235 93.7724 67.874 93.0931C68.7959 90.3273 69.5722 87.2457 69.5722 84.3344L69.2568 84.0922C63.2642 84.3834 57.8778 86.154 52.7343 88.3861C52.3465 86.6152 53.7538 85.0624 54.3603 83.4613C57.5144 78.609 63.4347 76.7656 68.748 75.14C68.287 72.2286 66.8312 69.6075 64.9872 67.2299C67.389 67.5209 69.4511 66.769 71.6103 66.308C72.8234 68.8555 73.6727 71.549 74.5947 74.3148C78.428 73.9509 82.2858 74.0966 85.9736 73.7084C85.1972 72.1556 84.8094 70.4566 85.7314 68.9281C90.1229 62.6934 99.0993 64.2948 105.723 64.9984C111.958 66.1387 117.781 68.2248 123.871 70.0687C132.241 72.8346 140.563 75.6976 149.71 76.6195C153.495 76.6195 157.401 75.5274 159.948 72.8344C160.482 72.3733 160.167 70.8454 161.331 71.306C162.787 72.3008 162.108 74.2176 161.865 75.5277C160.943 79.2155 157.328 81.5936 154.102 83.2191C149.201 85.2086 143.111 86.0576 137.579 85.3783C135.274 85.2812 133.042 84.1411 130.592 84.7474C130.349 85.0628 130.349 85.4262 130.592 85.7416C133.358 87.0517 136.196 89.2116 137.506 92.1957C141.897 98.7464 140.514 108.136 136.584 114.662C131.222 123.397 123.773 130.918 116.907 138.828C115.913 139.943 114.942 141.108 113.972 142.273C102.593 155.811 93.7613 172.334 97.9101 190.87C98.3469 192.956 99.5118 195.236 101.55 196.28C101.695 196.352 101.841 196.401 101.986 196.474C102.666 196.62 103.249 196.522 103.807 196.28C105.141 195.697 106.16 194.242 106.984 193.029C107.736 190.942 109.046 189.098 109.435 186.793C111.982 177.331 113.971 167.626 117.053 158.333C119.503 151.71 122.609 145.111 126.952 139.264C127.025 139.167 127.074 139.094 127.146 139.021C127.195 138.948 127.292 138.803 127.292 138.803C128.359 137.42 129.718 135.794 130.883 134.557C132.557 131.937 135.25 129.875 137.409 127.57C153.956 112.115 172.637 98.965 186.782 81.351C197.724 68.4194 207.089 54.3473 211.554 38.3588C213.47 32.0508 212.475 24.1414 208.715 18.7552C208.472 18.1487 208.788 17.5903 209.394 17.4447C212.403 17.081 214.781 19.4582 217.158 20.9867C224.121 25.4752 225.382 34.9133 223.927 43.1381C223.078 50.1983 220.166 56.6523 216.769 62.8148C207.914 77.8085 195.541 91.1284 182.464 102.798C179.698 104.957 177.004 107.723 174.166 109.737C163.345 119.199 151.651 128.007 142.262 138.803C138.258 143.413 134.667 148.387 131.731 153.943C125.884 164.327 123.264 176.093 119.504 187.327C118.436 190.505 116.884 193.611 114.846 196.28C112.516 199.337 109.556 201.86 105.893 203.412C105.335 203.873 104.947 204.48 105.189 205.256C105.966 206.566 107.712 205.644 108.877 205.717C114.554 204.067 119.018 200.622 122.536 196.28C126.733 191.112 129.524 184.707 131.416 178.569C133.357 173.401 135.42 167.868 138.04 163.016C141.97 155.859 148.57 151.031 154.878 146.106C158.42 143.655 161.962 141.229 165.528 138.803C188.529 123.033 211.359 106.85 228.148 84.2865C241.978 66.6482 251.901 47.6752 258.209 26.9799C259.446 22.1517 261.266 17.3714 261.97 12.3734C262.358 8.68575 263.45 5.07077 263.135 0.752319C263.28 0.315611 263.353 -0.31502 263.911 -0.460571ZM85.8525 157.436C81.4855 160.372 78.234 164.375 74.9345 168.135C71.3923 172.818 68.3112 178.205 65.9335 183.663C64.211 187.667 63.0705 191.912 62.4882 196.231C61.1781 205.887 62.609 215.98 66.2968 224.957C67.9709 229.058 70.1059 232.891 72.6777 236.361C77.8211 243.445 84.4448 249.268 91.8203 253.707C96.3921 256.46 101.242 258.679 106.208 260.345L107.275 260.647C108.658 260.938 110.187 262.321 111.57 261.399C111.716 260.55 110.479 260.113 109.872 259.555C107.13 257.735 104.364 255.794 101.695 253.683C96.8673 249.874 92.3057 245.58 88.5937 240.558C87.502 239.733 86.8955 238.35 85.9736 237.258C83.3534 233.328 81.1457 229.227 79.3261 224.957C76.2691 217.752 74.4005 210.084 73.9638 201.811C73.8183 199.967 73.7943 198.075 73.8671 196.231C74.1825 187.351 76.7053 178.423 80.3203 170.295C82.1641 166.122 84.2269 162.362 86.7744 158.601V157.825C86.6288 157.436 86.2406 157.436 85.8525 157.436ZM75.4443 83.7523C75.3472 85.863 75.2256 86.1302 74.9345 87.6342C74.616 89.3115 74.1485 90.9519 73.7929 92.0345L73.624 92.4623C79.8834 91.5646 86.9684 89.7939 86.9687 86.4701C86.9687 84.0439 83.1593 83.7523 75.4443 83.7523ZM96.9882 75.7943C96.1391 75.7942 94.9023 75.1884 94.4413 76.0375C93.9804 77.4932 94.0527 79.4343 95.29 80.5746C96.0968 81.1903 97.0339 81.378 98.0195 81.4154L98.4443 81.3988C102.375 81.0834 105.844 79.6284 109.75 79.1674C109.823 78.949 109.993 78.6332 109.75 78.4877C105.674 77.2504 101.282 76.5707 96.9882 75.7943Z" fill="#E31F26"/>
<path d="M85.1972 286.898C92.3544 290.367 99.9725 293.522 107.882 295.366C109.968 295.899 112.274 295.996 114.336 296.603C114.457 301.528 115.039 306.453 116.131 311.184C117.611 317.565 120.062 323.63 123.628 329.04C122.706 329.331 121.469 329.041 120.475 328.798C116.471 327.173 112.783 324.649 109.702 321.568C109.484 329.259 106.621 337.314 102.254 343.865C96.6736 352.211 90.6077 360.387 84.5908 368.612C80.903 373.634 77.2396 378.681 73.7216 383.776C73.2364 384.625 72.7996 385.79 73.0908 386.785C73.7945 388.458 75.8085 388.143 77.3369 388.385C82.7957 388.312 88.4244 387.682 93.4951 389.235C93.9801 389.38 94.1259 389.428 94.5869 389.622C96.649 390.399 99.1232 392.17 99.1962 394.766C99.1962 397.459 98.4201 400.007 96.1152 401.851C95.7515 402.19 95.6541 402.239 95.5087 402.384C94.7127 402.816 93.8526 403.398 92.9286 403.209L92.7187 403.137C93.1797 402.312 93.0336 401.074 92.33 400.37C89.3459 397.896 85.4155 397.217 81.4853 396.756C74.789 396.295 68.0195 395.834 61.3232 396.222C53.2683 396.44 44.8735 396.44 37.498 398.988C35.2416 400.225 32.33 401.778 32.6454 404.69C32.6456 405.005 32.937 405.296 32.7187 405.612C30.1227 405.927 27.3806 404.907 26.2646 402.239C25.6583 400.152 26.7265 398.163 27.9638 396.537C29.2011 395.155 30.8993 394.233 32.4277 393.456C32.7431 393.214 33.0581 392.777 32.6699 392.535C31.1171 391.928 29.4186 392.243 27.8173 392.461C24.0326 393.408 20.2725 395.009 18.4286 398.551C16.9001 397.993 16.0508 396.853 15.5898 395.542C14.9834 393.48 15.6869 391.394 17.1425 390.011C20.5149 387.464 25.1979 387.464 29.5165 387.852C29.0556 386.687 28.9586 385.377 29.662 384.31C30.8751 383 32.0882 382.32 35.7275 381.689C43.4182 381.01 49.047 387.391 56.956 385.232C59.7946 383.922 61.493 381.082 62.8759 378.704C64.9624 375.308 66.9527 372.082 68.9179 368.855C74.7408 359.271 80.4418 349.469 85.8036 336.732C89.3459 328.337 91.9666 322.417 93.8105 314.799C89.0309 318.73 83.4505 323.339 76.6572 323.339C78.404 319.433 79.9079 315.381 81.121 311.281C83.4744 303.371 84.9061 294.953 85.1972 286.898Z" fill="#E31F26"/>
<path d="M150.462 237.379C152.767 237.767 154.684 239.296 156.916 240.073C168.392 244.779 180.789 248.176 192.022 253.707C199.786 257.565 207.016 262.442 213.033 269.527C223.441 280.711 228.124 296.045 227.518 311.184C227.299 317.177 226.208 323.145 224.34 328.823C221.938 336.732 217.861 344.059 213.64 351.046C212.817 351.939 212.222 353.767 210.708 353.527L210.583 353.497C209.976 352.333 210.971 351.58 210.971 350.415C214.828 337.435 214.853 325.159 211.044 311.184C210.365 308.709 209.588 306.186 208.666 303.59C205.439 294.395 202.261 289.712 196.899 281.584C188.675 269.114 179.115 261.18 169.386 253.707C162.981 248.782 156.478 244.052 150.243 238.374C150.073 237.986 150.146 237.622 150.462 237.379Z" fill="#E31F26"/>
<path fill-rule="evenodd" clip-rule="evenodd" d="M196.681 322.466C199.034 322.466 200.175 323.242 200.175 324.771C200.175 325.96 199.471 326.784 198.258 327.027L200.126 330.861H198.354L196.632 327.27H195.079V330.861H193.503V322.466H196.681ZM195.056 323.485V326.275H196.39C197.845 326.275 198.524 325.984 198.524 324.941C198.524 323.898 197.845 323.485 196.365 323.485H195.056Z" fill="#E31F26"/>
<path fill-rule="evenodd" clip-rule="evenodd" d="M196.414 319.336C198.428 319.336 200.272 320.089 201.703 321.544C203.062 322.927 203.838 324.722 203.838 326.76C203.838 328.798 203.086 330.618 201.679 331.977C200.223 333.408 198.403 334.185 196.414 334.185C194.425 334.185 192.605 333.408 191.174 331.977C189.767 330.545 189.014 328.75 189.014 326.785C189.014 324.942 189.718 323.164 191.005 321.749L191.27 321.447C192.629 320.064 194.4 319.336 196.414 319.336ZM196.463 320.33C194.74 320.33 193.138 320.962 191.974 322.151C190.712 323.437 190.009 325.111 190.009 326.785C190.009 328.459 190.688 330.06 191.901 331.297C193.114 332.535 194.74 333.214 196.39 333.214C198.136 333.214 199.713 332.559 200.999 331.322C202.212 330.133 202.868 328.629 202.868 326.833C202.868 325.038 202.237 323.436 201.048 322.247C199.811 320.986 198.185 320.331 196.463 320.33Z" fill="#E31F26"/>
<path d="M212.961 206.446C213.203 206.518 213.591 206.518 213.664 206.833C213.979 208.386 212.427 209.454 211.966 210.764C209.515 214.233 206.895 217.679 203.887 220.76C197.603 221.828 191.125 221.609 184.599 221.221C181.978 221.076 179.527 220.541 177.053 220.08C176.834 219.838 176.98 219.547 177.053 219.304C190.106 217.679 201.8 212.754 212.961 206.446Z" fill="#E31F26"/>
<path d="M230.623 177.525C231.084 177.452 231.375 177.986 231.618 178.301C231.836 179.757 230.38 180.922 229.992 182.232C226.207 187.472 221.38 192.373 216.382 196.255C216.018 196.546 215.654 196.813 215.314 197.079C205.537 205.134 194.23 210.157 182.633 213.991C178.314 214.985 173.85 216.126 169.24 216.514L168.246 216.369V215.908C173.875 212.996 180.256 207.609 179.479 200.525L179.552 199.676C184.453 198.827 189.232 197.687 193.891 196.231C204.663 192.931 214.828 188.03 224.388 181.843C226.344 180.615 228.087 178.789 230.196 177.746L230.623 177.525Z" fill="#E31F26"/>
<path d="M242.948 146.469C243.652 146.396 244.137 146.688 244.185 147.537C243.482 151.419 241.565 154.525 239.406 157.679C231.254 169.373 219.56 177.744 207.647 184.901C198.792 189.438 189.79 193.368 180.183 195.139C180.037 194.993 180.037 194.75 180.037 194.605C180.038 194.217 180.789 194.362 180.717 193.902C185.254 190.141 187.267 184.585 186.879 178.908C198.282 175.147 209.03 169.834 219.487 163.841C224.267 160.857 228.877 157.776 233.414 154.234C237.102 151.929 239.333 148.847 242.948 146.469Z" fill="#E31F26"/>
<path d="M255.225 111.799C255.831 111.484 256.923 111.484 257.068 112.406C256.535 119.49 252.313 125.435 248.237 131.185C246.127 133.829 243.942 136.377 241.638 138.803C226.256 155.058 206.701 166.291 187.024 174.856C186.66 174.856 186.2 175.244 185.957 174.784C186.2 173.789 187.195 173.085 187.728 172.163C190.033 168.379 190.737 163.768 189.427 159.62C201.606 153.724 213.421 146.809 224.558 138.779C235.205 131.093 245.237 122.428 254.368 112.718L255.225 111.799Z" fill="#E31F26"/>
<path d="M273.082 68.1761C273.689 67.3273 275.168 67.4004 275.387 68.5648C275.459 70.9667 274.562 73.1018 273.858 75.2611C269.928 84.7233 264.395 93.1906 257.699 101.415C245.107 115.851 230.429 128.104 214.756 138.803C206.288 144.577 197.578 149.891 188.723 154.84C188.504 154.695 188.432 154.379 188.577 154.088C191.028 150.764 191.804 146.082 190.421 142.078C190.033 141.229 189.572 140.38 189.427 139.531C189.863 139.288 190.276 139.021 190.713 138.779C221.113 120.655 251.004 97.2176 273.082 68.1761Z" fill="#E31F26"/>
<path d="M230.138 34.5736C230.283 34.1127 230.987 33.797 231.594 34.0394C232.443 34.8885 233.146 35.9808 233.753 37.0482C239.454 46.3648 236.082 58.8117 230.842 67.3519C219.463 88.2656 201.921 104.715 183.167 118.714C177.781 122.426 172.492 126.114 167.179 129.948C160.361 134.654 154.125 139.41 147.89 144.723C147.186 144.869 146.798 145.014 146.191 144.869C145.803 144.626 145.658 144.335 145.415 144.092C145.585 141.933 147.575 140.793 148.812 139.167C169.71 118.365 195.591 102.759 213.127 78.5092L213.907 77.3236C222.059 66.2603 228.585 53.6438 230.356 39.7904C230.356 38.0435 230.138 36.3447 230.138 34.5736Z" fill="#E31F26"/>
<path d="M277.473 30.182C277.788 29.7938 278.565 29.7943 278.783 30.2552C279.852 32.0748 279.855 34.342 280.231 36.4574L280.287 36.8304C281.136 44.1574 279.753 51.5332 275.92 57.3802C263.838 75.2853 248.31 89.8421 232.079 103.671L228.318 106.68C227.93 106.68 227.25 106.826 226.862 106.365C226.62 106.074 226.789 105.54 226.862 105.225C234.553 96.3694 243.555 88.3135 250.47 78.6088C260.004 66.9388 267.089 53.619 273.543 40.3236C274.926 37.0241 276.09 33.5786 277.473 30.182Z" fill="#E31F26"/>
</g>
<defs>
<clipPath id="clip0_14_18">
<rect width="279.789" height="512" fill="white" transform="translate(0.765564 -0.484985)"/>
</clipPath>
</defs>
</svg>
