<svg width="507" height="512" viewBox="0 0 507 512" fill="none" xmlns="http://www.w3.org/2000/svg">
<path d="M278.365 486.203C276.364 492.086 269.989 506.514 254.558 506.514C237.006 506.514 230.919 487.523 230.624 486.723L230.105 484.925C230.105 484.925 245.22 486.182 253.547 486.182C261.852 486.182 276.083 485.361 278.386 484.925L278.365 486.203Z" fill="black"/>
<path d="M324.42 476.84L328.022 477.297C323.725 488.523 316.01 501.104 300.887 501.104C286.137 501.104 278.863 492.567 275.816 486.859L273.24 485.286C273.24 485.286 298.648 484.465 324.42 476.84Z" fill="black"/>
<path d="M185.229 476.84L181.627 477.297C185.903 488.523 193.654 501.104 208.825 501.104C223.491 501.104 231.397 492.117 234.654 486.859L236.402 485.286C236.402 485.286 211.037 484.465 185.229 476.84Z" fill="black"/>
<path d="M266.872 487.401C264.478 490.827 262.87 490.651 260.041 490.651C258.574 490.651 256.467 491.831 256.489 494.007C256.552 495.72 257.949 497.11 260.245 497.11C265.468 497.11 269.463 489.872 270.523 486.79C270.523 486.79 273.584 486.664 274.475 486.572C274.475 486.572 268.999 502.944 254.747 502.944C240.474 502.944 234.654 486.769 234.654 486.769C234.654 486.769 246.688 487.499 253.547 487.499C260.427 487.499 264.808 487.436 266.872 487.401Z" fill="url(#paint0_radial_1_2655)"/>
<path d="M187.167 480.185C196.441 482.642 203.068 484.72 218.689 486.616C218.689 486.616 218.191 488.195 214.793 488.069C213.494 487.985 213.318 487.662 212.869 487.585C211.865 487.402 210.412 488.42 210.559 490.112C210.714 491.306 211.711 492.787 215.179 492.787C218.647 492.787 222.684 489.965 224.727 487.325C224.727 487.325 226.798 487.809 228.953 487.915C228.953 487.915 222.277 497.238 209.162 497.238C194.763 497.238 189.399 484.313 187.167 480.185Z" fill="url(#paint1_radial_1_2655)"/>
<path d="M253.371 403.449C303.106 403.449 358.204 372.923 396.888 328.918C401.1 324.158 408.156 315.115 424.956 315.115C441.785 315.115 464.153 330.455 461.534 358.369C459.582 378.701 430.524 424.574 380.768 452.79C331.027 481.119 285.203 487.177 253.371 487.177C221.512 487.177 175.73 481.119 125.96 452.79C76.2118 424.574 47.1603 378.701 45.2226 358.369C42.6039 330.455 64.9788 315.115 81.7722 315.115C98.6148 315.115 105.699 324.158 109.897 328.918C148.525 372.923 203.651 403.449 253.371 403.449Z" fill="#FFE500" stroke="black" stroke-width="3.58054" stroke-miterlimit="3.863"/>
<path d="M252.95 410.217C202.907 410.217 145.962 380.688 104.021 332.919C99.752 328.068 94.318 321.827 81.386 321.827C73.8317 321.827 65.2665 325.871 59.5868 332.126C55.3112 336.774 50.5161 344.967 51.6675 357.527C53.3314 374.685 80.5224 419.091 128.986 446.668C168.049 468.888 209.759 480.115 252.95 480.115C296.183 480.115 337.893 468.888 376.956 446.668C425.406 419.091 452.639 374.685 454.239 357.527C455.44 344.967 450.61 336.774 446.39 332.126C440.683 325.871 432.096 321.827 424.577 321.827C411.589 321.827 406.162 328.068 401.932 332.919C360.015 380.688 303 410.217 252.95 410.217Z" fill="#DA020E"/>
<path d="M468.225 161.106L468.4 149.507C471.974 152.238 478.693 152.281 482.624 148.089C484.414 146.18 485.432 143.224 485.285 140.184C485.117 136.751 483.558 133.184 480.995 130.671C466.477 116.482 453.58 102.315 453.58 102.315C452.246 100.208 450.161 98.6849 448.953 98.1654C447.177 97.3158 440.858 94.4304 436.042 101.746C431.696 108.373 432.342 117.718 433.178 121.13L446.791 139.686C451.452 145.597 464.588 158.171 468.225 161.106Z" fill="black"/>
<path d="M177.253 40.834C194.391 35.077 210.061 30.317 231.179 28.4495L234.38 26.6522C222.593 17.3498 210.882 11.0032 199.221 11.0032C191.898 11.0032 177 15.9808 173.68 42.2662L177.253 40.834Z" fill="black"/>
<path d="M329.524 40.834C312.38 35.077 296.724 30.317 275.627 28.4495L272.383 26.6522C284.22 17.3498 295.903 11.0032 307.578 11.0032C314.907 11.0032 329.742 15.9808 333.133 42.2662L329.524 40.834Z" fill="black"/>
<path d="M234.008 27.5788C242.63 11.003 250.514 5.00732 254.923 5.00732C260.371 5.00732 266.788 13.6708 271.829 24.8828L272.889 27.4243L268.459 27.0803C265.552 26.5327 257.275 26.4274 254.115 26.4274C250.872 26.4274 243.879 26.4274 239.667 26.8206L234.008 27.5788Z" fill="black"/>
<path d="M166.027 401.129L153.545 423.693C149.774 430.475 145.892 434.779 139.524 431.128C133.255 427.582 134.708 422.443 138.555 415.437L151.073 392.844L140.978 387.242L127.751 411.119C120.47 424.262 129.632 432.413 136.807 436.365C144.467 440.606 155.616 443.758 162.833 430.714L176.151 406.731L166.027 401.129ZM326.548 447.617L322.342 434.67L334.867 430.627L333.133 425.242L320.594 429.307L317.028 418.242L329.848 414.037L328.12 408.708L304.65 416.34L317.695 456.442L343.566 448.052L341.86 442.702L326.548 447.617ZM353.36 395.72L339.073 403.955L360.226 440.638L374.457 432.41C389.165 423.929 390.562 411.081 384.77 400.775C377.799 388.545 366.292 388.264 353.36 395.72ZM374.948 406.883C380.305 416.269 379.217 423.115 370.967 427.839L367.036 430.128L351.506 403.295L355.733 400.845C365.639 395.151 371.262 400.22 374.948 406.883ZM260.659 424.071L261.424 429.569L273.233 427.898L278.337 464.152L289.317 462.629L284.227 426.395L295.86 424.78L295.06 419.206L260.659 424.071ZM250.661 424.415L239.604 423.811L237.392 465.935L248.457 466.525L250.661 424.415ZM217.089 419.265L209.387 448.05L194.974 413.333L186.008 410.925L175.084 451.679L184.85 454.27L192.615 425.247L207.246 460.259L216.014 462.625L226.897 421.856L217.089 419.265Z" fill="#FFE500"/>
<path d="M158.901 153.305V350.88L253.371 411.581L347.834 350.88L347.975 153.607C344.949 150.939 338.665 145.091 333.744 142.03H172.564C168.485 144.894 160.313 151.788 158.901 153.305Z" fill="#FFE500"/>
<mask id="mask0_1_2655" style="mask-type:luminance" maskUnits="userSpaceOnUse" x="158" y="142" width="190" height="270">
<path d="M158.901 153.305V350.88L253.371 411.581L347.834 350.88L347.975 153.607C344.949 150.939 338.665 145.091 333.744 142.03H172.564C168.485 144.894 160.313 151.788 158.901 153.305Z" fill="white"/>
</mask>
<g mask="url(#mask0_1_2655)">
<g filter="url(#filter0_f_1_2655)">
<path d="M158.901 73.053L158.901 153.305V350.88L253.371 411.581L347.834 350.88L347.975 73.3549" stroke="#B54005" stroke-width="17.0667" stroke-miterlimit="3.863"/>
</g>
</g>
<path d="M291.128 295.061V287.717C291.128 287.717 289.177 284.699 284.339 284.699C279.516 284.699 276.631 286.152 276.631 287.367C276.631 289.353 280.949 295.061 291.128 295.061ZM253.034 230.057L260.336 217.307L266.058 230.057H275.536C269.835 235.407 267.504 243.501 267.504 248.9V254.784C267.504 257.283 266.247 261.418 266.247 261.418C266.247 261.418 274.475 267.688 275.739 268.776C276.266 269.19 276.841 269.443 276.462 270.531C275.809 272.363 270.221 274.884 269.652 275.361C268.389 276.484 268.059 277.158 268.389 278.268C268.789 279.335 269.835 279.531 271.976 278.773C274.138 278.078 278.618 275.726 282.374 274.118C286.116 272.49 291.128 272.904 291.128 272.904V265.708H276.975V242.841L274.475 238.812L280.717 227.691L286.993 238.882L284.522 242.841V254.784H291.732V242.841L289.247 238.882L295.509 227.775L301.744 238.882L299.279 242.841V254.784H306.539V242.841L303.969 238.882L310.253 227.775L316.515 238.882L314.016 242.841L314.135 265.673H299.869V276.232C303.106 279.272 306.16 286.152 306.16 290.203C306.16 294.352 303.457 296.107 303.457 296.107C304.362 299.365 304.187 300.72 303.801 303.668C303.457 306.666 299.715 311.342 299.715 311.342V365.914C299.715 369.621 291.128 369.255 291.128 366.089V312.571C286.27 307.256 273.043 303.079 273.043 303.079C268.192 307.93 265.208 316.355 265.208 316.355C267.314 317.829 270.593 316.355 271.829 314.923C273.043 313.49 275.535 313.118 276.975 314.024C278.386 314.923 278.737 315.267 278.252 317.373C277.698 319.591 276.813 323.137 276.813 325.615C276.813 328.157 279.671 327.588 281.805 327.777C286.116 328.157 286.825 332.973 286.467 335.662C286.116 338.365 284.852 344.1 284.852 347.667C284.852 351.198 285.041 354.765 285.392 356.787C285.765 358.739 286.467 360.894 286.27 363.414C286.052 366.805 283.967 367.346 281.805 365.169C279.671 363.028 249.784 331.168 249.784 331.168C247.797 337.648 256.067 348.699 258.735 352.111C261.424 355.523 261.248 358.029 258.896 360.367C256.594 362.677 252.108 363.913 251.23 366.089C250.317 368.195 253.371 374.682 259.655 382.728C265.917 390.76 252.466 396.152 244.441 397.759C236.36 399.346 236.36 393.8 236.922 390.76C237.455 387.748 237.455 385.916 237.259 383.269C237.083 380.573 234.612 376.838 231.179 372.366C227.788 367.872 227.788 363.786 229.199 353.375C230.624 342.991 230.287 336.364 230.287 336.364C230.287 336.364 226.707 336.511 221.511 336.364C216.344 336.167 212.055 333.169 211.69 320.63C211.332 308.127 211.037 278.268 210.187 275.136C209.359 272.04 206.01 271.472 204.599 271.057C203.131 270.692 203.061 268.579 204.479 267.821C208.214 266.003 212.694 261.418 211.037 258.568C209.359 255.71 202.78 256.3 198.378 258.455C193.962 260.59 189.308 265.28 188.107 266.557C186.949 267.821 185.945 267.821 186.071 266.459C186.219 264.999 185.257 258.168 184.688 255.802C184.056 253.415 181.922 248.9 181.199 247.707C180.49 246.506 181.199 246.043 182.406 246.506C183.565 246.984 186.219 248.086 188.711 248.746C191.224 249.504 193.618 248.268 194.763 245.924C195.956 243.501 198.287 238.397 199.481 236.116C200.653 233.862 202.549 234.367 204.107 234.711C205.652 235.077 207.084 236.031 208.509 236.6C209.927 237.19 211.114 237.077 211.619 236.354C212.104 235.666 212.694 235.407 213.55 233.623C214.386 231.84 215.425 232.69 215.558 233.399C219.827 259.066 230.947 260.246 230.947 260.246C229.276 264.521 225.359 271.338 224.432 273.058C223.428 274.666 223.056 276.955 222.81 278.731C222.621 280.5 223.428 297.455 224.615 303.668C225.822 309.889 229.62 307.467 230.856 305.564C232 303.668 235.728 295.777 235.728 295.777C235.728 295.777 236.648 293.629 236.648 291.846C236.648 290.048 233.559 286.152 232.85 284.937C232.113 283.702 229.508 281.336 229.508 275.361C229.508 269.408 234.872 265.28 236.803 263.714C238.712 262.148 238.712 259.979 238.452 258.673C237.617 254.067 232.724 244.379 230.372 240.665C227.964 236.965 223.316 229.937 223.316 229.937H232.976L239.197 217.019L245.965 229.994L253.034 230.057ZM251.469 269.19C254.621 263.981 255.941 258.568 255.941 258.568H246.828C246.828 258.568 248.288 264.107 251.469 269.19ZM241.977 242.926C242.342 245.594 244.329 246.612 245.838 245.832C247.341 245.004 247.081 242.841 245.964 241.114C244.897 239.422 242.679 237.534 241.998 237.815C241.303 238.102 241.738 241.353 241.977 242.926ZM260.041 237.815C259.388 237.534 257.05 239.422 255.941 241.114C254.874 242.841 254.6 245.004 256.116 245.832C257.598 246.612 259.507 245.572 259.985 242.926C260.245 241.353 260.757 238.102 260.041 237.815Z" fill="url(#paint2_linear_1_2655)"/>
<path d="M166.313 202.56V214.453H340.606V202.56H327.753V204.48H179.166V202.56H166.313Z" fill="#DA020E"/>
<path d="M166.322 149.114H340.582V196.503H166.322V149.114Z" fill="#DA020E"/>
<path d="M196.265 182.745L209.611 186.023L216.815 165.951V160.868L196.265 182.745ZM306.258 194.577V188.395H293.663V183.2H303.955V160.284H294.47L291.227 153.979L288.06 160.284H278.547V183.2H288.882V188.395H264.106V183.2H274.412V160.284H264.913L261.705 153.979L258.461 160.284H248.99V183.2H259.346V188.395H234.057V183.2H244.385V160.284H234.872L231.691 153.979L228.427 160.284H218.949V183.2H229.311V188.395L209.303 188.458L189.399 183.81L193.387 194.577L306.258 194.577Z" fill="#FFE500"/>
<path d="M178.243 38.9663C195.065 33.3357 207.779 28.9478 228.497 27.1084C218.949 20.4809 210.475 14.8713 200.73 14.8713C195.605 14.8713 191.224 16.8301 190.213 20.4107C189.273 23.6682 191.842 25.0864 192.755 24.8688C193.71 24.6231 194.391 24.3423 194.159 23.4576C193.913 22.5239 194.636 20.1509 197.894 20.1509C201.208 20.1509 202.457 23.2189 202.457 25.3251C202.457 27.4313 199.116 30.9487 192.972 30.9487C186.949 30.9487 183.86 26.9329 184.091 23.2189C181.185 27.4735 179.493 31.7771 178.243 38.9663Z" fill="url(#paint3_radial_1_2655)"/>
<path d="M61.0261 139.683L74.6883 121.127C75.4747 117.715 76.0995 108.377 71.7327 101.75C66.9586 94.4274 60.6681 97.32 58.8217 98.1695C57.6562 98.689 55.536 100.205 54.2302 102.319C54.2302 102.319 41.0945 116.781 26.6389 131.012C24.5959 133.041 22.3493 136.748 22.1597 140.181C21.9842 143.228 23.2128 146.289 24.982 148.199C28.9347 152.411 35.843 152.243 39.3744 149.505L39.6201 161.103C43.2568 158.175 56.3715 145.594 61.0261 139.683Z" fill="black"/>
<path d="M253.371 112.679C331.16 112.679 375.419 185.694 385.079 198.514C402.238 221.415 423.243 240.006 447.584 233.863C483.34 224.715 481.48 171.751 481.48 171.751C472.851 165.538 458.15 157.716 431.345 119.721C405.095 82.476 345.693 27.3007 253.371 27.3007C161.029 27.3007 101.641 82.476 75.4537 119.721C48.6208 157.716 33.8703 165.538 25.3262 171.751C25.3262 171.751 23.3955 224.715 59.1798 233.863C83.5064 240.006 104.498 221.415 121.685 198.514C131.31 185.694 175.596 112.679 253.371 112.679Z" fill="#FFE500" stroke="black" stroke-width="3.58054" stroke-miterlimit="3.863"/>
<path d="M253.371 105.747C328.366 105.747 372.968 169.361 389.098 192.315C410.445 220.809 428.516 231.564 445.878 227.148C470.97 220.76 474.087 186.225 474.424 175.771V175.357L474.143 175.139C465.297 169.01 450.498 158.851 425.701 123.699C410.908 102.707 354.75 34.1643 253.371 34.1643C152.028 34.1643 95.8207 102.707 81.0352 123.699C56.4418 158.627 40.9753 169.277 32.6909 174.964L32.3398 175.252L32.382 175.617C32.719 186.091 35.8432 220.809 60.8719 227.148C78.255 231.564 96.3613 220.809 117.652 192.315C133.767 169.361 178.412 105.747 253.371 105.747Z" fill="#DA020E"/>
<path d="M212.63 52.6053C198.87 55.5189 189.806 65.6638 192.776 79.4173C194.503 86.8451 201.131 100.514 222.094 96.0562C227.914 94.947 231.06 92.6301 234.107 89.7165L230.287 85.3286C228.848 86.9293 226.7 89.2602 221.877 90.2641C211.732 92.4054 205.701 84.1983 204.199 77.1145C201.966 66.6186 208.081 59.3873 214.989 57.8919C219.925 56.8037 222.916 58.1446 224.811 58.8818H224.874L226.159 53.504C222.831 52.1701 218.837 51.2855 212.63 52.6053ZM327.713 113.112C335.583 117.851 344.17 117.044 348.185 110.395C351.106 105.748 351.134 101.886 347.624 94.9708C346.718 93.012 345.532 91.6079 344.738 89.8247C343.187 86.9321 341.754 84.5662 343.088 82.3266C344.563 79.8974 347.975 79.7008 351.064 81.5894C354.3 83.5482 355.641 86.7847 356.322 88.9962L361.398 86.8058C359.84 82.6355 357.53 78.8935 352.25 75.7693C343.229 70.3353 335.892 71.7675 332.838 76.8575C329.742 81.9755 330.62 86.2371 332.951 90.6039C332.951 90.6039 334.397 93.0823 335.232 94.7743C337.275 98.1863 339.655 102.49 337.984 105.179C335.962 108.57 332.48 109.307 329.089 107.201C324.743 104.463 323.725 101.275 322.82 98.1652L317.238 100.552C318.467 104.835 321.352 109.272 327.713 113.112ZM267.63 50.3917L267.314 67.5783L250.788 67.3396L251.033 50.0898L239.955 49.8862L239.218 92.0594L250.317 92.298L250.668 72.9632L267.223 73.265L266.907 92.5648L277.993 92.7333L278.716 50.5602L267.63 50.3917ZM426.347 184.309C426.424 184.414 432.848 187.587 439.988 181.178C445.955 175.814 443.954 168.463 437.72 161.562L426.227 148.791L394.894 177.028L402.301 185.243L414.776 174.052L418.378 178.117L410.48 195.935L419.937 203.489L426.347 184.309ZM431.942 163.535C434.877 166.792 434.926 170.661 431.514 173.665C428.193 176.726 423.952 176.024 420.73 172.486L418.855 170.387L429.464 160.804L431.942 163.535ZM383.043 152.761L393.539 144.048L401.957 154.067L406.309 150.437L397.843 140.376L406.724 132.899L415.394 143.227L419.698 139.639L403.859 120.76L371.571 147.874L389.011 168.691L393.363 165.075L383.043 152.761ZM370.939 89.3887L367.176 93.5169L376.022 101.513L351.506 128.711L359.777 136.146L384.258 108.941L392.991 116.804L396.74 112.676L370.939 89.3887ZM298.746 92.0622L303.211 79.2003L315.631 83.4829L317.477 78.1332L305.036 73.8575L308.821 62.8422L321.619 67.2301L323.417 61.9084L300.101 53.8838L286.397 93.8243L312.092 102.621L313.918 97.2996L298.746 92.0622ZM165.22 71.3996L181.059 96.646L145.794 83.4822L137.945 88.4107L160.305 124.237L168.822 118.873L152.878 93.3673L188.507 106.594L196.202 101.771L173.799 65.9657L165.22 71.3996ZM115.893 109.549L108.683 117.286L128.895 157.479L133.831 152.2L128.34 141.507L138.099 131.011L149.164 135.701L157.294 126.996L115.893 109.549ZM132.939 128.688L125.616 136.551L118.09 122.088L132.939 128.688ZM92.0716 135.055L84.2225 144.399L98.8887 174.728L67.4361 164.429L60.6682 172.447L92.9844 199.581L97.8918 193.754L75.0535 174.532L105.664 184.501L108.886 180.682L94.2902 151.434L117.227 170.663L124.388 162.189L92.0716 135.055Z" fill="#FFE500"/>
<path d="M42.7021 156.545L42.667 147.243C58.5407 132.668 66.0248 118.023 66.0248 118.023C66.0248 118.023 60.1906 115.825 57.5789 112.504C56.2871 110.658 55.7886 108.138 56.0063 106.446C56.5118 103.272 58.983 101.664 59.8255 101.299C61.6509 100.513 65.0419 98.7298 68.819 103.925C72.8418 109.549 71.7817 120.22 71.227 122.677C71.227 122.677 63.8273 135.56 42.7021 156.545Z" fill="url(#paint4_radial_1_2655)"/>
<path d="M60.2681 119.719C58.1267 123.454 52.7278 132.469 39.0726 145.268C36.805 147.395 31.1463 149.199 27.9379 145.598C26.7374 144.201 25.944 142.242 26.0634 139.967C26.2178 137.334 27.7975 134.273 29.3841 132.925C32.1362 130.601 43.8678 118.758 52.2083 109.441C52.44 111.14 53.9003 113.984 53.9003 113.984C55.0517 115.57 56.4558 117.852 60.2681 119.719Z" fill="url(#paint5_linear_1_2655)"/>
<path d="M252.95 410.217C202.907 410.217 145.962 380.688 104.021 332.919C99.752 328.068 94.318 321.827 81.386 321.827C73.8317 321.827 65.2665 325.871 59.5868 332.126C55.3112 336.774 50.5161 344.967 51.6675 357.527C53.3314 374.685 80.5224 419.091 128.986 446.668C168.049 468.888 209.759 480.115 252.95 480.115" fill="url(#paint6_linear_1_2655)"/>
<path d="M252.95 410.217C302.993 410.217 359.938 380.688 401.88 332.919C406.148 328.068 411.582 321.827 424.514 321.827C432.068 321.827 440.634 325.871 446.313 332.126C450.589 336.774 455.384 344.967 454.233 357.527C452.569 374.685 425.378 419.091 376.914 446.668C337.851 468.888 296.141 480.115 252.95 480.115" fill="url(#paint7_linear_1_2655)"/>
<path d="M389.098 192.315C410.444 220.809 428.516 231.564 445.878 227.148C470.97 220.759 474.087 186.225 474.424 175.771V175.357L474.143 175.139C465.297 169.01 450.497 158.851 425.7 123.699" fill="url(#paint8_linear_1_2655)"/>
<path d="M117.714 192.315C96.3675 220.809 78.2963 231.564 60.9342 227.148C35.8423 220.759 32.7252 186.225 32.3882 175.771V175.357L32.669 175.139C41.515 169.01 56.3146 158.851 81.1116 123.699" fill="url(#paint9_linear_1_2655)"/>
<path d="M328.569 38.9663C311.747 33.3357 299.033 28.9478 278.315 27.1084C287.863 20.4809 296.337 14.8713 306.082 14.8713C311.207 14.8713 315.588 16.8301 316.599 20.4107C317.539 23.6682 314.97 25.0864 314.057 24.8688C313.102 24.6231 312.421 24.3423 312.653 23.4576C312.899 22.5239 312.176 20.1509 308.918 20.1509C305.604 20.1509 304.355 23.2189 304.355 25.3251C304.355 27.4313 307.696 30.9487 313.839 30.9487C319.863 30.9487 322.952 26.9329 322.721 23.2189C325.627 27.4735 327.319 31.7771 328.569 38.9663Z" fill="url(#paint10_radial_1_2655)"/>
<path d="M254.16 16.8856C253.634 20.101 249.934 23.1831 246.192 23.1831C242.443 23.1831 241.319 22.5794 241.319 22.5794C240.751 23.464 240.252 24.145 239.663 25.0998C243.061 24.9663 250.945 24.7487 254.104 24.7487C257.256 24.7487 265.997 25.2051 267.879 25.3385C264.839 18.2125 258.976 8.34848 254.926 8.34848C254.785 8.34848 254.61 8.33484 254.392 8.33484C253.444 8.33484 250.161 11.1814 248.402 13.6809C246.091 16.9646 254.16 16.8856 254.16 16.8856Z" fill="url(#paint11_radial_1_2655)"/>
<path d="M464.11 156.545L464.145 147.243C448.271 132.668 440.787 118.023 440.787 118.023C440.787 118.023 446.621 115.825 449.233 112.504C450.525 110.658 451.023 108.138 450.806 106.446C450.3 103.272 447.829 101.664 446.987 101.299C445.161 100.513 441.77 98.7298 437.993 103.925C433.97 109.549 435.03 120.22 435.585 122.677C435.585 122.677 442.985 135.56 464.11 156.545Z" fill="url(#paint12_radial_1_2655)"/>
<path d="M446.544 119.719C448.685 123.454 454.084 132.469 467.74 145.268C470.007 147.395 475.666 149.199 478.874 145.598C480.075 144.201 480.868 142.242 480.749 139.967C480.594 137.334 479.015 134.273 477.428 132.925C474.676 130.601 462.945 118.758 454.604 109.441C454.372 111.14 452.912 113.984 452.912 113.984C451.761 115.57 450.356 117.852 446.544 119.719Z" fill="url(#paint13_linear_1_2655)"/>
<path d="M158.901 153.305V350.88L253.371 411.581L347.834 350.88L347.975 153.607C344.949 150.939 338.665 145.091 333.744 142.03H172.564C168.485 144.894 160.313 151.788 158.901 153.305Z" stroke="black" stroke-width="3.58054" stroke-miterlimit="3.863"/>
<path d="M322.632 480.185C313.358 482.642 306.731 484.72 291.11 486.616C291.11 486.616 291.608 488.195 295.006 488.069C296.305 487.985 296.48 487.662 296.93 487.585C297.934 487.402 299.387 488.42 299.24 490.112C299.085 491.306 298.088 492.787 294.62 492.787C291.152 492.787 287.115 489.965 285.072 487.325C285.072 487.325 283.001 487.809 280.845 487.915C280.845 487.915 287.522 497.238 300.637 497.238C315.036 497.238 320.4 484.313 322.632 480.185Z" fill="url(#paint14_radial_1_2655)"/>
<path d="M8.06934 277.38C8.06934 253.544 27.4112 234.16 51.2745 234.16C75.1447 234.16 94.4727 253.544 94.4727 277.38C94.4727 301.257 75.1447 320.599 51.2745 320.599C27.4112 320.599 8.06934 301.257 8.06934 277.38Z" fill="#FFE500" stroke="black" stroke-width="3.58054" stroke-miterlimit="3.863"/>
<path d="M17.96 275.773C17.96 257.701 32.8738 243.005 51.2738 243.005C69.6792 243.005 84.5821 257.701 84.5821 275.773C84.5821 293.876 69.6792 308.54 51.2738 308.54C32.8738 308.54 17.96 293.876 17.96 275.773Z" fill="url(#paint15_radial_1_2655)"/>
<path d="M60.4504 307.083C58.5548 307.687 57.7334 306.36 56.8699 305.405C53.5069 301.537 52.6434 291.238 52.6434 289.876C52.6434 288.507 53.1489 287.004 54.1107 286.969C62.2196 286.815 68.0117 284.463 73.3263 280.047C78.6339 275.708 80.9367 270.73 81.407 269.846C81.8704 268.863 82.9726 269.038 83.1763 270.4C83.4009 271.538 83.8292 273.581 83.8292 275.792C83.8292 290.634 73.8247 302.759 60.4504 307.083ZM51.8922 308.424C51.6605 308.424 51.4008 308.452 51.1831 308.452C45.2085 308.452 38.6302 306.171 34.7337 303.952C30.6968 301.755 29.1804 291.392 29.1804 286.155C29.1804 269.102 36.1729 258.95 37.3103 256.956C38.4195 254.934 40.9189 254.723 42.7513 255.215C44.6469 255.762 45.3209 256.092 47.5043 256.738C48.6416 257.11 50.9514 257.581 52.6855 257.89C54.4196 258.304 56.2872 258.669 55.1639 261.905C54.0546 265.149 50.2775 272.942 49.8983 282.181C49.5333 290.543 50.6425 298.848 52.5311 303.952C53.7738 307.252 53.7737 308.487 51.8922 308.424ZM27.2076 269.495C25.6139 268.652 23.6972 264.538 23.0513 263.338C22.616 262.474 22.616 260.003 23.2409 258.95C25.9087 254.281 29.6929 249.956 34.5652 247.703C35.162 247.443 35.9974 247.394 35.9974 248.826C35.9974 249.591 36.4116 250.785 36.4257 251.543C36.4257 252.308 36.7487 253.874 35.7798 255.109C34.7618 256.352 30.402 264.082 29.2857 268.414C29.1031 269.382 28.8083 270.4 27.2076 269.495ZM26.3089 296.861C21.7876 292.396 18.5651 284.308 18.5651 275.792C18.5651 272.485 19.0565 269.319 19.9341 266.314C19.9341 266.314 20.7415 264.966 21.4436 266.111C21.9842 266.953 22.7284 267.803 23.3321 268.926C24.0061 270.049 27.5024 272.71 27.2076 274.88C25.986 282.848 27.0812 293.435 27.4603 295.218C27.7973 296.981 27.3128 297.732 26.3089 296.861ZM40.5819 244.922C43.9307 243.813 47.5043 243.188 51.1831 243.188C56.7786 243.188 62.2126 244.206 66.7479 247.099C67.9134 247.857 68.2433 248.742 68.2433 250.054C68.2433 254.33 61.5596 255.762 57.1366 255.762C52.6855 255.762 47.2094 254 43.334 252.772C39.4726 251.564 38.6302 249.331 38.6302 248.313C38.6302 247.338 39.3814 245.316 40.5819 244.922ZM70.7567 249.675C71.3535 250.16 72.9331 251.438 72.9331 251.438C76.0503 254.281 78.8656 257.524 80.5014 261.414C82.5444 266.314 76.2048 273.735 74.3443 275.448C65.9476 283.332 60.6891 283.185 57.7123 283.613C54.7356 284.049 52.8049 282.181 52.8821 279.941C53.0716 273.384 57.7404 262.081 59.0814 259.954C59.9379 258.585 61.4263 257.735 61.4263 257.735C64.5434 256.872 67.5693 255.573 69.135 253.789C70.6655 251.978 70.7567 249.675 70.7567 249.675ZM51.506 241.061C31.434 241.061 15.1812 257.321 15.1812 277.379C15.1812 297.451 31.434 313.704 51.506 313.704C71.5641 313.704 87.852 297.451 87.852 277.379C87.852 257.321 71.5641 241.061 51.506 241.061Z" fill="#DA020E"/>
<path d="M413.176 277.295C413.176 253.46 432.518 234.146 456.381 234.146C480.258 234.146 499.586 253.46 499.586 277.295C499.586 301.173 480.258 320.522 456.381 320.522C432.518 320.522 413.176 301.173 413.176 277.295Z" fill="#FFE500" stroke="black" stroke-width="3.58054" stroke-miterlimit="3.863"/>
<path d="M481.683 296.712C480.735 297.645 480.202 296.831 480.602 295.083C480.932 293.349 482.034 282.726 480.806 274.758C480.504 272.596 484.021 269.942 484.667 268.805C485.313 267.688 486.05 266.818 486.57 266.003C487.293 264.824 488.058 266.144 488.058 266.144C488.985 269.184 489.434 272.364 489.434 275.657C489.434 284.201 486.169 292.261 481.683 296.712ZM478.756 268.299C477.632 263.981 473.244 256.217 472.254 254.981C471.258 253.787 471.573 252.201 471.587 251.435C471.587 250.677 472.023 249.463 472.023 248.676C472.023 247.307 472.851 247.335 473.441 247.595C478.341 249.849 482.104 254.11 484.8 258.821C485.397 259.895 485.411 262.353 484.969 263.188C484.337 264.396 482.434 268.51 480.806 269.38C479.177 270.272 478.938 269.233 478.756 268.299ZM473.301 303.831C469.397 306.014 462.819 308.317 456.816 308.317H456.121C454.274 308.366 454.232 307.081 455.496 303.796C457.329 298.734 458.473 290.393 458.094 282.053C457.715 272.771 453.987 265.063 452.828 261.798C451.705 258.561 453.58 258.168 455.335 257.803C457.076 257.459 459.379 256.954 460.523 256.589C462.671 255.936 463.366 255.606 465.262 255.065C467.108 254.588 469.594 254.826 470.724 256.799C471.833 258.821 478.84 269.036 478.84 286.047C478.84 291.257 477.309 301.605 473.301 303.831ZM447.584 306.948C434.174 302.602 424.191 290.484 424.191 275.657C424.191 273.473 424.619 271.451 424.795 270.272C425.055 268.91 426.08 268.685 426.592 269.689C427.062 270.602 429.393 275.572 434.673 279.925C440.023 284.306 445.758 286.7 453.916 286.869C454.906 286.918 455.37 288.371 455.37 289.768C455.37 291.151 454.534 301.43 451.185 305.27C450.294 306.253 449.437 307.601 447.584 306.948ZM427.547 261.299C429.141 257.41 431.97 254.11 435.087 251.33C435.087 251.33 436.632 250.024 437.228 249.568C437.228 249.568 437.355 251.892 438.906 253.633C440.451 255.388 443.449 256.764 446.566 257.586C446.566 257.586 448.033 258.477 448.911 259.846C450.294 261.91 454.927 273.199 455.131 279.806C455.187 282.053 453.278 283.92 450.294 283.492C447.303 283.092 442.059 283.183 433.669 275.341C431.815 273.621 425.476 266.214 427.547 261.299ZM441.251 246.977C445.85 244.071 451.214 243.053 456.816 243.053C460.523 243.053 464.047 243.685 467.424 244.794C468.667 245.18 469.397 247.181 469.397 248.185C469.397 249.175 468.576 251.435 464.686 252.65C460.811 253.844 455.356 255.627 450.912 255.627C446.44 255.627 439.777 254.173 439.777 249.919C439.777 248.634 440.1 247.7 441.251 246.977ZM456.472 240.968C436.421 240.968 420.161 257.234 420.161 277.243C420.161 297.365 436.421 313.568 456.472 313.568C476.558 313.568 492.818 297.365 492.818 277.243C492.818 257.234 476.558 240.968 456.472 240.968Z" fill="#DA020E"/>
<path d="M423.56 275.613C423.56 257.541 438.474 242.845 456.874 242.845C475.279 242.845 490.182 257.541 490.182 275.613C490.182 293.716 475.279 308.38 456.874 308.38C438.474 308.38 423.56 293.716 423.56 275.613Z" fill="url(#paint16_radial_1_2655)"/>
<defs>
<filter id="filter0_f_1_2655" x="139.816" y="62.5009" width="227.244" height="369.775" filterUnits="userSpaceOnUse" color-interpolation-filters="sRGB">
<feFlood flood-opacity="0" result="BackgroundImageFix"/>
<feBlend mode="normal" in="SourceGraphic" in2="BackgroundImageFix" result="shape"/>
<feGaussianBlur stdDeviation="5.27602" result="effect1_foregroundBlur_1_2655"/>
</filter>
<radialGradient id="paint0_radial_1_2655" cx="0" cy="0" r="1" gradientUnits="userSpaceOnUse" gradientTransform="translate(254.565 494.545) scale(16.9293 12.5848)">
<stop stop-color="#FFE500"/>
<stop offset="0.5" stop-color="#FFE500"/>
<stop offset="1" stop-color="#E15007"/>
</radialGradient>
<radialGradient id="paint1_radial_1_2655" cx="0" cy="0" r="1" gradientUnits="userSpaceOnUse" gradientTransform="translate(208.06 488.711) scale(17.9013 16.0957)">
<stop stop-color="#FFE500"/>
<stop offset="0.5" stop-color="#FFE500"/>
<stop offset="1" stop-color="#E15007"/>
</radialGradient>
<linearGradient id="paint2_linear_1_2655" x1="248.497" y1="216.416" x2="248.497" y2="310.396" gradientUnits="userSpaceOnUse">
<stop stop-color="#8F0904"/>
<stop offset="0.249601" stop-color="#B40509"/>
<stop offset="1" stop-color="#DA020E"/>
</linearGradient>
<radialGradient id="paint3_radial_1_2655" cx="0" cy="0" r="1" gradientUnits="userSpaceOnUse" gradientTransform="translate(199.599 27.9748) scale(20.4665 19.4871)">
<stop stop-color="#FFE500"/>
<stop offset="0.5" stop-color="#FFE500"/>
<stop offset="1" stop-color="#E15007"/>
</radialGradient>
<radialGradient id="paint4_radial_1_2655" cx="0" cy="0" r="1" gradientUnits="userSpaceOnUse" gradientTransform="translate(50.8232 131.865) rotate(-60.273) scale(31.9362 28.0937)">
<stop stop-color="#FFE500"/>
<stop offset="0.5" stop-color="#FFE500"/>
<stop offset="1" stop-color="#E15007"/>
</radialGradient>
<linearGradient id="paint5_linear_1_2655" x1="46.5315" y1="119.16" x2="54.2947" y2="127.693" gradientUnits="userSpaceOnUse">
<stop stop-color="#FFE500"/>
<stop offset="0.5" stop-color="#FFE500"/>
<stop offset="1" stop-color="#E15007"/>
</linearGradient>
<linearGradient id="paint6_linear_1_2655" x1="64.1653" y1="330.976" x2="117.789" y2="392.523" gradientUnits="userSpaceOnUse">
<stop stop-color="#740703"/>
<stop offset="1" stop-color="#DA020E" stop-opacity="0"/>
</linearGradient>
<linearGradient id="paint7_linear_1_2655" x1="441.735" y1="330.976" x2="388.111" y2="392.523" gradientUnits="userSpaceOnUse">
<stop stop-color="#740703"/>
<stop offset="1" stop-color="#DA020E" stop-opacity="0"/>
</linearGradient>
<linearGradient id="paint8_linear_1_2655" x1="461.632" y1="217.715" x2="432.611" y2="190.408" gradientUnits="userSpaceOnUse">
<stop stop-color="#740703"/>
<stop offset="1" stop-color="#DA020E" stop-opacity="0"/>
</linearGradient>
<linearGradient id="paint9_linear_1_2655" x1="45.1805" y1="217.715" x2="75.9081" y2="185.288" gradientUnits="userSpaceOnUse">
<stop stop-color="#740703"/>
<stop offset="1" stop-color="#DA020E" stop-opacity="0"/>
</linearGradient>
<radialGradient id="paint10_radial_1_2655" cx="0" cy="0" r="1" gradientUnits="userSpaceOnUse" gradientTransform="translate(307.213 27.9748) rotate(180) scale(20.4665 19.4871)">
<stop stop-color="#FFE500"/>
<stop offset="0.5" stop-color="#FFE500"/>
<stop offset="1" stop-color="#E15007"/>
</radialGradient>
<radialGradient id="paint11_radial_1_2655" cx="0" cy="0" r="1" gradientUnits="userSpaceOnUse" gradientTransform="translate(253.406 18.496) scale(15.4622 14.7792)">
<stop stop-color="#FFE500"/>
<stop offset="0.5" stop-color="#FFE500"/>
<stop offset="1" stop-color="#E15007"/>
</radialGradient>
<radialGradient id="paint12_radial_1_2655" cx="0" cy="0" r="1" gradientUnits="userSpaceOnUse" gradientTransform="translate(455.989 131.865) rotate(-119.727) scale(31.9362 28.0936)">
<stop stop-color="#FFE500"/>
<stop offset="0.5" stop-color="#FFE500"/>
<stop offset="1" stop-color="#E15007"/>
</radialGradient>
<linearGradient id="paint13_linear_1_2655" x1="460.281" y1="119.16" x2="452.518" y2="127.693" gradientUnits="userSpaceOnUse">
<stop stop-color="#FFE500"/>
<stop offset="0.5" stop-color="#FFE500"/>
<stop offset="1" stop-color="#E15007"/>
</linearGradient>
<radialGradient id="paint14_radial_1_2655" cx="0" cy="0" r="1" gradientUnits="userSpaceOnUse" gradientTransform="translate(301.739 488.711) rotate(180) scale(17.9013 16.0957)">
<stop stop-color="#FFE500"/>
<stop offset="0.5" stop-color="#FFE500"/>
<stop offset="1" stop-color="#E15007"/>
</radialGradient>
<radialGradient id="paint15_radial_1_2655" cx="0" cy="0" r="1" gradientUnits="userSpaceOnUse" gradientTransform="translate(51.2711 275.773) scale(33.3111 32.7679)">
<stop stop-color="#DA030E" stop-opacity="0"/>
<stop offset="0.875" stop-color="#DA020E" stop-opacity="0"/>
<stop offset="1" stop-color="#DA020E"/>
</radialGradient>
<radialGradient id="paint16_radial_1_2655" cx="0" cy="0" r="1" gradientUnits="userSpaceOnUse" gradientTransform="translate(456.871 275.613) scale(33.3111 32.7679)">
<stop stop-color="#DA030E" stop-opacity="0"/>
<stop offset="0.875" stop-color="#DA020E" stop-opacity="0"/>
<stop offset="1" stop-color="#DA020E"/>
</radialGradient>
</defs>
</svg>
