<svg width="512" height="512" viewBox="0 0 512 512" fill="none" xmlns="http://www.w3.org/2000/svg">
<g clip-path="url(#clip0_1_2126)">
<path d="M256.062 0.0625C114.938 0.0625 0.0625 114.938 0.0625 256.062C0.0625 397.188 114.938 512.062 256.062 512.062C397.188 512.062 512.062 397.188 512.062 256.062C511.938 114.938 397.188 0.0625 256.062 0.0625Z" fill="#00285E"/>
<path d="M485.312 256.062C485.312 129.438 382.688 26.8125 255.938 26.8125C129.312 26.8125 26.5625 129.438 26.5625 256.062C26.5625 382.687 129.312 485.437 255.938 485.437C382.688 485.312 485.312 382.687 485.312 256.062Z" fill="white"/>
<path d="M402.062 256.062C402.062 175.438 336.688 110.062 256.062 110.062C175.438 110.062 110.062 175.438 110.062 256.062C110.062 336.688 175.438 402.062 256.062 402.062C336.688 402.062 402.062 336.688 402.062 256.062Z" fill="#6CADDF"/>
<path d="M256.062 413.562C169.187 413.562 98.5625 342.812 98.5625 255.937C98.5625 169.062 169.187 98.4375 256.062 98.4375C342.937 98.4375 413.687 169.062 413.687 255.937C413.562 342.937 342.937 413.562 256.062 413.562ZM256.062 107.313C174.062 107.313 107.312 174.062 107.312 256.062C107.312 338.062 174.062 404.812 256.062 404.812C338.062 404.812 404.812 338.062 404.812 256.062C404.812 174.062 338.062 107.313 256.062 107.313Z" fill="#00285E"/>
<path d="M256.065 501.565C120.69 501.565 10.5651 391.44 10.5651 256.065C10.5651 120.69 120.69 10.5654 256.065 10.5654C391.44 10.5654 501.565 120.69 501.565 256.065C501.44 391.44 391.44 501.565 256.065 501.565ZM256.065 15.8154C123.565 15.8154 15.9401 123.565 15.9401 256.065C15.9401 388.44 123.69 496.19 256.065 496.19C388.44 496.19 496.19 388.44 496.19 256.065C496.19 123.565 388.44 15.8154 256.065 15.8154Z" fill="#6CADDF"/>
<path d="M51.1888 250.439L47.0628 251.439L45.9375 247.188L52.8142 245.188H56.315V269.193H51.1888V250.439Z" fill="#6CADDF"/>
<path d="M62.3165 262.567C62.3165 259.566 63.6919 257.941 66.1925 256.815C64.317 255.69 63.1917 254.19 63.1917 251.564V251.439C63.1917 247.813 66.5676 244.938 71.5688 244.938C76.57 244.938 79.9458 247.813 79.9458 251.439V251.564C79.9458 254.065 78.8206 255.69 76.9451 256.815C79.3207 258.066 80.821 259.566 80.821 262.442V262.567C80.821 266.943 76.9451 269.569 71.6938 269.569C66.4425 269.569 62.3165 266.693 62.3165 262.567ZM75.5698 262.192C75.5698 260.316 73.8193 259.191 71.4438 259.191C69.0682 259.191 67.3177 260.316 67.3177 262.067C67.3177 263.692 68.8181 265.067 71.4438 265.067C74.0694 265.067 75.5698 263.817 75.5698 262.192ZM74.9446 252.189C74.9446 250.689 73.6943 249.314 71.5688 249.314C69.4433 249.314 68.193 250.564 68.193 252.064V252.189C68.193 253.815 69.5683 255.065 71.5688 255.065C73.5693 255.065 74.9446 253.815 74.9446 252.189Z" fill="#6CADDF"/>
<path d="M439.691 259.316C438.44 260.316 436.94 260.941 434.815 260.941C429.688 260.941 426.312 258.066 426.312 253.315V253.19C426.312 248.438 430.063 244.812 435.44 244.812C438.691 244.812 440.441 245.563 442.316 247.438C444.067 249.189 445.067 251.689 445.067 256.44V256.565C445.067 264.317 441.441 269.569 434.69 269.569C431.189 269.569 428.938 268.443 426.813 266.693L429.563 262.692C431.314 264.067 432.814 264.692 434.815 264.692C438.44 264.692 439.441 261.317 439.691 259.316ZM439.816 253.065C439.816 250.939 438.315 249.314 435.69 249.314C433.064 249.314 431.689 250.814 431.689 252.939V253.065C431.689 255.19 433.314 256.69 435.815 256.69C438.315 256.565 439.816 255.065 439.816 253.065Z" fill="#6CADDF"/>
<path d="M461.816 263.942H450.188L449.312 260.191L462.316 245.062H466.692V259.691H469.943V263.942H466.692V269.068H461.691V263.942H461.816ZM461.816 259.691V252.314L455.439 259.691H461.816Z" fill="#6CADDF"/>
<path d="M256.062 404.812C174.062 404.812 107.312 338.062 107.312 256.062C107.312 174.062 174.062 107.312 256.062 107.312C338.062 107.312 404.812 174.062 404.812 256.062C404.812 338.062 338.062 404.812 256.062 404.812ZM256.062 112.812C177.062 112.812 112.812 177.062 112.812 256.062C112.812 335.062 177.062 399.312 256.062 399.312C335.062 399.312 399.312 335.062 399.312 256.062C399.312 177.062 335.062 112.812 256.062 112.812Z" fill="white"/>
<path fill-rule="evenodd" clip-rule="evenodd" d="M253.313 127.938C179.938 127.938 137.563 137.562 137.563 137.562C137.563 137.562 120.688 201.937 130.313 284.312C134.313 318.937 162.438 393.312 255.688 418.812C348.938 393.437 377.063 318.937 381.063 284.312C390.688 201.812 373.813 137.562 373.813 137.562C373.813 137.562 331.438 127.938 258.063 127.938H253.313Z" fill="#00285E"/>
<path fill-rule="evenodd" clip-rule="evenodd" d="M368.187 265.188C367.312 290.188 363.437 364.937 255.562 406.062C148.562 366.062 142.938 288.688 142.938 265.188H368.187Z" fill="#97C1E7"/>
<path fill-rule="evenodd" clip-rule="evenodd" d="M364.938 261.062C367.813 199.062 357.313 148.812 357.313 148.812C357.313 148.812 317.063 141.062 255.688 141.062C194.188 141.062 153.313 149.562 153.313 149.562C153.313 149.562 142.188 200.062 145.188 260.937H364.938V261.062Z" fill="white"/>
<path d="M258.938 403.813L145.063 266.188C140.938 294.563 163.938 378.188 258.938 403.813Z" fill="#6CADDF"/>
<path d="M179.062 265.312L284.438 392.438C295.063 387.312 302.938 382.313 310.438 376.312L218.438 265.312H179.062Z" fill="#6CADDF"/>
<path d="M252.188 265.438L330.062 359.312C337.688 350.687 344.188 342.812 348.812 334.562L291.562 265.438H252.188Z" fill="#6CADDF"/>
<path d="M366.322 265.438L327.438 265.312L360.07 304.697C365.697 292.569 366.322 272.189 366.322 265.438Z" fill="#6CADDF"/>
<path d="M301.562 316.937C301.312 316.062 300.562 315.312 299.687 314.937L293.188 312.687C292.562 312.437 292.063 312.562 291.438 312.687C290.938 310.437 289.687 308.437 287.812 307.062C287.562 306.937 287.313 306.687 287.063 306.562C286.688 306.312 286.188 306.062 285.688 305.812C284.812 305.437 283.938 305.187 283.188 304.937C281.312 304.312 279.438 303.687 277.063 302.062C274.813 300.437 273.812 298.937 272.812 297.562C272.562 297.187 272.313 296.937 272.063 296.562C271.438 295.562 270.562 294.687 269.687 293.937C268.062 292.812 266.062 292.187 264.062 292.187C263.562 292.187 263.188 292.312 262.688 292.312C262.688 292.312 262.688 292.312 262.688 292.187C262.813 291.437 262.562 290.562 262.187 289.937L258.188 284.562C257.562 283.812 256.688 283.312 255.688 283.312C254.687 283.312 253.813 283.687 253.313 284.437L249.062 289.812C248.562 290.437 248.312 291.312 248.437 292.187C248.062 292.187 247.812 292.062 247.437 292.062C245.437 292.062 243.437 292.687 241.812 293.812C241.562 293.937 241.312 294.187 241.187 294.312C240.812 294.687 240.437 294.937 240.062 295.437C239.437 296.187 238.937 296.812 238.437 297.562C237.187 299.187 236.187 300.687 233.687 302.437C231.437 304.062 229.687 304.562 228.062 305.062C227.687 305.187 227.312 305.312 226.938 305.437C225.812 305.687 224.687 306.187 223.687 306.937C221.687 308.312 220.437 310.437 219.937 312.812C219.312 312.562 218.562 312.562 217.812 312.687L211.438 314.812C210.563 315.062 209.812 315.812 209.437 316.687C209.187 317.562 209.313 318.562 209.813 319.312L213.687 324.937C214.187 325.562 214.812 325.937 215.562 326.187C214.562 328.312 214.312 330.937 215.062 333.187C215.187 333.437 215.312 333.687 215.312 333.937C215.437 334.437 215.688 334.937 216.063 335.437C216.563 336.187 217.062 336.937 217.562 337.562C218.812 339.187 219.938 340.687 220.813 343.562C221.688 346.187 221.562 347.938 221.562 349.688C221.562 350.062 221.562 350.562 221.562 350.938C221.437 352.188 221.563 353.312 222.063 354.437C222.813 356.687 224.437 358.562 226.312 359.688C226.062 360.188 225.812 360.687 225.937 361.187V367.937C225.937 368.937 226.437 369.812 227.187 370.312C227.937 370.812 228.938 371.062 229.813 370.812L236.438 368.937C237.063 368.812 237.437 368.312 237.812 367.937C239.812 369.812 242.563 370.687 245.188 370.562C245.688 370.562 246.187 370.438 246.812 370.312C247.687 370.062 248.562 369.812 249.312 369.562C251.187 368.937 253.062 368.312 256.062 368.312C258.813 368.312 260.437 368.937 262.187 369.437C262.562 369.562 262.938 369.687 263.313 369.812C264.438 370.312 265.687 370.437 266.812 370.437C269.187 370.437 271.563 369.438 273.313 367.812C273.688 368.312 274.062 368.562 274.687 368.812L281.187 370.812C282.062 371.062 283.063 370.937 283.938 370.437C284.688 369.937 285.188 369.062 285.188 368.062L285.312 361.312C285.312 360.812 285.187 360.312 284.937 359.812C286.937 358.687 288.562 356.812 289.188 354.562C289.312 354.312 289.312 354.062 289.438 353.687C289.562 353.187 289.687 352.687 289.687 352.062C289.812 351.187 289.812 350.312 289.812 349.437C289.812 347.437 289.812 345.562 290.688 342.687C291.562 340.062 292.562 338.687 293.687 337.312C293.937 336.937 294.188 336.687 294.438 336.312C295.188 335.437 295.812 334.312 296.187 333.187C296.937 330.812 296.687 328.188 295.562 325.938C296.187 325.688 296.688 325.437 297.063 324.937L301.062 319.437C301.688 318.812 301.937 317.937 301.562 316.937Z" fill="#00285E"/>
<path d="M252.062 331.563C252.062 329.438 253.813 327.812 255.938 327.812C258.064 327.812 259.814 329.563 259.814 331.563C259.814 333.689 258.064 335.314 255.938 335.314C253.813 335.314 252.062 333.564 252.062 331.563Z" fill="#FFC758"/>
<path d="M255.822 299.315C255.197 296.94 253.697 294.939 251.821 293.814L255.822 288.688L259.573 293.814C257.698 295.064 256.448 296.94 255.822 299.315ZM225.19 321.571C223.189 320.195 221.814 318.445 221.064 316.319L215.062 318.32L218.688 323.571C220.439 322.321 222.814 321.571 225.19 321.571ZM237.068 356.954C235.192 358.455 233.067 359.205 230.691 359.205V365.581L236.943 363.706C236.193 361.705 236.193 359.33 237.068 356.954ZM274.577 357.079C275.452 359.33 275.452 361.58 274.702 363.706L280.829 365.581L280.954 359.205C278.828 359.33 276.578 358.58 274.577 357.079ZM286.205 321.696C288.705 321.571 290.831 322.196 292.581 323.571L296.332 318.445L290.206 316.319C289.706 318.32 288.205 320.32 286.205 321.696ZM248.071 357.204C245.195 357.204 242.944 354.954 242.944 352.078C242.944 351.703 242.569 351.578 242.319 351.828C240.444 354.078 239.068 356.079 238.943 358.455C238.818 361.955 241.819 364.831 245.445 364.831C245.695 364.831 245.945 364.831 246.07 364.831C246.445 364.831 246.695 364.831 247.195 364.706C249.696 364.081 251.946 362.831 256.198 362.831C259.823 362.831 261.699 363.831 263.574 364.331C264.325 364.581 265.2 364.831 266.075 364.831C269.701 364.831 272.577 361.955 272.577 358.455C272.577 355.954 271.076 354.078 269.201 351.828C269.076 351.578 268.701 351.828 268.701 352.078C268.701 354.829 266.325 357.204 263.574 357.204C261.449 357.204 258.698 355.329 255.947 355.329C253.572 355.329 250.196 357.204 248.071 357.204ZM244.695 350.203C244.695 352.578 246.57 354.454 248.946 354.454C249.196 354.454 249.446 354.454 249.821 354.329C249.946 354.329 250.071 354.329 250.196 354.203H250.321C251.821 353.703 253.197 353.078 255.822 353.078C258.448 353.078 259.698 353.828 261.199 354.203C261.699 354.329 262.199 354.454 262.699 354.454C265.075 354.454 266.95 352.578 266.95 350.203C266.95 349.577 266.825 348.952 266.575 348.452C266.45 348.202 266.325 347.952 266.2 347.827C266.2 347.827 258.948 337.95 258.698 337.699C258.323 337.199 257.823 337.449 257.573 337.574C257.198 337.699 256.323 337.95 255.697 337.95C255.072 337.95 254.322 337.825 253.947 337.574C253.447 337.324 253.072 337.199 252.822 337.699C252.572 338.075 247.32 345.201 245.695 347.452C245.07 348.202 244.695 349.077 244.695 350.203ZM278.078 346.952C277.203 349.702 274.327 351.078 271.576 350.203C271.201 350.078 270.951 350.328 271.201 350.703C272.827 353.078 274.202 355.079 276.578 355.954C279.953 357.079 283.704 355.204 284.704 351.828C284.83 351.578 284.83 351.453 284.83 351.203C284.955 350.953 284.955 350.578 285.08 350.203C285.33 347.577 284.705 345.201 286.08 341.075C287.205 337.699 288.705 336.199 289.831 334.574C290.331 333.949 290.831 333.198 291.081 332.448C292.206 329.072 290.331 325.321 286.955 324.321C284.579 323.571 282.204 324.446 279.453 325.446C279.203 325.571 279.203 325.822 279.578 325.947C282.329 326.822 283.829 329.698 282.954 332.448C282.329 334.449 279.703 336.449 278.828 339.075C278.078 341.2 278.828 344.826 278.078 346.952ZM270.326 347.952C272.577 348.702 275.077 347.452 275.827 345.201C275.952 344.951 275.952 344.701 275.952 344.326C275.952 344.201 275.952 344.076 275.952 343.951V343.826C275.952 342.326 275.702 340.7 276.452 338.325C277.328 335.824 278.328 334.824 279.203 333.573C279.453 333.198 279.703 332.698 279.953 332.198C280.704 329.948 279.453 327.572 277.203 326.822C276.578 326.697 275.952 326.572 275.452 326.697C275.202 326.697 274.952 326.697 274.702 326.822C274.702 326.822 262.949 330.573 262.574 330.698C262.074 330.948 262.074 331.448 262.074 331.698C262.074 332.073 261.949 332.948 261.824 333.573C261.699 334.074 261.324 334.824 260.949 335.199C260.574 335.574 260.324 335.949 260.699 336.324C261.074 336.699 266.075 343.826 267.825 346.077C268.451 346.952 269.326 347.577 270.326 347.952ZM277.328 315.194C279.703 316.819 280.203 320.07 278.453 322.321C278.203 322.571 278.453 322.946 278.828 322.821C281.704 322.071 283.954 321.32 285.455 319.32C287.58 316.444 286.955 312.443 284.079 310.318C283.954 310.193 283.704 310.068 283.454 309.943C283.204 309.693 282.954 309.568 282.454 309.443C280.078 308.442 277.578 308.192 274.077 305.692C271.201 303.566 270.201 301.691 268.951 300.065C268.576 299.44 267.95 298.815 267.2 298.19C264.325 296.064 260.199 296.689 258.198 299.565C256.823 301.566 256.823 304.066 256.948 306.942C256.948 307.192 257.323 307.317 257.448 306.942C259.073 304.691 262.324 304.191 264.7 305.817C266.45 307.067 267.575 310.193 269.826 311.693C271.826 313.569 275.577 313.944 277.328 315.194ZM275.952 322.946C277.328 321.07 276.953 318.32 274.952 316.944C274.827 316.819 274.577 316.569 274.202 316.444C274.077 316.444 273.952 316.319 273.827 316.319H273.702C272.201 315.819 270.701 315.569 268.576 314.069C266.45 312.568 265.825 311.193 264.95 310.068C264.7 309.693 264.325 309.318 263.949 308.942C262.074 307.567 259.323 307.942 257.948 309.943C257.573 310.443 257.323 310.943 257.198 311.568C257.198 311.818 257.073 312.068 257.073 312.318C257.073 312.318 257.073 324.571 257.073 324.946C257.073 325.572 257.573 325.572 257.948 325.697C258.323 325.822 259.198 326.197 259.573 326.447C260.073 326.822 260.574 327.322 260.824 327.697C261.074 328.072 261.324 328.447 261.824 328.197C262.324 327.947 270.701 325.321 273.327 324.446C274.452 324.321 275.327 323.696 275.952 322.946ZM246.82 306.192C249.071 304.566 252.322 305.067 254.072 307.317C254.322 307.567 254.697 307.567 254.697 307.192C254.822 304.316 254.822 301.816 253.447 299.815C251.446 296.94 247.32 296.314 244.445 298.44C244.195 298.565 244.07 298.69 243.945 298.815C243.694 298.94 243.444 299.19 243.194 299.565C241.444 301.566 240.444 303.816 236.943 306.317C234.067 308.442 231.942 308.817 230.066 309.318C229.316 309.568 228.441 309.818 227.816 310.318C224.94 312.443 224.19 316.444 226.44 319.32C227.941 321.32 230.316 322.071 233.067 322.821C233.317 322.946 233.442 322.571 233.317 322.321C231.692 320.07 232.192 316.819 234.442 315.194C236.193 313.944 239.443 313.819 241.694 312.193C243.444 310.943 245.07 307.442 246.82 306.192ZM253.822 309.943C252.447 308.067 249.696 307.567 247.82 308.942C247.57 309.067 247.445 309.193 247.195 309.443C247.07 309.568 247.07 309.568 246.945 309.693L246.82 309.818C245.945 311.068 245.195 312.443 243.069 313.944C240.944 315.444 239.443 315.569 238.068 316.194C237.568 316.319 237.068 316.569 236.693 316.819C234.817 318.195 234.317 320.82 235.693 322.821C236.068 323.321 236.568 323.696 237.068 323.946C237.318 324.071 237.443 324.196 237.693 324.196C237.693 324.196 249.446 327.947 249.821 328.072C250.446 328.197 250.696 327.822 250.821 327.572C251.071 327.322 251.571 326.572 252.072 326.197C252.572 325.822 253.197 325.571 253.697 325.446C254.197 325.321 254.572 325.196 254.572 324.696C254.572 324.196 254.572 315.444 254.572 312.693C254.697 311.818 254.447 310.818 253.822 309.943ZM228.816 332.323C227.941 329.572 229.441 326.697 232.067 325.822C232.442 325.697 232.442 325.321 232.192 325.196C229.441 324.196 227.065 323.321 224.815 324.071C221.439 325.071 219.564 328.822 220.689 332.198C220.689 332.448 220.814 332.573 220.939 332.823C221.064 333.073 221.189 333.448 221.439 333.824C222.814 336.074 224.69 337.699 226.065 341.825C227.19 345.201 226.815 347.327 226.815 349.327C226.69 350.077 226.815 350.953 227.065 351.828C228.191 355.204 231.817 357.079 235.192 355.954C237.568 355.204 238.943 353.203 240.569 350.703C240.694 350.453 240.444 350.203 240.194 350.328C237.443 351.203 234.567 349.702 233.692 347.077C233.067 345.076 233.942 341.951 233.067 339.325C232.317 336.949 229.441 334.324 228.816 332.323ZM234.442 326.947C232.192 327.697 230.941 330.073 231.692 332.323C231.692 332.573 231.817 332.823 232.067 333.073C232.192 333.198 232.192 333.323 232.317 333.323C232.317 333.323 232.317 333.448 232.442 333.448C233.317 334.699 234.442 335.824 235.317 338.2C236.193 340.7 235.818 342.076 235.943 343.576C235.943 344.076 235.943 344.576 236.193 345.076C236.943 347.327 239.318 348.577 241.569 347.827C242.194 347.702 242.694 347.327 243.069 346.952C243.194 346.827 243.444 346.577 243.569 346.452C243.569 346.452 250.821 336.574 250.946 336.199C251.321 335.699 250.946 335.324 250.696 335.074C250.446 334.824 249.946 334.074 249.821 333.448C249.696 332.948 249.571 332.198 249.571 331.698C249.571 331.198 249.571 330.823 249.071 330.698C248.571 330.573 240.194 327.822 237.568 326.947C236.568 326.697 235.568 326.572 234.442 326.947Z" fill="#EE3124"/>
<path d="M291.813 199.315L318.194 190.188C318.194 190.188 315.944 201.19 316.569 209.692C317.319 220.695 323.695 229.072 323.695 229.072L291.188 240.325L291.813 199.315Z" fill="#FFC758"/>
<path d="M323.699 229.076C323.699 229.076 317.947 220.824 316.947 211.197C316.197 203.945 316.947 197.693 318.198 190.192C317.072 195.193 312.821 209.321 300.943 222.449C296.192 227.701 294.067 232.327 293.191 235.578L292.691 173.438C292.691 173.438 286.44 175.688 285.815 175.813C285.064 176.063 284.689 176.563 284.689 176.688C284.689 177.063 284.439 177.313 283.939 177.438C283.439 177.564 279.813 178.939 277.313 179.689C276.812 179.814 277.062 180.314 277.313 180.314C280.313 180.189 284.564 179.814 284.939 179.814C285.565 179.689 285.815 179.439 285.815 179.064C285.815 179.064 285.815 179.064 285.815 178.939C285.94 178.439 286.315 178.064 286.815 178.064C287.19 178.064 289.441 177.814 290.816 177.564L290.191 244.455H293.191V239.704L323.699 229.076Z" fill="#D4A11E"/>
<path d="M206.814 242.07C206.814 242.07 201.938 238.445 200.563 231.568C199.187 224.566 202.688 220.565 202.688 220.565L234.696 209.562C234.696 209.562 232.695 215.939 234.571 223.191C236.946 232.318 241.823 238.445 241.823 238.445C241.823 238.445 230.07 236.194 218.692 237.694C207.939 239.07 206.814 242.07 206.814 242.07Z" fill="#FFC758"/>
<path d="M170.062 234.071C170.062 234.071 174.063 223.193 185.691 211.315C194.568 202.313 200.32 199.688 200.32 199.688C200.32 199.688 195.194 207.064 193.068 219.192C191.693 226.694 193.193 236.196 193.193 236.196C193.193 236.196 187.192 234.946 180.315 234.196C174.564 233.571 170.062 234.071 170.062 234.071Z" fill="#FFC758"/>
<path d="M200.317 199.688C200.317 199.688 195.315 207.064 193.19 219.192C191.814 226.694 193.315 236.196 193.315 236.196C193.315 236.196 191.814 235.821 188.314 235.071C174.06 231.82 200.317 199.688 200.317 199.688Z" fill="#D4A11E"/>
<path d="M219.066 208.445L218.816 179.688C218.191 179.938 212.565 181.813 211.94 182.063C211.189 182.313 210.814 182.813 210.814 183.063C210.814 183.438 210.564 183.688 210.064 183.814C209.564 183.939 205.938 185.189 203.438 186.064C202.937 186.189 203.187 186.689 203.438 186.689C206.313 186.564 210.689 186.189 211.064 186.189C211.69 186.064 211.94 185.814 212.065 185.439C212.065 185.439 212.065 185.439 212.065 185.314C212.19 184.814 212.565 184.439 213.065 184.439C213.44 184.439 215.566 184.189 217.066 184.064L216.816 208.57H219.066V208.445Z" fill="#D4A11E"/>
<path d="M256.316 182.444H258.566V154.812C258.566 154.812 252.315 157.063 251.69 157.188C250.939 157.438 250.564 157.938 250.564 158.063C250.564 158.438 250.314 158.688 249.814 158.813C249.314 158.939 245.688 160.189 243.188 161.064C242.687 161.189 242.937 161.689 243.188 161.689C246.188 161.564 250.439 161.189 250.814 161.189C251.44 161.064 251.69 160.814 251.815 160.439C251.94 159.939 252.315 159.564 252.815 159.564C253.19 159.564 255.19 159.314 256.691 159.189L256.316 182.444Z" fill="#D4A11E"/>
<path d="M250.688 161.313H250.813C251.438 161.188 251.688 160.938 251.688 160.563C251.688 160.188 251.938 159.938 252.313 159.813L251.563 157.438C250.813 157.688 250.563 158.188 250.563 158.313C250.563 158.688 250.313 158.813 249.938 158.938L250.688 161.313Z" fill="#FFC758"/>
<path d="M210.938 186.063H211.063C211.688 185.938 211.938 185.688 211.938 185.313C212.063 184.938 212.188 184.688 212.563 184.563L211.813 182.188C211.063 182.438 210.813 182.938 210.813 183.063C210.813 183.438 210.563 183.563 210.188 183.688L210.938 186.063Z" fill="#FFC758"/>
<path d="M284.688 179.813H284.813C285.438 179.688 285.688 179.438 285.688 179.063C285.813 178.688 285.938 178.438 286.313 178.313L285.563 175.938C284.813 176.188 284.563 176.688 284.563 176.813C284.563 177.188 284.313 177.313 283.938 177.438L284.688 179.813Z" fill="#FFC758"/>
<path d="M241.821 238.445C241.821 238.445 236.695 230.943 234.694 222.941C232.944 216.064 234.694 209.562 234.694 209.562C234.694 209.562 231.319 221.315 223.192 227.692C217.565 232.193 203.687 236.319 206.938 242.07C207.438 241.32 208.813 239.82 214.439 238.445C215.065 238.32 215.815 238.194 216.565 238.069V247.572H219.566V237.694C229.943 236.569 241.821 238.445 241.821 238.445Z" fill="#D4A11E"/>
<path d="M203.438 218.57C203.438 218.57 199.687 216.319 200.188 209.067C200.688 201.565 204.439 198.315 204.439 198.065L229.32 189.562C229.32 189.562 227.444 193.313 228.819 198.94C230.32 205.691 234.696 209.567 234.696 209.567C234.696 209.567 222.193 209.692 210.94 213.568C205.439 215.444 203.438 218.57 203.438 218.57Z" fill="#FFC758"/>
<path d="M218.191 202.941C225.318 197.064 229.194 189.562 229.194 189.562C229.194 189.562 228.194 194.314 228.944 198.565C230.319 205.816 234.57 209.567 234.57 209.567C234.57 209.567 224.443 209.692 213.565 212.818C206.313 214.819 204.063 217.694 203.438 218.695C201.062 213.193 210.939 208.942 218.191 202.941Z" fill="#D4A11E"/>
<path d="M246.565 243.948C246.565 243.948 239.688 238.821 238.063 229.194C236.687 221.567 241.813 216.066 241.813 216.066L280.698 202.688C280.698 202.688 278.572 211.315 280.573 219.567C282.823 228.819 291.326 240.322 291.326 240.322C291.326 240.322 275.197 235.696 261.193 237.446C247.815 239.196 246.565 243.948 246.565 243.948Z" fill="#FFC758"/>
<path d="M238.688 182.318C238.437 176.441 242.564 171.69 242.689 171.44L270.57 161.688C270.57 161.688 268.695 166.064 269.195 169.814C270.07 176.941 274.071 180.692 274.071 180.692C274.071 180.692 263.069 180.067 250.19 184.568C243.064 187.069 242.313 190.445 242.313 190.445C242.313 190.445 238.938 189.569 238.688 182.318Z" fill="#FFC758"/>
<path d="M260.692 174.816C265.693 170.44 270.569 161.812 270.569 161.812C270.569 161.812 268.694 166.189 269.194 169.939C270.069 177.066 274.07 180.817 274.07 180.817C274.07 180.817 262.192 180.692 250.815 184.693C245.938 186.444 242.813 189.069 242.438 190.57C240.812 185.068 253.815 180.817 260.692 174.816Z" fill="#D4A11E"/>
<path d="M242.689 214.446C242.689 214.446 238.688 209.82 237.938 202.568C237.187 195.066 241.563 192.065 241.938 191.815L274.196 180.688C274.196 180.688 273.321 183.063 274.071 189.565C274.822 195.066 280.198 202.568 280.198 202.568C280.198 202.568 262.944 203.068 252.316 207.194C245.564 209.82 242.689 214.446 242.689 214.446Z" fill="#FFC758"/>
<path d="M264.068 195.816C271.069 189.815 274.195 180.812 274.195 180.812C274.195 180.812 273.32 185.939 274.195 189.94C275.821 196.941 280.822 202.818 280.822 202.818C280.822 202.818 265.818 203.068 254.94 206.694C247.814 209.069 243.438 213.32 242.813 214.571C241.187 208.444 257.066 201.818 264.068 195.816Z" fill="#D4A11E"/>
<path d="M291.949 240.947C291.949 240.947 283.197 229.569 280.571 219.567C278.946 212.94 280.196 205.438 280.696 202.812C279.696 206.313 276.195 217.691 267.568 225.693C259.316 233.32 243.062 236.946 246.563 244.073C247.188 242.947 249.063 240.197 255.69 238.571L255.565 247.698H258.691V237.946C273.069 235.696 291.949 240.947 291.949 240.947Z" fill="#D4A11E"/>
<path fill-rule="evenodd" clip-rule="evenodd" d="M306.937 262.312C308.937 261.937 310.937 261.437 313.937 260.687C313.812 260.562 313.562 260.437 313.437 260.312C310.187 256.687 310.687 252.812 312.687 250.937C319.937 244.187 319.812 239.187 319.812 239.187C319.812 239.187 302.187 242.812 278.937 244.062C277.437 244.187 272.062 246.562 270.437 246.562C267.187 246.687 263.937 246.812 260.562 246.812C216.687 247.187 204.437 244.062 190.062 241.438C175.437 238.688 169.062 235.812 169.062 235.812L168.562 237.312C168.562 237.312 180.062 241.812 188.312 245.812C190.062 246.688 196.937 256.937 199.187 260.437H147.062C144.187 200.688 155.687 151.813 155.687 151.813C155.687 151.813 195.562 143.312 255.562 143.312V136.938C191.937 136.938 149.562 145.937 149.562 145.937C149.562 145.937 131.062 211.188 140.812 288.938C144.937 321.312 171.687 381.937 255.312 410.062L258.937 404.937L255.312 399.812C176.562 373.437 153.562 320.062 149.562 289.687C148.687 282.937 148.062 276.187 147.562 269.687H255.687V260.562H200.187C201.437 256.562 205.312 255.562 210.187 256.687C215.187 257.937 220.187 259.187 224.937 258.937C236.812 258.312 235.062 255.188 236.187 255.188C248.437 255.938 253.062 258.937 263.687 258.687C273.437 258.562 276.812 255.937 277.687 255.937C289.562 255.812 294.062 261.312 305.937 262.312C306.312 262.312 306.687 262.312 306.937 262.312Z" fill="#FFC758"/>
<path fill-rule="evenodd" clip-rule="evenodd" d="M361.438 145.937C361.438 145.937 319.187 136.938 255.562 136.938V143.312C315.562 143.312 355.313 151.813 355.313 151.813C355.313 151.813 366.938 200.688 363.938 260.437H311.688C307.562 256.437 309.937 251.187 311.312 249.937C317.438 244.437 317.437 240.687 317.437 240.687C317.437 240.687 303.312 244.188 280.062 245.188C278.562 245.188 272.062 248.187 270.438 248.187C267.188 248.312 262.687 248.437 259.312 248.437C229.062 248.437 214.188 247.812 187.938 242.187C188.438 242.812 188.688 243.062 189.188 243.812C189.312 244.062 200.688 246.937 200.813 247.187C202.563 249.562 204.812 251.188 207.562 252.688C211.812 254.938 218.062 256.812 223.187 257.187C235.062 257.937 232.813 253.437 233.938 253.437C246.063 253.187 253.938 257.562 264.562 257.437C274.313 257.312 274.562 254.187 275.562 254.187C285.187 253.687 294.938 257.812 303.312 260.562H255.562V269.687H363.312C362.812 276.312 362.188 282.937 361.312 289.687C357.312 320.187 334.312 373.437 255.562 399.812V410.062C339.187 381.937 366.062 321.437 370.062 288.938C379.938 211.188 361.438 145.937 361.438 145.937Z" fill="#D4A11E"/>
<path d="M60.3125 174.071L64.6886 165.694L84.4434 164.319L74.4409 147.19L78.817 138.938L113.951 157.442L109.95 165.069L86.944 153.066L96.8214 170.82L96.6964 170.945L76.6915 172.946L99.4471 184.949L95.4461 192.576L60.3125 174.071Z" fill="#00285E"/>
<path d="M100.438 111.564L105.939 105.688L146.699 120.691L140.447 127.318L131.445 123.817L119.942 136.07L123.943 144.822L117.817 151.324L100.438 111.564ZM123.818 120.941L110.815 115.94L116.566 128.568L123.818 120.941Z" fill="#00285E"/>
<path d="M131.938 82.692L138.814 78.5659L167.446 89.8187L154.818 68.9386L162.195 64.4375L182.7 98.3208L176.323 102.197L146.816 90.5689L159.944 112.199L152.568 116.7L131.938 82.692Z" fill="#00285E"/>
<path d="M185.313 75.819C182.187 64.8163 187.688 53.5635 199.441 50.1877C206.568 48.0622 211.694 49.3125 216.195 51.6881L212.569 59.44C208.818 57.5645 205.443 56.8143 201.567 57.9396C195.19 59.8151 192.064 66.4417 193.94 73.0683V73.1933C195.815 79.6949 201.942 83.8209 208.443 81.9455C212.819 80.6952 214.945 78.1945 217.195 74.5687L224.072 78.4446C221.321 83.8209 217.696 87.6969 210.444 89.8224C199.316 93.0732 188.438 86.8216 185.313 75.819Z" fill="#00285E"/>
<path d="M232.938 43.9377L241.565 43.6877L242.065 59.4415L258.069 59.0664L257.694 43.3126L266.446 43.0625L267.446 82.8222L258.694 83.0723L258.319 67.0684L242.19 67.5685L242.69 83.4474L233.938 83.6974L232.938 43.9377Z" fill="#00285E"/>
<path d="M317.812 88.1941L325.064 84.6933C327.065 88.8193 329.69 92.1951 333.816 94.0705C337.067 95.5709 339.568 95.1958 340.568 93.0703V92.9453C341.568 90.9448 340.693 89.3194 335.442 85.0684C329.065 79.8171 325.314 75.6911 328.565 68.5643V68.4393C331.566 61.9377 338.818 60.0622 346.194 63.4381C351.446 65.8137 355.197 69.5646 357.447 74.1907L350.57 78.3167C348.445 74.5658 345.819 71.8151 342.819 70.4398C339.818 69.0644 337.567 69.6896 336.692 71.44V71.5651C335.567 73.9406 336.817 75.441 342.318 79.9421C348.695 85.1934 351.696 89.8195 348.695 96.071V96.1961C345.444 103.323 338.067 104.823 330.316 101.322C325.064 98.5717 320.438 94.0706 317.812 88.1941Z" fill="#00285E"/>
<path d="M375.817 90.5659L366.19 83.1891L371.066 76.8125L397.197 96.6924L392.321 103.194L382.694 95.8171L363.564 120.948L356.562 115.697L375.817 90.5659Z" fill="#00285E"/>
<path d="M438.571 146.938L446.698 163.191C448.949 167.693 449.449 171.819 448.324 175.319C447.323 178.32 445.073 180.696 441.697 182.446H441.572C435.821 185.322 430.694 184.072 426.693 180.321L418.316 195.324L413.69 186.197L421.192 172.819L418.066 166.692L406.688 172.444L402.812 164.692L438.571 146.938ZM429.194 171.318C431.069 175.069 434.195 176.32 437.196 174.819H437.321C440.697 173.194 441.197 169.943 439.321 166.192L435.445 158.44L425.318 163.567L429.194 171.318Z" fill="#00285E"/>
<path d="M291.315 70.5686L305.944 73.6943L310.07 66.6926L293.066 62.9417L294.691 55.0648L315.446 59.5659L317.197 52.0641L287.815 45.6875L279.438 84.447L309.07 90.9485L310.695 83.3217L289.565 78.6956L291.315 70.5686Z" fill="#00285E"/>
<path d="M409.195 108.562L378.688 134.069L398.192 157.199L404.069 152.198L390.315 135.694L396.692 130.318L406.444 141.946L414.321 139.32L402.693 125.317L408.82 120.19L422.448 136.444L428.45 131.443L409.195 108.562Z" fill="#00285E"/>
<path d="M188.688 447.068C188.688 435.44 197.315 426.062 209.818 426.062C217.445 426.062 221.946 428.563 225.822 432.314L220.195 438.816C217.069 435.94 213.944 434.315 209.818 434.315C202.941 434.315 198.065 439.941 198.065 446.943V447.068C198.065 453.944 202.816 459.821 209.818 459.821C214.444 459.821 217.319 457.945 220.445 455.07L226.072 460.821C221.946 465.322 217.319 468.073 209.443 468.073C197.565 467.823 188.688 458.57 188.688 447.068Z" fill="#00285E"/>
<path d="M234.688 426.688H243.565V467.072H234.688V426.688Z" fill="#00285E"/>
<path d="M264.19 434.94H251.938V426.688H285.446V434.94H273.193V467.197H264.316V434.94H264.19Z" fill="#00285E"/>
<path d="M304.691 451.193L289.188 426.688H299.565L309.192 442.941L318.945 426.688H329.072L313.568 450.943V467.072H304.691V451.193Z" fill="#00285E"/>
</g>
<defs>
<clipPath id="clip0_1_2126">
<rect width="512" height="512" fill="white" transform="translate(0.0625 0.0625)"/>
</clipPath>
</defs>
</svg>
