<svg width="509" height="512" viewBox="0 0 509 512" fill="none" xmlns="http://www.w3.org/2000/svg">
<path d="M396.422 337.607C396.422 337.607 396.422 337.795 396.422 337.943C396.422 337.862 396.422 337.755 396.422 337.607Z" fill="white" stroke="white" stroke-width="7.43253" stroke-miterlimit="3.864"/>
<path d="M396.422 337.956C396.422 338.184 396.436 338.345 396.422 337.956V337.956Z" fill="white" stroke="white" stroke-width="7.43253" stroke-miterlimit="3.864"/>
<path d="M396.422 337.956C396.422 338.184 396.436 338.345 396.422 337.956V337.956Z" fill="#231F20"/>
<path fill-rule="evenodd" clip-rule="evenodd" d="M486.029 363.098C481.494 354.834 482.313 341.793 470.788 339.351C458.794 339.003 445.888 343.658 435.168 350.178C430.982 354.364 436.684 357.973 436.912 362.051C438.2 367.861 441.112 372.986 441.689 379.036C439.019 379.962 436.336 381.25 433.545 381.948C431.211 382.766 429.238 381.599 427.722 380.204C420.853 377.064 413.985 380.673 408.283 383.571C405.841 387.529 401.186 384.161 397.697 385.557C387.689 386.133 375.239 385.905 366.854 393.593C361.152 399.174 367.202 405.694 366.612 411.973C350.915 416.172 335.419 420.935 318.904 423.149C314.37 423.967 309.593 424.544 304.938 425.241C290.395 427.455 275.49 429.078 261.537 429.427L261.067 428.971C261.188 428.381 261.765 427.925 261.537 427.227C271.532 414.763 285.74 405.225 299.585 398.356C301.571 397.309 303.422 395.686 305.635 394.988C307.38 392.654 310.063 392.882 311.928 390.681C323.801 383.343 336.828 374.73 342.879 361.582C344.743 358.791 345.199 355.531 346.38 352.378C347.306 349.588 347.306 347.146 348.232 344.356C351.143 351.453 351.612 360.294 359.179 364.493C368.597 371.59 380.833 373.442 392.344 369.377C407.236 363.554 415.393 347.495 416.788 332.254C417.486 330.269 419.807 329.92 420.397 327.948C418.304 326.083 417.244 323.172 418.304 320.609C419.109 317.939 422.96 318.409 423.309 315.605C422.598 314.907 421.671 314.679 420.853 314.102C418.062 312.117 416.547 308.977 417.244 305.596C417.486 302.927 420.974 301.88 421.43 299.318C419.337 298.62 416.896 298.271 415.621 296.406C415.621 295.467 416.788 295.011 417.486 294.783C424.583 293.495 436.335 291.053 441.46 299.076C449.027 308.4 439.596 318.865 440.293 328.873C441.112 331.087 440.414 334.468 442.735 335.622C442.735 327.478 450.892 325.278 455.305 319.455L456.473 321.199C459.264 317.014 455.883 310.721 459.384 306.643C460.431 305.945 461.477 307.34 462.524 306.643V305.368C459.612 302.699 459.733 298.848 459.143 295.239C459.491 293.495 461.584 294.662 462.295 293.267C460.202 291.872 458.566 289.537 457.52 287.216C456.822 282.91 452.636 280.227 449.483 278.026L451.697 275.343C452.515 273.009 454.152 270.916 455.078 268.595C452.515 267.897 449.376 267.199 447.042 265.442C451.12 259.163 450.65 250.55 450.892 244.151L449.725 244.848C449.135 240.542 449.027 235.779 447.042 232.277C446.116 232.519 446.813 234.021 445.646 233.673C443.433 229.017 441.688 223.906 437.61 220.176C435.638 219.706 437.382 221.92 436.228 222.269C432.619 219.706 430.862 215.99 430.406 211.912C429.359 211.912 429.117 212.958 428.889 213.656C427.266 225.878 432.968 238.1 429.587 249.973C427.95 253.233 427.95 257.191 425.28 260.102C422.597 267.548 415.742 272.432 409.342 276.618C408.873 276.51 408.282 276.738 408.054 276.39C407.236 272.901 410.388 270.097 410.268 266.851C407.705 266.381 405.384 264.288 403.975 262.316C403.399 259.163 404.445 256.252 407.357 254.28C408.282 252.066 405.143 253.113 404.217 252.066C401.534 249.973 399.789 246.485 399.789 242.635C399.561 239.844 402.701 238.1 402.701 235.658C399.683 235.658 397.348 232.747 395.953 230.305C394.437 225.999 394.316 220.055 396.651 215.762C399.441 203.647 416.318 203.768 416.547 190.62C417.244 188.058 421.215 190.728 422.839 188.178C423.885 187.011 422.021 187.36 421.672 187.011C418.17 185.146 418.868 180.961 418.532 178.049C420.156 177.459 421.081 179.203 422.597 178.277C423.308 177.7 424.932 177.459 424.355 176.292C422.142 176.533 421.564 174.092 420.155 172.924C421.081 172.227 422.02 173.273 423.08 172.924C423.764 172.696 425.039 172.468 424.583 171.18C422.49 169.785 421.216 167.343 421.216 165.13H422.839C425.978 164.083 422.141 162.339 422.369 160.595C422.598 160.125 423.08 160.005 423.536 160.125C423.992 159.777 424.355 159.2 424.114 158.851C419.579 157.684 421.322 152.21 417.016 150.694C420.276 148.131 415.151 147.313 415.393 144.871C414.923 143.597 413.649 143.476 412.709 143.127C412.589 142.43 412.83 141.853 413.407 141.383C414.802 139.169 412.133 138.941 410.738 138.472C410.738 137.077 411.086 133.816 408.054 134.863C409.57 130.905 404.687 132.314 402.943 131.952C403.05 130.328 403.869 128.812 403.292 127.189C401.427 126.719 400.38 128.007 398.864 127.886L398.636 124.747C396.999 124.277 396.181 125.552 394.785 125.445C390.72 129.51 391.298 121.943 387.917 121.138C387.112 120.669 385.717 119.85 384.777 120.897C385.247 123.003 387.112 124.975 386.065 127.417C385.368 128.356 384.2 129.979 382.912 129.282C381.396 127.296 379.773 125.324 377.788 123.459C376.875 122.413 376.755 120.32 374.89 120.092C373.723 122.882 374.071 126.25 373.722 129.282C371.978 128.933 370.234 127.068 368.598 128.115C367.323 132.314 369.174 136.258 372.206 139.29C369.993 141.276 368.369 143.476 366.383 145.569C363.472 151.271 357.435 154.652 353.129 159.656C348.353 163.385 348.003 169.436 347.306 174.668C349.05 177.58 352.069 176.654 354.752 178.049C355.101 178.975 353.934 179.324 353.585 179.914C352.31 180.37 352.069 178.398 350.915 178.747C349.399 178.975 349.171 180.612 348.701 181.658C349.278 182.691 349.05 184.1 350.445 184.798C353.129 186.314 356.147 184.798 358.482 182.812C360.454 183.282 362.895 182.007 364.988 183.054V182.584C369.174 181.309 370.932 176.184 375.117 174.32C376.754 174.91 378.257 173.273 379.303 175.138C375.936 179.914 369.644 181.309 365.458 185.026C357.891 189.453 350.915 196.899 347.306 204.694C345.911 206.679 346.26 209.698 344.167 211.214C340.088 204.694 338.572 197.02 333.689 191.076C330.777 188.635 326.35 188.514 322.862 189.923C315.872 194.927 307.272 195.732 300.511 200.977L300.055 200.508C299.934 198.415 299.008 196.671 297.599 194.927C295.399 193.88 293.185 193.183 290.623 193.062C286.786 192.713 283.056 195.732 279.447 193.29C278.642 191.667 278.173 190.03 278.052 188.178C277.368 186.542 278.521 182.691 276.08 182.114C274.215 179.096 274.564 175.138 274.336 171.408C274.094 170.603 273.048 171.408 272.699 170.711C271.076 165.009 272.001 158.14 271.532 152.787C272.243 150.345 269.788 147.313 272.699 145.81C273.169 145.113 273.517 143.717 272.471 143.369C272.122 143.02 272.122 142.201 272.699 141.973C277.475 141.504 276.536 134.407 281.661 135.104C282.359 134.514 282.238 133.468 282.587 132.77C282.359 130.1 283.419 127.538 282.359 124.747L274.912 124.975L274.336 124.506C273.396 120.669 273.866 116.013 276.777 113.343C279.219 112.632 281.205 111.13 283.646 112.404C285.39 113.451 286.316 115.315 286.558 117.18C285.967 118.348 284.8 119.045 283.646 118.696C281.312 117.757 281.782 114.497 279.675 114.497C279.098 117.999 280.265 121.487 283.298 123.459C284.8 124.277 287.255 124.277 288.651 123.459C290.864 122.064 292.139 120.092 292.608 117.408C290.864 113.102 296.566 116.013 298.069 114.041C302.268 112.404 300.98 108.326 301.208 104.838C301.208 102.637 304.468 101.121 304.468 99.2564C303.073 98.6661 301.571 98.438 300.055 98.5587C296.566 98.5587 296.673 102.517 294.701 104.381L294.473 100.303C293.655 98.7869 292.139 97.1635 290.623 96.3452C289.456 96.4659 288.181 95.2987 287.255 96.3452C287.014 97.8612 288.651 97.7404 289.107 98.7869C288.651 102.865 283.995 102.047 281.205 103.214C277.475 103.791 277.126 108.326 273.638 109.037C268.285 112.284 268.164 119.153 268.862 124.747C265.951 125.445 268.392 128.463 266.648 130.1C264.434 129.51 263.965 126.84 263.281 124.975C261.993 121.245 262.57 116.483 262.811 112.404C263.616 106.702 269.908 103.335 273.168 98.7869C271.183 94.8291 276.536 93.9034 276.777 90.5225C275.731 89.7041 274.564 91.3409 273.638 90.053C273.638 89.5968 273.638 89.0065 273.866 88.6711C280.386 87.5038 275.731 81.5606 278.522 77.7236C278.293 75.8587 277.247 75.2818 276.08 73.8865C274.805 74.3427 273.638 73.2962 273.397 71.9009C272.001 69.6872 269.331 68.8823 266.876 69.2311C265.83 68.7616 264.676 67.8358 263.509 68.5334C261.067 71.5521 257.337 72.5986 255.244 76.3282L254.319 75.5099C252.91 77.3748 251.18 79.4676 251.18 82.1508C252.333 85.1694 248.268 85.0622 246.98 86.9136C244.887 89.1273 245.357 92.5081 242.915 94.2522C240.111 89.7041 235.456 87.3832 233.256 82.607C233.363 76.449 225.219 73.0681 228.6 66.0917C244.19 56.5395 261.993 64.8038 278.991 65.6222C303.543 69.1104 334.614 69.4592 350.673 47.2287C350.794 45.7261 352.659 44.2101 351.841 42.9221C344.046 47.6983 333.917 47.6982 324.727 48.3959C318.435 48.1678 311.23 48.2751 306.105 46.531C293.306 44.9077 281.661 40.2523 270.485 34.8993C260.598 30.3512 249.194 28.6071 237.79 30.472C236.623 30.5927 235.228 31.3976 234.409 30.7C235 28.379 233.712 26.0446 232.437 23.9517C230.814 23.026 229.177 21.0404 227.433 21.0404C223.931 20.4635 220.564 21.8588 218.243 24.4213C216.136 26.9838 215.908 31.3976 217.424 34.1882C218.699 36.4019 220.792 37.9179 222.536 39.2058C223.126 53.5208 222.536 65.7429 223.006 78.77C222.536 80.8629 220.913 83.4254 222.536 85.5182C222.885 94.4802 222.885 106.005 222.536 115.544L221.838 116.483C221.261 117.408 221.731 118.455 222.308 119.153L222.536 193.062C221.033 194.578 219.168 195.383 218.243 197.369C217.894 199.113 218.243 201.206 219.168 202.722C223.824 209 230.572 207.028 237.32 206.331L237.79 206.787C236.623 209.47 236.864 213.428 238.608 215.762C239.293 218.083 236.972 219.827 235.349 221.102C226.735 225.77 216.378 227.166 207.067 224.952C202.063 224.254 207.295 220.176 206.356 217.265C205.444 213.2 203.217 208.652 198.562 207.847C194.496 206.787 189.72 208.075 187.158 211.442C187.05 208.075 187.506 203.889 191.115 202.252C194.496 202.829 197.756 203.768 200.547 206.102C202.64 208.652 204.156 210.637 207.524 210.744C209.16 213.656 208.583 217.144 207.993 220.404L208.811 221.102C212.89 221.92 217.424 221.571 221.61 222.269C224.052 218.432 228.251 223.208 230.572 218.66C231.391 217.842 233.484 219.009 233.484 217.265C229.526 210.986 222.308 208.075 216.955 203.647C210.784 195.383 199.728 195.383 191.813 189.681C177.149 186.072 177.861 203.996 171.448 211.442L170.522 210.167C166.443 196.201 152.826 185.495 140.497 179.445C138.981 178.398 136.767 177.352 136.297 175.366C142.938 171.999 145.501 182.812 152.128 183.054C157.025 181.309 159.118 186.783 164.457 185.495C165.517 185.146 166.215 184.449 166.564 183.282C167.141 181.886 166.792 179.914 165.397 179.203C163.881 178.049 163.304 180.491 161.788 179.914C161.318 179.445 160.513 178.854 160.862 178.277C163.425 177.231 167.262 177.701 168.536 174.32C169.127 165.478 162.137 158.958 155.737 153.605C149.928 150.117 148.64 143.248 143.166 139.29C145.031 137.546 146.426 135.681 147.245 133.468C146.896 131.267 148.05 129.282 146.306 127.645C144.682 128.114 143.394 128.812 141.892 129.51C140.953 128.007 141.664 125.673 141.422 123.808C141.073 122.533 141.301 119.622 139.437 120.32C138.283 124.506 134.204 126.022 132.232 129.859H131.535C126.987 128.114 130.139 123.352 130.247 120.669C126.41 120.44 124.786 124.398 123.042 126.947C121.164 125.794 119.191 125.096 116.978 124.747C115.234 125.552 117.219 126.947 116.294 128.115C114.885 128.007 113.731 127.189 112.336 127.189C110.458 128.584 112.913 130.798 111.853 132.77C110.699 132.193 108.834 132.193 107.56 132.421C107.56 134.407 106.742 136.03 104.649 135.681C103.83 136.728 104.998 137.895 104.649 138.821C103.602 139.169 102.193 138.821 101.496 139.988C101.616 141.276 102.086 142.309 102.435 143.369C98.7052 143.127 100.812 147.783 97.3101 148.252C96.5051 149.299 97.7793 149.996 98.1282 150.935C93.7142 152.438 95.5658 157.912 91.0311 159.079C90.4408 160.702 92.185 160.353 92.7753 161.051C92.6545 162.567 90.9104 163.144 91.0311 164.66C91.2592 166.646 93.473 164.888 94.1706 166.176C93.0034 167.92 92.7752 170.483 90.5615 171.408C90.32 174.668 93.7145 172.468 94.9891 173.394C93.9426 175.138 92.5337 176.654 90.5615 177.003C91.7287 179.445 94.6399 178.626 96.8536 178.747C97.4305 180.719 95.7941 181.658 96.3844 183.63C95.4453 185.495 94.7474 188.058 92.0776 187.937C93.0033 190.62 96.2637 189.574 98.5847 190.151C98.4773 194.578 100.221 199.113 104.407 202.024C112.443 205.754 119.889 213.656 120.828 222.618C120.131 226.924 120.707 231.7 116.75 234.719C115.475 235.658 114.067 236.235 112.564 236.584C113.141 238.569 115.113 239.737 115.475 241.709C116.173 245.667 114.885 249.624 111.853 252.415C110.699 253.113 109.062 252.992 108.016 254.038C110.109 256.373 111.974 259.163 111.853 262.531C110.927 264.047 109.653 265.791 108.257 266.381C100.114 268.125 110.927 273.357 107.09 277.557C99.5234 273.948 92.1848 266.851 88.9381 259.163C84.0413 249.745 84.2829 239.737 85.4367 229.138C87.0735 225.422 86.376 221.464 86.7248 217.734C86.9529 215.99 86.3759 213.656 84.9806 212.609C84.0415 216.567 82.4179 220.646 78.9297 223.087C78.4601 222.859 78.8093 222.39 78.6885 222.041C78.5812 221.692 78.6885 220.646 77.9909 220.874C72.9866 224.013 71.8194 229.956 69.257 234.719C68.8008 234.142 68.6801 233.216 67.7544 232.975C66.936 235.189 66.7079 237.63 66.131 239.965C65.4199 241.709 66.4663 244.379 65.1917 245.546C64.8429 245.197 64.3733 245.09 63.9172 245.09V245.787C64.266 253.233 64.8431 260.451 68.1032 266.609C66.8287 267.656 65.1917 267.548 63.9172 268.595C62.8573 269.641 60.0803 268.474 60.295 270.567C62.8575 273.25 62.9781 276.846 65.8894 279.529C58.0946 281.743 59.369 290.235 53.0903 294.313C53.1976 296.058 55.4114 294.783 56.2298 296.178C55.881 300.243 55.1832 303.973 52.7415 307.112C52.8488 309.205 54.6064 307.341 55.6529 307.81C57.0482 308.977 56.9275 310.721 57.6251 312.237C58.6716 315.605 56.4579 319.455 58.5508 322.353C59.8388 323.292 59.2482 321.32 60.08 320.851C63.6756 325.385 70.1959 328.068 72.4095 333.77C72.9864 334.696 72.1815 336.319 73.1072 336.91C74.3817 336.091 74.8514 334.696 74.6233 333.529C78.3396 324.097 68.6798 314.907 71.7119 304.899C73.2145 300.243 77.5211 295.588 82.7668 294.783C88.9383 294.434 94.8681 294.085 99.9931 296.876C99.054 299.076 96.6123 299.787 94.3987 300.015C93.7145 301.062 94.7475 301.88 95.4452 302.457C97.7796 303.732 98.7054 306.415 98.5847 308.977C98.0078 312.345 95.217 315.256 92.3057 316.772C92.4264 318.865 94.6403 318.744 95.9148 319.683C97.3101 321.32 98.2489 322.943 97.9001 325.278C97.5513 326.552 96.505 327.599 95.4452 328.645C95.5659 330.51 97.4309 331.557 98.5847 332.71C100.114 344.476 104.058 355.29 112.913 364.024C123.149 373.683 139.437 374.502 151.887 368.8C162.727 365.312 165.048 354.243 168.08 345.174C168.885 346.449 168.536 348.662 169.234 350.178C172.145 372.288 195.422 386.254 212.648 396.263C228.359 404.057 243.841 413.489 255.714 428.153V428.971C241.157 430.138 226.735 427.227 212.179 425.711C194.255 423.497 177.619 420.116 160.513 415.582C156.328 413.838 151.672 413.261 147.473 411.503C148.17 405.225 152.598 396.853 146.077 391.835C135.72 384.041 121.405 385.557 108.955 385.087C102.663 380.673 94.7476 377.413 86.9528 379.506C85.1014 379.962 84.0413 382.524 81.5996 381.72C78.3394 380.552 74.8512 380.204 71.9399 378.339C74.2743 370.316 76.716 362.159 80.2042 354.592C81.1299 351.802 79.0373 349.588 77.2932 347.965H76.2467C68.2104 343.081 58.9131 340.988 49.8304 338.533C44.4774 337.607 37.8496 338.882 34.5895 344.356C31.7855 350.648 29.4645 357.034 27.3582 363.554C24.581 374.153 17.8194 383.812 19.1074 395.444C24.5812 409.759 39.7009 418.614 52.4999 425.241C54.9551 426.637 57.3968 427.683 60.08 428.381C62.2803 430.487 65.3126 430.366 67.5263 432.11C65.3126 438.282 63.0986 446.546 68.5724 451.899C75.428 457.36 83.5718 459.815 91.0311 463.773C110.458 472.842 131.763 477.256 152.356 483.427C156.556 484.366 161.318 485.52 165.169 486.11C197.636 493.315 232.088 495.3 265.146 494.482C299.357 494.254 332.293 490.417 363.942 482.971C376.285 478.544 389.432 476.209 401.775 471.795C404.217 470.749 406.887 470.051 409.342 468.884C421.564 464.698 433.545 459.224 444.358 452.127C450.181 447.002 447.753 438.631 445.646 432.567L446.572 431.534C450.892 430.594 454.501 427.804 458.687 426.516C472.062 419.191 488.712 410.349 494.293 394.988C494.414 383.464 488.712 373.683 486.029 363.098ZM378.498 313.861C378.498 313.861 390.854 326.083 392.384 328.793C393.9 331.49 396.396 336.279 396.422 337.607C396.422 337.607 394.571 345.348 384.603 345.858C374.635 346.368 366.022 338.426 366.357 329.128C366.693 319.831 373.226 317.027 378.498 313.861ZM338.478 277.194C338.585 274.028 339.042 270.54 341.966 269.185C344.891 267.843 345.012 268.179 345.012 268.179C345.012 268.179 350.405 277.302 352.109 279.663C353.799 282.038 362.01 292.623 366.532 299.841C366.532 299.841 348.836 315.162 348.044 333.636C348.044 333.636 347.816 328.793 347.145 326.311C346.461 323.829 346.246 319.885 349.734 317.98L349.963 316.624C349.963 316.624 346.582 315.833 346.582 313.807C346.582 311.781 349.399 311.432 349.399 309.863C349.399 308.28 347.373 307.837 346.81 307.73C346.246 307.609 343.201 307.501 341.846 302.538C340.504 297.574 336.332 282.038 336.332 282.038C336.332 282.038 338.357 280.347 338.478 277.194ZM278.817 208.464C278.817 208.464 280.507 209.309 283.043 208.799C285.578 208.303 288.624 206.948 288.624 206.948L290.985 208.303L283.043 216.071C283.043 216.071 281.191 218.767 283.217 218.767C285.243 218.767 285.753 219.452 286.088 220.297C286.424 221.142 288.959 221.477 290.314 221.142C291.656 220.806 294.366 221.813 294.701 222.832L307.541 221.142L308.386 219.961C308.386 219.961 307.044 214.045 307.889 211.845C308.735 209.644 310.76 211.335 312.786 208.799C314.812 206.263 320.058 202.037 323.6 202.212C327.155 202.373 328.161 205.767 328.832 210.999C328.832 210.999 325.974 206.438 320.729 207.109C315.483 207.793 311.096 208.464 309.405 218.271C309.405 218.271 309.58 221.652 311.096 223.678C311.096 223.678 306.024 225.703 299.947 225.703C293.856 225.703 284.398 223.839 281.688 222.148C278.991 220.471 277.636 217.587 277.797 216.741C277.971 215.896 279.836 212.69 278.817 208.464ZM149.874 330.819C149.7 333.019 149.539 344.678 132.125 346.529C132.125 346.529 120.708 346.556 119.661 338.774C119.111 334.709 127.738 324.057 129.925 322.192C132.125 320.341 138.041 314.558 138.041 314.558C138.041 314.558 146.883 320.207 149.217 323.99C149.217 323.99 150.035 328.618 149.874 330.819ZM173.191 306.053C172.775 306.656 167.785 308.843 167.45 309.098C167.114 309.366 166.43 309.863 167.704 311.473C168.965 313.069 170.495 314.505 169.556 315.269C168.63 316.034 168.295 316.289 168.295 316.289C168.295 316.289 165.934 316.45 166.524 317.631C167.114 318.825 168.375 320.676 169.059 321.441C169.73 322.192 169.811 323.386 169.556 324.312C169.301 325.238 168.885 325.747 168.804 326.928C168.71 328.109 168.295 332.08 168.295 332.08C168.295 332.08 166.779 321.186 157.642 308.843C153.792 303.638 149.539 300.565 149.539 300.565C149.539 300.565 149.794 299.13 151.645 297.01C153.51 294.904 165.84 277.074 167.45 274.458C169.06 271.841 170.575 268.876 172.011 268.876C173.031 268.876 176.411 270.996 177.257 272.257C177.257 272.257 177.592 279.529 179.792 283.071C179.792 283.071 173.621 305.476 173.191 306.053ZM229.056 99.2564C229.405 99.2564 229.526 99.6052 229.875 99.8333C229.526 100.303 229.177 100.88 229.284 101.47C230.344 102.396 231.391 103.093 232.786 103.214C233.712 104.73 231.619 106.93 233.712 107.99C235 107.641 236.744 106.823 238.018 107.749C237.911 108.688 236.623 108.916 235.926 109.493C234.53 111.599 232.544 112.995 230.116 112.632C228.479 112.055 229.056 110.888 228.6 109.734L229.056 99.2564ZM242.325 169.651L240.366 171.086L238.756 181.631C238.756 181.631 236.972 181.444 236.797 183.59C236.609 185.737 235.899 191.278 235 191.626C234.114 191.989 232.679 191.989 231.793 192.351C230.894 192.7 229.835 193.236 228.748 192.525C228.748 192.525 227.326 139.465 228.748 123.915C228.748 123.915 237.146 124.09 239.105 123.379V124.626C239.105 124.626 238.045 125.163 236.61 124.989C235.188 124.814 232.33 124.626 231.082 125.525V135.882C231.082 135.882 234.302 136.07 235.536 137.855C236.797 139.639 239.105 142.309 241.265 142.134V144.281C241.265 144.281 241.614 145.891 242.325 145.891C243.049 145.891 243.586 146.24 243.586 147.675C243.586 149.111 242.325 169.651 242.325 169.651Z" fill="#231F20"/>
<path d="M264.206 35.8249L264.434 40.7084C261.067 40.3596 257.109 39.9034 253.607 38.9643C252.909 36.8714 252.681 34.4296 253.849 32.6855C257.458 33.3832 261.536 33.6113 264.206 35.8249Z" fill="#00B6F1" stroke="#00B6F1" stroke-width="0.228074" stroke-miterlimit="3.864"/>
<path d="M241.157 33.6115C241.157 35.3556 242.566 38.9645 240.003 39.206C236.153 39.3133 233.014 41.0574 229.284 41.4062C228.13 39.9036 229.405 37.918 229.056 36.2946C230.223 35.1274 232.088 35.597 233.255 34.4298C235.697 33.9602 238.487 32.4577 241.157 33.6115Z" fill="#00B6F1" stroke="#00B6F1" stroke-width="0.228074" stroke-miterlimit="3.864"/>
<path d="M264.206 52.8232L264.434 60.8461C260.705 60.2692 257.23 60.0277 253.259 59.102C252.105 56.5395 253.5 53.6282 253.031 50.14C254.547 49.7912 256.411 49.7912 257.927 50.14C260.248 50.4889 262.234 51.5353 264.206 52.8232Z" fill="#00B6F1" stroke="#00B6F1" stroke-width="0.228074" stroke-miterlimit="3.864"/>
<path d="M240.929 50.14C242.097 53.2793 240.809 55.7345 241.157 59.1019C237.092 60.1484 232.893 60.8459 228.828 62.2412V53.9769C232.316 51.079 236.274 50.6095 240.929 50.14Z" fill="#00B6F1" stroke="#00B6F1" stroke-width="0.228074" stroke-miterlimit="3.864"/>
<path d="M250.347 33.6115C251.286 36.402 249.193 41.2989 253.03 41.8758C256.988 42.9222 261.187 42.6941 264.434 45.2566L264.206 48.9729C260.02 48.0472 255.942 46.6519 251.407 46.5312C249.663 48.6241 250.709 52.3538 250.347 54.6748L249.891 58.874C247.449 57.9348 242.445 61.0877 243.612 56.1908C243.371 53.4002 245.826 48.8655 242.203 46.7726C237.789 47.4703 233.134 48.0472 229.055 49.6706V45.2566C233.483 43.3918 238.018 41.9965 243.143 41.8758L243.84 41.1781V33.1553C245.464 31.8673 247.905 32.6858 249.891 32.4577L250.347 33.6115Z" fill="#EF3E2E"/>
<path d="M341.952 48.9726L346.836 48.1677V48.6238C337.995 59.7994 325.075 62.1204 312.383 64.4548C296.445 67.0173 282.13 63.0596 267.117 61.3155C266.192 59.5714 266.768 58.0554 266.648 55.9625C266.648 49.9118 266.42 44.7868 266.876 37.5689L267.573 36.5224C290.166 47.0004 315.992 54.3391 341.952 48.9726Z" fill="#EF3E2E"/>
<path d="M148.17 148.95C154.462 156.865 165.745 162.218 166.094 172.924C164.578 173.971 162.726 175.943 160.271 174.91C158.058 173.394 155.964 169.436 152.597 170.952C150.853 171.999 149.807 174.092 150.612 176.064C151.309 176.775 151.309 177.7 151.551 178.505C149.686 178.157 148.988 176.184 148.76 174.668C149.216 173.394 148.049 171.408 146.774 170.483C145.258 170.241 143.756 170.013 142.589 169.087C141.073 167.343 144.91 163.734 141.194 164.204C138.752 166.753 138.39 172.347 133.627 170.952C132.232 168.618 129.441 171.878 128.381 168.618C126.758 169.087 125.014 168.738 123.726 167.813C121.512 165.478 121.163 162.446 119.661 159.884H119.191C119.312 165.358 121.753 170.952 127.106 174.092L127.334 174.91C126.288 176.184 123.726 174.32 123.498 176.064C125.591 177.231 128.032 177.929 130.487 177.231C130.018 178.854 126.06 178.157 128.381 179.914C130.487 180.142 132.339 178.747 134.445 179.203V179.914C133.975 179.914 133.734 180.491 133.398 180.719C133.398 181.068 133.855 181.309 134.204 181.645C135.841 181.886 137.236 179.203 138.752 181.189C153.992 187.588 168.2 202.373 171.219 218.66C175.753 223.557 176.33 230.305 177.269 236.356C177.511 240.89 177.028 245.09 175.874 248.927C175.297 244.848 176.8 239.616 175.874 235.658C175.525 234.021 175.632 231.7 173.888 231.003C172.037 232.519 173.54 233.793 173.432 235.658C173.07 239.146 174.358 243.681 171.219 245.546C169.233 245.546 169.475 243.453 168.777 242.178C168.884 237.751 170.172 230.305 165.866 227.394C165.047 228.561 166.322 230.077 166.563 231.231C166.671 235.43 166.443 239.388 165.866 243.104C165.973 245.09 167.368 246.364 168.536 247.759C175.056 254.159 183.32 261.484 188.432 269.292C192.752 277.785 186.111 286.291 189.371 295.253C189.492 299.09 188.432 303.155 187.399 306.884C187.399 312.935 190.189 323.292 183.562 327.25C185.762 322.004 187.05 315.726 186.459 310.024C186.003 309.903 185.641 309.098 185.292 309.796C184.138 311.889 183.669 314.33 182.85 316.544C182.622 313.633 185.762 311.312 183.562 308.508C182.502 308.508 181.576 308.508 180.878 309.326C180.999 309.447 180.758 308.28 180.167 308.052C178.423 308.4 177.511 310.721 175.874 311.191C174.828 311.191 174.13 312.237 173.191 312.237C175.753 309.447 179.362 307.354 181.106 303.973C182.273 304.094 183.79 303.866 183.562 302.457C182.971 300.834 182.743 298.969 181.925 297.453C184.018 291.053 187.278 283.259 182.85 276.859C184.018 268.474 175.297 265.563 169.824 262.531C166.912 262.195 164.001 260.679 161.546 258.694L160.513 259.861C159.346 259.284 158.648 257.54 157.132 257.419C155.965 254.159 154.113 250.201 150.612 248.927C146.547 249.852 143.045 247.76 139.785 246.015C138.98 246.485 139.208 247.518 139.436 248.001C141.193 253.113 147.593 249.624 149.444 254.749C152.248 259.512 155.737 263.121 161.09 264.516C163.183 265.791 165.866 265.912 168.079 267.079C163.424 270.567 156.904 271.144 151.309 269.99C146.077 269.99 140.603 268.474 135.599 266.851C134.324 265.911 132.46 265.912 131.292 264.744C128.381 262.651 124.195 260.558 123.967 256.48C123.39 253.582 124.785 251.597 125.711 248.927C130.715 254.749 138.282 256.842 146.077 257.419C146.198 257.191 146.667 257.07 146.546 256.721C143.394 254.629 139.208 254.977 135.84 253.582C132.111 252.066 127.576 249.396 126.181 245.09C126.06 241.709 127.227 238.798 127.106 235.43C133.157 236.705 139.678 234.961 142.938 229.607C144.333 225.999 143.635 220.874 140.724 217.734C138.752 216.46 136.766 215.292 134.445 215.051C136.417 214.353 138.752 214.823 140.724 215.99C143.394 216.46 143.514 222.967 145.835 218.432C146.197 215.869 145.379 213.307 143.863 211.214C146.426 210.396 143.984 208.075 144.105 206.559C142.589 204.694 139.906 203.54 140.724 200.977C138.631 196.899 134.096 193.639 129.79 193.988C130.715 193.532 131.99 194.108 132.688 193.062C130.487 187.709 123.498 192.592 120.828 187.239C110.578 177.7 110.819 165.009 114.066 152.331C115.703 148.252 119.191 144.643 123.042 141.732C125.711 140.927 129.669 141.732 131.534 138.244C136.297 136.151 140.268 140.565 144.105 142.899C145.138 144.992 147.821 146.508 148.17 148.95Z" fill="#BBBDBF"/>
<path d="M209.737 199.582C214.633 202.373 216.257 207.377 221.382 209.228C224.521 211.093 227.902 213.548 230.344 216.218C229.177 216.567 228.6 217.734 227.432 217.734C225.34 214.353 222.08 211.684 218.94 209.698C218.471 212.153 221.959 213.428 222.777 215.521L224.293 217.962C223.475 218.204 221.503 220.069 221.382 217.734C219.866 214.595 218.471 211.335 215.559 208.772C214.983 208.772 214.164 208.772 214.043 209.47L216.955 218.901L216.485 219.478C214.741 216.218 215.787 210.758 212.178 208.531C210.904 210.288 212.299 212.26 212.89 213.897C213.225 215.641 213.574 217.506 214.043 219.129C213.466 220.176 212.299 219.237 211.36 219.129C211.722 214.944 210.904 210.637 207.764 207.605C204.276 208.316 203.914 203.647 200.775 202.252C197.058 200.038 192.162 197.127 187.976 200.038C186.353 202.252 181.456 201.326 183.32 205.391L184.488 208.531C182.744 216.916 183.2 225.301 180.409 233.216C179.591 230.412 179.135 227.166 177.967 224.254C177.619 220.753 174.479 217.506 176.331 213.897C178.195 208.531 179.242 202.722 180.879 197.127C181.335 194.108 184.367 191.774 187.158 191.076C195.65 191.667 201.821 197.717 209.737 199.582Z" fill="#BBBDBF"/>
<path d="M332.186 192.888C332.199 193.116 332.079 193.464 332.428 193.572C332.548 193.464 332.669 193.344 332.656 193.102C336.117 197.825 335.996 204.452 338.773 209.644C339.055 212.556 341.309 215.427 339.846 218.123C337.485 222.698 336.989 227.957 336.036 232.975C333.326 224.992 332.816 215.682 331.287 207.444C332.186 205.807 333.313 203.688 332.119 201.85C331.636 201.273 330.938 201.058 330.12 201.179C327.41 199.368 324.243 197.798 320.648 198.911C316.033 200.615 312.478 203.822 309.633 207.833C309.285 207.364 308.466 207.619 307.997 207.619C305.032 210.583 304.173 214.796 304.83 218.74C304.025 219.451 303.086 219.693 302.161 219.599C301.852 215.641 304.133 212.811 304.414 209.081L303.596 208.397C300.497 211.134 301.047 215.655 299.706 219.29C299.478 219.29 299.356 219.532 299.249 219.653C299.303 216.272 301.342 212.985 301.745 209.363C301.396 208.786 300.806 208.906 300.229 208.92C297.479 211.764 295.573 215.4 294.111 218.915C293.534 219.277 292.474 218.727 291.897 218.257C292.568 217.09 293.36 215.802 294.044 214.622C294.473 213.092 297.948 211.871 296.633 209.926C293.655 212.408 290.207 214.917 288.288 218.325C287.457 217.882 286.746 217.184 285.806 216.97C286.826 214.863 289.013 213.656 290.623 212.006C292.126 211.858 292.461 210.449 293.722 209.738C297.076 208.289 299.933 205.78 302.093 202.601C303.475 201.648 305.313 200.333 306.575 199.153C315.51 197.825 322.647 186.877 331.944 192.19L332.186 192.888Z" fill="#BBBDBF"/>
<path d="M255.016 209C255.486 210.865 256.412 212.502 256.519 214.595C256.76 217.157 256.063 219.237 255.244 221.343C252.575 229.366 243.72 234.719 236.395 237.63C223.703 241.709 208.932 242.406 196.938 236.356C192.162 232.988 186.702 228.682 187.399 222.041C186.702 219.237 188.674 217.506 189.143 215.051C190.069 213.2 192.283 211.442 194.496 211.214C196.938 210.516 198.561 212.381 200.305 213.079C201.942 214.474 202.17 216.46 202.761 218.204C203.686 221.343 196.71 225.408 202.761 227.166C203.914 227.394 205.082 227.622 206.356 227.863C209.281 229.017 212.769 228.682 216.029 229.138C225.568 228.44 236.274 226.924 241.976 218.204C243.613 215.52 239.883 213.656 240.473 211.214C240.111 209.349 240.93 208.075 241.748 206.33C243.371 203.889 246.283 203.647 248.966 204.117C251.179 205.284 253.849 206.559 255.016 209Z" fill="#F0B83D"/>
<path d="M275.382 208.075C275.382 210.516 275.61 213.656 273.637 215.521C272.926 219.13 276.428 221.343 278.749 223.557C288.878 229.245 304.468 231.231 315.295 225.771C315.871 223.436 314.489 222.618 313.658 220.874C313.55 217.842 312.853 215.749 315.067 213.307C317.28 211.214 320.54 210.288 323.559 211.442C328.094 214.595 329.14 220.525 328.094 225.771C326.122 232.157 319.843 236.356 313.658 238.342C312.625 238.342 311.23 239.039 309.942 239.495C291.79 242.755 271.773 238.905 261.295 223.785C258.504 219.009 259.202 211.442 262.569 207.028C264.904 204.694 268.285 203.54 271.531 204.345C272.819 205.391 274.684 206.331 275.382 208.075Z" fill="#F0B83D"/>
<path d="M260.598 203.191V204.117C254.547 205.633 249.891 200.508 246.752 196.201C248.496 194.685 250.831 195.973 252.803 195.973C256.063 197.127 259.082 200.038 260.598 203.191Z" fill="#F0B83D"/>
<path d="M270.485 200.039C268.513 200.28 266.419 201.555 264.206 201.783L260.355 197.127C261.992 196.201 264.555 195.034 266.648 196.201C268.392 196.899 269.559 198.536 270.485 200.039Z" fill="#F0B83D"/>
<path d="M245.115 200.28C242.673 200.28 241.747 202.131 239.534 202.48L233.953 196.671L234.181 195.973C238.716 195.155 242.673 196.778 245.115 200.28Z" fill="#F0B83D"/>
<path d="M296.217 198.884C296.915 199.918 296.915 201.903 296.217 202.95C294.929 203.889 293.655 205.391 292.018 204.345C288.879 202.721 287.953 199.81 285.967 197.127C288.301 195.973 290.394 196.201 292.836 196.201C293.882 197.02 295.506 197.368 296.217 198.884Z" fill="#F0B83D"/>
<path d="M284.115 200.508C284.115 201.782 286.195 202.252 285.739 203.647C283.525 205.163 280.614 204.935 278.293 203.889C275.61 202.601 273.986 199.461 272.698 196.899C275.154 195.383 276.428 196.778 279.219 196.671C281.083 197.476 282.827 198.764 284.115 200.508Z" fill="#F0B83D"/>
<path d="M234.879 202.48V203.191C230.465 204.238 224.871 204.814 222.08 200.749C221.611 199.582 221.959 198.187 222.536 197.127C227.554 194.685 231.847 198.415 234.879 202.48Z" fill="#F0B83D"/>
<path d="M243.371 128.584C244.069 129.859 242.915 131.844 244.31 132.77C247.208 132.421 252.105 134.755 253.259 130.798V128.812C255.365 128.114 257.927 128.356 260.128 128.584C261.067 129.859 259.9 132.662 261.993 132.77C264.434 131.723 268.862 134.058 269.787 130.798V128.584C272.591 127.417 275.838 128.812 278.749 128.356C279.34 129.282 279.796 130.449 279.219 131.495C277.944 131.951 276.079 131.495 275.61 133.239C275.61 135.212 274.215 136.956 272.699 137.774C271.424 138.941 268.513 137.425 268.634 139.988C268.392 140.927 268.982 142.081 268.043 142.671C260.946 143.476 253.03 143.02 246.282 142.429C245.356 141.276 246.403 138.713 244.069 138.015C242.097 137.425 239.413 137.774 238.259 135.681C237.911 134.514 238.139 133.239 236.864 132.421C236.153 131.844 234.879 132.77 234.409 131.723C233.135 126.021 240.581 128.584 243.371 128.584Z" fill="#BBBDBF"/>
<path d="M267.815 147.434C267.346 148.95 269.211 152.559 266.192 151.861L247.557 151.633C246.403 150.224 247.449 148.48 247.557 146.978C253.607 146.629 260.825 146.629 267.346 146.978L267.815 147.434Z" fill="#BBBDBF"/>
<path d="M268.043 155.242L268.633 172.227C262.569 172.455 254.318 172.227 246.51 171.999C246.752 166.404 245.933 159.428 247.208 154.303L248.026 153.833L267.345 154.075L268.043 155.242Z" fill="#BBBDBF"/>
<path d="M270.257 174.668C271.424 176.533 270.606 179.324 271.183 181.417L270.257 181.886L243.841 181.645C243.371 179.445 243.841 177.003 244.31 174.91C253.5 173.863 261.416 174.789 270.257 174.668Z" fill="#BBBDBF"/>
<path d="M273.865 185.724C274.563 187.011 274.563 189.225 273.865 190.379C263.28 189.802 251.514 190.62 240.701 189.681C240.111 188.514 240.701 186.783 241.157 185.495C252.333 185.147 263.508 185.147 273.865 185.724Z" fill="#BBBDBF"/>
<path d="M241.976 102.168C240.111 104.261 244.538 107.172 240.929 107.279C240.003 102.637 233.135 107.749 234.879 101.926C234.409 101.001 232.316 101.121 232.786 100.075C233.953 99.7261 235.227 98.7869 235.925 97.6197C234.651 95.1779 232.195 98.6662 230.813 97.1636C231.162 97.1636 233.953 97.3916 234.651 95.8756C234.409 93.2058 230.921 95.1779 229.284 94.2522L228.828 94.9499C228.009 91.2202 230.223 88.3089 229.874 85.0622C228.935 83.895 230.344 83.0766 230.572 82.1509C232.893 89.248 244.189 93.4339 241.976 102.168Z" fill="#F0B83D"/>
<path d="M292.836 101.001C293.077 102.047 292.487 103.442 291.561 104.381C289.576 106.126 285.846 105.656 285.269 108.446C287.375 110.191 288.878 107.641 290.864 107.521C292.487 107.641 294.11 107.4 295.506 106.582C297.37 104.958 297.961 102.865 298.887 100.772C299.464 100.303 300.282 100.531 300.98 100.531C298.068 103.912 302.026 110.539 296.914 112.632C295.278 113.343 292.836 112.995 291.32 111.707C290.274 110.66 289.348 109.386 287.952 109.493C286.557 111.948 290.971 113.223 290.622 115.785C290.971 118.106 289.925 120.212 287.952 121.366H284.571C285.739 120.669 287.711 120.44 288.409 118.696C289.455 116.362 287.604 114.618 287.255 112.632C285.497 110.432 282.586 109.493 280.493 109.963C277.246 110.781 273.168 112.525 272.47 116.241C272.001 118.924 272.001 122.533 271.773 124.747C269.787 121.245 270.029 115.892 272.47 112.404C273.986 109.614 277.823 110.432 278.521 107.051C282.358 103.442 289.576 105.656 291.32 99.4845C292.246 99.4845 292.245 100.531 292.836 101.001Z" fill="#F0B83D"/>
<path d="M246.752 109.037C246.403 110.66 245.357 112.995 246.752 114.497C248.496 114.739 249.194 112.525 250.71 111.948L255.942 110.888C253.608 112.404 251.408 114.739 248.966 116.013C248.148 116.483 247.906 115.315 247.208 115.315C245.826 116.134 246.176 118.348 244.311 118.924C244.888 117.878 245.465 116.604 245.116 115.544C244.767 115.316 244.539 114.846 244.069 115.087C242.795 116.241 242.795 117.878 241.399 118.924C241.05 118.227 241.399 116.831 240.232 116.241C238.26 116.483 239.293 121.608 236.864 118.455C235.577 118.348 235 119.971 233.953 120.32C234.41 119.971 234.41 117.999 233.014 117.757L230.572 119.622L230.344 117.408C228.48 116.604 227.312 118.924 225.917 119.622C225.22 118.348 230.116 117.529 227.433 115.785C225.917 115.544 225.219 117.408 223.824 117.408C224.522 115.195 227.205 116.013 227.903 114.041C229.982 115.315 233.135 114.846 235.107 113.571C238.139 110.083 242.674 109.144 246.752 109.037Z" fill="#F0B83D"/>
<path d="M259.9 114.041C259.202 116.604 258.974 120.669 260.128 123.231V124.975C256.988 125.552 252.682 124.747 250.347 125.673C249.771 127.31 250.589 128.584 249.663 130.1L246.752 129.859C245.826 128.356 247.799 125.552 245.115 124.975C244.538 125.203 243.613 125.203 243.143 124.506C242.915 122.413 244.887 121.943 246.282 121.138C248.496 118.348 251.984 117.409 254.318 114.846C256.17 114.497 257.807 112.995 258.853 111.13C261.188 111.009 259.202 112.995 259.9 114.041Z" fill="#F0B83D"/>
<path d="M269.09 73.1889C269.908 72.7193 269.787 71.4448 270.954 71.9009C273.289 73.417 272.001 78.6627 276.079 77.254C277.475 79.6957 271.075 79.2396 273.637 82.1509C274.442 81.9094 275.61 81.6813 275.838 82.8485C275.73 84.0157 276.079 85.6391 274.684 85.9879H274.094C274.094 85.0622 275.382 83.895 273.865 83.3047C272.819 83.0767 272.471 83.895 272.001 82.8485C272.122 82.2582 273.168 81.6813 272.471 80.8629C271.183 80.6348 270.029 78.4212 268.633 79.9372C267.815 79.4676 268.285 78.0724 267.117 78.1931C266.192 77.9516 265.145 78.6627 264.434 79.4677C264.086 76.4491 263.857 73.9939 264.675 70.7338C266.42 71.096 267.345 73.0682 269.09 73.1889Z" fill="#F0B83D"/>
<path d="M229.284 77.7238C226.493 78.7702 229.874 81.9096 227.433 83.3049C227.553 85.2905 228.131 86.9138 226.963 88.6713C225.219 87.5041 224.401 85.4112 223.582 83.5464C224.293 81.212 224.87 78.5422 226.373 76.7981L226.963 75.0405C228.131 75.4027 228.479 76.9054 229.284 77.7238Z" fill="#F0B83D"/>
<path d="M259.323 78.77C259.323 79.1188 259.323 80.0446 260.128 80.3934H260.826C261.067 81.1044 260.128 80.9837 260.128 81.5606C260.021 82.7278 260.947 83.7742 261.993 84.0157C262.812 84.123 263.388 84.0157 263.965 83.5462C263.04 83.895 261.765 84.9415 260.598 84.4719C258.854 83.6669 261.067 80.6349 258.626 80.3934C256.989 81.8021 257.928 84.4719 256.761 85.7598C256.291 87.732 254.426 89.4761 255.486 91.8105C254.896 94.1315 252.803 94.3729 250.938 95.1779C248.845 95.6475 246.632 95.6475 244.888 96.5732C245.706 91.6898 252.803 93.7826 254.078 88.6711C252.454 87.3831 251.18 89.8249 249.664 90.2945L247.208 91.1128C246.98 89.9456 248.027 88.8992 248.724 87.9601C250.12 87.504 251.757 85.8672 253.259 86.9136C254.547 86.8063 253.957 85.1695 253.85 84.4719C252.575 83.3047 253.031 81.8021 253.608 80.3934L254.078 79.9372C254.668 80.8629 255.593 81.8021 256.761 81.9094C258.156 80.5141 255.822 78.0723 257.686 76.5563C258.626 77.254 260.356 76.9052 259.323 78.77Z" fill="#F0B83D"/>
<path d="M259.671 95.8754C257.807 98.3306 256.17 100.303 256.17 103.214C256.639 103.791 257.23 104.032 257.927 103.912C256.291 107.641 251.984 107.051 249.421 109.493C249.542 106.125 254.774 104.609 255.016 100.772C254.667 100.303 254.319 100.182 253.849 100.303C251.877 102.637 249.314 104.958 247.557 107.521C246.175 104.489 252.803 102.168 251.877 97.6195C254.775 97.9683 256.988 91.4615 259.671 95.8754Z" fill="#F0B83D"/>
<path d="M249.194 98.0892C250.012 101.47 245.357 102.745 244.646 105.535C243.492 104.033 243.72 102.745 244.311 100.772C245.008 98.6661 247.208 98.2099 249.194 98.0892Z" fill="#F0B83D"/>
<path d="M263.965 89.8248C263.857 90.4151 263.28 90.6431 263.039 91.1127H261.992C261.764 90.415 262.462 90.0528 262.569 89.5967C263.039 89.704 263.616 89.476 263.965 89.8248Z" fill="#F0B83D"/>
<path d="M272.927 92.2666C273.289 92.9642 272.471 92.9642 272.243 93.2057C270.955 93.2057 270.847 91.8104 270.485 90.8712C270.485 90.4151 270.606 89.5968 271.183 89.8248C271.183 90.8713 272.001 91.9177 272.927 92.2666Z" fill="#F0B83D"/>
<path d="M269.331 94.0242C270.377 94.9499 271.303 95.8756 271.182 97.3916C271.075 97.2709 270.954 97.0428 270.726 97.1636C270.606 97.8612 271.182 98.5588 270.257 99.2565C268.982 97.9685 269.908 94.7084 267.573 94.0242C266.071 95.0572 267.466 96.694 267.345 98.0893C266.299 96.9221 263.964 96.3452 264.903 94.4804C266.071 93.7828 266.54 91.9179 268.043 91.5691L269.331 94.0242Z" fill="#F0B83D"/>
<path d="M265.48 101.926C264.327 100.88 264.675 99.2564 263.28 98.3307C264.434 98.9075 265.601 100.424 265.48 101.926Z" fill="#F0B83D"/>
<path d="M263.28 105.535L262.57 107.051C263.16 104.609 258.505 102.637 262.234 100.772C262.918 102.275 263.965 103.912 263.28 105.535Z" fill="#F0B83D"/>
<path d="M260.235 88.7785L259.162 87.9736C259.162 87.9736 258.88 88.9127 259.417 89.5969C259.967 90.2677 260.235 88.7785 260.235 88.7785Z" fill="#F0B83D"/>
<path fill-rule="evenodd" clip-rule="evenodd" d="M266.406 87.8125C266.406 87.8125 267.802 86.766 268.902 86.7392C268.513 86.7794 267.359 86.8196 267.359 86.8196C267.359 86.8196 266.809 85.9343 266.809 84.2438C266.473 86.0818 265.924 87.2222 265.924 87.2222L266.406 87.8125Z" fill="#F0B83D"/>
<path d="M390.13 140.927C395.135 142.43 399.79 147.675 401.534 152.559C404.915 165.599 403.747 180.263 392.344 188.863C388.976 189.681 384.442 188.863 382.912 192.593C383.261 194.109 384.898 192.593 385.596 193.76C381.638 193.29 378.257 196.081 375.588 199.113C375.346 200.387 374.192 201.675 374.648 202.95C372.327 204.935 370.462 207.149 370.811 210.168C371.053 210.637 371.508 210.758 371.978 210.758C370.234 213.2 369.067 216.567 370.583 219.13C370.811 219.478 371.053 219.827 371.509 219.707C373.025 217.037 374.89 215.172 377.788 214.354H381.396C378.257 215.293 374.42 216.567 373.253 220.176C371.75 222.967 371.75 226.576 373.253 229.366C376.044 233.324 380.713 235.886 386.066 235.43L388.493 234.719C388.735 239.267 391.298 244.848 387.219 248.229C382.685 253.461 376.164 254.159 370.006 255.554C369.765 255.782 369.295 256.024 369.295 256.48C371.053 257.889 373.132 255.903 375.346 256.252C380.712 254.629 386.065 253.113 390.13 248.457C391.405 251.489 392.814 255.554 390.828 258.694C388.494 261.377 385.247 264.047 381.866 265.214C373.722 269.064 363.835 271.037 354.283 269.521H353.585C353.129 268.944 351.961 268.944 351.143 268.595C350.325 267.428 347.883 268.246 348.004 266.381C355.798 264.637 363.714 260.559 367.444 253.113C369.644 249.504 376.164 251.717 376.634 246.016C375.346 245.09 374.192 246.834 372.904 247.29C370.114 248.001 367.9 249.034 364.988 248.457C361.5 249.853 359.756 253.703 358.951 256.95C357.435 257.07 356.724 258.815 355.571 259.391C353.827 256.842 352.069 261.028 350.217 261.377C348.46 261.847 347.414 261.484 345.79 262.316C341.363 264.986 334.963 267.079 333.461 272.901C333.917 278.026 329.731 282.212 331.354 286.747C331.824 291.644 336.6 296.635 332.75 301.531C332.293 302.578 333.461 303.383 334.158 303.504C335.661 302.927 335.782 304.443 336.372 305.14C338.344 307.461 341.135 309.326 343.469 311.419C340.786 311.647 338.224 309.447 336.6 307.582C336.251 307.931 335.419 307.931 335.419 308.508C337.177 311.54 338.572 315.605 342.181 316.772C342.651 317.121 342.302 317.819 342.879 317.939C343.12 316.665 344.623 317.47 345.334 317.47C345.562 317.819 345.911 317.939 345.79 318.288C340.316 319.804 338.344 313.861 335.661 310.493C335.782 309.447 335.312 308.508 334.507 308.052C333.461 308.052 332.293 308.052 332.052 308.977C333.219 314.8 334.842 320.971 339.967 325.278C333.46 322.353 334.037 314.559 331.005 309.326C330.308 308.977 329.731 309.796 329.61 310.252C329.852 316.195 330.549 322.004 333.219 326.901C329.489 326.204 329.262 321.897 328.443 318.986C327.866 312.238 329.973 305.717 327.169 299.787C327.289 292.69 328.094 284.305 326.471 277.087C327.061 273.948 326.941 270.46 328.443 267.656C331.126 264.168 333.81 260.8 337.056 257.889L337.418 258.117L338.344 256.252L349.52 245.09C350.097 240.314 348.46 234.612 349.748 229.608C349.748 228.789 351.143 227.864 349.976 227.166C348.004 227.971 347.762 230.305 347.078 232.049C346.595 236.584 348.004 241.011 345.79 244.848C344.046 245.667 343.348 244.728 342.879 243.104C342.879 239.495 341.832 236.235 342.879 232.989C343 232.157 342.758 231.459 342.181 230.761C339.739 231.352 340.906 234.263 340.316 235.886V248.685C337.526 237.979 338.344 226.576 345.093 217.265C347.762 203.07 359.179 189.225 372.676 183.282C375.238 182.356 377.787 178.506 380.712 181.189C381.168 181.189 381.638 181.068 381.866 180.719C382.094 179.673 380.94 179.914 380.712 179.203C382.456 177.58 384.778 180.491 387.461 179.445C387.917 179.324 387.689 178.854 387.689 178.506C386.87 177.808 385.824 177.929 385.005 177.003C387.568 177.808 390.479 176.882 391.875 175.138C390.6 174.32 389.325 175.715 388.279 174.669C388.977 173.166 390.828 171.529 392.344 170.241C393.86 166.874 397.228 163.614 395.953 159.656C394.088 160.233 394.437 162.567 393.739 163.962C392.572 165.479 392.465 167.92 390.13 168.269C388.158 168.269 386.521 168.148 385.005 170.013C383.154 168.497 381.746 171.999 379.774 170.711C376.044 169.906 376.513 165.25 373.495 163.734C371.858 165.479 374.648 169.316 371.053 169.785C369.295 170.134 367.323 170.832 366.612 172.696C366.733 174.91 366.853 177.352 364.532 178.278L363.714 178.049C364.533 176.533 365.807 174.91 364.988 172.924C364.76 171.65 363.245 171.06 362.319 170.483C357.435 169.906 354.524 178.854 349.748 173.166C348.943 159.777 365.458 155.591 369.537 144.643C373.253 141.155 377.559 137.197 382.912 137.546C385.126 138.941 386.991 141.383 390.13 140.927Z" fill="#BBBDBF"/>
<path d="M394.785 269.762C386.641 278.603 375.345 282.212 363.713 281.394C360.802 280.817 358.816 279.998 356.026 278.952C353.007 277.436 351.961 274.176 350.445 271.493C363.015 274.176 375.815 271.613 386.065 265.442C388.386 263.47 390.827 261.605 393.269 259.633C394.436 262.772 397.106 266.381 394.785 269.762Z" fill="#BBBDBF"/>
<path d="M399.32 273.948C400.259 275.571 400.138 277.906 399.789 279.77C395.952 286.867 387.795 289.765 380.242 291.053C371.978 290.933 361.151 292.918 357.663 282.91L357.435 282.668C359.648 282.44 362.667 284.184 365.685 283.835C377.679 284.775 389.325 279.77 396.878 270.808C398.743 271.036 398.273 273.022 399.32 273.948Z" fill="#BBBDBF"/>
<path d="M404.217 285.821C405.142 289.309 402.231 291.282 400.836 293.737C392.343 300.136 379.303 304.443 369.295 298.392C368.02 296.527 366.504 294.783 365.458 292.798C370.932 293.267 378.149 295.132 384.079 293.039C389.432 291.872 393.967 289.081 398.395 285.58C399.562 284.305 400.728 282.32 402.231 281.863L404.217 285.821Z" fill="#BBBDBF"/>
<path d="M408.054 295.709C407.128 301.88 400.139 306.885 394.558 308.508C388.976 310.145 381.517 311.07 376.875 306.885L373.963 303.504C378.605 303.383 385.125 303.973 389.902 302.001C393.618 301.183 397.348 298.62 400.836 296.635C402.821 294.891 403.868 292.221 406.189 290.825C407.236 292.221 407.128 294.193 408.054 295.709Z" fill="#BBBDBF"/>
<path d="M410.509 302.927C411.435 305.597 410.965 308.977 408.98 310.963C404.338 317.242 396.422 319.107 388.735 317.711C385.596 316.772 383.61 315.028 381.638 312.466C392.116 313.633 403.976 310.024 408.752 299.787C409.919 300.244 409.798 302.001 410.509 302.927Z" fill="#BBBDBF"/>
<path d="M411.891 319.214C407.477 324.916 399.32 325.506 393.041 324.339C391.297 323.641 390.129 321.897 389.204 320.381C397.803 321.669 407.356 318.637 412.253 310.493C413.527 313.042 413.756 316.772 411.891 319.214Z" fill="#BBBDBF"/>
<path d="M413.649 328.417C408.98 331.677 402.004 332.603 396.651 330.389C395.376 329.92 395.255 328.417 394.558 327.478C401.427 327.72 409.342 326.901 413.877 320.381C414.924 322.715 415.151 326.324 413.649 328.417Z" fill="#BBBDBF"/>
<path d="M412.937 337.138C409.342 339.351 403.64 339.123 399.561 337.379C398.864 336.319 397.696 335.165 398.166 333.998C403.868 335.045 409.677 333.529 414.346 330.617C413.876 332.254 415.392 335.863 412.937 337.138Z" fill="#BBBDBF"/>
<path d="M412.467 343.43C409.221 346.1 404.096 345.523 400.608 343.899C399.213 342.84 399.682 341.914 399.562 340.277C403.519 341.444 409.342 342.383 413.179 339.579C413.286 340.747 413.058 342.263 412.467 343.43Z" fill="#BBBDBF"/>
<path d="M411.194 346.797C410.617 349.132 409.342 351.104 408.054 353.089C405.385 353.559 402.231 353.666 400.38 351.453C399.682 349.709 398.743 348.434 399.79 346.569C403.399 347.736 407.598 348.541 411.194 346.797Z" fill="#BBBDBF"/>
<path d="M403.52 355.531C404.445 354.834 405.72 355.062 406.659 355.29C401.655 362.159 394.786 367.405 386.991 368.8C381.517 368.679 376.164 370.772 372.448 366.237C371.75 364.493 372.555 362.749 373.722 361.354C380.001 356.699 387.461 356.699 394.558 353.787L394.786 354.136C393.162 357.396 389.554 360.187 386.522 362.052V362.749C389.782 363.796 391.754 360.187 394.786 359.596C395.134 361.582 397.348 361.582 398.636 361.81C398.864 361.582 399.32 361.354 399.32 360.884C398.059 359.959 396.53 359.489 396.181 357.745C396.771 356.001 396.999 354.136 398.636 352.848C399.682 354.485 401.655 355.183 403.52 355.531Z" fill="#BBBDBF"/>
<path d="M378.955 131.267L377.559 129.858L376.876 130.798C377.211 131.026 376.983 131.495 377.103 131.723C376.285 129.63 375.587 127.189 375.815 124.975C377.452 126.84 378.727 128.812 378.955 131.267Z" fill="#BBBDBF"/>
<path d="M373.494 133.467C373.722 133.937 372.085 132.542 371.75 133.937V135.104C370.703 133.937 369.643 132.421 370.354 130.797C371.629 131.026 372.904 132.193 373.494 133.467Z" fill="#BBBDBF"/>
<path d="M332.521 232.988C333.219 238.221 335.781 242.634 336.828 247.759C334.507 249.745 331.474 246.592 329.851 249.745C326.014 254.508 331.716 262.423 325.773 266.381C322.392 273.72 324.726 283.017 324.954 290.128C324.149 295.481 324.257 301.639 326.014 307.354C320.648 285.928 310.291 263.121 319.95 241.011C322.513 236.825 326.591 232.277 331.823 232.277L332.521 232.988Z" fill="#F0B83D"/>
<path d="M390.13 128.356C390.827 130.677 387.795 132.77 389.901 134.165C392.464 132.314 392.343 127.417 396.422 127.189C396.422 129.859 394.785 132.421 394.316 135.104L394.785 135.681C397.696 133.937 397.696 130.1 401.305 129.51C401.533 132.542 399.32 135.104 398.394 137.774C400.259 138.593 400.835 136.151 402.472 135.332C403.519 134.984 404.337 134.058 405.612 134.407C404.686 136.849 401.426 138.593 402.003 141.155C404.337 141.155 405.384 137.318 408.054 137.546C406.886 140.109 403.17 141.504 404.216 144.294C406.765 143.825 408.053 140.337 410.965 140.927C410.267 143.369 405.263 144.992 406.887 148.024C408.644 147.555 409.798 145.341 411.891 145.81C410.147 147.206 406.658 148.722 407.356 151.392C409.918 150.694 412.011 147.555 414.802 148.722C414.466 149.527 412.937 149.889 413.179 151.164C413.407 152.438 414.802 152.089 415.621 152.787C413.648 151.74 411.541 152.68 410.025 153.833C410.508 155.698 412.709 154.075 413.648 155.242C413.058 155.47 412.253 155.242 411.891 155.94C412.468 157.684 414.694 158.14 416.546 158.14C418.531 159.079 419.457 161.051 420.396 162.795C417.136 162.795 415.741 159.884 412.709 159.656C412.011 159.656 411.662 160.702 412.253 161.051C414.922 163.842 420.047 165.599 420.155 170.013C417.243 168.618 414.695 166.283 411.193 166.176C410.267 168.497 413.407 168.618 414.574 169.785C416.197 171.301 417.592 172.924 417.954 174.91C415.848 172.817 413.057 170.241 410.025 170.483C409.569 170.831 409.798 171.529 409.798 171.999C410.146 173.045 411.314 172.455 411.891 172.924C416.895 176.185 416.089 182.356 418.303 187.011C413.406 185.388 413.648 179.324 408.979 177.58C407.355 179.203 410.737 180.719 411.193 182.356C413.527 186.542 415.043 192.364 412.709 196.899C406.188 203.419 396.301 206.451 394.316 215.99C391.404 222.618 381.288 221.464 381.637 229.836C380 228.44 381.047 226.106 381.396 224.483C383.958 219.599 390.948 221.571 392.343 216.218C391.994 215.641 391.404 215.749 390.827 215.749C386.521 219.237 378.847 220.069 378.029 226.924C377.787 228.682 378.954 229.956 379.303 231.58C377.102 230.533 375.466 227.863 375.117 225.529C375.345 222.269 376.874 219.478 380 217.962C384.535 216.795 389.901 215.869 393.738 212.153C393.859 211.684 393.739 211.214 393.269 210.986C390.25 212.032 386.642 213.079 383.381 211.912C379.893 210.516 375.935 212.261 372.903 214.125C372.903 212.261 374.648 210.865 376.043 209.698C381.986 207.498 387.795 211.563 394.316 210.516C395.027 209.819 395.711 208.88 395.482 207.605C396.65 207.149 398.165 206.559 398.635 205.391C397.468 204.815 395.254 205.391 393.738 204.935C389.673 203.419 390.022 197.717 385.004 197.597H380.711C382.214 196.201 384.535 196.201 386.521 196.671C391.874 198.536 393.041 207.028 400.017 203.889C400.836 203.299 402.124 203.647 402.701 202.48L401.775 201.554C399.44 201.206 396.65 202.131 394.785 200.75C392.571 197.946 392.343 194.109 388.976 192.016C390.72 191.774 392.571 192.485 394.316 193.29C397.576 197.02 401.184 201.447 406.658 199.582C407.356 199.113 408.402 199.113 408.979 198.066L408.751 197.369C405.384 196.899 400.138 198.066 398.394 193.76C397.804 192.941 398.394 192.136 398.635 191.305C401.063 193.88 404.793 197.248 409.342 195.973C410.509 194.927 413.058 195.276 413.179 193.062C411.663 191.077 410.388 193.639 408.751 193.532C406.766 193.639 404.793 193.532 403.519 192.016C401.064 185.723 408.643 181.766 407.825 175.138C410.267 162.218 407.235 146.387 395.026 138.244C391.874 136.5 388.493 134.984 385.004 133.937C384.079 132.072 386.642 130.798 387.46 129.51C387.796 128.235 388.734 127.068 388.493 125.445C389.324 126.022 389.781 127.31 390.13 128.356Z" fill="#F0B83D"/>
<path d="M390.828 207.605C385.945 209 381.866 201.205 376.044 204.345C378.257 201.903 381.638 202.131 384.536 202.721C387.112 203.647 387.917 207.377 390.828 207.605Z" fill="#F0B83D"/>
<path d="M399.091 237.054C398.273 240.542 396.422 245.667 398.864 249.155C399.91 251.489 402.003 253.113 403.747 254.749C401.896 257.889 400.259 261.726 402.701 264.986C404.217 267.776 409.919 267.897 406.431 271.734C405.491 273.827 405.612 275.571 405.612 278.026C399.212 263.939 393.162 248.685 393.967 232.519C395.483 234.142 397.106 236.356 399.091 237.054Z" fill="#F0B83D"/>
<path d="M413.179 286.747C412.71 289.537 410.026 291.979 411.663 295.011C412.937 297.332 415.044 299.439 417.244 300.592C416.198 302.578 415.621 304.899 414.802 307.126C411.784 298.741 410.268 289.658 406.887 281.394C408.645 283.608 411.086 285.003 413.179 286.747Z" fill="#F0B83D"/>
<path d="M419.23 316.544L416.788 319.214C416.198 316.893 416.09 314.33 415.849 311.889C416.681 313.982 418.532 314.33 419.23 316.544Z" fill="#F0B83D"/>
<path fill-rule="evenodd" clip-rule="evenodd" d="M329.986 228.923C329.235 229.151 330.844 227.756 330.952 226.898C331.059 226.026 331.489 228.83 331.489 228.83C331.489 228.83 330.737 228.722 329.986 228.923Z" fill="#231F20"/>
<path d="M374.192 208.316L375.117 207.605H375.815L374.192 208.316Z" fill="#BBBDBF"/>
<path d="M387.916 226.696C388.842 228.32 388.278 230.413 388.492 232.277C387.795 233.324 386.762 232.277 386.064 232.277C384.656 231.352 383.851 229.728 384.535 228.092C385.125 227.273 385.366 225.999 386.292 225.529C387.459 225.06 387.339 226.576 387.916 226.696Z" fill="#F0B83D"/>
<path d="M380.001 146.28C381.289 145.81 382.804 146.159 383.851 146.977C384.441 148.252 382.912 148.373 382.456 148.95C377.559 150.117 373.722 155.242 368.141 152.559C368.369 151.271 369.415 150.224 370.006 148.95C370.931 147.675 372.206 146.508 373.722 146.038C375.815 146.159 378.149 149.178 380.001 146.28Z" fill="#231F20"/>
<path d="M414.346 292.569C413.407 289.417 421.912 284.882 414.346 284.305C412.937 283.366 411.193 282.44 410.509 280.696C415.043 279.65 419.685 278.952 424.582 278.482C425.28 278.952 426.327 278.724 426.904 279.529C428.299 280.226 427.95 282.319 427.722 283.607C426.447 284.882 425.039 286.519 423.764 287.216C423.764 287.686 422.838 288.384 423.764 288.732C420.947 290.45 415.271 292.341 414.346 292.569Z" fill="#BBBDBF"/>
<path d="M431.103 220.418C433.316 222.618 434.819 225.529 437.851 226.924C438.549 226.817 438.897 226.106 439.125 225.529C442.278 229.138 443.552 234.142 445.417 238.57C445.887 238.57 446.464 238.69 446.812 238.1C448.087 241.467 447.282 244.5 447.497 248.457C449.831 252.294 448.329 257.54 447.041 261.377C446.223 264.637 442.278 265.335 441.46 268.595C442.627 269.99 443.553 268.595 444.828 268.353C447.618 267.897 449.724 268.944 451.696 270.339C450.77 273.25 448.906 276.39 445.887 277.785C445.19 278.026 444.948 278.724 445.19 279.529C447.497 281.286 450.892 280.575 452.864 283.366C455.306 285.928 456.231 289.081 457.519 292.1C455.198 293.267 457.639 295.36 457.291 297.104C456.928 299.787 460.538 303.155 457.519 305.368C456.701 308.401 455.654 311.312 455.775 314.558C453.212 317.591 452.394 321.32 448.557 323.064C446.464 324.339 444.479 326.553 442.976 328.417C441.809 326.083 444.022 323.534 443.901 320.851C445.646 315.256 449.133 309.796 446.812 303.276C445.296 297.225 440.172 292.569 434.242 291.053C428.42 290.356 422.369 290.356 417.244 291.872C416.318 292.1 415.271 292.341 414.346 292.569C418.88 290.892 420.88 289.98 423.764 288.732C426.327 286.975 430.056 285.352 430.633 281.863C430.284 280.455 430.164 278.831 429.359 277.557C426.447 274.874 423.187 276.618 419.685 276.041L414.574 276.618C423.764 270.46 430.754 260.331 432.498 249.155C433.652 239.737 431.558 229.608 430.633 220.418H431.103Z" fill="#F0B83D"/>
<path d="M435.409 227.622C439.716 240.421 438.2 255.098 432.967 266.85C432.498 267.776 431.452 268.943 430.405 268.125C429.587 266.26 431.331 264.288 432.257 262.531C435.758 253.112 438.079 242.286 434.94 232.049C434.363 230.412 433.893 228.682 434.47 226.924C434.819 226.924 435.168 227.394 435.409 227.622Z" fill="#231F20"/>
<path d="M443.674 246.243V247.062H442.977V245.787C443.312 245.787 443.674 245.895 443.674 246.243Z" fill="#231F20"/>
<path d="M440.763 263.242C439.019 265.442 438.201 269.064 434.941 269.521C433.545 266.502 437.973 265.214 438.549 262.316C441.112 258.345 441.689 253.582 442.735 248.927L443.433 248.457C443.675 253.582 442.279 258.586 440.763 263.242Z" fill="#231F20"/>
<path d="M451.241 290.356C453.803 294.555 455.077 300.243 453.803 305.14C452.864 303.866 453.669 302.699 453.092 301.303C452.046 295.36 449.256 289.765 443.674 285.821C443.554 285.003 444.023 283.956 445.19 284.305C447.498 285.928 449.483 288.035 451.241 290.356Z" fill="#231F20"/>
<path d="M450.181 308.977C449.135 314.33 447.753 320.153 444.828 325.036C444.479 324.808 444.358 324.218 444.358 323.534C444.828 322.353 445.539 321.199 445.646 319.683C446.814 315.498 448.329 311.419 448.799 306.884C448.557 301.639 445.995 296.876 442.279 292.798C442.038 292.221 442.279 291.523 442.977 291.402C448.799 295.253 451.013 302.699 450.181 308.977Z" fill="#231F20"/>
<path d="M468.802 352.378C469.742 360.066 462.295 366.935 456.701 371.013L452.394 373.683C450.073 368.451 448.087 362.508 446.571 356.698C451.24 352.741 457.171 351.694 463.101 350.178C465.207 351.225 467.528 349.829 468.802 352.378Z" fill="#00B6F1" stroke="white" stroke-width="0.228074" stroke-miterlimit="3.864"/>
<path d="M482.889 363.098C485.451 374.032 492.669 383.812 490.684 396.263C483.01 412.671 464.965 420.237 449.952 427.227C448.208 427.683 446.571 428.381 444.599 428.381C440.172 416.4 436.805 404.057 433.545 391.607C435.061 390.802 437.609 391.03 439.367 389.863C455.305 384.51 473.699 376.246 480.447 358.671C481.601 359.489 482.084 361.582 482.889 363.098Z" fill="#00B6F1" stroke="white" stroke-width="0.228074" stroke-miterlimit="3.864"/>
<path d="M419.001 389.863C418.76 390.91 417.593 391.835 416.788 392.305C414.923 393.472 413.179 394.639 411.193 395.444C412.361 393.593 415.969 390.802 419.001 389.863Z" fill="#00B6F1" stroke="#00B6F1" stroke-width="0.228074" stroke-miterlimit="3.864"/>
<path d="M123.498 415.823C143.045 421.525 162.377 427.455 182.622 431.292C198.681 435.598 216.485 436.886 233.953 438.631C259.43 441.891 285.269 437.933 309.472 435.478C328.335 432.808 346.594 428.501 364.531 423.39C385.716 417.446 407.235 412.442 425.736 400.113L430.405 394.746L431.33 395.686C434.819 409.531 439.367 422.92 444.13 436.189C445.297 440.952 446.464 447.244 442.279 450.732C410.388 468.884 375.586 477.376 339.511 485.292C332.172 486.11 324.257 487.626 317.039 488.673C290.864 491.933 261.885 492.617 234.878 491.933C225.568 491.571 217.075 490.766 207.993 489.719C194.617 489.142 182.046 486.338 169.233 484.125C135.599 476.92 101.737 468.2 71.9393 451.43C68.2096 448.76 67.4049 444.802 68.1026 440.723C71.5908 427.924 76.5947 415.823 80.2036 403.011C81.022 399.992 81.599 396.96 83.1151 394.29C94.2907 406.512 109.183 410.698 123.498 415.823Z" fill="#00B6F1" stroke="white" stroke-width="0.228074" stroke-miterlimit="3.864"/>
<path d="M392.116 395.444C387.917 397.899 383.503 398.932 378.727 398.597C378.257 397.202 380.47 397.658 381.168 396.732C384.897 395.686 388.037 395.686 392.116 395.444Z" fill="#00B6F1" stroke="#00B6F1" stroke-width="0.228074" stroke-miterlimit="3.864"/>
<path d="M376.043 409.075C374.889 409.652 372.327 410.47 370.006 410.47C369.416 409.773 369.537 408.364 369.537 407.559L376.043 409.075Z" fill="#00B6F1" stroke="#00B6F1" stroke-width="0.228074" stroke-miterlimit="3.864"/>
<path d="M476.382 346.328C480.675 356.001 474.624 365.191 467.876 371.711C459.142 379.385 448.557 383.813 437.851 387.301L432.726 387.998C433.195 386.845 431.8 386.254 432.257 385.087C447.283 380.204 462.872 373.804 471.485 358.443C472.532 355.88 472.773 352.741 471.485 350.178C468.802 346.569 464.965 347.616 461.128 347.737C455.077 349.481 449.026 350.997 443.902 354.834L443.204 356.457C445.538 362.629 447.282 368.921 449.254 375.199C448.087 376.018 446.464 376.595 445.19 377.292C442.627 373.576 442.157 368.451 440.064 364.265C439.836 359.838 433.544 354.136 439.367 350.876C448.087 346.328 457.64 342.84 467.648 341.914C470.788 342.035 474.276 343.309 476.382 346.328Z" fill="#F0B83D"/>
<path d="M127.107 400.811C131.292 401.737 136.646 402.541 139.785 399.174C140.724 396.732 137.813 395.565 136.538 394.519C130.018 391.379 121.754 391.728 114.308 391.379C113.141 390.44 111.973 389.742 110.927 388.468C120.01 387.421 129.669 389.045 138.282 390.91C141.073 392.882 145.608 393.472 146.319 397.658C146.895 400.341 145.5 402.783 143.394 403.722C136.646 406.513 130.836 404.876 123.726 403.95C116.75 402.662 110.82 398.704 105.574 393.123C101.495 389.166 97.0814 384.161 91.5003 386.026C90.4538 387.073 90.3197 388.817 90.8026 390.212L92.0772 392.305C101.267 399.523 111.745 403.481 122.344 407.09C126.181 408.257 130.367 410.108 134.673 411.275C160.62 418.144 185.185 426.181 212.889 428.971C224.4 430.943 237.79 431.413 249.421 432.567L249.891 432.111C284.116 432.218 314.718 428.274 346.595 420.465C353.464 418.614 359.407 416.749 366.383 415.112C381.745 411.275 397.106 405.922 411.662 399.174C415.969 395.914 424.354 394.519 423.08 387.301C422.141 385.436 419.685 385.785 417.955 386.026C408.523 390.212 403.05 402.327 392.572 403.722C384.2 404.648 374.071 408.834 367.9 401.039C367.792 399.053 367.792 396.96 369.066 395.444C374.648 390.105 382.455 389.984 389.901 388.696H403.291C401.064 394.639 394.208 390.561 390.358 392.077C385.246 392.882 379.303 393.003 375.117 396.732C374.647 397.658 373.843 398.933 374.889 399.872C380.591 404.178 388.386 400.341 394.316 398.356C404.794 393.003 412.468 378.111 426.206 382.887C427.95 383.571 429.117 385.557 429.359 387.301C429.238 391.728 426.206 395.565 422.597 397.9C414.695 404.058 405.384 407.438 396.18 411.047C364.639 421.646 331.005 429.548 296.915 433.975C287.014 434.445 277.005 435.948 266.876 436.417C242.915 436.645 219.289 434.794 195.891 430.595C194.026 431.064 192.282 429.79 190.31 429.897C159.815 423.028 129.441 416.4 101.039 403.722C94.3982 399.872 83.236 395.216 84.7386 385.557C86.1339 382.887 88.6963 381.827 91.5003 381.25C105.923 381.72 113.368 398.356 127.107 400.811Z" fill="#F0B83D"/>
<path d="M67.526 356.229L61.7031 372.986C54.4852 369.498 47.737 363.34 44.8257 355.531C44.7049 353.908 44.7049 352.15 45.7514 350.876C50.2995 348.662 55.3039 350.876 59.597 351.922C62.401 353.09 65.1916 354.713 67.526 356.229Z" fill="#00B6F1" stroke="white" stroke-width="0.228074" stroke-miterlimit="3.864"/>
<path d="M39.231 368.8C49.709 381.719 65.3118 386.254 79.9756 391.151C79.6268 395.444 77.6415 399.643 76.7158 403.95C74.6229 410.819 72.4089 417.554 70.1952 424.316C68.8 425.362 70.1955 429.548 67.0562 427.925C53.1973 423.39 40.0495 416.749 29.1153 405.694C24.3392 400.341 19.9119 393.713 22.4744 386.482C24.9295 377.292 29.2227 368.8 31.906 359.596L32.9521 357.745C34.3473 361.703 36.5612 365.54 39.231 368.8Z" fill="#00B6F1" stroke="white" stroke-width="0.228074" stroke-miterlimit="3.864"/>
<path d="M102.905 395.216C99.9934 394.062 96.2637 392.077 95.2173 389.394C98.2493 390.333 100.691 393.003 102.905 395.216Z" fill="#00B6F1" stroke="#00B6F1" stroke-width="0.228074" stroke-miterlimit="3.864"/>
<path d="M135.372 397.658C135.372 399.053 133.628 398.007 132.93 398.597C129.67 397.899 125.363 397.551 122.559 395.216C127.107 395.444 131.655 395.444 135.372 397.658Z" fill="#00B6F1" stroke="#00B6F1" stroke-width="0.228074" stroke-miterlimit="3.864"/>
<path d="M144.802 407.318C144.333 408.364 144.802 410.001 143.635 410.47L138.041 408.834C140.268 408.136 142.589 407.908 144.802 407.318Z" fill="#00B6F1" stroke="#00B6F1" stroke-width="0.228074" stroke-miterlimit="3.864"/>
<path d="M66.5864 346.569C70.1953 348.434 74.2739 349.36 77.2925 352.62C76.4741 357.745 73.9249 362.051 72.6369 366.935C71.0136 370.074 70.8931 373.804 69.0282 376.836C67.5256 376.595 66.0095 375.548 64.963 374.85C65.3118 371.939 66.7072 368.572 67.2841 365.66C68.572 362.749 69.9671 359.838 70.6647 356.698C71.3623 354.257 68.572 353.318 67.056 352.378C60.7639 348.783 52.9689 346.328 45.751 347.039C44.0069 347.508 42.2627 349.011 41.6858 350.648C40.2906 361.354 50.4066 368.8 58.0941 374.381C65.4193 378.808 73.1064 381.948 81.1293 384.631C81.7196 385.436 81.1293 386.844 80.6732 387.77C71.2416 385.905 62.4004 382.296 54.2434 377.292C44.0069 371.59 34.3473 361.112 36.0914 349.252C36.7891 345.402 40.5187 342.142 44.3557 341.444C52.1505 341.337 59.7173 344.128 66.5864 346.569Z" fill="#F0B83D"/>
<path d="M83.3164 442.495C85.3556 443.058 86.3482 443.192 87.2203 441.059L93.4186 425.711C92.5063 422.746 92.0232 422.438 91.6073 422.263L91.9295 421.458L98.7579 424.222L104.406 442.589L104.474 442.602L108.445 432.795C109.223 430.849 109.263 429.629 106.727 428.367L107.049 427.576L114.012 430.38L113.69 431.185C111.235 430.541 110.739 431.212 110.108 432.768L102.407 451.832L101.495 451.457L94.1834 428.086L94.1162 428.059L88.8838 441.019C87.9446 443.353 88.3739 444.239 90.668 445.473L90.3462 446.278L82.9941 443.313L83.3164 442.495Z" fill="#231F20"/>
<path d="M114.281 430.595L133.44 436.82L131.279 443.501L130.448 443.232C131.213 438.255 129.133 436.672 124.652 435.21C122.814 434.619 122.184 434.566 121.714 435.974L119.205 443.689C122.385 444.748 124.37 444.44 126.208 440.482L127.067 440.764L123.418 451.993L122.546 451.711C123.498 447.432 122.13 445.889 118.843 444.816L116.24 452.852C115.757 454.314 116.267 454.918 118.414 455.616C121.674 456.675 125.336 456.917 129.066 452.584L129.991 452.879L126.423 459.359L106.996 453.053L107.265 452.221C109.223 452.637 110.283 452.865 110.954 450.799L116.173 434.74C116.884 432.54 115.516 432.017 114.013 431.426L114.281 430.595Z" fill="#231F20"/>
<path d="M166.711 445.768C165.504 445.594 164.565 446.238 163.854 447.405L152.329 466.322L151.417 466.093L149.364 448.854L149.136 448.813L139.262 463.303L138.31 463.075L135.827 440.925C135.626 439.154 135.358 438.751 133.99 438.215L134.177 437.356L144.186 439.664L143.984 440.522C142.737 440.334 141.771 440.187 141.476 441.448C141.395 441.81 141.409 442.213 141.462 442.629L142.67 455.844L142.737 455.857L149.123 446.399L148.68 442.857C148.412 442.012 148.117 441.542 146.507 441.099L146.695 440.254L157.32 442.696L157.119 443.554C155.63 443.313 154.637 443.125 154.369 444.279C154.275 444.681 154.369 445.567 154.409 446.264L155.442 458.419L155.509 458.446L161.949 447.754C162.137 447.432 162.365 447.096 162.526 446.372C162.848 444.976 161.667 444.668 160.513 444.333L160.714 443.487L166.913 444.923L166.711 445.768Z" fill="#231F20"/>
<path d="M185.252 467.234C182.287 469.689 179.255 471.433 174.841 470.736C166.805 469.461 163.357 463.115 164.377 456.676C165.49 449.672 171.299 445.084 178.544 446.224C181.643 446.721 184.044 448.827 184.93 448.975C185.855 449.122 186.285 448.451 186.768 447.633L187.707 447.781L186.419 455.857L185.56 455.71C184.822 452.53 182.569 448.036 178.638 447.405C173.607 446.613 171.42 451.671 170.494 457.494C170.172 459.573 169.864 462.914 170.776 465.316C171.836 468.039 174.479 468.978 175.552 469.153C178.235 469.582 180.985 468.951 184.353 466.201L185.252 467.234Z" fill="#231F20"/>
<path d="M207.188 474.626L195.959 473.231L196.066 472.372C198.239 472.466 198.87 472.506 199.004 471.366C199.111 470.44 198.32 467.73 197.971 466.563L190.176 465.611C188.902 467.985 188.177 469.327 188.097 469.89C187.936 471.205 189.586 471.514 190.766 471.715L190.646 472.587L183.616 471.728L183.723 470.856C185.641 470.816 186.259 469.703 187.614 467.234L197.649 449.176L198.615 449.297L204.102 468.482C205.202 472.372 205.618 473.62 207.282 473.754L207.188 474.626ZM197.622 465.141L195.154 456.3L190.861 464.323L197.622 465.141Z" fill="#231F20"/>
<path d="M224.347 459.023C223.891 456.541 222.079 452.396 217.974 452.1C216.149 451.98 214.164 452.892 214.003 455.146C213.869 457.038 214.486 457.843 217.317 459.52L222.254 462.417C223.394 463.088 225.903 465.288 225.634 469.099C225.42 472.144 222.898 476.209 216.485 475.767C213.171 475.525 211.695 474.237 210.608 474.157C209.884 474.103 209.656 474.72 209.482 475.27L208.475 475.203L209.079 466.603L210.085 466.67C210.541 470.239 212.286 474.304 216.7 474.626C220.885 474.908 221.301 471.487 221.328 471.031C221.503 468.696 219.919 467.744 217.733 466.509L215.479 465.235C209.71 461.948 209.924 458.956 210.032 457.36C210.193 455.24 211.601 450.571 218.216 451.041C221.006 451.228 222.562 452.489 223.568 452.557C224.373 452.624 224.575 452.114 224.803 451.456L225.849 451.537L225.326 459.09L224.347 459.023Z" fill="#231F20"/>
<path d="M243.492 476.558L231.042 476.115L231.069 475.243C233.631 475.122 234.463 475.082 234.57 472.144L235.214 453.764C232.773 453.818 229.164 453.871 228.265 459.425L227.258 459.385L227.607 452.382L248.55 453.12L248.375 460.137L247.356 460.096C246.859 454.488 243.264 454.18 240.862 453.965L240.218 472.359C240.111 475.31 240.956 475.417 243.532 475.672L243.492 476.558Z" fill="#231F20"/>
<path d="M269.72 476.786H249.542V475.914C251.501 475.673 252.547 475.565 252.547 473.446V456.541C252.547 454.234 251.112 454.167 249.542 454.073V453.187H261.724V454.073C259.282 454.167 258.209 454.207 258.209 457.279V473.741C258.209 475.418 258.974 475.699 261.308 475.699C266.581 475.699 268.539 472.802 270.136 468.871H271.155L269.72 476.786Z" fill="#231F20"/>
<path d="M270.445 453.134L290.556 452.087L290.931 459.09L290.059 459.144C288.999 454.22 286.464 453.483 281.768 453.724C279.85 453.831 279.233 454.006 279.3 455.508L279.729 463.585C283.083 463.451 284.814 462.458 285.109 458.098L286.008 458.057L286.625 469.837L285.726 469.877C285.082 465.544 283.244 464.591 279.796 464.779L280.239 473.204C280.319 474.747 281.004 475.136 283.258 475.002C286.679 474.841 290.194 473.741 292.112 468.361L293.092 468.307L292.072 475.633L271.679 476.692L271.626 475.834C273.611 475.512 274.685 475.351 274.577 473.191L273.679 456.327C273.571 454.019 272.095 454.033 270.485 454.006L270.445 453.134Z" fill="#231F20"/>
<path d="M322.968 450.008C321.09 450.477 320.325 450.947 320.567 453.241L321.734 464.323C321.949 466.362 321.788 469.515 320.5 471.218C318.957 473.285 316.005 474.264 313.912 474.465C312.396 474.626 309.109 474.76 306.641 473.03C305.018 471.862 303.985 470.749 303.582 467.006L302.361 455.401C302.053 452.476 301.154 452.503 299.182 452.503L299.087 451.644L310.827 450.41L310.921 451.269C308.64 451.617 307.566 451.765 307.888 454.824L309.109 466.415C309.311 468.401 309.82 473.177 314.811 472.654C320.929 472.023 320.446 466.697 320.204 464.483L319.091 453.885C318.876 451.765 318.34 450.638 315.334 450.799L315.241 449.94L322.874 449.149L322.968 450.008Z" fill="#231F20"/>
<path d="M326.47 471.406C328.496 470.829 329.422 470.44 329.073 468.16L326.47 451.819C324.163 449.739 323.599 449.726 323.156 449.806L323.009 448.934L330.294 447.78L344.595 460.62L344.649 460.606L342.999 450.155C342.677 448.089 342.073 447.016 339.256 447.244L339.122 446.385L346.527 445.218L346.662 446.077C344.233 446.774 344.153 447.606 344.421 449.256L347.628 469.568L346.662 469.716L328.362 453.469L328.295 453.482L330.481 467.261C330.871 469.756 331.703 470.293 334.292 470.159L334.426 471.031L326.604 472.265L326.47 471.406Z" fill="#231F20"/>
<path d="M363.526 465.409L351.572 467.958L351.384 467.1C353.195 466.536 354.497 466.107 354.054 464L350.539 447.472C350.056 445.218 348.433 445.486 346.836 445.714L346.662 444.869L358.616 442.32L358.79 443.179C357.207 443.581 355.57 443.97 356.066 446.291L359.581 462.82C360.051 465.007 361.433 464.819 363.338 464.551L363.526 465.409Z" fill="#231F20"/>
<path d="M381.49 460.727L369.443 463.96L369.228 463.115C371.63 462.243 372.421 461.961 371.67 459.13L366.893 441.354C364.572 442.119 361.138 443.232 361.916 448.8L360.937 449.055L359.233 442.253L379.465 436.833L381.342 443.595L380.363 443.863C378.243 438.644 374.729 439.409 372.368 439.892L377.13 457.668C377.895 460.539 378.726 460.378 381.262 459.882L381.49 460.727Z" fill="#231F20"/>
<path d="M380.872 436.417L399.91 429.87L402.204 436.511L401.385 436.779C398.997 432.365 396.381 432.339 391.927 433.868C390.102 434.499 389.552 434.834 390.035 436.256L392.679 443.917C395.858 442.857 397.254 441.421 396.341 437.155L397.199 436.86L401.037 448.022L400.178 448.317C398.354 444.333 396.341 443.917 393.068 445.044L395.818 453.026C396.314 454.489 397.079 454.663 399.225 453.925C402.459 452.812 405.545 450.786 405.907 445.084L406.819 444.775L407.866 452.1L388.547 458.741L388.278 457.923C390.076 457.078 391.069 456.622 390.371 454.569L384.87 438.59C384.119 436.417 382.697 436.833 381.154 437.249L380.872 436.417Z" fill="#231F20"/>
<path d="M410.857 449.86C412.87 448.961 413.085 447.754 412.561 446.587L405.558 430.849C404.7 428.904 403.264 429.468 401.963 429.897L401.6 429.092L411.34 424.772C420.276 420.787 425.642 425.04 427.829 429.951C430.432 435.827 429.211 442.334 421.295 446.171L411.206 450.665L410.857 449.86ZM417.7 444.212C418.277 445.486 418.813 445.929 420.343 445.258C423.912 443.662 425.816 440.375 422.422 432.755C421.121 429.843 417.378 423.377 411.891 425.818C409.838 426.731 410.227 427.509 410.576 428.206L417.7 444.212Z" fill="#231F20"/>
<path d="M138.752 147.434C140.027 146.159 141.892 146.159 143.394 146.977C145.138 148.373 146.426 150.814 147.473 152.787C144.91 152.679 141.301 154.303 138.98 152.331C136.887 150.224 134.325 149.526 131.762 148.48C131.655 148.131 131.293 147.554 131.762 147.205C132.46 146.28 133.627 146.28 134.902 146.28C136.19 146.736 137.236 148.48 138.752 147.434Z" fill="#231F20"/>
<path d="M160.513 165.13C160.392 165.479 159.923 165.599 160.043 165.948C161.09 165.827 162.485 166.055 163.424 166.646C164.699 167.92 163.773 169.436 163.773 170.952C163.075 171.757 161.788 171.529 161.09 171.18C159.923 170.603 160.043 169.316 159.118 168.618C158.648 169.087 158.997 170.483 157.95 170.241C156.904 168.618 155.857 166.995 155.267 165.13C155.857 165.251 157.025 166.055 157.95 165.358C158.527 164.66 159.346 164.083 160.272 163.962C160.741 164.204 160.513 164.781 160.513 165.13Z" fill="#231F20"/>
<path d="M144.4 151.74L141.999 152.035C141.342 152.116 140.563 151.915 139.906 151.23C139.705 151.056 139.544 150.748 139.275 150.587C139.584 150.546 139.785 150.493 140.027 150.211C140.027 150.211 140.281 151.539 141.73 151.539C142.75 151.539 143.233 150.466 143.233 150.466L144.4 151.74Z" fill="white"/>
<path d="M359.648 164.902H360.333C359.876 166.404 358.36 168.041 357.891 169.785C356.723 170.134 356.724 168.739 356.496 168.041C355.691 169.087 355.449 170.603 354.054 171.18C353.128 171.408 352.31 171.18 351.612 170.483C352.068 168.967 350.566 166.404 352.887 165.948C353.464 165.827 354.054 165.599 354.752 165.707L355.328 166.176C355.691 165.599 354.872 164.781 354.98 163.962C357.073 163.037 357.784 166.874 359.648 164.902Z" fill="#231F20"/>
<path d="M370.408 151.606C370.408 151.606 371.441 152.156 372.219 152.129C372.971 152.102 374.232 151.915 374.917 151.257C375.131 151.096 375.305 150.801 375.573 150.627C375.265 150.573 375.064 150.519 374.836 150.238C374.836 150.238 374.541 151.552 373.078 151.512C372.072 151.472 371.616 150.372 371.616 150.372L370.408 151.606Z" fill="white"/>
<path d="M142.589 209.698C141.542 208.651 140.026 208.075 138.979 207.256C140.375 207.846 141.77 208.651 142.589 209.698Z" fill="#BBBDBF"/>
<path d="M130.488 132.77V133.937C121.647 136.379 111.853 143.369 109.183 152.787C105.225 163.962 105.695 178.975 112.564 188.863C112.913 191.076 112.215 192.485 110.699 193.531C108.486 194.336 105.454 194.108 103.602 192.834C103.025 192.713 102.194 192.834 102.194 193.531C102.556 196.201 105.695 196.081 107.788 196.671C111.518 196.671 114.885 194.457 116.75 191.304C117.568 192.485 116.857 193.531 116.75 194.685C114.764 198.884 109.304 196.778 106.272 198.294C107.667 201.326 111.276 199.918 113.611 200.038C118.722 198.764 120.359 191.076 126.41 192.592C121.405 194.806 123.847 202.601 117.219 202.48C115.583 202.48 113.839 201.326 112.564 202.721C114.308 204.466 117.099 205.391 119.889 204.694C124.907 203.07 126.41 194.685 133.158 197.127C133.735 197.368 134.204 197.838 134.902 197.838C132.232 197.838 129.321 197.838 126.879 199.582C124.665 201.554 124.196 205.982 120.359 205.633C119.084 206.21 117.099 204.345 116.75 206.33C117.676 208.075 121.405 207.256 120.131 209.939C122.921 212.26 127.228 210.865 130.247 210.167L130.488 210.516C132.112 210.047 133.627 209.349 135.371 209.228C138.041 209.819 141.302 210.288 142.59 213.307L142.939 214.595C139.33 212.26 133.856 210.865 130.019 212.851C126.879 212.958 124.907 212.26 122.103 211.442C121.406 211.683 121.406 212.502 121.875 212.851C127.335 219.827 142.469 215.051 140.269 227.863C139.437 229.487 138.283 231.352 136.539 232.049C137.585 230.184 137.813 227.863 137.357 225.77C135.251 219.706 128.623 219.827 124.424 216.218C123.968 216.218 123.619 216.339 123.27 216.795C122.801 218.66 125.122 219.358 126.181 220.176C129.093 221.692 133.279 221.692 134.674 225.77C134.795 227.045 135.372 229.017 134.205 230.077C134.097 227.166 131.535 223.785 128.382 222.041C123.968 220.753 120.587 217.037 119.661 212.381C116.173 204.586 106.862 203.768 102.194 196.899C99.2822 190.379 102.904 184.328 106.862 179.444C106.862 178.854 106.742 178.049 106.044 178.049C101.617 179.914 101.737 186.193 96.8537 187.467C99.1747 182.477 98.4774 174.561 105.105 172.924C105.346 172.455 105.695 172.106 105.575 171.408C103.602 169.906 101.388 172.227 99.5236 173.166C98.5845 173.863 97.9002 175.138 96.8537 175.366C98.0075 172.696 100.463 169.436 103.374 168.618C103.951 168.269 104.179 167.571 104.407 167.102C103.253 166.055 101.965 167.102 100.691 167.102L95.2173 170.483C94.8684 165.827 100.812 164.311 103.133 160.595C101.268 159.776 99.2824 161.869 97.3103 162.567L94.6404 163.265C94.7477 162.098 96.2634 160.823 97.0818 159.656C98.9466 158.502 101.161 158.032 103.133 157.214C103.374 156.516 102.784 156.168 102.435 155.698H101.268C102.314 154.88 104.528 155.47 105.105 154.303C103.602 153.136 101.737 152.438 99.7652 153.028C99.7652 152.907 102.435 152.679 101.965 150.922C101.389 150.466 100.919 149.647 100.221 149.419V148.95C103.133 148.252 105.454 150.814 107.788 151.861C108.137 151.633 108.258 151.163 108.258 150.694C107.318 148.48 104.998 147.554 103.133 146.28C104.877 145.569 106.513 147.554 108.258 148.252C109.774 144.992 105.226 144.415 104.179 141.732C106.862 140.216 108.606 144.174 110.927 144.871C111.853 144.522 111.276 143.476 111.169 142.899C110.109 140.927 108.257 139.988 107.09 138.016C109.532 137.425 110.699 140.806 113.141 141.732C113.611 141.034 113.141 139.639 112.564 138.82C111.169 137.774 110.458 136.03 109.425 134.635C112.443 134.407 114.067 137.546 116.522 138.472C116.643 135.56 113.262 133.36 113.839 129.859C117.569 129.979 117.796 134.514 120.587 135.923C121.057 133.011 118.964 130.556 118.615 127.645C119.769 126.947 121.057 128.584 122.345 129.054C123.727 130.677 123.149 134.984 126.181 133.709C125.242 131.146 124.665 127.766 126.638 125.445C127.228 128.007 128.154 131.026 130.488 132.77Z" fill="#F0B83D"/>
<path d="M139.208 204.694C139.329 204.935 138.631 204.586 137.813 204.694C135.599 204.117 133.037 205.043 130.837 206.103C128.972 207.028 127.228 208.652 125.242 208.075C128.744 206.103 131.293 200.749 137.115 203.191L139.208 204.694Z" fill="#F0B83D"/>
<path d="M131.065 228.092C131.413 229.728 131.413 231.808 129.79 232.519C129.092 233.096 128.381 233.324 127.335 233.216C126.879 230.654 127.107 227.622 129.092 225.999C130.139 226.106 130.595 227.273 131.065 228.092Z" fill="#F0B83D"/>
<path d="M129.32 265.442C135.25 269.293 141.891 272.432 149.216 272.432C154.462 274.055 160.62 272.553 165.637 271.962C164.108 276.738 159.922 280.227 155.267 281.394C145.379 282.91 135.25 281.515 127.106 276.041C123.725 273.022 118.721 270.111 120.358 264.744C121.404 263.47 121.284 260.102 123.497 260.8C125.242 262.772 127.106 264.516 129.32 265.442Z" fill="#BBBDBF"/>
<path d="M155.267 284.064L158.407 282.91C158.407 285.003 155.737 286.519 154.798 288.504C148.868 292.221 141.194 292.798 133.976 291.402C126.986 289.886 119.312 287.324 116.052 280.455C114.885 277.208 116.75 274.055 118.615 271.493C128.153 282.319 141.771 286.049 155.267 284.064Z" fill="#BBBDBF"/>
<path d="M144.803 294.314C146.077 293.844 147.822 294.085 148.989 293.965C149.338 293.844 149.096 293.374 149.687 293.495H150.384C148.291 298.499 143.636 301.759 138.283 302.001C129.442 302.35 121.164 299.787 114.536 293.965C113.369 291.751 110.578 289.765 111.625 286.747C112.671 285.472 112.336 283.607 113.839 282.44C121.647 291.402 132.809 296.635 144.803 294.314Z" fill="#BBBDBF"/>
<path d="M110.229 291.872C117.917 301.88 129.669 305.489 141.892 303.973C139.329 308.856 134.445 311.07 129.092 310.721C121.405 310.614 112.671 307.126 108.713 299.787C106.392 296.997 109.183 294.783 109.652 291.872H110.229Z" fill="#BBBDBF"/>
<path d="M134.204 313.163C131.884 317.121 128.275 318.516 124.196 319.214C116.401 319.576 108.714 316.316 105.105 309.326C104.179 306.415 105.695 303.383 106.513 300.592C111.974 310.842 123.042 314.33 134.204 313.163Z" fill="#BBBDBF"/>
<path d="M126.637 321.427C124.195 326.901 117.917 325.734 112.564 325.506C108.136 324.567 103.481 321.32 102.435 316.772C102.904 315.149 102.435 313.042 103.602 311.647C108.713 319.683 118.145 322.474 126.637 321.427Z" fill="#BBBDBF"/>
<path d="M121.284 328.417C120.828 329.812 119.768 331.436 118.144 331.785C114.187 333.301 109.062 332.831 105.104 331.556C103.722 330.617 101.844 329.571 101.267 327.948C100.69 325.734 101.16 323.413 101.737 321.427C106.271 327.827 113.959 328.766 121.284 328.417Z" fill="#BBBDBF"/>
<path d="M117.917 334.937C117.917 336.44 117.219 337.607 116.052 338.533C112.913 339.579 108.365 340.867 104.877 339.351C103.254 339.002 102.435 337.607 101.496 336.44V331.785C106.044 335.045 112.336 335.742 117.917 334.937Z" fill="#BBBDBF"/>
<path d="M116.521 341.216C116.642 342.839 116.401 344.476 114.764 345.174C111.169 346.797 106.862 347.388 103.602 344.597C102.435 343.658 102.904 342.034 102.435 340.747C106.62 342.719 112.094 343.309 116.521 341.216Z" fill="#BBBDBF"/>
<path d="M116.749 348.541C117.326 350.178 115.582 350.876 115.702 352.378C114.186 353.438 112.671 354.834 110.698 354.605C109.88 354.364 108.605 354.257 107.559 354.136C106.62 352.043 105.225 350.286 104.876 347.965C108.485 349.829 112.563 348.89 116.293 347.736L116.749 348.541Z" fill="#BBBDBF"/>
<path d="M119.889 358.201C120.586 361.354 115.703 360.187 117.219 362.749C119.084 363.34 120.13 362.052 121.284 361.112V360.656C124.195 361.233 126.288 364.373 129.32 364.024C129.79 363.796 129.548 363.219 129.548 362.749C127.227 361.461 124.665 359.959 123.042 357.504C122.559 356.578 121.512 355.88 121.512 354.834C128.502 358.443 137.692 357.155 143.394 363.34C143.756 364.493 144.682 366.237 143.635 367.405C138.282 372.167 131.185 369.605 125.014 368.572C118.842 366.13 113.02 361.81 109.183 356.229C111.852 357.047 115.354 356.229 117.219 354.136C118.842 354.713 118.963 356.819 119.889 358.201Z" fill="#BBBDBF"/>
<path d="M92.0773 289.658L92.3054 289.417C91.0309 286.398 85.9058 285.231 87.8913 281.166C90.3197 278.375 93.352 280.575 96.6122 280.227C99.282 281.045 102.435 280.696 105.104 281.394C103.951 284.533 100.113 284.882 98.1279 286.975C98.3559 289.537 102.193 290.476 101.267 293.495C99.5367 292.744 93.9958 290.275 92.0773 289.658Z" fill="#BBBDBF"/>
<path d="M139.786 125.445C139.678 127.766 139.209 129.51 138.511 131.267C138.283 131.724 138.981 130.1 138.041 130.328C137.357 129.979 136.767 130.798 136.539 131.267C135.949 129.282 138.39 127.417 139.209 125.445H139.786Z" fill="#BBBDBF"/>
<path d="M145.031 131.026C145.608 132.663 144.682 134.165 143.635 135.332V133.709H141.892C142.697 132.77 143.635 131.147 145.031 131.026Z" fill="#BBBDBF"/>
<path d="M82.5388 237.63C81.9485 249.276 83.4646 260.33 91.5008 269.064C94.3987 272.083 97.31 274.873 100.691 277.315C96.1428 277.664 90.6825 275.464 86.2552 278.254C84.8599 279.77 84.8599 282.212 85.2087 284.064C86.9528 286.867 89.2737 288.504 92.0777 289.658C93.3656 289.752 99.0406 292.046 101.268 293.495C93.4729 291.281 82.767 290.235 75.5491 294.555C69.1496 298.392 67.7544 305.717 68.3313 312.237C69.3778 318.288 72.8792 323.413 72.8792 329.812C69.2569 324.446 61.0061 322.474 59.5974 315.377C59.7181 311.419 58.6716 307.931 56.6995 304.899C57.3971 301.759 58.0948 298.499 58.7925 295.253C58.9132 294.434 58.6717 293.737 58.0948 293.267H57.8532V292.569C59.7181 287.324 63.4479 281.514 69.7266 281.166C71.8195 278.603 67.1775 278.482 66.3591 276.618C64.9638 275.115 64.6148 273.25 63.6757 271.493C65.782 269.762 68.8006 268.715 71.4704 269.762C71.9399 269.99 72.4096 270.46 73.1073 270.339C74.2745 269.762 73.5768 268.823 73.3353 268.125C67.6335 264.516 66.0102 257.191 66.5871 250.899C69.0289 247.88 66.5872 243.104 68.1032 239.267C68.3313 238.798 68.9082 239.965 69.7266 239.495C71.3634 235.068 73.2147 230.654 75.5491 226.455L76.2468 226.227C76.2468 226.817 76.4749 227.273 77.0652 227.622H77.9909L84.283 221.102C85.3295 226.455 82.4181 231.808 82.5388 237.63Z" fill="#F0B83D"/>
<path d="M111.397 275.571L110.23 278.482C111.397 274.404 104.528 269.292 111.169 267.428C112.793 266.381 113.611 264.637 114.309 263C115.811 259.163 108.607 255.554 114.309 253.341C117.797 250.08 118.843 244.62 117.22 240.542C116.522 239.965 116.75 238.905 116.052 238.341C118.266 236.825 120.01 234.84 121.875 232.747C122.103 248.578 117.448 262.423 111.397 275.571Z" fill="#F0B83D"/>
<path d="M80.902 227.863C80.5532 235.658 77.2931 243.574 79.9763 251.838C80.5532 257.647 82.8878 262.651 85.4368 267.656C85.6783 268.474 85.2088 269.172 84.5111 269.292C82.6463 269.52 82.4181 267.428 81.5997 266.381C76.3674 254.629 75.8978 240.313 80.2044 227.863H80.902Z" fill="#231F20"/>
<path d="M72.4091 247.29V248.001C72.0602 248.001 71.5906 248.229 71.4698 247.759C71.3625 247.29 71.4699 246.834 71.9394 246.592C72.0602 246.941 72.5298 246.713 72.4091 247.29Z" fill="#231F20"/>
<path d="M72.6375 249.973C73.9254 256.95 75.7768 263.711 81.1298 269.064C81.3713 269.762 80.6737 270.339 80.2041 270.567C77.9905 270.339 76.9442 267.897 75.777 266.381C72.8791 261.484 71.9398 255.675 71.4702 249.745C71.9398 249.276 72.1813 249.745 72.6375 249.973Z" fill="#231F20"/>
<path d="M71.9398 286.049C71.9398 287.914 70.0752 287.686 69.2569 289.188C64.1453 293.616 62.629 300.015 61.7033 306.415H61.2337C59.9592 297.573 63.5681 289.886 70.4237 285.351C71.1214 285.123 71.4703 285.7 71.9398 286.049Z" fill="#231F20"/>
<path d="M70.1954 297.922C63.4471 306.884 69.2564 317.013 71.0139 326.203C69.7259 325.975 69.4981 324.339 69.0285 323.292C65.8892 315.028 61.8241 303.047 69.0285 295.253C70.1958 294.313 71.0139 292.797 72.4092 292.341C74.8509 294.662 70.665 295.937 70.1954 297.922Z" fill="#231F20"/>
<path d="M219.866 219.706C219.517 219.358 218.699 218.553 218.94 217.734C219.289 218.311 219.745 219.009 219.866 219.706Z" fill="#BBBDBF"/>
<path d="M296.445 219.706C295.868 219.358 296.324 218.432 296.915 217.962C296.794 218.553 296.673 219.237 296.445 219.706Z" fill="#BBBDBF"/>
<path d="M149.445 306.415C150.263 310.144 151.779 314.33 150.853 318.288C151.202 318.516 151.43 318.865 151.886 318.758C154.342 315.605 153.174 310.963 152.826 307.582C157.132 312.814 157.602 320.153 157.95 326.901C158.179 327.478 158.648 327.478 159.118 327.25C161.546 324.446 159.346 320.502 160.043 317.014C163.532 322.125 163.424 329.571 162.954 335.394C163.303 335.635 163.531 336.091 164.001 335.863C164.819 335.045 165.289 333.998 165.396 332.724C166.563 338.654 165.638 345.402 163.424 351.225C164.457 334.937 153.416 321.079 140.268 312.237C140.496 310.614 142.12 308.628 143.864 307.81C144.212 309.675 142.938 312.237 144.561 313.405C147.365 310.721 143.756 304.671 147.7 302.927L149.445 306.415Z" fill="#BBBDBF"/>
<path d="M371.977 312.707C373.252 310.963 371.508 308.977 372.447 307.126C373.964 308.159 375.466 309.447 376.043 311.191C362.895 320.502 351.84 333.998 352.887 350.648C350.673 345.63 349.747 338.426 350.914 331.557C351.143 332.952 351.371 334.468 352.659 335.166C354.631 333.998 351.84 331.087 353.128 328.873C353.128 324.446 353.464 319.576 356.496 316.074C356.496 319.804 355.221 323.99 357.435 326.673C358.011 326.901 358.481 326.432 358.709 325.976C357.891 319.455 359.407 312.586 363.244 307.354C363.472 311.07 361.5 315.498 364.988 317.939L365.458 317.47C365.109 312.117 365.458 306.294 368.839 302.229C372.448 304.778 368.717 310.252 371.977 312.707Z" fill="#BBBDBF"/>
<path d="M171.917 318.986L170.522 318.758C171.917 317.59 174.238 318.06 175.875 316.772C177.861 315.028 178.545 312.707 180.41 310.721C178.424 314.102 176.331 318.637 171.917 318.986Z" fill="white"/>
<path d="M177.028 321.427C175.633 319.925 178.424 319.214 179.014 317.711C179.135 319.334 177.391 320.032 177.028 321.427Z" fill="white"/>
<path d="M176.801 325.506C179.135 323.292 181.107 320.153 182.395 317.013C182.502 320.381 179.363 323.413 176.801 325.506Z" fill="white"/>
<path d="M339.511 321.427C338.572 319.925 337.418 318.516 336.828 316.772C337.418 318.637 341.013 318.986 339.511 321.427Z" fill="white"/>
<path d="M342.878 321.897V322.823C342.53 322.943 342.422 322.595 342.181 322.353V321.427C342.529 321.32 342.65 321.669 342.878 321.897Z" fill="white"/>
<path d="M173.66 323.534C173.07 323.292 173.66 322.595 173.888 322.125H174.358L173.66 323.534Z" fill="white"/>
<path fill-rule="evenodd" clip-rule="evenodd" d="M186.553 229.312C187.264 229.648 185.922 227.998 185.963 227.126C186.003 226.267 185.091 228.937 185.091 228.937C185.091 228.937 185.855 228.964 186.553 229.312Z" fill="#231F20"/>
<path fill-rule="evenodd" clip-rule="evenodd" d="M226.373 91.1129C226.494 97.5124 226.266 104.838 226.145 110.888C225.917 111.358 225.448 111.13 224.992 111.13C224.643 103.791 224.643 97.1636 224.992 90.2945C225.568 90.2945 226.373 90.4152 226.373 91.1129Z" fill="white"/>
<path fill-rule="evenodd" clip-rule="evenodd" d="M153.523 176.292C153.523 176.292 156.408 176.587 157.414 177.929C158.433 179.284 161.157 183.456 164.699 181.645C164.699 181.645 165.758 183.456 162.485 183.456C159.332 183.456 157.535 181.081 156.636 179.512C155.737 177.929 154.61 177.432 153.765 177.231L153.523 176.292Z" fill="white"/>
<path fill-rule="evenodd" clip-rule="evenodd" d="M362.077 176.064C362.077 176.064 361.071 178.063 359.461 178.734C357.851 179.404 358.052 180.464 357.891 180.719C357.891 180.719 355.262 183.335 353.008 183.335C350.74 183.335 351.049 183.013 350.861 182.222C350.673 181.417 351.653 181.202 352.216 181.538C352.78 181.873 354.134 182.665 356.053 180.075C357.958 177.486 361.017 175.782 362.077 176.064Z" fill="white"/>
<path d="M198.105 246.244C203.807 267.548 195.542 287.565 190.538 307.126C191.343 302.806 192.054 297.694 191.813 293.039C189.25 285.58 194.617 278.603 191.343 271.734C191.584 268.716 189.961 265.791 187.748 263.47C187.506 258.238 188.432 252.415 185.064 248.457C183.2 248.685 180.758 249.276 179.242 248.001C180.53 242.635 182.395 237.63 184.018 232.519C191.115 233.324 196.24 239.965 198.105 246.244Z" fill="#F0B83D"/>
<path fill-rule="evenodd" clip-rule="evenodd" d="M231.27 27.3325C232.088 28.379 231.847 30.1231 231.511 31.2903C230.921 31.9879 230.344 32.3368 229.633 32.4575C229.982 30.9415 231.042 29.5462 230.344 27.9094C229.056 26.4068 227.554 24.4213 225.447 24.4213C223.475 24.6494 221.731 25.9372 220.685 27.5606C218.82 30.4719 221.838 32.8063 222.08 35.1273C220.685 34.4297 219.638 33.3832 218.94 31.9879C218.35 29.895 218.699 27.6814 219.866 25.9373C222.429 24.542 225.568 22.3283 228.6 24.1931C229.754 25.2396 230.572 26.1653 231.27 27.3325Z" fill="white"/>
<path fill-rule="evenodd" clip-rule="evenodd" d="M226.734 30.0024L226.144 33.1552C226.373 46.1822 226.842 58.7532 226.734 72.1291C226.144 72.7194 226.037 73.9939 224.991 73.8866C224.87 57.7067 224.052 43.7406 224.749 29.0768C225.568 29.0768 226.734 28.9559 226.734 30.0024Z" fill="white"/>
<path d="M101.039 307.81C100.113 305.717 99.8715 303.504 98.3555 301.76C101.267 300.364 104.406 297.332 104.406 293.737C104.648 291.523 103.132 289.886 102.434 287.914C104.299 285.928 107.089 284.654 108.713 282.091C105.345 290.356 103.601 299.546 101.039 307.81Z" fill="#F0B83D"/>
<path d="M99.0537 319.925C98.3561 319.925 97.31 317.939 96.3843 317.242C97.5515 316.195 99.0538 314.451 99.993 312.935C99.7649 315.256 99.7648 317.818 99.0537 319.925Z" fill="#F0B83D"/>
<path d="M343.12 327.478C344.166 328.994 344.167 331.785 344.167 333.77C345.683 353.317 337.418 370.544 320.889 380.203C300.161 395.337 275.959 404.527 258.625 425.241L257.928 425.469C248.147 412.912 233.832 404.876 221.154 396.504C216.485 394.518 212.528 391.379 207.993 389.165C205.202 387.072 201.942 385.784 199.272 383.343C182.623 373.925 171.796 359.019 172.145 339.821C173.07 336.44 171.34 331.677 172.735 328.645C174.13 327.827 176.223 329.235 177.968 328.417L179.014 327.948C179.242 328.766 178.196 330.269 179.712 331.087C181.577 331.208 183.092 330.617 184.837 330.04C182.744 349.829 192.51 366.827 209.509 375.897C226.265 385.208 243.961 393.351 258.156 408.136C260.356 408.256 260.356 405.694 261.765 404.648C277.945 388.937 298.887 382.417 316.234 369.148C327.866 359.019 333.219 344.825 331.354 329.571C333.46 329.571 336.01 331.785 337.646 329.571L336.828 326.901C338.572 328.417 341.255 328.524 343.12 327.478Z" fill="#F0B83D"/>
<path d="M221.154 244.848C221.154 244.848 237.347 242.125 242.673 239.267V389.635C242.673 389.635 242.364 390.534 240.111 388.736C237.87 386.925 220.912 377.762 220.912 377.762L221.154 244.848Z" fill="white"/>
<path d="M273.235 239.267C273.235 239.267 281.567 242.487 286.088 243.171C290.582 243.842 294.299 244.325 294.701 245.546V378.111C294.701 378.111 275.583 388.776 273.396 390.44L273.235 239.267Z" fill="white"/>
<path d="M225.903 123.017L226.077 187.159L225.353 192.874C225.353 192.874 224.642 183.242 224.642 178.05C224.642 172.871 224.642 124.626 224.642 124.626C224.642 124.626 224.642 123.017 225.903 123.017Z" fill="white"/>
</svg>
