<svg width="211" height="512" viewBox="0 0 211 512" fill="none" xmlns="http://www.w3.org/2000/svg">
<g clip-path="url(#clip0_12_18)">
<path d="M83.8628 512.46C37.76 512.46 0.252808 474.953 0.252808 428.85C0.252808 399.564 15.7439 372.258 40.794 357.173C42.2902 347.404 49.0885 346.033 55.6751 344.705C62.2394 343.381 70.4089 341.734 79.4438 332.704C86.4065 325.714 96.7171 303.863 96.7171 279.176V276.785C95.6362 251.5 77.3957 238.187 56.3745 222.846C32.331 205.299 5.07999 185.412 5.07999 142.932C5.07999 132.364 7.12131 122.721 11.3207 113.454C15.911 103.301 22.3136 95.2126 28.5055 87.3897C37.9432 75.4665 46.0939 65.1686 46.0939 50.1754C46.0939 18.9896 17.4177 17.7063 16.1971 17.6673L9.3162 17.4454L13.7172 12.1511C14.1133 11.6732 23.7275 0.459961 49.1647 0.459961C61.7454 0.459961 71.1102 3.71512 77.7944 10.4105C85.8827 18.5132 89.7987 31.5274 89.766 50.1971C89.766 63.5482 88.5214 75.2379 87.4236 85.5515C86.1595 97.4274 85.0676 107.684 86.0712 117.548C87.6654 133.237 94.4926 146.078 108.9 160.485C111.277 162.855 118.52 170.077 127.178 170.077C129.851 170.077 131.535 165.275 134.061 157.44C139.573 140.34 148.8 111.717 191.972 98.1344L194.477 97.3463L195.851 99.584C196.009 99.8412 199.761 106.032 203.447 118.924L204.224 121.643L201.68 122.877C198.4 124.469 195.546 126.072 193.415 127.428C196.484 127.024 199.904 126.281 201.734 125.824L205.091 124.984L205.837 128.363C209.161 143.428 210.847 160.403 210.847 178.82V182.186H207.481C188.552 182.186 171.509 188.359 156.827 200.534C144.821 210.489 134.652 224.561 128.192 240.158C119.595 260.912 119.804 278.662 124.973 283.83L127.02 285.877L125.301 288.208C125.228 288.308 118.605 297.328 112.623 308.489C113.817 308.672 115.38 308.812 117.367 308.812C124.19 308.812 136.256 305.081 140.61 300.727C141.514 299.837 142.645 299.358 143.814 299.358C145.377 299.358 146.808 300.22 147.549 301.607C148.353 303.112 148.224 304.923 147.202 306.451C137.631 320.928 125.266 323.204 116.238 324.865C107.116 326.544 102.953 327.311 102.953 336.994C102.953 346.676 107.008 348.256 109.29 349.182C135.821 357.642 156.314 378.635 164.123 405.364L164.19 405.588C164.468 406.551 164.727 407.516 164.97 408.487L165.134 409.158C165.345 410.032 165.544 410.905 165.727 411.784L165.873 412.517C166.021 413.265 166.158 414.015 166.286 414.768C166.286 414.768 166.411 415.505 166.461 415.824C166.592 416.661 166.712 417.5 166.817 418.345C166.853 418.627 166.943 419.443 166.943 419.443C167.015 420.081 167.079 420.721 167.136 421.363C167.136 421.363 167.206 422.131 167.224 422.356C167.293 423.249 167.343 424.148 167.383 425.05C167.383 425.05 167.403 425.355 167.407 425.458C167.411 425.555 167.415 425.889 167.415 425.889C167.45 426.878 167.473 427.861 167.473 428.85L167.472 428.953C167.473 429.447 167.463 429.992 167.453 430.536C167.453 430.536 167.434 431.284 167.424 431.583C167.169 440.183 165.619 448.569 162.816 456.496L162.64 456.994L162.585 457.067C159.468 465.763 154.949 473.84 149.147 481.083C148.642 481.711 148.169 482.285 147.688 482.854L147.508 483.066C147.046 483.609 146.58 484.142 146.107 484.669L145.946 484.851C145.417 485.437 144.883 486.014 144.34 486.583L144.278 486.648C143.8 487.147 143.303 487.652 142.8 488.153L142.177 488.761C141.862 489.068 141.547 489.373 141.228 489.673C140.97 489.917 140.707 490.161 140.444 490.403C140.175 490.651 139.904 490.896 139.632 491.14C139.337 491.404 139.041 491.668 138.743 491.928C138.564 492.085 138.044 492.526 138.044 492.526C136.816 493.573 135.538 494.599 134.247 495.577L133.8 495.915C133.396 496.216 132.986 496.513 132.575 496.809L132.043 497.189C131.633 497.479 131.217 497.767 130.798 498.052L130.297 498.388C129.855 498.684 129.413 498.977 128.965 499.264L128.74 499.406C127.24 500.361 125.689 501.281 124.121 502.143L123.558 502.453C123.135 502.681 122.71 502.906 122.282 503.127C122.047 503.249 121.807 503.371 121.568 503.492C121.161 503.698 120.751 503.903 120.339 504.103C120.133 504.203 119.374 504.561 119.374 504.561C119.031 504.723 118.687 504.886 118.34 505.043C118.061 505.169 117.78 505.292 117.498 505.414L117.271 505.513C116.719 505.753 116.164 505.989 115.604 506.219C115.16 506.401 114.741 506.573 114.32 506.737C114.089 506.828 113.437 507.073 113.437 507.073C112.998 507.239 112.559 507.403 112.117 507.561C111.838 507.661 111.563 507.758 111.286 507.854C110.793 508.025 110.293 508.192 109.792 508.356L109.122 508.573C108.43 508.792 107.734 509.004 107.033 509.205L106.92 509.238C105.395 509.675 103.788 510.083 102.156 510.448L101.926 510.499C96.0154 511.801 89.9372 512.461 83.8632 512.461L83.8628 512.46Z" fill="white"/>
<path d="M77.2538 84.5045C76.1853 94.4592 75.2091 103.682 75.5034 112.719C75.5034 112.719 48.0208 109.496 48.0208 88.8128C48.0208 75.3912 56.3599 72.118 56.3599 50.189V50.1721C56.3599 45.6787 55.8636 41.6899 54.9967 38.021C54.9967 38.021 62.2335 37.6339 62.2335 28.8404C62.2335 21.6036 57.3864 16.6893 56.1159 16.6893C55.0894 16.6893 54.7947 17.8168 52.548 17.8168C47.0277 17.8168 46.6406 10.782 46.6406 10.782H49.1821C64.9514 10.782 79.5512 15.5701 79.5512 50.2307C79.5512 63.0549 78.3396 74.4315 77.2538 84.5041V84.5045Z" fill="white"/>
<path d="M27.7914 405.488C27.0172 403.291 25.7467 401.911 24.2741 401.617L24.2152 401.659C23.1549 401.457 21.0006 401.457 18.8466 403.813C15.4217 407.473 13.8565 412.497 14.1174 418.606C14.1677 420.171 14.4118 421.055 14.8496 422.325C15.6237 424.572 17.534 426.028 18.9559 426.289C20.6135 426.583 22.4731 425.607 24.2152 423.545C28.0272 419.052 29.6848 410.746 27.7914 405.487V405.488ZM148.468 445.98C146.954 443.295 144.471 441.436 141.635 440.754L138.564 440.131C135.728 439.542 131.479 438.709 125.143 437.11C116.66 434.956 109.331 438.878 105.283 447.603C109.424 448.815 113.53 449.934 117.485 450.91C118.116 447.839 118.259 445.651 118.259 445.651C118.352 444.288 119.479 443.253 120.859 443.345C122.222 443.438 123.249 444.566 123.156 445.929C123.156 446.131 123.013 448.554 122.239 452.072C123.013 452.274 123.804 452.459 124.579 452.61C125.345 452.812 126.194 452.938 126.909 453.14C127.591 449.715 128.037 446.787 128.088 446.753C128.29 445.432 129.56 444.507 130.873 444.709C132.194 444.911 133.111 446.181 132.91 447.486C132.91 447.73 132.413 450.658 131.698 454.133C133.322 454.47 134.862 454.722 136.334 454.966C136.873 452.038 137.016 449.64 137.016 449.589C137.075 448.226 138.236 447.199 139.557 447.284C140.921 447.343 141.947 448.504 141.863 449.825C141.863 450.027 141.712 452.518 141.122 455.682C144.488 456.119 147.324 456.363 149.664 456.506L149.739 456.472C150.716 451.541 149.647 448.074 148.469 445.979L148.468 445.98ZM139.961 460.445C139.431 462.212 138.749 463.962 137.865 465.477C137.201 466.638 135.72 467.051 134.55 466.394C133.389 465.73 132.976 464.249 133.633 463.079C134.222 462.052 134.701 460.891 135.105 459.654C133.591 459.419 132.084 459.124 130.553 458.829C130.023 460.874 129.434 462.784 128.844 464.207C128.314 465.418 126.842 466.007 125.622 465.477C124.41 464.939 123.821 463.466 124.351 462.254C124.847 461.076 125.327 459.511 125.773 457.82C124.999 457.669 124.208 457.467 123.434 457.281C122.601 457.079 121.776 456.894 120.951 456.692C120.488 458.174 119.95 459.621 119.327 461.034C118.797 462.255 117.375 462.844 116.163 462.364C114.943 461.834 114.354 460.412 114.834 459.2C115.347 458.022 115.793 456.819 116.163 455.59C111.939 454.53 107.74 453.377 103.575 452.131C102.54 456.625 103.423 460.134 104.492 462.439H104.526C106.427 466.546 109.76 468.936 112.242 469.76C115.465 470.888 123.947 472.655 130.982 473.429C138.749 474.313 144.749 469.962 148.207 461.278C145.615 461.127 142.838 460.832 139.96 460.445H139.961ZM164.002 425.582C163.665 416.932 161.924 408.391 158.827 400.295H158.81C155.149 390.627 142.797 383.744 126.547 380.083C96.4644 373.292 56.9823 384.517 31.8977 405.673C32.8739 409.535 32.5791 414.121 31.2665 418.312C49.3836 428.031 75.6885 438.583 100.537 446.148C106.386 432.727 117.577 430.185 126.303 432.323C132.547 433.888 136.561 434.712 139.54 435.301L142.763 435.983C146.903 436.959 150.563 439.702 152.718 443.548C154.283 446.291 155.696 450.583 154.729 456.49C157.8 456.288 159.273 455.808 159.601 455.37C162.883 446.089 164.448 436.041 164.002 425.582ZM153.382 461.387C147.618 478.284 135.467 478.856 130.444 478.318L130.502 478.301C123.712 477.569 114.632 475.76 110.677 474.405C106.243 472.89 102.338 469.171 100.133 464.501C99.2499 462.548 98.4168 460.007 98.2737 456.877C98.181 455.017 98.3665 452.972 98.8966 450.734C73.9888 443.161 47.6336 432.617 29.3397 422.805C28.7086 423.983 27.9765 425.111 27.1433 426.079C25.7801 427.736 24.2148 428.915 22.5993 429.596C24.3076 444.877 29.6341 459.822 38.0825 472.857C49.2488 490.141 64.5304 501.997 80.9894 505.708C86.8379 507.037 94.4614 508.695 101.286 507.18C126.615 501.568 147.273 484.048 157.337 461C156.159 461.202 154.796 461.336 153.382 461.387L153.382 461.387ZM7.93224 402.871C8.66437 403.847 10.6167 405.353 12.8045 406.918H12.8634C13.6879 405.008 14.723 403.316 15.9346 401.844C16.9108 400.666 17.9793 399.74 19.0985 399.058C22.0856 385.149 28.3211 372.796 37.4176 363.422C23.8529 373.09 13.3932 386.857 7.93187 402.87L7.93224 402.871ZM11.2982 411.647C9.36271 410.234 7.66304 408.921 6.45972 407.801C4.35607 415.518 3.3799 423.672 3.71668 432.12C3.76699 433.829 3.91867 435.486 4.06172 437.144C5.28193 432.154 7.67168 426.987 11.0965 421.661C10.4654 418.539 10.5582 415.021 11.2985 411.647L11.2982 411.647ZM17.7608 430.025H17.7357C15.9939 429.579 14.4287 428.46 13.2505 426.853C7.28459 436.075 4.76005 444.322 6.95607 451.701C16.1366 482.761 43.51 505.657 76.3278 508.712C44.9825 499.195 21.8082 466.545 17.7608 430.025V430.025Z" fill="#000A3C"/>
<path d="M110.862 353.341C106.756 351.885 99.5443 350.211 99.5443 336.991C99.5443 312.293 126.581 331.471 144.362 304.577C145.245 303.256 143.974 302.095 142.948 303.105C137.571 308.482 124.351 312.176 117.325 312.176C110.299 312.176 107.715 310.56 107.715 310.56C114.304 297.383 122.55 286.208 122.55 286.208C105.999 269.656 133.835 178.818 207.439 178.818C207.439 157.722 205.201 141.288 202.508 129.086C200.758 129.524 186.882 132.805 186.259 129.86C185.721 127.26 196.458 121.647 200.169 119.847C196.567 107.25 192.94 101.343 192.94 101.343C129.821 121.202 142.502 173.441 127.137 173.441C117.123 173.441 109.264 165.641 106.478 162.863C90.1197 146.505 84.1703 132.545 82.6809 117.886C80.7372 98.7847 86.358 78.5047 86.358 50.1889C86.417 16.4538 73.2732 3.82324 49.1226 3.82324C24.9721 3.82324 16.2631 14.2995 16.2631 14.2995C16.2631 14.2995 49.4174 15.368 49.4174 50.172C49.4174 76.645 25.696 89.7299 14.3442 114.84C10.7594 122.75 8.40344 131.846 8.40344 142.928C8.40344 219.907 100.091 218.452 100.091 279.173H100.041C100.041 306.327 88.4621 328.374 81.7809 335.081C61.089 355.764 43.9478 340.693 43.8048 361.495C34.3802 369.994 27.6401 382.969 24.3327 397.721C24.5347 397.721 24.7198 397.771 24.9556 397.813C26.9079 398.158 28.5656 399.278 29.8361 401.028C56.141 379.604 96.6664 368.319 127.608 375.295C137.478 377.542 145.818 381.152 152.112 386.731C142.594 371.357 128.053 359.484 110.862 353.341ZM56.3595 50.1889V50.172C56.3595 45.6786 55.8631 41.6898 54.9962 38.0209C54.9962 38.0209 62.233 37.6338 62.233 28.8403C62.233 21.6035 57.386 16.6892 56.1154 16.6892C55.0889 16.6892 54.7942 17.8167 52.5475 17.8167C47.0273 17.8167 46.6402 10.7819 46.6402 10.7819H49.1816C64.9509 10.7819 79.5507 15.57 79.5507 50.2305C79.5507 63.0548 78.3391 74.4314 77.2533 84.504C76.1848 94.4587 75.2086 103.681 75.503 112.719C75.503 112.719 48.0203 109.496 48.0203 88.8123C48.0203 75.3907 56.3595 72.1175 56.3595 50.1885V50.1889Z" fill="#000A3C"/>
</g>
<defs>
<clipPath id="clip0_12_18">
<rect width="210.594" height="512" fill="white" transform="translate(0.252808 0.459961)"/>
</clipPath>
</defs>
</svg>
