<svg width="462" height="512" viewBox="0 0 462 512" fill="none" xmlns="http://www.w3.org/2000/svg">
<g clip-path="url(#clip0_1_2702)">
<mask id="mask0_1_2702" style="mask-type:luminance" maskUnits="userSpaceOnUse" x="-393" y="-377" width="1245" height="1246">
<path d="M-392.535 868.135H851.84V-376.239H-392.535V868.135Z" fill="white"/>
</mask>
<g mask="url(#mask0_1_2702)">
<path d="M458.579 19.2312V19.2002C389.423 8.68521 312.296 2.8143 230.959 2.8143C149.624 2.8143 72.4949 8.68521 3.34033 19.2002V19.5742L3.34624 209.149C3.39058 369.696 96.4811 459.987 227.258 507.989L230.975 509.181L230.987 509.186L234.699 507.989C365.479 459.987 458.559 369.696 458.608 209.149V19.6141V19.2312H458.579ZM230.975 247.209L230.928 247.162L231.222 247.456L230.975 247.209Z" fill="#2DAFE5"/>
<path d="M442.859 34.9493V34.9198C378.482 25.132 306.678 19.666 230.961 19.666C155.242 19.666 83.4405 25.132 19.063 34.9198V35.2686L19.0689 214.924C19.1088 364.382 105.771 448.439 227.514 493.125L230.976 494.235L230.986 494.24L234.442 493.125C356.189 448.439 442.84 364.382 442.886 214.924V35.307V34.9493H442.859Z" fill="#7C2C3B"/>
<path d="M335.558 411.777C338.912 415.136 344.282 411.58 349.788 406.077C355.29 400.573 358.845 395.203 355.488 391.843L145.357 186.999C142 183.638 135.999 184.199 131.955 188.243C127.911 192.287 127.352 198.287 130.708 201.643L335.558 411.777Z" fill="#D6A93A"/>
<path d="M151.874 183.867L169.061 163.651C169.061 163.651 170.684 161.489 168.159 158.418C161.53 150.349 148.238 138.577 148.238 138.577C146.319 137.138 145.013 137.488 142.884 139.532C132.362 149.62 105.587 175.497 103.976 177.174C101.951 179.26 101.022 180.665 101.67 184.241C102.32 187.846 104.24 193.84 100.925 199.656L82.8317 228.131C80.5659 231.606 79.9051 234.679 81.6153 236.347C82.5302 237.243 84.8286 238.281 89.5008 235.038C91.7371 233.489 116.338 216.927 124.178 210.478C128.77 206.7 132.275 203.264 132.275 203.264L147.122 188.703C147.122 188.703 150.247 185.635 151.874 183.867Z" fill="#F8D742"/>
<path d="M89.6188 233.213C84.481 236.694 84.4958 237.204 85.2126 237.108C86.3463 236.858 87.7579 236.249 89.502 235.037C91.7354 233.488 116.338 216.928 124.178 210.477C127.416 207.815 130.106 205.325 131.414 204.085C127.369 204.943 122.212 206.912 119.083 209.525C114.883 213.034 96.9707 228.229 89.6188 233.213Z" fill="#D6A93A"/>
<path d="M151.873 183.867L169.061 163.651C169.061 163.651 170.059 162.306 169.255 160.237C169.255 160.237 167.839 158.638 162.885 164.419C158.718 169.277 156.749 171.173 153.239 175.371C150.531 178.609 148.525 184.013 147.715 188.118C148.699 187.144 150.685 185.16 151.873 183.867Z" fill="#D6A93A"/>
<path d="M126.849 411.777C123.497 415.136 118.126 411.58 112.619 406.077C107.117 400.573 103.562 395.203 106.919 391.843L317.131 186.919C320.486 183.559 326.487 184.119 330.532 188.163C334.576 192.209 335.135 198.208 331.778 201.564L126.849 411.777Z" fill="#D6A93A"/>
<path d="M124.806 409.757L320.939 208.34C324.295 204.983 323.737 198.984 319.693 194.941C317.578 192.824 314.93 191.673 312.403 191.525L106.918 391.844C103.717 395.049 106.806 400.083 111.874 405.318C116.916 410.078 121.718 412.852 124.806 409.757Z" fill="#F8D742"/>
<path d="M310.613 183.788L293.427 163.572C293.427 163.572 291.804 161.41 294.326 158.338C300.957 150.269 314.247 138.498 314.247 138.498C316.169 137.058 317.477 137.409 319.603 139.453C330.125 149.541 356.899 175.417 358.511 177.095C360.536 179.18 361.466 180.586 360.816 184.162C360.167 187.767 358.245 193.76 361.562 199.576L379.655 228.052C381.92 231.526 382.582 234.599 380.873 236.268C379.957 237.164 377.661 238.201 372.986 234.959C370.751 233.41 346.15 216.848 338.309 210.399C333.717 206.621 330.212 203.184 330.212 203.184L315.366 188.624C315.366 188.624 312.24 185.555 310.613 183.788Z" fill="#F8D742"/>
<path d="M372.869 233.134C378.005 236.615 377.992 237.124 377.274 237.028C376.14 236.779 374.728 236.17 372.986 234.958C370.752 233.409 346.15 216.847 338.31 210.398C335.072 207.736 332.38 205.245 331.073 204.005C335.119 204.864 340.274 206.833 343.405 209.446C347.603 212.955 365.516 228.15 372.869 233.134Z" fill="#D6A93A"/>
<path d="M310.613 183.788L293.427 163.572C293.427 163.572 292.428 162.227 293.232 160.158C293.232 160.158 294.648 158.558 299.603 164.339C303.768 169.198 305.74 171.094 309.247 175.292C311.956 178.53 313.962 183.934 314.774 188.039C313.788 187.065 311.803 185.081 310.613 183.788Z" fill="#D6A93A"/>
<path d="M343.718 189.646C342.098 191.265 339.473 191.265 337.853 189.646L329.05 180.839C327.43 179.223 327.43 176.597 329.051 174.98C330.671 173.357 333.295 173.357 334.915 174.977L343.718 183.781C345.34 185.399 345.34 188.025 343.718 189.646Z" fill="#D6A93A"/>
<path d="M330.232 180.839C328.614 179.222 328.614 176.597 330.234 174.979C330.891 174.318 331.719 173.932 332.573 173.81C331.326 173.631 330.01 174.016 329.051 174.979C327.43 176.597 327.43 179.222 329.05 180.839L337.853 189.647C338.815 190.608 340.128 190.994 341.377 190.815C340.521 190.691 339.695 190.305 339.036 189.647L330.232 180.839Z" fill="#CDA938"/>
<path d="M334.105 184.071C333.929 184.243 333.647 184.246 333.471 184.071C333.297 183.894 333.297 183.612 333.471 183.436L337.508 179.399C337.685 179.223 337.967 179.222 338.142 179.396C338.316 179.573 338.316 179.854 338.142 180.032L334.105 184.071Z" fill="#D6A93A"/>
<path d="M335.438 185.412C335.268 185.587 334.989 185.588 334.813 185.412C334.64 185.242 334.643 184.96 334.813 184.788C334.986 184.618 335.267 184.615 335.44 184.788C335.613 184.961 335.613 185.242 335.438 185.412Z" fill="#D6A93A"/>
<path d="M332.666 182.642C332.498 182.812 332.214 182.813 332.044 182.642C331.872 182.469 331.872 182.188 332.041 182.018C332.214 181.845 332.496 181.845 332.666 182.018C332.84 182.188 332.839 182.469 332.666 182.642Z" fill="#D6A93A"/>
<path d="M335.922 177.176L334.538 175.791C334.362 175.616 334.077 175.618 333.903 175.794C333.727 175.971 333.727 176.252 333.903 176.428L334.123 176.65C334.203 176.732 334.206 176.86 334.132 176.947L330.556 180.521C330.382 180.698 330.382 180.983 330.556 181.155C330.732 181.331 331.018 181.331 331.192 181.158L334.779 177.569C334.865 177.508 334.983 177.514 335.062 177.588L335.285 177.811C335.462 177.987 335.747 177.984 335.922 177.811C336.096 177.636 336.099 177.355 335.922 177.176Z" fill="#D6A93A"/>
<path d="M343.312 184.626C343.168 184.425 342.886 184.38 342.684 184.527L340.342 186.222C340.248 186.297 340.109 186.29 340.022 186.2C339.945 186.124 339.93 186.009 339.976 185.917L340.455 184.957C340.534 184.799 340.508 184.612 340.404 184.479C340.401 184.478 340.4 184.475 340.4 184.475C340.393 184.467 340.388 184.456 340.379 184.451C340.375 184.447 340.37 184.441 340.367 184.436C340.362 184.432 340.357 184.428 340.354 184.423C340.347 184.42 340.341 184.411 340.331 184.405C340.331 184.405 340.326 184.404 340.325 184.401C340.192 184.299 340.008 184.272 339.847 184.352L338.889 184.828C338.796 184.877 338.68 184.861 338.604 184.784C338.517 184.694 338.51 184.558 338.58 184.463L340.279 182.12C340.425 181.918 340.379 181.64 340.18 181.492C339.977 181.346 339.698 181.392 339.555 181.593L336.202 186.216C336.074 186.393 336.096 186.634 336.241 186.787C336.247 186.792 336.254 186.8 336.26 186.809C336.26 186.809 336.264 186.81 336.269 186.812C336.4 186.934 336.597 186.97 336.77 186.883L338.413 186.065C338.505 186.024 338.614 186.04 338.688 186.115C338.768 186.195 338.78 186.314 338.728 186.407L337.921 188.035C337.834 188.205 337.871 188.404 337.991 188.538C337.992 188.541 337.998 188.545 337.998 188.545C338.004 188.551 338.011 188.556 338.016 188.563C338.17 188.711 338.412 188.732 338.591 188.6L343.213 185.251C343.412 185.107 343.458 184.825 343.312 184.626Z" fill="#D6A93A"/>
<path d="M151.273 192.765C148.723 192.71 145.965 193.795 143.804 195.955C140.045 199.715 139.525 205.293 142.645 208.413L226.616 294.459L240.905 280.171L151.273 192.765Z" fill="#F8D742"/>
<path d="M355.489 391.843L249.56 288.606C247.897 289.348 246.339 290.397 244.973 291.761C239.46 297.275 239.03 305.944 243.677 311.953L338.423 409.1C341.54 412.224 346.531 408.916 351.651 403.802C352.516 402.936 353.328 402.076 354.065 401.226C356.795 397.541 357.84 394.199 355.489 391.843Z" fill="#F8D742"/>
<path d="M333.911 183.877C333.736 184.048 333.454 184.051 333.277 183.877C333.102 183.699 333.102 183.415 333.277 183.241L337.313 179.204C337.491 179.029 337.773 179.027 337.949 179.201C338.123 179.377 338.123 179.66 337.949 179.837L333.911 183.877Z" fill="#F8D742"/>
<path d="M335.244 185.218C335.074 185.39 334.794 185.394 334.62 185.218C334.447 185.047 334.45 184.766 334.62 184.593C334.793 184.423 335.072 184.421 335.245 184.593C335.418 184.767 335.418 185.047 335.244 185.218Z" fill="#F8D742"/>
<path d="M332.472 182.447C332.302 182.616 332.021 182.619 331.849 182.447C331.678 182.275 331.679 181.994 331.848 181.822C332.021 181.651 332.302 181.651 332.472 181.822C332.646 181.994 332.645 182.275 332.472 182.447Z" fill="#F8D742"/>
<path d="M335.727 176.981L334.345 175.596C334.169 175.423 333.883 175.424 333.708 175.599C333.532 175.776 333.532 176.057 333.708 176.233L333.928 176.455C334.008 176.539 334.011 176.665 333.937 176.752L330.362 180.327C330.189 180.503 330.189 180.788 330.362 180.961C330.538 181.136 330.823 181.136 330.999 180.963L334.585 177.374C334.672 177.313 334.79 177.319 334.869 177.393L335.092 177.616C335.268 177.792 335.553 177.789 335.727 177.616C335.903 177.442 335.905 177.16 335.727 176.981Z" fill="#F8D742"/>
<path d="M343.117 184.431C342.974 184.232 342.693 184.186 342.491 184.332L340.149 186.028C340.053 186.103 339.914 186.096 339.829 186.005C339.75 185.931 339.736 185.815 339.783 185.723L340.26 184.762C340.34 184.604 340.313 184.418 340.211 184.286C340.208 184.285 340.206 184.28 340.206 184.28C340.198 184.272 340.194 184.263 340.185 184.257C340.182 184.251 340.177 184.246 340.173 184.242C340.167 184.239 340.164 184.236 340.16 184.23C340.152 184.226 340.146 184.217 340.136 184.211C340.136 184.211 340.132 184.21 340.13 184.207C339.997 184.105 339.814 184.078 339.653 184.158L338.695 184.635C338.602 184.684 338.487 184.666 338.411 184.589C338.324 184.501 338.317 184.363 338.386 184.27L340.084 181.926C340.231 181.726 340.185 181.444 339.987 181.298C339.784 181.153 339.503 181.197 339.362 181.398L336.008 186.023C335.881 186.199 335.901 186.44 336.046 186.592C336.052 186.598 336.06 186.605 336.067 186.614C336.067 186.614 336.07 186.616 336.074 186.619C336.206 186.741 336.404 186.775 336.575 186.688L338.22 185.871C338.311 185.831 338.421 185.847 338.495 185.923C338.574 186.001 338.587 186.119 338.535 186.214L337.727 187.843C337.641 188.011 337.677 188.209 337.798 188.344C337.799 188.348 337.804 188.35 337.804 188.353C337.81 188.358 337.817 188.361 337.823 188.369C337.977 188.518 338.219 188.537 338.396 188.409L343.02 185.058C343.219 184.913 343.264 184.631 343.117 184.431Z" fill="#F8D742"/>
<path d="M133.437 175.057C135.056 176.677 135.056 179.302 133.437 180.922L124.631 189.726C123.014 191.346 120.387 191.346 118.77 189.724C117.147 188.104 117.147 185.481 118.767 183.861L127.572 175.057C129.189 173.436 131.816 173.436 133.437 175.057Z" fill="#D6A93A"/>
<path d="M119.506 184.599L128.311 175.796C129.805 174.302 132.152 174.189 133.781 175.453C133.675 175.315 133.564 175.182 133.438 175.055C131.817 173.437 129.192 173.437 127.572 175.055L118.767 183.86C117.148 185.48 117.148 188.105 118.77 189.725C118.894 189.849 119.027 189.96 119.163 190.067C117.899 188.441 118.011 186.094 119.506 184.599Z" fill="#CDA938"/>
<path d="M127.668 185.307C127.842 185.482 127.842 185.766 127.668 185.941C127.493 186.116 127.208 186.116 127.032 185.94L122.995 181.903C122.82 181.727 122.82 181.444 122.995 181.269C123.17 181.093 123.454 181.093 123.63 181.269L127.668 185.307Z" fill="#D6A93A"/>
<path d="M129.01 183.974C129.18 184.144 129.184 184.425 129.01 184.599C128.837 184.769 128.555 184.768 128.388 184.599C128.215 184.426 128.213 184.145 128.385 183.974C128.559 183.8 128.839 183.801 129.01 183.974Z" fill="#D6A93A"/>
<path d="M126.239 186.746C126.409 186.916 126.412 187.197 126.239 187.369C126.067 187.541 125.785 187.54 125.615 187.371C125.444 187.197 125.444 186.916 125.614 186.746C125.787 186.57 126.067 186.575 126.239 186.746Z" fill="#D6A93A"/>
<path d="M120.773 183.492L119.389 184.872C119.213 185.051 119.213 185.335 119.391 185.509C119.567 185.684 119.849 185.685 120.025 185.509L120.247 185.287C120.329 185.209 120.458 185.206 120.547 185.28L124.119 188.854C124.295 189.028 124.579 189.028 124.753 188.854C124.929 188.68 124.931 188.394 124.755 188.218L121.167 184.633C121.105 184.547 121.11 184.427 121.185 184.349L121.408 184.127C121.584 183.95 121.583 183.665 121.408 183.492C121.234 183.314 120.95 183.314 120.773 183.492Z" fill="#D6A93A"/>
<path d="M128.224 176.101C128.023 176.244 127.977 176.528 128.123 176.727L129.822 179.067C129.893 179.165 129.887 179.305 129.8 179.391C129.723 179.468 129.606 179.481 129.516 179.435L128.555 178.959C128.394 178.878 128.211 178.904 128.079 179.006C128.076 179.008 128.073 179.012 128.07 179.014C128.064 179.018 128.055 179.024 128.049 179.033C128.044 179.037 128.039 179.04 128.036 179.045C128.032 179.049 128.026 179.054 128.023 179.058C128.015 179.066 128.01 179.073 128.002 179.082C128.002 179.082 127.999 179.086 127.998 179.089C127.896 179.219 127.871 179.403 127.95 179.564L128.426 180.523C128.472 180.615 128.457 180.731 128.381 180.807C128.293 180.897 128.156 180.901 128.06 180.832L125.717 179.134C125.516 178.986 125.235 179.033 125.092 179.23C124.944 179.432 124.991 179.713 125.191 179.858L129.813 183.21C129.992 183.339 130.231 183.318 130.386 183.172C130.391 183.164 130.4 183.158 130.403 183.151C130.403 183.151 130.408 183.147 130.413 183.142C130.531 183.012 130.567 182.814 130.481 182.643L129.664 180.997C129.624 180.907 129.638 180.798 129.714 180.725C129.792 180.644 129.913 180.631 130.005 180.683L131.634 181.488C131.804 181.575 132.002 181.541 132.136 181.422C132.138 181.419 132.139 181.416 132.142 181.414C132.15 181.407 132.154 181.402 132.161 181.394C132.309 181.241 132.33 180.999 132.201 180.823L128.848 176.198C128.706 176 128.423 175.956 128.224 176.101Z" fill="#D6A93A"/>
<path d="M127.668 184.864C127.842 185.038 127.842 185.321 127.668 185.5C127.493 185.673 127.208 185.673 127.032 185.497L122.995 181.461C122.82 181.284 122.82 180.999 122.995 180.826C123.17 180.651 123.454 180.651 123.63 180.826L127.668 184.864Z" fill="#F8D742"/>
<path d="M129.01 183.53C129.18 183.702 129.184 183.983 129.01 184.156C128.837 184.327 128.555 184.326 128.388 184.156C128.215 183.983 128.213 183.703 128.385 183.529C128.559 183.356 128.839 183.359 129.01 183.53Z" fill="#F8D742"/>
<path d="M126.239 186.302C126.409 186.47 126.412 186.754 126.239 186.925C126.067 187.098 125.785 187.095 125.615 186.927C125.444 186.754 125.444 186.473 125.614 186.302C125.787 186.127 126.067 186.13 126.239 186.302Z" fill="#F8D742"/>
<path d="M120.773 183.047L119.389 184.429C119.213 184.607 119.213 184.89 119.391 185.065C119.567 185.239 119.849 185.241 120.025 185.065L120.247 184.845C120.329 184.765 120.458 184.763 120.547 184.836L124.119 188.411C124.295 188.586 124.579 188.586 124.753 188.411C124.929 188.235 124.931 187.952 124.755 187.777L121.167 184.188C121.105 184.104 121.11 183.984 121.185 183.906L121.408 183.684C121.584 183.505 121.583 183.222 121.408 183.047C121.234 182.87 120.95 182.87 120.773 183.047Z" fill="#F8D742"/>
<path d="M128.224 175.656C128.023 175.801 127.977 176.085 128.123 176.283L129.822 178.624C129.893 178.722 129.887 178.861 129.8 178.948C129.723 179.023 129.606 179.038 129.516 178.991L128.555 178.515C128.394 178.434 128.211 178.462 128.079 178.564C128.076 178.565 128.073 178.568 128.07 178.57C128.064 178.574 128.055 178.58 128.049 178.589C128.044 178.593 128.039 178.596 128.036 178.601C128.032 178.605 128.026 178.609 128.023 178.615C128.015 178.621 128.01 178.63 128.002 178.637C128.002 178.637 127.999 178.643 127.998 178.646C127.896 178.778 127.871 178.96 127.95 179.119L128.426 180.079C128.472 180.173 128.457 180.287 128.381 180.364C128.293 180.453 128.156 180.457 128.06 180.39L125.717 178.689C125.516 178.543 125.235 178.589 125.092 178.787C124.944 178.989 124.991 179.27 125.191 179.413L129.813 182.766C129.992 182.896 130.231 182.874 130.386 182.729C130.391 182.721 130.4 182.714 130.403 182.708C130.406 182.707 130.408 182.704 130.413 182.699C130.531 182.569 130.567 182.37 130.481 182.2L129.664 180.555C129.624 180.463 129.638 180.354 129.714 180.281C129.792 180.201 129.913 180.187 130.005 180.238L131.634 181.045C131.804 181.132 132.002 181.097 132.136 180.977C132.138 180.974 132.139 180.971 132.142 180.971C132.15 180.964 132.154 180.957 132.161 180.949C132.309 180.797 132.33 180.556 132.201 180.379L128.848 175.755C128.706 175.556 128.423 175.511 128.224 175.656Z" fill="#F8D742"/>
<path d="M148.344 124.649C140.402 125.402 132.845 120.075 132.623 111.728C132.382 104.042 132.14 96.3576 131.899 88.6731C135.504 88.3908 137.308 88.2563 140.916 88.0006C141.135 95.6866 141.355 103.373 141.574 111.059C141.684 114.884 144.244 116.743 148.076 116.49C148.608 116.455 148.874 116.437 149.406 116.403C153.239 116.155 155.694 113.969 155.603 110.142C155.416 102.455 155.232 94.7687 155.047 87.0827C158.658 86.8684 160.464 86.7679 164.076 86.5802C164.239 94.2661 164.403 101.954 164.566 109.641C164.697 118.029 157.765 124.184 149.671 124.562C149.14 124.598 148.874 124.614 148.344 124.649Z" fill="white"/>
<path d="M170.975 86.3056C175.167 86.106 177.264 86.0159 181.459 85.8518C186.171 93.4343 190.851 101.038 195.498 108.66C195.539 108.66 195.56 108.658 195.6 108.657C195.524 100.902 195.448 93.1446 195.372 85.3877C198.988 85.2872 200.797 85.2428 204.414 85.1689C204.517 97.332 204.619 109.494 204.722 121.657C200.594 121.741 198.531 121.793 194.404 121.912C189.757 114.312 185.076 106.731 180.362 99.1707C180.321 99.1722 180.3 99.1737 180.26 99.1751C180.373 106.914 180.486 114.654 180.6 122.393C177.028 122.538 175.241 122.616 171.67 122.787C171.438 110.627 171.207 98.4657 170.975 86.3056Z" fill="white"/>
<path d="M211.059 85.065C214.676 85.0074 216.485 84.9852 220.104 84.9542C220.147 97.1172 220.188 109.28 220.231 121.443C216.655 121.473 214.867 121.495 211.291 121.553C211.215 109.39 211.136 97.2281 211.059 85.065Z" fill="white"/>
<path d="M238.299 92.5833C233.645 92.5581 231.318 92.5566 226.664 92.5744C226.659 89.5133 226.657 87.982 226.652 84.9194C237.446 84.9121 248.232 85.0096 259.023 85.2136C258.997 88.2747 258.983 89.806 258.955 92.8685C254.302 92.7651 251.976 92.7251 247.321 92.6645C247.273 102.276 247.222 111.887 247.174 121.497C243.598 121.451 241.81 121.435 238.234 121.416C238.255 111.806 238.277 102.194 238.299 92.5833Z" fill="white"/>
<path d="M265.572 85.3507C273.735 85.5961 281.894 85.8932 290.055 86.2464C289.997 89.3075 289.969 90.8388 289.911 93.8999C283.752 93.6131 280.67 93.489 274.507 93.2791C274.47 95.9322 274.452 97.2595 274.415 99.9127C279.435 100.084 281.945 100.182 286.961 100.405C286.906 103.466 286.88 104.997 286.825 108.058C281.82 107.837 279.318 107.738 274.31 107.568C274.272 110.323 274.254 111.7 274.216 114.455C280.625 114.674 283.828 114.806 290.234 115.109C290.176 118.17 290.146 119.701 290.089 122.762C281.785 122.397 273.483 122.088 265.174 121.837C265.307 109.675 265.439 97.5123 265.572 85.3507Z" fill="white"/>
<path d="M296.921 86.5131C302.703 86.8073 305.593 86.9713 311.369 87.3335C321.859 87.7252 330.107 96.3039 329.818 106.831C329.536 117.16 320.696 124.798 310.442 123.809C304.732 123.45 301.877 123.286 296.161 122.993C296.415 110.833 296.668 98.6732 296.921 86.5131ZM310.28 116.135C316.464 116.522 320.347 113.127 320.545 106.139C320.743 99.2009 316.885 95.3431 310.815 94.9633C308.797 94.8376 307.788 94.777 305.77 94.6588C305.603 101.717 305.436 108.774 305.269 115.832C307.273 115.949 308.275 116.01 310.28 116.135Z" fill="white"/>
<path d="M56.261 43.8298C60.9613 43.2356 63.3129 42.9489 68.0176 42.3975C70.1283 52.7559 72.2375 63.1142 74.3482 73.474C74.3984 73.4681 74.425 73.4652 74.4753 73.4592C76.8904 62.5924 79.3056 51.7257 81.7237 40.8589C85.7766 40.4243 87.8045 40.2159 91.8589 39.8124C94.2149 50.187 96.5695 60.5601 98.9226 70.9347C98.9743 70.9288 98.9995 70.9273 99.0512 70.9214C101.333 60.1108 103.618 49.3001 105.905 38.491C110.543 38.0786 112.864 37.882 117.505 37.511C113.634 53.1195 109.767 68.7309 105.905 84.3423C100.463 84.8256 97.7431 85.0813 92.3053 85.6193C90.4562 76.8514 88.6086 68.0835 86.7595 59.3141C86.7078 59.32 86.6827 59.323 86.6309 59.3274C84.7819 68.4781 82.9343 77.6274 81.0882 86.7782C75.6016 87.3694 72.8597 87.6783 67.379 88.3242C63.675 73.4918 59.968 58.6608 56.261 43.8298Z" fill="white"/>
<path d="M351.585 38.1595C356.634 38.594 359.159 38.8231 364.205 39.305C367.539 49.146 370.869 58.9885 374.197 68.8339C374.248 68.8383 374.273 68.8413 374.325 68.8457C377.651 59.6891 380.979 50.5324 384.311 41.3772C389.3 41.9286 391.793 42.2168 396.779 42.8154C399.526 58.4371 402.271 74.0589 405.016 89.6821C400.391 89.0968 398.078 88.8145 393.45 88.2706C392.095 78.0689 390.739 67.8672 389.384 57.6641C389.332 57.6582 389.307 57.6552 389.255 57.6493C385.975 67.3307 382.698 77.0136 379.423 86.6964C375.37 86.2633 373.344 86.0549 369.288 85.6514C365.946 75.2857 362.601 64.9215 359.252 54.5572C359.202 54.5528 359.175 54.5513 359.125 54.5454C357.936 64.4839 356.749 74.421 355.563 84.3596C350.848 83.9398 348.49 83.7403 343.772 83.3619C346.375 68.2944 348.979 53.2269 351.585 38.1595Z" fill="white"/>
<path d="M121.985 37.2481C132.302 36.4736 142.622 35.7907 152.952 35.2024C152.729 39.0617 152.617 40.992 152.394 44.8513C145.997 45.2193 139.601 45.6169 133.207 46.0426C133.207 49.3786 133.207 51.0459 133.207 54.3804C139.468 53.9459 142.6 53.7478 148.864 53.3871V63.0064C142.6 63.3671 139.468 63.5652 133.207 63.9997C133.207 67.4614 133.207 69.1937 133.207 72.6568C139.9 72.1927 146.595 71.7788 153.292 71.4167C153.292 75.2641 153.292 77.1871 153.294 81.0345C142.85 81.6287 132.416 82.316 121.985 83.0994C121.985 67.8161 121.985 52.5313 121.985 37.2481Z" fill="white"/>
<path d="M205.741 43.017C199.941 43.1161 197.041 43.1796 191.243 43.3407C191.243 39.4933 191.243 37.5688 191.243 33.7214C204.658 33.3815 218.068 33.21 231.486 33.2056C231.486 37.0545 231.486 38.9775 231.486 42.8264C225.686 42.8131 222.785 42.8234 216.985 42.8737C216.985 54.951 216.985 67.0283 216.985 79.1057C212.487 79.1441 210.239 79.1722 205.741 79.249C205.741 67.1717 205.741 55.0944 205.741 43.017Z" fill="white"/>
<path d="M250.16 33.3024C254.658 33.357 256.906 33.394 261.404 33.4856V51.8256C267.901 51.9763 274.396 52.1552 280.892 52.3665V34.0266C285.389 34.1833 287.637 34.2705 292.132 34.4656V80.3169C287.637 80.1233 285.389 80.0346 280.892 79.8779V61.9223C274.396 61.7109 267.901 61.5306 261.404 61.3813V79.3369C256.906 79.2453 254.658 79.2083 250.16 79.1537C250.16 63.8704 250.16 48.5856 250.16 33.3024Z" fill="white"/>
<path d="M325.77 72.538C319.603 72.1182 316.518 71.9276 310.347 71.5787C309.243 75.3641 308.692 77.2575 307.588 81.0443C302.966 80.7931 300.656 80.6778 296.032 80.4664C300.67 65.4167 305.313 50.3699 309.96 35.3246C316.02 35.6645 319.05 35.8522 325.107 36.2602C330.124 51.9086 335.133 67.5584 340.133 83.2112C335.517 82.8476 333.21 82.6761 328.593 82.3524C327.463 78.4252 326.899 76.4623 325.77 72.538ZM318.027 46.2549C316.344 51.7534 314.66 57.2518 312.978 62.7517C317.045 62.9897 319.075 63.1153 323.14 63.3843C321.479 57.676 319.819 51.9692 318.156 46.2623C318.104 46.2594 318.079 46.2579 318.027 46.2549Z" fill="white"/>
<path d="M174.206 33.4646C165.835 33.7616 156.345 38.9172 156.283 48.3295C156.187 62.6979 177.764 58.8416 179.096 66.6931C179.465 68.8659 177.018 70.6898 173.92 70.6854C168.149 70.6795 163.598 69.5547 158.883 67.135C158.654 71.0948 158.465 73.1774 158.311 76.7721C163.177 80.0342 168.205 80.7363 173.64 80.8782C181.711 81.0866 191.417 75.4906 191.498 66.0531C191.621 51.7956 170.23 55.0222 168.68 47.6082C168.282 45.7089 170.601 43.8391 174.064 43.6411C179.355 43.3396 183.159 44.6506 186.056 45.8419C186.287 41.2821 186.356 40.6302 186.613 36.1916C184.065 34.7298 180.052 33.2561 174.206 33.4646Z" fill="white"/>
</g>
<path d="M164.592 412.272L170.054 414.658L162.351 432.291L171.465 436.273L169.42 440.954L154.844 434.588L164.592 412.272Z" fill="white"/>
<mask id="mask1_1_2702" style="mask-type:luminance" maskUnits="userSpaceOnUse" x="-393" y="-377" width="1245" height="1246">
<path d="M-392.535 868.135H851.84V-376.239H-392.535V868.135Z" fill="white"/>
</mask>
<g mask="url(#mask1_1_2702)">
<path d="M191.557 421.896C198.651 423.844 202.396 430.523 200.547 437.256C198.652 444.152 191.985 448.112 184.891 446.163C177.798 444.214 174.088 437.403 175.983 430.508C177.832 423.776 184.464 419.947 191.557 421.896ZM186.334 440.909C189.849 441.875 193.503 439.629 194.602 435.622C195.658 431.781 193.628 428.115 190.115 427.15C186.6 426.185 182.983 428.299 181.926 432.14C180.827 436.147 182.821 439.944 186.334 440.909Z" fill="white"/>
<path d="M206.253 425.915L212.251 426.526L217.808 438.526C218.594 440.215 219.419 442.867 219.419 442.867L219.487 442.875C219.487 442.875 219.481 440.238 219.636 438.712L220.789 427.395L226.719 427.999L224.253 452.226L218.288 451.619L212.694 439.649C211.908 437.96 211.083 435.308 211.083 435.308L211.015 435.301C211.015 435.301 211.019 437.938 210.864 439.463L209.716 450.747L203.786 450.142L206.253 425.915Z" fill="white"/>
<path d="M230.921 428.064L239.561 427.598C247.213 427.186 252.35 431.378 252.763 439.031C253.174 446.683 248.522 451.505 240.869 451.917L232.231 452.381L230.921 428.064ZM240.357 446.828C244.472 446.607 246.856 444.023 246.607 439.362C246.357 434.738 243.611 432.497 239.596 432.714L237.149 432.846L237.908 446.96L240.357 446.828Z" fill="white"/>
<path d="M265.487 423.767C272.672 422.187 279.099 426.354 280.599 433.172C282.135 440.157 278.079 446.769 270.894 448.35C263.709 449.93 257.253 445.631 255.717 438.645C254.217 431.825 258.302 425.347 265.487 423.767ZM269.723 443.028C273.282 442.244 275.47 438.555 274.577 434.496C273.721 430.605 270.217 428.306 266.658 429.09C263.098 429.871 260.881 433.429 261.737 437.321C262.63 441.378 266.164 443.81 269.723 443.028Z" fill="white"/>
<path d="M280.346 420.496L285.936 418.241L296.443 426.265C297.927 427.393 299.893 429.353 299.893 429.353L299.955 429.328C299.955 429.328 298.723 426.998 298.149 425.576L293.894 415.03L299.419 412.8L308.53 435.379L302.972 437.621L292.445 429.641C290.961 428.515 288.995 426.553 288.995 426.553L288.932 426.578C288.932 426.578 290.166 428.908 290.74 430.33L294.983 440.845L289.457 443.075L280.346 420.496Z" fill="white"/>
</g>
</g>
<defs>
<clipPath id="clip0_1_2702">
<rect width="461.156" height="512" fill="white" transform="translate(0.395752)"/>
</clipPath>
</defs>
</svg>
