<svg width="510" height="444" viewBox="0 0 510 444" fill="none" xmlns="http://www.w3.org/2000/svg">
<g clip-path="url(#clip0_1_3218)">
<path d="M128.136 0.253174L0.133545 222.052L128.136 443.832H384.141L512.134 222.052L384.141 0.253174H128.136Z" fill="white"/>
<path d="M381.385 5.0188C382.739 7.36299 505.285 219.716 506.64 222.053C505.286 224.389 382.741 436.732 381.385 439.076H130.884C129.537 436.731 6.98271 224.388 5.63745 222.051C6.98271 219.716 129.537 7.36299 130.884 5.0188H381.385Z" fill="black"/>
<path d="M152.008 41.6433L47.896 222.052L152.008 402.442H360.241L464.371 222.052L360.241 41.6433H152.008Z" fill="white"/>
<path d="M356.578 47.9973C358.363 51.0897 455.253 218.969 457.028 222.051C455.253 225.145 358.363 392.995 356.578 396.089H155.671C153.895 392.995 57.0053 225.145 55.2219 222.051C57.0066 218.968 153.895 51.0897 155.671 47.9973H356.578Z" fill="#F6A800"/>
<path d="M226.866 139.537H285.186L316.374 61.3064L400.8 232.773L309.506 286.721L280.244 382.78H232.024L202.854 286.572L111.467 232.773L195.753 61.3064L226.866 139.537Z" fill="black"/>
<path d="M316.444 202.922V249.068H273.316L316.444 202.922Z" fill="white"/>
<path d="M195.823 249.068V202.922L238.878 249.068H195.823Z" fill="white"/>
</g>
<defs>
<clipPath id="clip0_1_3218">
<rect width="512" height="443.579" fill="white" transform="translate(0.133545 0.253174)"/>
</clipPath>
</defs>
</svg>
